<?xml version="1.0" encoding="utf-8" standalone="no"?>
<!DOCTYPE svg PUBLIC "-//W3C//DTD SVG 1.1//EN"
  "http://www.w3.org/Graphics/SVG/1.1/DTD/svg11.dtd">
<!-- Created with matplotlib (https://matplotlib.org/) -->
<svg height="504pt" version="1.1" viewBox="0 0 864 504" width="864pt" xmlns="http://www.w3.org/2000/svg" xmlns:xlink="http://www.w3.org/1999/xlink">
 <defs>
  <style type="text/css">
*{stroke-linecap:butt;stroke-linejoin:round;}
  </style>
 </defs>
 <g id="figure_1">
  <g id="patch_1">
   <path d="M 0 504 
L 864 504 
L 864 0 
L 0 0 
z
" style="fill:#ffffff;"/>
  </g>
  <g id="axes_1">
   <g id="patch_2">
    <path d="M 44.31 465.54 
L 853.2 465.54 
L 853.2 25.44 
L 44.31 25.44 
z
" style="fill:#eaeaf2;"/>
   </g>
   <g id="matplotlib.axis_1">
    <g id="xtick_1">
     <g id="line2d_1">
      <path clip-path="url(#p11906a0ea4)" d="M 81.077727 465.54 
L 81.077727 25.44 
" style="fill:none;stroke:#ffffff;stroke-linecap:round;stroke-width:0.8;"/>
     </g>
     <g id="line2d_2"/>
     <g id="text_1">
      <!-- 0 -->
      <defs>
       <path d="M 31.78125 66.40625 
Q 24.171875 66.40625 20.328125 58.90625 
Q 16.5 51.421875 16.5 36.375 
Q 16.5 21.390625 20.328125 13.890625 
Q 24.171875 6.390625 31.78125 6.390625 
Q 39.453125 6.390625 43.28125 13.890625 
Q 47.125 21.390625 47.125 36.375 
Q 47.125 51.421875 43.28125 58.90625 
Q 39.453125 66.40625 31.78125 66.40625 
z
M 31.78125 74.21875 
Q 44.046875 74.21875 50.515625 64.515625 
Q 56.984375 54.828125 56.984375 36.375 
Q 56.984375 17.96875 50.515625 8.265625 
Q 44.046875 -1.421875 31.78125 -1.421875 
Q 19.53125 -1.421875 13.0625 8.265625 
Q 6.59375 17.96875 6.59375 36.375 
Q 6.59375 54.828125 13.0625 64.515625 
Q 19.53125 74.21875 31.78125 74.21875 
z
" id="DejaVuSans-48"/>
      </defs>
      <g style="fill:#262626;" transform="translate(77.896477 476.638438)scale(0.1 -0.1)">
       <use xlink:href="#DejaVuSans-48"/>
      </g>
     </g>
    </g>
    <g id="xtick_2">
     <g id="line2d_3">
      <path clip-path="url(#p11906a0ea4)" d="M 229.634201 465.54 
L 229.634201 25.44 
" style="fill:none;stroke:#ffffff;stroke-linecap:round;stroke-width:0.8;"/>
     </g>
     <g id="line2d_4"/>
     <g id="text_2">
      <!-- 2 -->
      <defs>
       <path d="M 19.1875 8.296875 
L 53.609375 8.296875 
L 53.609375 0 
L 7.328125 0 
L 7.328125 8.296875 
Q 12.9375 14.109375 22.625 23.890625 
Q 32.328125 33.6875 34.8125 36.53125 
Q 39.546875 41.84375 41.421875 45.53125 
Q 43.3125 49.21875 43.3125 52.78125 
Q 43.3125 58.59375 39.234375 62.25 
Q 35.15625 65.921875 28.609375 65.921875 
Q 23.96875 65.921875 18.8125 64.3125 
Q 13.671875 62.703125 7.8125 59.421875 
L 7.8125 69.390625 
Q 13.765625 71.78125 18.9375 73 
Q 24.125 74.21875 28.421875 74.21875 
Q 39.75 74.21875 46.484375 68.546875 
Q 53.21875 62.890625 53.21875 53.421875 
Q 53.21875 48.921875 51.53125 44.890625 
Q 49.859375 40.875 45.40625 35.40625 
Q 44.1875 33.984375 37.640625 27.21875 
Q 31.109375 20.453125 19.1875 8.296875 
z
" id="DejaVuSans-50"/>
      </defs>
      <g style="fill:#262626;" transform="translate(226.452951 476.638438)scale(0.1 -0.1)">
       <use xlink:href="#DejaVuSans-50"/>
      </g>
     </g>
    </g>
    <g id="xtick_3">
     <g id="line2d_5">
      <path clip-path="url(#p11906a0ea4)" d="M 378.190675 465.54 
L 378.190675 25.44 
" style="fill:none;stroke:#ffffff;stroke-linecap:round;stroke-width:0.8;"/>
     </g>
     <g id="line2d_6"/>
     <g id="text_3">
      <!-- 4 -->
      <defs>
       <path d="M 37.796875 64.3125 
L 12.890625 25.390625 
L 37.796875 25.390625 
z
M 35.203125 72.90625 
L 47.609375 72.90625 
L 47.609375 25.390625 
L 58.015625 25.390625 
L 58.015625 17.1875 
L 47.609375 17.1875 
L 47.609375 0 
L 37.796875 0 
L 37.796875 17.1875 
L 4.890625 17.1875 
L 4.890625 26.703125 
z
" id="DejaVuSans-52"/>
      </defs>
      <g style="fill:#262626;" transform="translate(375.009425 476.638438)scale(0.1 -0.1)">
       <use xlink:href="#DejaVuSans-52"/>
      </g>
     </g>
    </g>
    <g id="xtick_4">
     <g id="line2d_7">
      <path clip-path="url(#p11906a0ea4)" d="M 526.747149 465.54 
L 526.747149 25.44 
" style="fill:none;stroke:#ffffff;stroke-linecap:round;stroke-width:0.8;"/>
     </g>
     <g id="line2d_8"/>
     <g id="text_4">
      <!-- 6 -->
      <defs>
       <path d="M 33.015625 40.375 
Q 26.375 40.375 22.484375 35.828125 
Q 18.609375 31.296875 18.609375 23.390625 
Q 18.609375 15.53125 22.484375 10.953125 
Q 26.375 6.390625 33.015625 6.390625 
Q 39.65625 6.390625 43.53125 10.953125 
Q 47.40625 15.53125 47.40625 23.390625 
Q 47.40625 31.296875 43.53125 35.828125 
Q 39.65625 40.375 33.015625 40.375 
z
M 52.59375 71.296875 
L 52.59375 62.3125 
Q 48.875 64.0625 45.09375 64.984375 
Q 41.3125 65.921875 37.59375 65.921875 
Q 27.828125 65.921875 22.671875 59.328125 
Q 17.53125 52.734375 16.796875 39.40625 
Q 19.671875 43.65625 24.015625 45.921875 
Q 28.375 48.1875 33.59375 48.1875 
Q 44.578125 48.1875 50.953125 41.515625 
Q 57.328125 34.859375 57.328125 23.390625 
Q 57.328125 12.15625 50.6875 5.359375 
Q 44.046875 -1.421875 33.015625 -1.421875 
Q 20.359375 -1.421875 13.671875 8.265625 
Q 6.984375 17.96875 6.984375 36.375 
Q 6.984375 53.65625 15.1875 63.9375 
Q 23.390625 74.21875 37.203125 74.21875 
Q 40.921875 74.21875 44.703125 73.484375 
Q 48.484375 72.75 52.59375 71.296875 
z
" id="DejaVuSans-54"/>
      </defs>
      <g style="fill:#262626;" transform="translate(523.565899 476.638438)scale(0.1 -0.1)">
       <use xlink:href="#DejaVuSans-54"/>
      </g>
     </g>
    </g>
    <g id="xtick_5">
     <g id="line2d_9">
      <path clip-path="url(#p11906a0ea4)" d="M 675.303623 465.54 
L 675.303623 25.44 
" style="fill:none;stroke:#ffffff;stroke-linecap:round;stroke-width:0.8;"/>
     </g>
     <g id="line2d_10"/>
     <g id="text_5">
      <!-- 8 -->
      <defs>
       <path d="M 31.78125 34.625 
Q 24.75 34.625 20.71875 30.859375 
Q 16.703125 27.09375 16.703125 20.515625 
Q 16.703125 13.921875 20.71875 10.15625 
Q 24.75 6.390625 31.78125 6.390625 
Q 38.8125 6.390625 42.859375 10.171875 
Q 46.921875 13.96875 46.921875 20.515625 
Q 46.921875 27.09375 42.890625 30.859375 
Q 38.875 34.625 31.78125 34.625 
z
M 21.921875 38.8125 
Q 15.578125 40.375 12.03125 44.71875 
Q 8.5 49.078125 8.5 55.328125 
Q 8.5 64.0625 14.71875 69.140625 
Q 20.953125 74.21875 31.78125 74.21875 
Q 42.671875 74.21875 48.875 69.140625 
Q 55.078125 64.0625 55.078125 55.328125 
Q 55.078125 49.078125 51.53125 44.71875 
Q 48 40.375 41.703125 38.8125 
Q 48.828125 37.15625 52.796875 32.3125 
Q 56.78125 27.484375 56.78125 20.515625 
Q 56.78125 9.90625 50.3125 4.234375 
Q 43.84375 -1.421875 31.78125 -1.421875 
Q 19.734375 -1.421875 13.25 4.234375 
Q 6.78125 9.90625 6.78125 20.515625 
Q 6.78125 27.484375 10.78125 32.3125 
Q 14.796875 37.15625 21.921875 38.8125 
z
M 18.3125 54.390625 
Q 18.3125 48.734375 21.84375 45.5625 
Q 25.390625 42.390625 31.78125 42.390625 
Q 38.140625 42.390625 41.71875 45.5625 
Q 45.3125 48.734375 45.3125 54.390625 
Q 45.3125 60.0625 41.71875 63.234375 
Q 38.140625 66.40625 31.78125 66.40625 
Q 25.390625 66.40625 21.84375 63.234375 
Q 18.3125 60.0625 18.3125 54.390625 
z
" id="DejaVuSans-56"/>
      </defs>
      <g style="fill:#262626;" transform="translate(672.122373 476.638438)scale(0.1 -0.1)">
       <use xlink:href="#DejaVuSans-56"/>
      </g>
     </g>
    </g>
    <g id="xtick_6">
     <g id="line2d_11">
      <path clip-path="url(#p11906a0ea4)" d="M 823.860096 465.54 
L 823.860096 25.44 
" style="fill:none;stroke:#ffffff;stroke-linecap:round;stroke-width:0.8;"/>
     </g>
     <g id="line2d_12"/>
     <g id="text_6">
      <!-- 10 -->
      <defs>
       <path d="M 12.40625 8.296875 
L 28.515625 8.296875 
L 28.515625 63.921875 
L 10.984375 60.40625 
L 10.984375 69.390625 
L 28.421875 72.90625 
L 38.28125 72.90625 
L 38.28125 8.296875 
L 54.390625 8.296875 
L 54.390625 0 
L 12.40625 0 
z
" id="DejaVuSans-49"/>
      </defs>
      <g style="fill:#262626;" transform="translate(817.497596 476.638438)scale(0.1 -0.1)">
       <use xlink:href="#DejaVuSans-49"/>
       <use x="63.623047" xlink:href="#DejaVuSans-48"/>
      </g>
     </g>
    </g>
    <g id="text_7">
     <!-- Time -->
     <defs>
      <path d="M -0.296875 72.90625 
L 61.375 72.90625 
L 61.375 64.59375 
L 35.5 64.59375 
L 35.5 0 
L 25.59375 0 
L 25.59375 64.59375 
L -0.296875 64.59375 
z
" id="DejaVuSans-84"/>
      <path d="M 9.421875 54.6875 
L 18.40625 54.6875 
L 18.40625 0 
L 9.421875 0 
z
M 9.421875 75.984375 
L 18.40625 75.984375 
L 18.40625 64.59375 
L 9.421875 64.59375 
z
" id="DejaVuSans-105"/>
      <path d="M 52 44.1875 
Q 55.375 50.25 60.0625 53.125 
Q 64.75 56 71.09375 56 
Q 79.640625 56 84.28125 50.015625 
Q 88.921875 44.046875 88.921875 33.015625 
L 88.921875 0 
L 79.890625 0 
L 79.890625 32.71875 
Q 79.890625 40.578125 77.09375 44.375 
Q 74.3125 48.1875 68.609375 48.1875 
Q 61.625 48.1875 57.5625 43.546875 
Q 53.515625 38.921875 53.515625 30.90625 
L 53.515625 0 
L 44.484375 0 
L 44.484375 32.71875 
Q 44.484375 40.625 41.703125 44.40625 
Q 38.921875 48.1875 33.109375 48.1875 
Q 26.21875 48.1875 22.15625 43.53125 
Q 18.109375 38.875 18.109375 30.90625 
L 18.109375 0 
L 9.078125 0 
L 9.078125 54.6875 
L 18.109375 54.6875 
L 18.109375 46.1875 
Q 21.1875 51.21875 25.484375 53.609375 
Q 29.78125 56 35.6875 56 
Q 41.65625 56 45.828125 52.96875 
Q 50 49.953125 52 44.1875 
z
" id="DejaVuSans-109"/>
      <path d="M 56.203125 29.59375 
L 56.203125 25.203125 
L 14.890625 25.203125 
Q 15.484375 15.921875 20.484375 11.0625 
Q 25.484375 6.203125 34.421875 6.203125 
Q 39.59375 6.203125 44.453125 7.46875 
Q 49.3125 8.734375 54.109375 11.28125 
L 54.109375 2.78125 
Q 49.265625 0.734375 44.1875 -0.34375 
Q 39.109375 -1.421875 33.890625 -1.421875 
Q 20.796875 -1.421875 13.15625 6.1875 
Q 5.515625 13.8125 5.515625 26.8125 
Q 5.515625 40.234375 12.765625 48.109375 
Q 20.015625 56 32.328125 56 
Q 43.359375 56 49.78125 48.890625 
Q 56.203125 41.796875 56.203125 29.59375 
z
M 47.21875 32.234375 
Q 47.125 39.59375 43.09375 43.984375 
Q 39.0625 48.390625 32.421875 48.390625 
Q 24.90625 48.390625 20.390625 44.140625 
Q 15.875 39.890625 15.1875 32.171875 
z
" id="DejaVuSans-101"/>
     </defs>
     <g style="fill:#262626;" transform="translate(436.521406 490.316562)scale(0.1 -0.1)">
      <use xlink:href="#DejaVuSans-84"/>
      <use x="57.958984" xlink:href="#DejaVuSans-105"/>
      <use x="85.742188" xlink:href="#DejaVuSans-109"/>
      <use x="183.154297" xlink:href="#DejaVuSans-101"/>
     </g>
    </g>
   </g>
   <g id="matplotlib.axis_2">
    <g id="ytick_1">
     <g id="line2d_13">
      <path clip-path="url(#p11906a0ea4)" d="M 44.31 465.54 
L 853.2 465.54 
" style="fill:none;stroke:#ffffff;stroke-linecap:round;stroke-width:0.8;"/>
     </g>
     <g id="line2d_14"/>
     <g id="text_8">
      <!-- 0.0 -->
      <defs>
       <path d="M 10.6875 12.40625 
L 21 12.40625 
L 21 0 
L 10.6875 0 
z
" id="DejaVuSans-46"/>
      </defs>
      <g style="fill:#262626;" transform="translate(24.906875 469.339219)scale(0.1 -0.1)">
       <use xlink:href="#DejaVuSans-48"/>
       <use x="63.623047" xlink:href="#DejaVuSans-46"/>
       <use x="95.410156" xlink:href="#DejaVuSans-48"/>
      </g>
     </g>
    </g>
    <g id="ytick_2">
     <g id="line2d_15">
      <path clip-path="url(#p11906a0ea4)" d="M 44.31 415.683924 
L 853.2 415.683924 
" style="fill:none;stroke:#ffffff;stroke-linecap:round;stroke-width:0.8;"/>
     </g>
     <g id="line2d_16"/>
     <g id="text_9">
      <!-- 0.1 -->
      <g style="fill:#262626;" transform="translate(24.906875 419.483143)scale(0.1 -0.1)">
       <use xlink:href="#DejaVuSans-48"/>
       <use x="63.623047" xlink:href="#DejaVuSans-46"/>
       <use x="95.410156" xlink:href="#DejaVuSans-49"/>
      </g>
     </g>
    </g>
    <g id="ytick_3">
     <g id="line2d_17">
      <path clip-path="url(#p11906a0ea4)" d="M 44.31 365.827848 
L 853.2 365.827848 
" style="fill:none;stroke:#ffffff;stroke-linecap:round;stroke-width:0.8;"/>
     </g>
     <g id="line2d_18"/>
     <g id="text_10">
      <!-- 0.2 -->
      <g style="fill:#262626;" transform="translate(24.906875 369.627067)scale(0.1 -0.1)">
       <use xlink:href="#DejaVuSans-48"/>
       <use x="63.623047" xlink:href="#DejaVuSans-46"/>
       <use x="95.410156" xlink:href="#DejaVuSans-50"/>
      </g>
     </g>
    </g>
    <g id="ytick_4">
     <g id="line2d_19">
      <path clip-path="url(#p11906a0ea4)" d="M 44.31 315.971773 
L 853.2 315.971773 
" style="fill:none;stroke:#ffffff;stroke-linecap:round;stroke-width:0.8;"/>
     </g>
     <g id="line2d_20"/>
     <g id="text_11">
      <!-- 0.3 -->
      <defs>
       <path d="M 40.578125 39.3125 
Q 47.65625 37.796875 51.625 33 
Q 55.609375 28.21875 55.609375 21.1875 
Q 55.609375 10.40625 48.1875 4.484375 
Q 40.765625 -1.421875 27.09375 -1.421875 
Q 22.515625 -1.421875 17.65625 -0.515625 
Q 12.796875 0.390625 7.625 2.203125 
L 7.625 11.71875 
Q 11.71875 9.328125 16.59375 8.109375 
Q 21.484375 6.890625 26.8125 6.890625 
Q 36.078125 6.890625 40.9375 10.546875 
Q 45.796875 14.203125 45.796875 21.1875 
Q 45.796875 27.640625 41.28125 31.265625 
Q 36.765625 34.90625 28.71875 34.90625 
L 20.21875 34.90625 
L 20.21875 43.015625 
L 29.109375 43.015625 
Q 36.375 43.015625 40.234375 45.921875 
Q 44.09375 48.828125 44.09375 54.296875 
Q 44.09375 59.90625 40.109375 62.90625 
Q 36.140625 65.921875 28.71875 65.921875 
Q 24.65625 65.921875 20.015625 65.03125 
Q 15.375 64.15625 9.8125 62.3125 
L 9.8125 71.09375 
Q 15.4375 72.65625 20.34375 73.4375 
Q 25.25 74.21875 29.59375 74.21875 
Q 40.828125 74.21875 47.359375 69.109375 
Q 53.90625 64.015625 53.90625 55.328125 
Q 53.90625 49.265625 50.4375 45.09375 
Q 46.96875 40.921875 40.578125 39.3125 
z
" id="DejaVuSans-51"/>
      </defs>
      <g style="fill:#262626;" transform="translate(24.906875 319.770991)scale(0.1 -0.1)">
       <use xlink:href="#DejaVuSans-48"/>
       <use x="63.623047" xlink:href="#DejaVuSans-46"/>
       <use x="95.410156" xlink:href="#DejaVuSans-51"/>
      </g>
     </g>
    </g>
    <g id="ytick_5">
     <g id="line2d_21">
      <path clip-path="url(#p11906a0ea4)" d="M 44.31 266.115697 
L 853.2 266.115697 
" style="fill:none;stroke:#ffffff;stroke-linecap:round;stroke-width:0.8;"/>
     </g>
     <g id="line2d_22"/>
     <g id="text_12">
      <!-- 0.4 -->
      <g style="fill:#262626;" transform="translate(24.906875 269.914916)scale(0.1 -0.1)">
       <use xlink:href="#DejaVuSans-48"/>
       <use x="63.623047" xlink:href="#DejaVuSans-46"/>
       <use x="95.410156" xlink:href="#DejaVuSans-52"/>
      </g>
     </g>
    </g>
    <g id="ytick_6">
     <g id="line2d_23">
      <path clip-path="url(#p11906a0ea4)" d="M 44.31 216.259621 
L 853.2 216.259621 
" style="fill:none;stroke:#ffffff;stroke-linecap:round;stroke-width:0.8;"/>
     </g>
     <g id="line2d_24"/>
     <g id="text_13">
      <!-- 0.5 -->
      <defs>
       <path d="M 10.796875 72.90625 
L 49.515625 72.90625 
L 49.515625 64.59375 
L 19.828125 64.59375 
L 19.828125 46.734375 
Q 21.96875 47.46875 24.109375 47.828125 
Q 26.265625 48.1875 28.421875 48.1875 
Q 40.625 48.1875 47.75 41.5 
Q 54.890625 34.8125 54.890625 23.390625 
Q 54.890625 11.625 47.5625 5.09375 
Q 40.234375 -1.421875 26.90625 -1.421875 
Q 22.3125 -1.421875 17.546875 -0.640625 
Q 12.796875 0.140625 7.71875 1.703125 
L 7.71875 11.625 
Q 12.109375 9.234375 16.796875 8.0625 
Q 21.484375 6.890625 26.703125 6.890625 
Q 35.15625 6.890625 40.078125 11.328125 
Q 45.015625 15.765625 45.015625 23.390625 
Q 45.015625 31 40.078125 35.4375 
Q 35.15625 39.890625 26.703125 39.890625 
Q 22.75 39.890625 18.8125 39.015625 
Q 14.890625 38.140625 10.796875 36.28125 
z
" id="DejaVuSans-53"/>
      </defs>
      <g style="fill:#262626;" transform="translate(24.906875 220.05884)scale(0.1 -0.1)">
       <use xlink:href="#DejaVuSans-48"/>
       <use x="63.623047" xlink:href="#DejaVuSans-46"/>
       <use x="95.410156" xlink:href="#DejaVuSans-53"/>
      </g>
     </g>
    </g>
    <g id="ytick_7">
     <g id="line2d_25">
      <path clip-path="url(#p11906a0ea4)" d="M 44.31 166.403545 
L 853.2 166.403545 
" style="fill:none;stroke:#ffffff;stroke-linecap:round;stroke-width:0.8;"/>
     </g>
     <g id="line2d_26"/>
     <g id="text_14">
      <!-- 0.6 -->
      <g style="fill:#262626;" transform="translate(24.906875 170.202764)scale(0.1 -0.1)">
       <use xlink:href="#DejaVuSans-48"/>
       <use x="63.623047" xlink:href="#DejaVuSans-46"/>
       <use x="95.410156" xlink:href="#DejaVuSans-54"/>
      </g>
     </g>
    </g>
    <g id="ytick_8">
     <g id="line2d_27">
      <path clip-path="url(#p11906a0ea4)" d="M 44.31 116.54747 
L 853.2 116.54747 
" style="fill:none;stroke:#ffffff;stroke-linecap:round;stroke-width:0.8;"/>
     </g>
     <g id="line2d_28"/>
     <g id="text_15">
      <!-- 0.7 -->
      <defs>
       <path d="M 8.203125 72.90625 
L 55.078125 72.90625 
L 55.078125 68.703125 
L 28.609375 0 
L 18.3125 0 
L 43.21875 64.59375 
L 8.203125 64.59375 
z
" id="DejaVuSans-55"/>
      </defs>
      <g style="fill:#262626;" transform="translate(24.906875 120.346688)scale(0.1 -0.1)">
       <use xlink:href="#DejaVuSans-48"/>
       <use x="63.623047" xlink:href="#DejaVuSans-46"/>
       <use x="95.410156" xlink:href="#DejaVuSans-55"/>
      </g>
     </g>
    </g>
    <g id="ytick_9">
     <g id="line2d_29">
      <path clip-path="url(#p11906a0ea4)" d="M 44.31 66.691394 
L 853.2 66.691394 
" style="fill:none;stroke:#ffffff;stroke-linecap:round;stroke-width:0.8;"/>
     </g>
     <g id="line2d_30"/>
     <g id="text_16">
      <!-- 0.8 -->
      <g style="fill:#262626;" transform="translate(24.906875 70.490613)scale(0.1 -0.1)">
       <use xlink:href="#DejaVuSans-48"/>
       <use x="63.623047" xlink:href="#DejaVuSans-46"/>
       <use x="95.410156" xlink:href="#DejaVuSans-56"/>
      </g>
     </g>
    </g>
    <g id="text_17">
     <!-- Fraction of clustered particles -->
     <defs>
      <path d="M 9.8125 72.90625 
L 51.703125 72.90625 
L 51.703125 64.59375 
L 19.671875 64.59375 
L 19.671875 43.109375 
L 48.578125 43.109375 
L 48.578125 34.8125 
L 19.671875 34.8125 
L 19.671875 0 
L 9.8125 0 
z
" id="DejaVuSans-70"/>
      <path d="M 41.109375 46.296875 
Q 39.59375 47.171875 37.8125 47.578125 
Q 36.03125 48 33.890625 48 
Q 26.265625 48 22.1875 43.046875 
Q 18.109375 38.09375 18.109375 28.8125 
L 18.109375 0 
L 9.078125 0 
L 9.078125 54.6875 
L 18.109375 54.6875 
L 18.109375 46.1875 
Q 20.953125 51.171875 25.484375 53.578125 
Q 30.03125 56 36.53125 56 
Q 37.453125 56 38.578125 55.875 
Q 39.703125 55.765625 41.0625 55.515625 
z
" id="DejaVuSans-114"/>
      <path d="M 34.28125 27.484375 
Q 23.390625 27.484375 19.1875 25 
Q 14.984375 22.515625 14.984375 16.5 
Q 14.984375 11.71875 18.140625 8.90625 
Q 21.296875 6.109375 26.703125 6.109375 
Q 34.1875 6.109375 38.703125 11.40625 
Q 43.21875 16.703125 43.21875 25.484375 
L 43.21875 27.484375 
z
M 52.203125 31.203125 
L 52.203125 0 
L 43.21875 0 
L 43.21875 8.296875 
Q 40.140625 3.328125 35.546875 0.953125 
Q 30.953125 -1.421875 24.3125 -1.421875 
Q 15.921875 -1.421875 10.953125 3.296875 
Q 6 8.015625 6 15.921875 
Q 6 25.140625 12.171875 29.828125 
Q 18.359375 34.515625 30.609375 34.515625 
L 43.21875 34.515625 
L 43.21875 35.40625 
Q 43.21875 41.609375 39.140625 45 
Q 35.0625 48.390625 27.6875 48.390625 
Q 23 48.390625 18.546875 47.265625 
Q 14.109375 46.140625 10.015625 43.890625 
L 10.015625 52.203125 
Q 14.9375 54.109375 19.578125 55.046875 
Q 24.21875 56 28.609375 56 
Q 40.484375 56 46.34375 49.84375 
Q 52.203125 43.703125 52.203125 31.203125 
z
" id="DejaVuSans-97"/>
      <path d="M 48.78125 52.59375 
L 48.78125 44.1875 
Q 44.96875 46.296875 41.140625 47.34375 
Q 37.3125 48.390625 33.40625 48.390625 
Q 24.65625 48.390625 19.8125 42.84375 
Q 14.984375 37.3125 14.984375 27.296875 
Q 14.984375 17.28125 19.8125 11.734375 
Q 24.65625 6.203125 33.40625 6.203125 
Q 37.3125 6.203125 41.140625 7.25 
Q 44.96875 8.296875 48.78125 10.40625 
L 48.78125 2.09375 
Q 45.015625 0.34375 40.984375 -0.53125 
Q 36.96875 -1.421875 32.421875 -1.421875 
Q 20.0625 -1.421875 12.78125 6.34375 
Q 5.515625 14.109375 5.515625 27.296875 
Q 5.515625 40.671875 12.859375 48.328125 
Q 20.21875 56 33.015625 56 
Q 37.15625 56 41.109375 55.140625 
Q 45.0625 54.296875 48.78125 52.59375 
z
" id="DejaVuSans-99"/>
      <path d="M 18.3125 70.21875 
L 18.3125 54.6875 
L 36.8125 54.6875 
L 36.8125 47.703125 
L 18.3125 47.703125 
L 18.3125 18.015625 
Q 18.3125 11.328125 20.140625 9.421875 
Q 21.96875 7.515625 27.59375 7.515625 
L 36.8125 7.515625 
L 36.8125 0 
L 27.59375 0 
Q 17.1875 0 13.234375 3.875 
Q 9.28125 7.765625 9.28125 18.015625 
L 9.28125 47.703125 
L 2.6875 47.703125 
L 2.6875 54.6875 
L 9.28125 54.6875 
L 9.28125 70.21875 
z
" id="DejaVuSans-116"/>
      <path d="M 30.609375 48.390625 
Q 23.390625 48.390625 19.1875 42.75 
Q 14.984375 37.109375 14.984375 27.296875 
Q 14.984375 17.484375 19.15625 11.84375 
Q 23.34375 6.203125 30.609375 6.203125 
Q 37.796875 6.203125 41.984375 11.859375 
Q 46.1875 17.53125 46.1875 27.296875 
Q 46.1875 37.015625 41.984375 42.703125 
Q 37.796875 48.390625 30.609375 48.390625 
z
M 30.609375 56 
Q 42.328125 56 49.015625 48.375 
Q 55.71875 40.765625 55.71875 27.296875 
Q 55.71875 13.875 49.015625 6.21875 
Q 42.328125 -1.421875 30.609375 -1.421875 
Q 18.84375 -1.421875 12.171875 6.21875 
Q 5.515625 13.875 5.515625 27.296875 
Q 5.515625 40.765625 12.171875 48.375 
Q 18.84375 56 30.609375 56 
z
" id="DejaVuSans-111"/>
      <path d="M 54.890625 33.015625 
L 54.890625 0 
L 45.90625 0 
L 45.90625 32.71875 
Q 45.90625 40.484375 42.875 44.328125 
Q 39.84375 48.1875 33.796875 48.1875 
Q 26.515625 48.1875 22.3125 43.546875 
Q 18.109375 38.921875 18.109375 30.90625 
L 18.109375 0 
L 9.078125 0 
L 9.078125 54.6875 
L 18.109375 54.6875 
L 18.109375 46.1875 
Q 21.34375 51.125 25.703125 53.5625 
Q 30.078125 56 35.796875 56 
Q 45.21875 56 50.046875 50.171875 
Q 54.890625 44.34375 54.890625 33.015625 
z
" id="DejaVuSans-110"/>
      <path id="DejaVuSans-32"/>
      <path d="M 37.109375 75.984375 
L 37.109375 68.5 
L 28.515625 68.5 
Q 23.6875 68.5 21.796875 66.546875 
Q 19.921875 64.59375 19.921875 59.515625 
L 19.921875 54.6875 
L 34.71875 54.6875 
L 34.71875 47.703125 
L 19.921875 47.703125 
L 19.921875 0 
L 10.890625 0 
L 10.890625 47.703125 
L 2.296875 47.703125 
L 2.296875 54.6875 
L 10.890625 54.6875 
L 10.890625 58.5 
Q 10.890625 67.625 15.140625 71.796875 
Q 19.390625 75.984375 28.609375 75.984375 
z
" id="DejaVuSans-102"/>
      <path d="M 9.421875 75.984375 
L 18.40625 75.984375 
L 18.40625 0 
L 9.421875 0 
z
" id="DejaVuSans-108"/>
      <path d="M 8.5 21.578125 
L 8.5 54.6875 
L 17.484375 54.6875 
L 17.484375 21.921875 
Q 17.484375 14.15625 20.5 10.265625 
Q 23.53125 6.390625 29.59375 6.390625 
Q 36.859375 6.390625 41.078125 11.03125 
Q 45.3125 15.671875 45.3125 23.6875 
L 45.3125 54.6875 
L 54.296875 54.6875 
L 54.296875 0 
L 45.3125 0 
L 45.3125 8.40625 
Q 42.046875 3.421875 37.71875 1 
Q 33.40625 -1.421875 27.6875 -1.421875 
Q 18.265625 -1.421875 13.375 4.4375 
Q 8.5 10.296875 8.5 21.578125 
z
M 31.109375 56 
z
" id="DejaVuSans-117"/>
      <path d="M 44.28125 53.078125 
L 44.28125 44.578125 
Q 40.484375 46.53125 36.375 47.5 
Q 32.28125 48.484375 27.875 48.484375 
Q 21.1875 48.484375 17.84375 46.4375 
Q 14.5 44.390625 14.5 40.28125 
Q 14.5 37.15625 16.890625 35.375 
Q 19.28125 33.59375 26.515625 31.984375 
L 29.59375 31.296875 
Q 39.15625 29.25 43.1875 25.515625 
Q 47.21875 21.78125 47.21875 15.09375 
Q 47.21875 7.46875 41.1875 3.015625 
Q 35.15625 -1.421875 24.609375 -1.421875 
Q 20.21875 -1.421875 15.453125 -0.5625 
Q 10.6875 0.296875 5.421875 2 
L 5.421875 11.28125 
Q 10.40625 8.6875 15.234375 7.390625 
Q 20.0625 6.109375 24.8125 6.109375 
Q 31.15625 6.109375 34.5625 8.28125 
Q 37.984375 10.453125 37.984375 14.40625 
Q 37.984375 18.0625 35.515625 20.015625 
Q 33.0625 21.96875 24.703125 23.78125 
L 21.578125 24.515625 
Q 13.234375 26.265625 9.515625 29.90625 
Q 5.8125 33.546875 5.8125 39.890625 
Q 5.8125 47.609375 11.28125 51.796875 
Q 16.75 56 26.8125 56 
Q 31.78125 56 36.171875 55.265625 
Q 40.578125 54.546875 44.28125 53.078125 
z
" id="DejaVuSans-115"/>
      <path d="M 45.40625 46.390625 
L 45.40625 75.984375 
L 54.390625 75.984375 
L 54.390625 0 
L 45.40625 0 
L 45.40625 8.203125 
Q 42.578125 3.328125 38.25 0.953125 
Q 33.9375 -1.421875 27.875 -1.421875 
Q 17.96875 -1.421875 11.734375 6.484375 
Q 5.515625 14.40625 5.515625 27.296875 
Q 5.515625 40.1875 11.734375 48.09375 
Q 17.96875 56 27.875 56 
Q 33.9375 56 38.25 53.625 
Q 42.578125 51.265625 45.40625 46.390625 
z
M 14.796875 27.296875 
Q 14.796875 17.390625 18.875 11.75 
Q 22.953125 6.109375 30.078125 6.109375 
Q 37.203125 6.109375 41.296875 11.75 
Q 45.40625 17.390625 45.40625 27.296875 
Q 45.40625 37.203125 41.296875 42.84375 
Q 37.203125 48.484375 30.078125 48.484375 
Q 22.953125 48.484375 18.875 42.84375 
Q 14.796875 37.203125 14.796875 27.296875 
z
" id="DejaVuSans-100"/>
      <path d="M 18.109375 8.203125 
L 18.109375 -20.796875 
L 9.078125 -20.796875 
L 9.078125 54.6875 
L 18.109375 54.6875 
L 18.109375 46.390625 
Q 20.953125 51.265625 25.265625 53.625 
Q 29.59375 56 35.59375 56 
Q 45.5625 56 51.78125 48.09375 
Q 58.015625 40.1875 58.015625 27.296875 
Q 58.015625 14.40625 51.78125 6.484375 
Q 45.5625 -1.421875 35.59375 -1.421875 
Q 29.59375 -1.421875 25.265625 0.953125 
Q 20.953125 3.328125 18.109375 8.203125 
z
M 48.6875 27.296875 
Q 48.6875 37.203125 44.609375 42.84375 
Q 40.53125 48.484375 33.40625 48.484375 
Q 26.265625 48.484375 22.1875 42.84375 
Q 18.109375 37.203125 18.109375 27.296875 
Q 18.109375 17.390625 22.1875 11.75 
Q 26.265625 6.109375 33.40625 6.109375 
Q 40.53125 6.109375 44.609375 11.75 
Q 48.6875 17.390625 48.6875 27.296875 
z
" id="DejaVuSans-112"/>
     </defs>
     <g style="fill:#262626;" transform="translate(18.827188 319.640781)rotate(-90)scale(0.1 -0.1)">
      <use xlink:href="#DejaVuSans-70"/>
      <use x="50.269531" xlink:href="#DejaVuSans-114"/>
      <use x="91.382812" xlink:href="#DejaVuSans-97"/>
      <use x="152.662109" xlink:href="#DejaVuSans-99"/>
      <use x="207.642578" xlink:href="#DejaVuSans-116"/>
      <use x="246.851562" xlink:href="#DejaVuSans-105"/>
      <use x="274.634766" xlink:href="#DejaVuSans-111"/>
      <use x="335.816406" xlink:href="#DejaVuSans-110"/>
      <use x="399.195312" xlink:href="#DejaVuSans-32"/>
      <use x="430.982422" xlink:href="#DejaVuSans-111"/>
      <use x="492.164062" xlink:href="#DejaVuSans-102"/>
      <use x="527.369141" xlink:href="#DejaVuSans-32"/>
      <use x="559.15625" xlink:href="#DejaVuSans-99"/>
      <use x="614.136719" xlink:href="#DejaVuSans-108"/>
      <use x="641.919922" xlink:href="#DejaVuSans-117"/>
      <use x="705.298828" xlink:href="#DejaVuSans-115"/>
      <use x="757.398438" xlink:href="#DejaVuSans-116"/>
      <use x="796.607422" xlink:href="#DejaVuSans-101"/>
      <use x="858.130859" xlink:href="#DejaVuSans-114"/>
      <use x="896.994141" xlink:href="#DejaVuSans-101"/>
      <use x="958.517578" xlink:href="#DejaVuSans-100"/>
      <use x="1021.994141" xlink:href="#DejaVuSans-32"/>
      <use x="1053.78125" xlink:href="#DejaVuSans-112"/>
      <use x="1117.257812" xlink:href="#DejaVuSans-97"/>
      <use x="1178.537109" xlink:href="#DejaVuSans-114"/>
      <use x="1219.650391" xlink:href="#DejaVuSans-116"/>
      <use x="1258.859375" xlink:href="#DejaVuSans-105"/>
      <use x="1286.642578" xlink:href="#DejaVuSans-99"/>
      <use x="1341.623047" xlink:href="#DejaVuSans-108"/>
      <use x="1369.40625" xlink:href="#DejaVuSans-101"/>
      <use x="1430.929688" xlink:href="#DejaVuSans-115"/>
     </g>
    </g>
   </g>
   <g id="line2d_31">
    <path clip-path="url(#p11906a0ea4)" d="M 81.077727 465.54 
L 88.505551 457.887092 
L 95.933375 436.364224 
L 103.361198 402.85097 
L 110.789022 369.960917 
L 118.216846 343.292902 
L 125.644669 321.376171 
L 133.072493 303.55761 
L 140.500317 288.231852 
L 147.92814 274.067741 
L 155.355964 259.360199 
L 162.783788 243.241729 
L 170.211612 234.975592 
L 177.639435 237.079518 
L 185.067259 229.391712 
L 192.495083 237.114418 
L 199.922906 244.208937 
L 207.35073 236.39649 
L 214.778554 228.459403 
L 222.206377 220.327877 
L 229.634201 212.39079 
L 237.062025 205.022062 
L 244.489848 198.386218 
L 251.917672 192.792366 
L 259.345496 187.482694 
L 266.77332 182.581842 
L 274.201143 178.296333 
L 281.628967 174.213079 
L 289.056791 170.04507 
L 296.484614 166.29087 
L 303.912438 163.323345 
L 311.340262 161.073969 
L 318.768085 157.985962 
L 326.195909 155.36179 
L 333.623733 152.917108 
L 341.051556 150.898562 
L 348.47938 148.357242 
L 355.907204 146.848767 
L 363.335028 145.181325 
L 370.762851 144.191044 
L 378.190675 142.858357 
L 385.618499 141.841729 
L 393.046322 140.784674 
L 400.474146 139.697858 
L 407.90197 137.912608 
L 415.329793 136.697905 
L 422.757617 135.125244 
L 430.185441 133.503476 
L 437.613264 132.064963 
L 445.041088 130.337426 
L 452.468912 128.677059 
L 459.896736 127.044443 
L 467.324559 125.335119 
L 474.752383 123.777779 
L 482.180207 122.065743 
L 489.60803 120.219636 
L 497.035854 117.95238 
L 504.463678 116.226702 
L 511.891501 114.175823 
L 519.319325 112.501558 
L 526.747149 110.861734 
L 534.174972 108.911261 
L 541.602796 107.080196 
L 549.03062 105.225629 
L 556.458444 103.374916 
L 563.886267 101.287526 
L 571.314091 98.960283 
L 578.741915 96.804262 
L 586.169738 94.656977 
L 593.597562 92.476453 
L 601.025386 90.405753 
L 608.453209 88.496137 
L 615.881033 86.215534 
L 623.308857 84.178696 
L 630.73668 82.466654 
L 638.164504 81.026302 
L 645.592328 78.741283 
L 653.020152 76.843994 
L 660.447975 74.964564 
L 667.875799 72.987407 
L 675.303623 75.310423 
L 682.731446 73.237529 
L 690.15927 71.520947 
L 697.587094 69.728659 
L 705.014917 68.17797 
L 712.442741 66.255163 
L 719.870565 64.741074 
L 727.298388 63.180731 
L 734.726212 61.383339 
L 742.154036 60.052247 
L 749.58186 58.376935 
L 757.009683 56.875412 
L 764.437507 55.429435 
L 771.865331 54.403662 
L 779.293154 53.143248 
L 786.720978 51.555808 
L 794.148802 50.297809 
L 801.576625 48.800442 
L 809.004449 47.67436 
L 816.432273 46.397143 
" style="fill:none;stroke:#1f77b4;stroke-linecap:round;stroke-width:1.5;"/>
   </g>
   <g id="line2d_32">
    <path clip-path="url(#p11906a0ea4)" d="M 81.077727 465.54 
L 88.505551 460.075774 
L 95.933375 436.987425 
L 103.361198 403.982703 
L 110.789022 372.403865 
L 118.216846 347.839776 
L 125.644669 330.110956 
L 133.072493 313.354329 
L 140.500317 298.651772 
L 147.92814 285.424955 
L 155.355964 271.225945 
L 162.783788 256.024827 
L 170.211612 245.2609 
L 177.639435 244.652656 
L 185.067259 235.833117 
L 192.495083 230.40379 
L 199.922906 238.729755 
L 207.35073 241.855731 
L 214.778554 237.782489 
L 222.206377 231.665149 
L 229.634201 226.116167 
L 237.062025 220.118481 
L 244.489848 214.699126 
L 251.917672 208.771239 
L 259.345496 203.591192 
L 266.77332 198.246621 
L 274.201143 193.111445 
L 281.628967 186.336005 
L 289.056791 182.631026 
L 296.484614 180.836893 
L 303.912438 178.923537 
L 311.340262 176.784575 
L 318.768085 175.425278 
L 326.195909 173.360509 
L 333.623733 170.398513 
L 341.051556 168.276027 
L 348.47938 166.169976 
L 355.907204 163.423947 
L 363.335028 161.573509 
L 370.762851 158.446931 
L 378.190675 155.893168 
L 385.618499 153.390691 
L 393.046322 151.194978 
L 400.474146 148.990565 
L 407.90197 146.418745 
L 415.329793 144.007175 
L 422.757617 141.80371 
L 430.185441 140.018582 
L 437.613264 138.37022 
L 445.041088 136.475029 
L 452.468912 135.264256 
L 459.896736 133.568145 
L 467.324559 131.749161 
L 474.752383 130.078758 
L 482.180207 128.787524 
L 489.60803 126.752139 
L 497.035854 125.526011 
L 504.463678 123.723637 
L 511.891501 121.884513 
L 519.319325 120.202006 
L 526.747149 118.104668 
L 534.174972 116.200129 
L 541.602796 114.319671 
L 549.03062 112.695497 
L 556.458444 111.558658 
L 563.886267 109.768458 
L 571.314091 108.104424 
L 578.741915 106.36302 
L 586.169738 104.688816 
L 593.597562 103.694932 
L 601.025386 110.343801 
L 608.453209 108.537424 
L 615.881033 107.783559 
L 623.308857 105.500859 
L 630.73668 103.929144 
L 638.164504 102.46424 
L 645.592328 101.077306 
L 653.020152 99.301155 
L 660.447975 97.90351 
L 667.875799 96.474206 
L 675.303623 95.374633 
L 682.731446 94.528555 
L 690.15927 93.314991 
L 697.587094 91.957668 
L 705.014917 90.563099 
L 712.442741 89.344111 
L 719.870565 88.019476 
L 727.298388 86.790988 
L 734.726212 85.647267 
L 742.154036 84.281655 
L 749.58186 82.951216 
L 757.009683 81.825419 
L 764.437507 80.644021 
L 771.865331 79.862751 
L 779.293154 78.867564 
L 786.720978 78.074039 
L 794.148802 77.237145 
L 801.576625 76.412922 
L 809.004449 75.407811 
L 816.432273 74.578646 
" style="fill:none;stroke:#ff7f0e;stroke-linecap:round;stroke-width:1.5;"/>
   </g>
   <g id="line2d_33">
    <path clip-path="url(#p11906a0ea4)" d="M 81.077727 465.54 
L 88.505551 458.261013 
L 95.933375 435.262405 
L 103.361198 401.888748 
L 110.789022 369.831291 
L 118.216846 344.898268 
L 125.644669 327.942217 
L 133.072493 313.882803 
L 140.500317 300.546303 
L 147.92814 288.471161 
L 155.355964 275.683078 
L 162.783788 261.75329 
L 170.211612 251.019277 
L 177.639435 242.030227 
L 185.067259 238.73474 
L 192.495083 232.148753 
L 199.922906 228.92805 
L 207.35073 234.043283 
L 214.778554 236.202052 
L 222.206377 234.053255 
L 229.634201 231.650192 
L 237.062025 227.995741 
L 244.489848 223.827774 
L 251.917672 220.547244 
L 259.345496 217.720404 
L 266.77332 213.726933 
L 274.201143 210.107381 
L 281.628967 207.649477 
L 289.056791 204.837137 
L 296.484614 201.44706 
L 303.912438 198.029327 
L 311.340262 194.982298 
L 318.768085 191.878277 
L 326.195909 190.003243 
L 333.623733 187.313215 
L 341.051556 184.892583 
L 348.47938 183.162824 
L 355.907204 181.4269 
L 363.335028 180.197116 
L 370.762851 179.122278 
L 378.190675 177.19052 
L 385.618499 175.543826 
L 393.046322 173.936305 
L 400.474146 172.119744 
L 407.90197 170.818623 
L 415.329793 169.238717 
L 422.757617 167.124259 
L 430.185441 165.235649 
L 437.613264 163.507596 
L 445.041088 161.094563 
L 452.468912 158.710391 
L 459.896736 160.77992 
L 467.324559 158.19593 
L 474.752383 156.47464 
L 482.180207 154.124092 
L 489.60803 151.274368 
L 497.035854 148.726423 
L 504.463678 162.302585 
L 511.891501 160.955563 
L 519.319325 143.466427 
L 526.747149 156.960389 
L 534.174972 155.471087 
L 541.602796 154.581716 
L 549.03062 154.240218 
L 556.458444 153.071519 
L 563.886267 152.748674 
L 571.314091 150.877887 
L 578.741915 148.847748 
L 586.169738 148.012457 
L 593.597562 146.27477 
L 601.025386 145.236949 
L 608.453209 143.768428 
L 615.881033 142.684805 
L 623.308857 141.501416 
L 630.73668 140.125533 
L 638.164504 138.798857 
L 645.592328 137.512831 
L 653.020152 136.386575 
L 660.447975 135.204289 
L 667.875799 133.975666 
L 675.303623 132.817195 
L 682.731446 131.506441 
L 690.15927 130.410462 
L 697.587094 129.581156 
L 705.014917 128.517558 
L 712.442741 127.682758 
L 719.870565 126.272064 
L 727.298388 125.631522 
L 734.726212 124.835766 
L 742.154036 123.850822 
L 749.58186 122.8809 
L 757.009683 121.727851 
L 764.437507 120.816634 
L 771.865331 119.518427 
L 779.293154 118.439921 
L 786.720978 117.780785 
L 794.148802 116.719735 
L 801.576625 115.829148 
L 809.004449 114.946016 
L 816.432273 113.993062 
" style="fill:none;stroke:#2ca02c;stroke-linecap:round;stroke-width:1.5;"/>
   </g>
   <g id="line2d_34">
    <path clip-path="url(#p11906a0ea4)" d="M 81.077727 465.54 
L 88.505551 459.093609 
L 95.933375 435.451858 
L 103.361198 403.833135 
L 110.789022 375.240676 
L 118.216846 355.108792 
L 125.644669 340.7303 
L 133.072493 326.177311 
L 140.500317 312.95548 
L 147.92814 301.024921 
L 155.355964 288.306636 
L 162.783788 274.780683 
L 170.211612 264.221166 
L 177.639435 251.916687 
L 185.067259 249.932415 
L 192.495083 243.00242 
L 199.922906 237.2939 
L 207.35073 234.177895 
L 214.778554 235.170031 
L 222.206377 235.20493 
L 229.634201 234.965621 
L 237.062025 232.610085 
L 244.489848 230.366539 
L 251.917672 228.526831 
L 259.345496 226.826722 
L 266.77332 225.625179 
L 274.201143 224.34885 
L 281.628967 222.67367 
L 289.056791 219.518205 
L 296.484614 216.434243 
L 303.912438 213.037008 
L 311.340262 209.388536 
L 318.768085 206.538318 
L 326.195909 204.590683 
L 333.623733 202.047426 
L 341.051556 200.028637 
L 348.47938 196.721422 
L 355.907204 193.464193 
L 363.335028 189.811314 
L 370.762851 186.324981 
L 378.190675 182.915449 
L 385.618499 179.592764 
L 393.046322 175.993776 
L 400.474146 173.237248 
L 407.90197 170.213311 
L 415.329793 166.733024 
L 422.757617 164.260498 
L 430.185441 160.125335 
L 437.613264 155.268231 
L 445.041088 164.128439 
L 452.468912 160.829574 
L 459.896736 162.567554 
L 467.324559 157.760988 
L 474.752383 155.319162 
L 482.180207 151.914048 
L 489.60803 149.214398 
L 497.035854 146.622744 
L 504.463678 144.416375 
L 511.891501 141.847968 
L 519.319325 139.81715 
L 526.747149 137.268576 
L 534.174972 135.407115 
L 541.602796 134.197779 
L 549.03062 115.911871 
L 556.458444 131.172528 
L 563.886267 129.691307 
L 571.314091 127.944139 
L 578.741915 127.048681 
L 586.169738 125.551287 
L 593.597562 124.78611 
L 601.025386 122.86913 
L 608.453209 121.238116 
L 615.881033 119.267207 
L 623.308857 117.952973 
L 630.73668 117.593871 
L 638.164504 115.97082 
L 645.592328 116.32764 
L 653.020152 114.63947 
L 660.447975 113.332726 
L 667.875799 112.686849 
L 675.303623 111.105483 
L 682.731446 90.422529 
L 690.15927 108.331058 
L 697.587094 106.994443 
L 705.014917 104.4756 
L 712.442741 104.396244 
L 719.870565 102.765209 
L 727.298388 101.375239 
L 734.726212 99.973911 
L 742.154036 98.629117 
L 749.58186 97.282753 
L 757.009683 96.164372 
L 764.437507 95.452119 
L 771.865331 94.204322 
L 779.293154 72.232085 
L 786.720978 91.624536 
L 794.148802 90.486199 
L 801.576625 89.45971 
L 809.004449 88.204349 
L 816.432273 87.546427 
" style="fill:none;stroke:#d62728;stroke-linecap:round;stroke-width:1.5;"/>
   </g>
   <g id="line2d_35">
    <path clip-path="url(#p11906a0ea4)" d="M 81.077727 465.54 
L 88.505551 462.239528 
L 95.933375 441.953091 
L 103.361198 410.668403 
L 110.789022 384.548805 
L 118.216846 366.067158 
L 125.644669 352.915125 
L 133.072493 339.693294 
L 140.500317 328.346051 
L 147.92814 316.739556 
L 155.355964 305.15799 
L 162.783788 292.733856 
L 170.211612 281.885174 
L 177.639435 270.607729 
L 185.067259 262.680613 
L 192.495083 258.522617 
L 199.922906 252.918794 
L 207.35073 248.426761 
L 214.778554 244.468189 
L 222.206377 242.508845 
L 229.634201 242.648442 
L 237.062025 242.254579 
L 244.489848 241.187659 
L 251.917672 239.527452 
L 259.345496 237.767532 
L 266.77332 236.087383 
L 274.201143 234.694458 
L 281.628967 233.296186 
L 289.056791 232.686997 
L 296.484614 231.499546 
L 303.912438 228.645569 
L 311.340262 225.239914 
L 318.768085 222.031222 
L 326.195909 218.285107 
L 333.623733 216.259621 
L 341.051556 214.23542 
L 348.47938 211.023773 
L 355.907204 208.238122 
L 363.335028 205.501764 
L 370.762851 203.104349 
L 378.190675 200.751917 
L 385.618499 198.106564 
L 393.046322 195.688097 
L 400.474146 193.198968 
L 407.90197 189.216286 
L 415.329793 185.462777 
L 422.757617 182.324238 
L 430.185441 188.665568 
L 437.613264 175.48356 
L 445.041088 172.566909 
L 452.468912 170.323218 
L 459.896736 175.154727 
L 467.324559 171.899047 
L 474.752383 168.761016 
L 482.180207 163.412288 
L 489.60803 152.034807 
L 497.035854 208.686996 
L 504.463678 208.041112 
L 511.891501 205.780192 
L 519.319325 205.750849 
L 526.747149 204.019132 
L 534.174972 203.588541 
L 541.602796 201.92397 
L 549.03062 200.620634 
L 556.458444 199.981687 
L 563.886267 200.947405 
L 571.314091 199.991522 
L 578.741915 197.028249 
L 586.169738 193.614355 
L 593.597562 183.780479 
L 601.025386 176.062887 
L 608.453209 171.90784 
L 615.881033 169.146419 
L 623.308857 168.072894 
L 630.73668 166.917787 
L 638.164504 166.626533 
L 645.592328 165.883558 
L 653.020152 165.003803 
L 660.447975 163.986485 
L 667.875799 162.538821 
L 675.303623 161.92658 
L 682.731446 161.454533 
L 690.15927 161.437653 
L 697.587094 433.680502 
L 705.014917 434.919483 
L 712.442741 163.765743 
L 719.870565 165.158929 
L 727.298388 165.521866 
L 734.726212 176.598175 
L 742.154036 439.584702 
L 749.58186 439.686577 
L 757.009683 440.426883 
L 764.437507 441.250914 
L 771.865331 441.586202 
L 779.293154 442.001835 
L 786.720978 442.504932 
L 794.148802 444.50206 
L 801.576625 445.139175 
L 809.004449 445.959133 
L 816.432273 446.359317 
" style="fill:none;stroke:#9467bd;stroke-linecap:round;stroke-width:1.5;"/>
   </g>
   <g id="line2d_36">
    <path clip-path="url(#p11906a0ea4)" d="M 81.077727 465.54 
L 88.505551 458.744617 
L 95.933375 437.296533 
L 103.361198 408.350096 
L 110.789022 387.794435 
L 118.216846 373.914504 
L 125.644669 363.913375 
L 133.072493 353.32893 
L 140.500317 344.13547 
L 147.92814 334.717657 
L 155.355964 325.424485 
L 162.783788 315.842147 
L 170.211612 306.444277 
L 177.639435 296.812083 
L 185.067259 289.677678 
L 192.495083 283.600223 
L 199.922906 278.684414 
L 207.35073 275.49861 
L 214.778554 271.181074 
L 222.206377 266.903423 
L 229.634201 263.822318 
L 237.062025 260.531817 
L 244.489848 258.203538 
L 251.917672 255.890216 
L 259.345496 253.681592 
L 266.77332 251.945939 
L 274.201143 250.527654 
L 281.628967 249.200746 
L 289.056791 247.794789 
L 296.484614 247.151089 
L 303.912438 247.041889 
L 311.340262 246.485211 
L 318.768085 245.814572 
L 326.195909 244.668915 
L 333.623733 243.036575 
L 341.051556 242.807513 
L 348.47938 243.333488 
L 355.907204 243.891327 
L 363.335028 243.408207 
L 370.762851 243.557568 
L 378.190675 242.631158 
L 385.618499 242.606536 
L 393.046322 241.103964 
L 400.474146 240.553371 
L 407.90197 239.345563 
L 415.329793 239.738092 
L 422.757617 244.67526 
L 430.185441 243.288127 
L 437.613264 243.376869 
L 445.041088 242.0039 
L 452.468912 239.519339 
L 459.896736 239.50852 
L 467.324559 238.627927 
L 474.752383 237.858547 
L 482.180207 238.565849 
L 489.60803 237.757563 
L 497.035854 240.354028 
L 504.463678 237.384241 
L 511.891501 238.921474 
L 519.319325 241.134676 
L 526.747149 240.005944 
L 534.174972 238.99515 
L 541.602796 238.422165 
L 549.03062 237.977579 
L 556.458444 239.474414 
L 563.886267 237.116271 
L 571.314091 233.820291 
L 578.741915 234.672577 
L 586.169738 240.078103 
L 593.597562 242.871753 
L 601.025386 243.658291 
L 608.453209 243.697689 
L 615.881033 239.515669 
L 623.308857 244.622169 
L 630.73668 244.828833 
L 638.164504 244.058963 
L 645.592328 243.392814 
L 653.020152 243.671897 
L 660.447975 242.327683 
L 667.875799 241.669181 
L 675.303623 240.636722 
L 682.731446 240.277351 
L 690.15927 236.726077 
L 697.587094 239.121267 
L 705.014917 240.927564 
L 712.442741 240.939466 
L 719.870565 239.546237 
L 727.298388 238.947715 
L 734.726212 238.937497 
L 742.154036 240.26082 
L 749.58186 239.044469 
L 757.009683 238.72749 
L 764.437507 237.456606 
L 771.865331 240.032231 
L 779.293154 238.718834 
L 786.720978 237.94218 
L 794.148802 238.498547 
L 801.576625 236.640584 
L 809.004449 237.051289 
L 816.432273 236.042596 
" style="fill:none;stroke:#8c564b;stroke-linecap:round;stroke-width:1.5;"/>
   </g>
   <g id="patch_3">
    <path d="M 44.31 465.54 
L 44.31 25.44 
" style="fill:none;"/>
   </g>
   <g id="patch_4">
    <path d="M 853.2 465.54 
L 853.2 25.44 
" style="fill:none;"/>
   </g>
   <g id="patch_5">
    <path d="M 44.31 465.54 
L 853.2 465.54 
" style="fill:none;"/>
   </g>
   <g id="patch_6">
    <path d="M 44.31 25.44 
L 853.2 25.44 
" style="fill:none;"/>
   </g>
   <g id="text_18">
    <!-- Clustered mass fraction (uniform) -->
    <defs>
     <path d="M 64.40625 67.28125 
L 64.40625 56.890625 
Q 59.421875 61.53125 53.78125 63.8125 
Q 48.140625 66.109375 41.796875 66.109375 
Q 29.296875 66.109375 22.65625 58.46875 
Q 16.015625 50.828125 16.015625 36.375 
Q 16.015625 21.96875 22.65625 14.328125 
Q 29.296875 6.6875 41.796875 6.6875 
Q 48.140625 6.6875 53.78125 8.984375 
Q 59.421875 11.28125 64.40625 15.921875 
L 64.40625 5.609375 
Q 59.234375 2.09375 53.4375 0.328125 
Q 47.65625 -1.421875 41.21875 -1.421875 
Q 24.65625 -1.421875 15.125 8.703125 
Q 5.609375 18.84375 5.609375 36.375 
Q 5.609375 53.953125 15.125 64.078125 
Q 24.65625 74.21875 41.21875 74.21875 
Q 47.75 74.21875 53.53125 72.484375 
Q 59.328125 70.75 64.40625 67.28125 
z
" id="DejaVuSans-67"/>
     <path d="M 31 75.875 
Q 24.46875 64.65625 21.28125 53.65625 
Q 18.109375 42.671875 18.109375 31.390625 
Q 18.109375 20.125 21.3125 9.0625 
Q 24.515625 -2 31 -13.1875 
L 23.1875 -13.1875 
Q 15.875 -1.703125 12.234375 9.375 
Q 8.59375 20.453125 8.59375 31.390625 
Q 8.59375 42.28125 12.203125 53.3125 
Q 15.828125 64.359375 23.1875 75.875 
z
" id="DejaVuSans-40"/>
     <path d="M 8.015625 75.875 
L 15.828125 75.875 
Q 23.140625 64.359375 26.78125 53.3125 
Q 30.421875 42.28125 30.421875 31.390625 
Q 30.421875 20.453125 26.78125 9.375 
Q 23.140625 -1.703125 15.828125 -13.1875 
L 8.015625 -13.1875 
Q 14.5 -2 17.703125 9.0625 
Q 20.90625 20.125 20.90625 31.390625 
Q 20.90625 42.671875 17.703125 53.65625 
Q 14.5 64.65625 8.015625 75.875 
z
" id="DejaVuSans-41"/>
    </defs>
    <g style="fill:#262626;" transform="translate(347.61 19.44)scale(0.12 -0.12)">
     <use xlink:href="#DejaVuSans-67"/>
     <use x="69.824219" xlink:href="#DejaVuSans-108"/>
     <use x="97.607422" xlink:href="#DejaVuSans-117"/>
     <use x="160.986328" xlink:href="#DejaVuSans-115"/>
     <use x="213.085938" xlink:href="#DejaVuSans-116"/>
     <use x="252.294922" xlink:href="#DejaVuSans-101"/>
     <use x="313.818359" xlink:href="#DejaVuSans-114"/>
     <use x="352.681641" xlink:href="#DejaVuSans-101"/>
     <use x="414.205078" xlink:href="#DejaVuSans-100"/>
     <use x="477.681641" xlink:href="#DejaVuSans-32"/>
     <use x="509.46875" xlink:href="#DejaVuSans-109"/>
     <use x="606.880859" xlink:href="#DejaVuSans-97"/>
     <use x="668.160156" xlink:href="#DejaVuSans-115"/>
     <use x="720.259766" xlink:href="#DejaVuSans-115"/>
     <use x="772.359375" xlink:href="#DejaVuSans-32"/>
     <use x="804.146484" xlink:href="#DejaVuSans-102"/>
     <use x="839.351562" xlink:href="#DejaVuSans-114"/>
     <use x="880.464844" xlink:href="#DejaVuSans-97"/>
     <use x="941.744141" xlink:href="#DejaVuSans-99"/>
     <use x="996.724609" xlink:href="#DejaVuSans-116"/>
     <use x="1035.933594" xlink:href="#DejaVuSans-105"/>
     <use x="1063.716797" xlink:href="#DejaVuSans-111"/>
     <use x="1124.898438" xlink:href="#DejaVuSans-110"/>
     <use x="1188.277344" xlink:href="#DejaVuSans-32"/>
     <use x="1220.064453" xlink:href="#DejaVuSans-40"/>
     <use x="1259.078125" xlink:href="#DejaVuSans-117"/>
     <use x="1322.457031" xlink:href="#DejaVuSans-110"/>
     <use x="1385.835938" xlink:href="#DejaVuSans-105"/>
     <use x="1413.619141" xlink:href="#DejaVuSans-102"/>
     <use x="1448.824219" xlink:href="#DejaVuSans-111"/>
     <use x="1510.005859" xlink:href="#DejaVuSans-114"/>
     <use x="1549.369141" xlink:href="#DejaVuSans-109"/>
     <use x="1646.78125" xlink:href="#DejaVuSans-41"/>
    </g>
   </g>
   <g id="legend_1">
    <g id="line2d_37">
     <path d="M 53.31 38.538437 
L 73.31 38.538437 
" style="fill:none;stroke:#1f77b4;stroke-linecap:round;stroke-width:1.5;"/>
    </g>
    <g id="line2d_38"/>
    <g id="text_19">
     <!-- omega=0.0 -->
     <defs>
      <path d="M 45.40625 27.984375 
Q 45.40625 37.75 41.375 43.109375 
Q 37.359375 48.484375 30.078125 48.484375 
Q 22.859375 48.484375 18.828125 43.109375 
Q 14.796875 37.75 14.796875 27.984375 
Q 14.796875 18.265625 18.828125 12.890625 
Q 22.859375 7.515625 30.078125 7.515625 
Q 37.359375 7.515625 41.375 12.890625 
Q 45.40625 18.265625 45.40625 27.984375 
z
M 54.390625 6.78125 
Q 54.390625 -7.171875 48.1875 -13.984375 
Q 42 -20.796875 29.203125 -20.796875 
Q 24.46875 -20.796875 20.265625 -20.09375 
Q 16.0625 -19.390625 12.109375 -17.921875 
L 12.109375 -9.1875 
Q 16.0625 -11.328125 19.921875 -12.34375 
Q 23.78125 -13.375 27.78125 -13.375 
Q 36.625 -13.375 41.015625 -8.765625 
Q 45.40625 -4.15625 45.40625 5.171875 
L 45.40625 9.625 
Q 42.625 4.78125 38.28125 2.390625 
Q 33.9375 0 27.875 0 
Q 17.828125 0 11.671875 7.65625 
Q 5.515625 15.328125 5.515625 27.984375 
Q 5.515625 40.671875 11.671875 48.328125 
Q 17.828125 56 27.875 56 
Q 33.9375 56 38.28125 53.609375 
Q 42.625 51.21875 45.40625 46.390625 
L 45.40625 54.6875 
L 54.390625 54.6875 
z
" id="DejaVuSans-103"/>
      <path d="M 10.59375 45.40625 
L 73.1875 45.40625 
L 73.1875 37.203125 
L 10.59375 37.203125 
z
M 10.59375 25.484375 
L 73.1875 25.484375 
L 73.1875 17.1875 
L 10.59375 17.1875 
z
" id="DejaVuSans-61"/>
     </defs>
     <g style="fill:#262626;" transform="translate(81.31 42.038437)scale(0.1 -0.1)">
      <use xlink:href="#DejaVuSans-111"/>
      <use x="61.181641" xlink:href="#DejaVuSans-109"/>
      <use x="158.59375" xlink:href="#DejaVuSans-101"/>
      <use x="220.117188" xlink:href="#DejaVuSans-103"/>
      <use x="283.59375" xlink:href="#DejaVuSans-97"/>
      <use x="344.873047" xlink:href="#DejaVuSans-61"/>
      <use x="428.662109" xlink:href="#DejaVuSans-48"/>
      <use x="492.285156" xlink:href="#DejaVuSans-46"/>
      <use x="524.072266" xlink:href="#DejaVuSans-48"/>
     </g>
    </g>
    <g id="line2d_39">
     <path d="M 53.31 53.216563 
L 73.31 53.216563 
" style="fill:none;stroke:#ff7f0e;stroke-linecap:round;stroke-width:1.5;"/>
    </g>
    <g id="line2d_40"/>
    <g id="text_20">
     <!-- omega=0.1 -->
     <g style="fill:#262626;" transform="translate(81.31 56.716563)scale(0.1 -0.1)">
      <use xlink:href="#DejaVuSans-111"/>
      <use x="61.181641" xlink:href="#DejaVuSans-109"/>
      <use x="158.59375" xlink:href="#DejaVuSans-101"/>
      <use x="220.117188" xlink:href="#DejaVuSans-103"/>
      <use x="283.59375" xlink:href="#DejaVuSans-97"/>
      <use x="344.873047" xlink:href="#DejaVuSans-61"/>
      <use x="428.662109" xlink:href="#DejaVuSans-48"/>
      <use x="492.285156" xlink:href="#DejaVuSans-46"/>
      <use x="524.072266" xlink:href="#DejaVuSans-49"/>
     </g>
    </g>
    <g id="line2d_41">
     <path d="M 53.31 67.894687 
L 73.31 67.894687 
" style="fill:none;stroke:#2ca02c;stroke-linecap:round;stroke-width:1.5;"/>
    </g>
    <g id="line2d_42"/>
    <g id="text_21">
     <!-- omega=0.2 -->
     <g style="fill:#262626;" transform="translate(81.31 71.394687)scale(0.1 -0.1)">
      <use xlink:href="#DejaVuSans-111"/>
      <use x="61.181641" xlink:href="#DejaVuSans-109"/>
      <use x="158.59375" xlink:href="#DejaVuSans-101"/>
      <use x="220.117188" xlink:href="#DejaVuSans-103"/>
      <use x="283.59375" xlink:href="#DejaVuSans-97"/>
      <use x="344.873047" xlink:href="#DejaVuSans-61"/>
      <use x="428.662109" xlink:href="#DejaVuSans-48"/>
      <use x="492.285156" xlink:href="#DejaVuSans-46"/>
      <use x="524.072266" xlink:href="#DejaVuSans-50"/>
     </g>
    </g>
    <g id="line2d_43">
     <path d="M 53.31 82.572812 
L 73.31 82.572812 
" style="fill:none;stroke:#d62728;stroke-linecap:round;stroke-width:1.5;"/>
    </g>
    <g id="line2d_44"/>
    <g id="text_22">
     <!-- omega=0.3 -->
     <g style="fill:#262626;" transform="translate(81.31 86.072812)scale(0.1 -0.1)">
      <use xlink:href="#DejaVuSans-111"/>
      <use x="61.181641" xlink:href="#DejaVuSans-109"/>
      <use x="158.59375" xlink:href="#DejaVuSans-101"/>
      <use x="220.117188" xlink:href="#DejaVuSans-103"/>
      <use x="283.59375" xlink:href="#DejaVuSans-97"/>
      <use x="344.873047" xlink:href="#DejaVuSans-61"/>
      <use x="428.662109" xlink:href="#DejaVuSans-48"/>
      <use x="492.285156" xlink:href="#DejaVuSans-46"/>
      <use x="524.072266" xlink:href="#DejaVuSans-51"/>
     </g>
    </g>
    <g id="line2d_45">
     <path d="M 53.31 97.250937 
L 73.31 97.250937 
" style="fill:none;stroke:#9467bd;stroke-linecap:round;stroke-width:1.5;"/>
    </g>
    <g id="line2d_46"/>
    <g id="text_23">
     <!-- omega=0.4 -->
     <g style="fill:#262626;" transform="translate(81.31 100.750937)scale(0.1 -0.1)">
      <use xlink:href="#DejaVuSans-111"/>
      <use x="61.181641" xlink:href="#DejaVuSans-109"/>
      <use x="158.59375" xlink:href="#DejaVuSans-101"/>
      <use x="220.117188" xlink:href="#DejaVuSans-103"/>
      <use x="283.59375" xlink:href="#DejaVuSans-97"/>
      <use x="344.873047" xlink:href="#DejaVuSans-61"/>
      <use x="428.662109" xlink:href="#DejaVuSans-48"/>
      <use x="492.285156" xlink:href="#DejaVuSans-46"/>
      <use x="524.072266" xlink:href="#DejaVuSans-52"/>
     </g>
    </g>
    <g id="line2d_47">
     <path d="M 53.31 111.929062 
L 73.31 111.929062 
" style="fill:none;stroke:#8c564b;stroke-linecap:round;stroke-width:1.5;"/>
    </g>
    <g id="line2d_48"/>
    <g id="text_24">
     <!-- omega=0.7 -->
     <g style="fill:#262626;" transform="translate(81.31 115.429062)scale(0.1 -0.1)">
      <use xlink:href="#DejaVuSans-111"/>
      <use x="61.181641" xlink:href="#DejaVuSans-109"/>
      <use x="158.59375" xlink:href="#DejaVuSans-101"/>
      <use x="220.117188" xlink:href="#DejaVuSans-103"/>
      <use x="283.59375" xlink:href="#DejaVuSans-97"/>
      <use x="344.873047" xlink:href="#DejaVuSans-61"/>
      <use x="428.662109" xlink:href="#DejaVuSans-48"/>
      <use x="492.285156" xlink:href="#DejaVuSans-46"/>
      <use x="524.072266" xlink:href="#DejaVuSans-55"/>
     </g>
    </g>
   </g>
  </g>
 </g>
 <defs>
  <clipPath id="p11906a0ea4">
   <rect height="440.1" width="808.89" x="44.31" y="25.44"/>
  </clipPath>
 </defs>
</svg>
