<?xml version="1.0" encoding="utf-8" standalone="no"?>
<!DOCTYPE svg PUBLIC "-//W3C//DTD SVG 1.1//EN"
  "http://www.w3.org/Graphics/SVG/1.1/DTD/svg11.dtd">
<!-- Created with matplotlib (https://matplotlib.org/) -->
<svg height="504pt" version="1.1" viewBox="0 0 864 504" width="864pt" xmlns="http://www.w3.org/2000/svg" xmlns:xlink="http://www.w3.org/1999/xlink">
 <defs>
  <style type="text/css">
*{stroke-linecap:butt;stroke-linejoin:round;}
  </style>
 </defs>
 <g id="figure_1">
  <g id="patch_1">
   <path d="M 0 504 
L 864 504 
L 864 0 
L 0 0 
z
" style="fill:#ffffff;"/>
  </g>
  <g id="axes_1">
   <g id="patch_2">
    <path d="M 44.31 465.54 
L 853.2 465.54 
L 853.2 25.44 
L 44.31 25.44 
z
" style="fill:#eaeaf2;"/>
   </g>
   <g id="matplotlib.axis_1">
    <g id="xtick_1">
     <g id="line2d_1">
      <path clip-path="url(#p8c5efeee60)" d="M 81.077727 465.54 
L 81.077727 25.44 
" style="fill:none;stroke:#ffffff;stroke-linecap:round;stroke-width:0.8;"/>
     </g>
     <g id="line2d_2"/>
     <g id="text_1">
      <!-- 0 -->
      <defs>
       <path d="M 31.78125 66.40625 
Q 24.171875 66.40625 20.328125 58.90625 
Q 16.5 51.421875 16.5 36.375 
Q 16.5 21.390625 20.328125 13.890625 
Q 24.171875 6.390625 31.78125 6.390625 
Q 39.453125 6.390625 43.28125 13.890625 
Q 47.125 21.390625 47.125 36.375 
Q 47.125 51.421875 43.28125 58.90625 
Q 39.453125 66.40625 31.78125 66.40625 
z
M 31.78125 74.21875 
Q 44.046875 74.21875 50.515625 64.515625 
Q 56.984375 54.828125 56.984375 36.375 
Q 56.984375 17.96875 50.515625 8.265625 
Q 44.046875 -1.421875 31.78125 -1.421875 
Q 19.53125 -1.421875 13.0625 8.265625 
Q 6.59375 17.96875 6.59375 36.375 
Q 6.59375 54.828125 13.0625 64.515625 
Q 19.53125 74.21875 31.78125 74.21875 
z
" id="DejaVuSans-48"/>
      </defs>
      <g style="fill:#262626;" transform="translate(77.896477 476.638438)scale(0.1 -0.1)">
       <use xlink:href="#DejaVuSans-48"/>
      </g>
     </g>
    </g>
    <g id="xtick_2">
     <g id="line2d_3">
      <path clip-path="url(#p8c5efeee60)" d="M 244.489848 465.54 
L 244.489848 25.44 
" style="fill:none;stroke:#ffffff;stroke-linecap:round;stroke-width:0.8;"/>
     </g>
     <g id="line2d_4"/>
     <g id="text_2">
      <!-- 2 -->
      <defs>
       <path d="M 19.1875 8.296875 
L 53.609375 8.296875 
L 53.609375 0 
L 7.328125 0 
L 7.328125 8.296875 
Q 12.9375 14.109375 22.625 23.890625 
Q 32.328125 33.6875 34.8125 36.53125 
Q 39.546875 41.84375 41.421875 45.53125 
Q 43.3125 49.21875 43.3125 52.78125 
Q 43.3125 58.59375 39.234375 62.25 
Q 35.15625 65.921875 28.609375 65.921875 
Q 23.96875 65.921875 18.8125 64.3125 
Q 13.671875 62.703125 7.8125 59.421875 
L 7.8125 69.390625 
Q 13.765625 71.78125 18.9375 73 
Q 24.125 74.21875 28.421875 74.21875 
Q 39.75 74.21875 46.484375 68.546875 
Q 53.21875 62.890625 53.21875 53.421875 
Q 53.21875 48.921875 51.53125 44.890625 
Q 49.859375 40.875 45.40625 35.40625 
Q 44.1875 33.984375 37.640625 27.21875 
Q 31.109375 20.453125 19.1875 8.296875 
z
" id="DejaVuSans-50"/>
      </defs>
      <g style="fill:#262626;" transform="translate(241.308598 476.638438)scale(0.1 -0.1)">
       <use xlink:href="#DejaVuSans-50"/>
      </g>
     </g>
    </g>
    <g id="xtick_3">
     <g id="line2d_5">
      <path clip-path="url(#p8c5efeee60)" d="M 407.90197 465.54 
L 407.90197 25.44 
" style="fill:none;stroke:#ffffff;stroke-linecap:round;stroke-width:0.8;"/>
     </g>
     <g id="line2d_6"/>
     <g id="text_3">
      <!-- 4 -->
      <defs>
       <path d="M 37.796875 64.3125 
L 12.890625 25.390625 
L 37.796875 25.390625 
z
M 35.203125 72.90625 
L 47.609375 72.90625 
L 47.609375 25.390625 
L 58.015625 25.390625 
L 58.015625 17.1875 
L 47.609375 17.1875 
L 47.609375 0 
L 37.796875 0 
L 37.796875 17.1875 
L 4.890625 17.1875 
L 4.890625 26.703125 
z
" id="DejaVuSans-52"/>
      </defs>
      <g style="fill:#262626;" transform="translate(404.72072 476.638438)scale(0.1 -0.1)">
       <use xlink:href="#DejaVuSans-52"/>
      </g>
     </g>
    </g>
    <g id="xtick_4">
     <g id="line2d_7">
      <path clip-path="url(#p8c5efeee60)" d="M 571.314091 465.54 
L 571.314091 25.44 
" style="fill:none;stroke:#ffffff;stroke-linecap:round;stroke-width:0.8;"/>
     </g>
     <g id="line2d_8"/>
     <g id="text_4">
      <!-- 6 -->
      <defs>
       <path d="M 33.015625 40.375 
Q 26.375 40.375 22.484375 35.828125 
Q 18.609375 31.296875 18.609375 23.390625 
Q 18.609375 15.53125 22.484375 10.953125 
Q 26.375 6.390625 33.015625 6.390625 
Q 39.65625 6.390625 43.53125 10.953125 
Q 47.40625 15.53125 47.40625 23.390625 
Q 47.40625 31.296875 43.53125 35.828125 
Q 39.65625 40.375 33.015625 40.375 
z
M 52.59375 71.296875 
L 52.59375 62.3125 
Q 48.875 64.0625 45.09375 64.984375 
Q 41.3125 65.921875 37.59375 65.921875 
Q 27.828125 65.921875 22.671875 59.328125 
Q 17.53125 52.734375 16.796875 39.40625 
Q 19.671875 43.65625 24.015625 45.921875 
Q 28.375 48.1875 33.59375 48.1875 
Q 44.578125 48.1875 50.953125 41.515625 
Q 57.328125 34.859375 57.328125 23.390625 
Q 57.328125 12.15625 50.6875 5.359375 
Q 44.046875 -1.421875 33.015625 -1.421875 
Q 20.359375 -1.421875 13.671875 8.265625 
Q 6.984375 17.96875 6.984375 36.375 
Q 6.984375 53.65625 15.1875 63.9375 
Q 23.390625 74.21875 37.203125 74.21875 
Q 40.921875 74.21875 44.703125 73.484375 
Q 48.484375 72.75 52.59375 71.296875 
z
" id="DejaVuSans-54"/>
      </defs>
      <g style="fill:#262626;" transform="translate(568.132841 476.638438)scale(0.1 -0.1)">
       <use xlink:href="#DejaVuSans-54"/>
      </g>
     </g>
    </g>
    <g id="xtick_5">
     <g id="line2d_9">
      <path clip-path="url(#p8c5efeee60)" d="M 734.726212 465.54 
L 734.726212 25.44 
" style="fill:none;stroke:#ffffff;stroke-linecap:round;stroke-width:0.8;"/>
     </g>
     <g id="line2d_10"/>
     <g id="text_5">
      <!-- 8 -->
      <defs>
       <path d="M 31.78125 34.625 
Q 24.75 34.625 20.71875 30.859375 
Q 16.703125 27.09375 16.703125 20.515625 
Q 16.703125 13.921875 20.71875 10.15625 
Q 24.75 6.390625 31.78125 6.390625 
Q 38.8125 6.390625 42.859375 10.171875 
Q 46.921875 13.96875 46.921875 20.515625 
Q 46.921875 27.09375 42.890625 30.859375 
Q 38.875 34.625 31.78125 34.625 
z
M 21.921875 38.8125 
Q 15.578125 40.375 12.03125 44.71875 
Q 8.5 49.078125 8.5 55.328125 
Q 8.5 64.0625 14.71875 69.140625 
Q 20.953125 74.21875 31.78125 74.21875 
Q 42.671875 74.21875 48.875 69.140625 
Q 55.078125 64.0625 55.078125 55.328125 
Q 55.078125 49.078125 51.53125 44.71875 
Q 48 40.375 41.703125 38.8125 
Q 48.828125 37.15625 52.796875 32.3125 
Q 56.78125 27.484375 56.78125 20.515625 
Q 56.78125 9.90625 50.3125 4.234375 
Q 43.84375 -1.421875 31.78125 -1.421875 
Q 19.734375 -1.421875 13.25 4.234375 
Q 6.78125 9.90625 6.78125 20.515625 
Q 6.78125 27.484375 10.78125 32.3125 
Q 14.796875 37.15625 21.921875 38.8125 
z
M 18.3125 54.390625 
Q 18.3125 48.734375 21.84375 45.5625 
Q 25.390625 42.390625 31.78125 42.390625 
Q 38.140625 42.390625 41.71875 45.5625 
Q 45.3125 48.734375 45.3125 54.390625 
Q 45.3125 60.0625 41.71875 63.234375 
Q 38.140625 66.40625 31.78125 66.40625 
Q 25.390625 66.40625 21.84375 63.234375 
Q 18.3125 60.0625 18.3125 54.390625 
z
" id="DejaVuSans-56"/>
      </defs>
      <g style="fill:#262626;" transform="translate(731.544962 476.638438)scale(0.1 -0.1)">
       <use xlink:href="#DejaVuSans-56"/>
      </g>
     </g>
    </g>
    <g id="text_6">
     <!-- Time -->
     <defs>
      <path d="M -0.296875 72.90625 
L 61.375 72.90625 
L 61.375 64.59375 
L 35.5 64.59375 
L 35.5 0 
L 25.59375 0 
L 25.59375 64.59375 
L -0.296875 64.59375 
z
" id="DejaVuSans-84"/>
      <path d="M 9.421875 54.6875 
L 18.40625 54.6875 
L 18.40625 0 
L 9.421875 0 
z
M 9.421875 75.984375 
L 18.40625 75.984375 
L 18.40625 64.59375 
L 9.421875 64.59375 
z
" id="DejaVuSans-105"/>
      <path d="M 52 44.1875 
Q 55.375 50.25 60.0625 53.125 
Q 64.75 56 71.09375 56 
Q 79.640625 56 84.28125 50.015625 
Q 88.921875 44.046875 88.921875 33.015625 
L 88.921875 0 
L 79.890625 0 
L 79.890625 32.71875 
Q 79.890625 40.578125 77.09375 44.375 
Q 74.3125 48.1875 68.609375 48.1875 
Q 61.625 48.1875 57.5625 43.546875 
Q 53.515625 38.921875 53.515625 30.90625 
L 53.515625 0 
L 44.484375 0 
L 44.484375 32.71875 
Q 44.484375 40.625 41.703125 44.40625 
Q 38.921875 48.1875 33.109375 48.1875 
Q 26.21875 48.1875 22.15625 43.53125 
Q 18.109375 38.875 18.109375 30.90625 
L 18.109375 0 
L 9.078125 0 
L 9.078125 54.6875 
L 18.109375 54.6875 
L 18.109375 46.1875 
Q 21.1875 51.21875 25.484375 53.609375 
Q 29.78125 56 35.6875 56 
Q 41.65625 56 45.828125 52.96875 
Q 50 49.953125 52 44.1875 
z
" id="DejaVuSans-109"/>
      <path d="M 56.203125 29.59375 
L 56.203125 25.203125 
L 14.890625 25.203125 
Q 15.484375 15.921875 20.484375 11.0625 
Q 25.484375 6.203125 34.421875 6.203125 
Q 39.59375 6.203125 44.453125 7.46875 
Q 49.3125 8.734375 54.109375 11.28125 
L 54.109375 2.78125 
Q 49.265625 0.734375 44.1875 -0.34375 
Q 39.109375 -1.421875 33.890625 -1.421875 
Q 20.796875 -1.421875 13.15625 6.1875 
Q 5.515625 13.8125 5.515625 26.8125 
Q 5.515625 40.234375 12.765625 48.109375 
Q 20.015625 56 32.328125 56 
Q 43.359375 56 49.78125 48.890625 
Q 56.203125 41.796875 56.203125 29.59375 
z
M 47.21875 32.234375 
Q 47.125 39.59375 43.09375 43.984375 
Q 39.0625 48.390625 32.421875 48.390625 
Q 24.90625 48.390625 20.390625 44.140625 
Q 15.875 39.890625 15.1875 32.171875 
z
" id="DejaVuSans-101"/>
     </defs>
     <g style="fill:#262626;" transform="translate(436.521406 490.316562)scale(0.1 -0.1)">
      <use xlink:href="#DejaVuSans-84"/>
      <use x="57.958984" xlink:href="#DejaVuSans-105"/>
      <use x="85.742188" xlink:href="#DejaVuSans-109"/>
      <use x="183.154297" xlink:href="#DejaVuSans-101"/>
     </g>
    </g>
   </g>
   <g id="matplotlib.axis_2">
    <g id="ytick_1">
     <g id="line2d_11">
      <path clip-path="url(#p8c5efeee60)" d="M 44.31 465.54 
L 853.2 465.54 
" style="fill:none;stroke:#ffffff;stroke-linecap:round;stroke-width:0.8;"/>
     </g>
     <g id="line2d_12"/>
     <g id="text_7">
      <!-- 0.0 -->
      <defs>
       <path d="M 10.6875 12.40625 
L 21 12.40625 
L 21 0 
L 10.6875 0 
z
" id="DejaVuSans-46"/>
      </defs>
      <g style="fill:#262626;" transform="translate(24.906875 469.339219)scale(0.1 -0.1)">
       <use xlink:href="#DejaVuSans-48"/>
       <use x="63.623047" xlink:href="#DejaVuSans-46"/>
       <use x="95.410156" xlink:href="#DejaVuSans-48"/>
      </g>
     </g>
    </g>
    <g id="ytick_2">
     <g id="line2d_13">
      <path clip-path="url(#p8c5efeee60)" d="M 44.31 411.635415 
L 853.2 411.635415 
" style="fill:none;stroke:#ffffff;stroke-linecap:round;stroke-width:0.8;"/>
     </g>
     <g id="line2d_14"/>
     <g id="text_8">
      <!-- 0.1 -->
      <defs>
       <path d="M 12.40625 8.296875 
L 28.515625 8.296875 
L 28.515625 63.921875 
L 10.984375 60.40625 
L 10.984375 69.390625 
L 28.421875 72.90625 
L 38.28125 72.90625 
L 38.28125 8.296875 
L 54.390625 8.296875 
L 54.390625 0 
L 12.40625 0 
z
" id="DejaVuSans-49"/>
      </defs>
      <g style="fill:#262626;" transform="translate(24.906875 415.434634)scale(0.1 -0.1)">
       <use xlink:href="#DejaVuSans-48"/>
       <use x="63.623047" xlink:href="#DejaVuSans-46"/>
       <use x="95.410156" xlink:href="#DejaVuSans-49"/>
      </g>
     </g>
    </g>
    <g id="ytick_3">
     <g id="line2d_15">
      <path clip-path="url(#p8c5efeee60)" d="M 44.31 357.73083 
L 853.2 357.73083 
" style="fill:none;stroke:#ffffff;stroke-linecap:round;stroke-width:0.8;"/>
     </g>
     <g id="line2d_16"/>
     <g id="text_9">
      <!-- 0.2 -->
      <g style="fill:#262626;" transform="translate(24.906875 361.530049)scale(0.1 -0.1)">
       <use xlink:href="#DejaVuSans-48"/>
       <use x="63.623047" xlink:href="#DejaVuSans-46"/>
       <use x="95.410156" xlink:href="#DejaVuSans-50"/>
      </g>
     </g>
    </g>
    <g id="ytick_4">
     <g id="line2d_17">
      <path clip-path="url(#p8c5efeee60)" d="M 44.31 303.826245 
L 853.2 303.826245 
" style="fill:none;stroke:#ffffff;stroke-linecap:round;stroke-width:0.8;"/>
     </g>
     <g id="line2d_18"/>
     <g id="text_10">
      <!-- 0.3 -->
      <defs>
       <path d="M 40.578125 39.3125 
Q 47.65625 37.796875 51.625 33 
Q 55.609375 28.21875 55.609375 21.1875 
Q 55.609375 10.40625 48.1875 4.484375 
Q 40.765625 -1.421875 27.09375 -1.421875 
Q 22.515625 -1.421875 17.65625 -0.515625 
Q 12.796875 0.390625 7.625 2.203125 
L 7.625 11.71875 
Q 11.71875 9.328125 16.59375 8.109375 
Q 21.484375 6.890625 26.8125 6.890625 
Q 36.078125 6.890625 40.9375 10.546875 
Q 45.796875 14.203125 45.796875 21.1875 
Q 45.796875 27.640625 41.28125 31.265625 
Q 36.765625 34.90625 28.71875 34.90625 
L 20.21875 34.90625 
L 20.21875 43.015625 
L 29.109375 43.015625 
Q 36.375 43.015625 40.234375 45.921875 
Q 44.09375 48.828125 44.09375 54.296875 
Q 44.09375 59.90625 40.109375 62.90625 
Q 36.140625 65.921875 28.71875 65.921875 
Q 24.65625 65.921875 20.015625 65.03125 
Q 15.375 64.15625 9.8125 62.3125 
L 9.8125 71.09375 
Q 15.4375 72.65625 20.34375 73.4375 
Q 25.25 74.21875 29.59375 74.21875 
Q 40.828125 74.21875 47.359375 69.109375 
Q 53.90625 64.015625 53.90625 55.328125 
Q 53.90625 49.265625 50.4375 45.09375 
Q 46.96875 40.921875 40.578125 39.3125 
z
" id="DejaVuSans-51"/>
      </defs>
      <g style="fill:#262626;" transform="translate(24.906875 307.625464)scale(0.1 -0.1)">
       <use xlink:href="#DejaVuSans-48"/>
       <use x="63.623047" xlink:href="#DejaVuSans-46"/>
       <use x="95.410156" xlink:href="#DejaVuSans-51"/>
      </g>
     </g>
    </g>
    <g id="ytick_5">
     <g id="line2d_19">
      <path clip-path="url(#p8c5efeee60)" d="M 44.31 249.92166 
L 853.2 249.92166 
" style="fill:none;stroke:#ffffff;stroke-linecap:round;stroke-width:0.8;"/>
     </g>
     <g id="line2d_20"/>
     <g id="text_11">
      <!-- 0.4 -->
      <g style="fill:#262626;" transform="translate(24.906875 253.720879)scale(0.1 -0.1)">
       <use xlink:href="#DejaVuSans-48"/>
       <use x="63.623047" xlink:href="#DejaVuSans-46"/>
       <use x="95.410156" xlink:href="#DejaVuSans-52"/>
      </g>
     </g>
    </g>
    <g id="ytick_6">
     <g id="line2d_21">
      <path clip-path="url(#p8c5efeee60)" d="M 44.31 196.017075 
L 853.2 196.017075 
" style="fill:none;stroke:#ffffff;stroke-linecap:round;stroke-width:0.8;"/>
     </g>
     <g id="line2d_22"/>
     <g id="text_12">
      <!-- 0.5 -->
      <defs>
       <path d="M 10.796875 72.90625 
L 49.515625 72.90625 
L 49.515625 64.59375 
L 19.828125 64.59375 
L 19.828125 46.734375 
Q 21.96875 47.46875 24.109375 47.828125 
Q 26.265625 48.1875 28.421875 48.1875 
Q 40.625 48.1875 47.75 41.5 
Q 54.890625 34.8125 54.890625 23.390625 
Q 54.890625 11.625 47.5625 5.09375 
Q 40.234375 -1.421875 26.90625 -1.421875 
Q 22.3125 -1.421875 17.546875 -0.640625 
Q 12.796875 0.140625 7.71875 1.703125 
L 7.71875 11.625 
Q 12.109375 9.234375 16.796875 8.0625 
Q 21.484375 6.890625 26.703125 6.890625 
Q 35.15625 6.890625 40.078125 11.328125 
Q 45.015625 15.765625 45.015625 23.390625 
Q 45.015625 31 40.078125 35.4375 
Q 35.15625 39.890625 26.703125 39.890625 
Q 22.75 39.890625 18.8125 39.015625 
Q 14.890625 38.140625 10.796875 36.28125 
z
" id="DejaVuSans-53"/>
      </defs>
      <g style="fill:#262626;" transform="translate(24.906875 199.816294)scale(0.1 -0.1)">
       <use xlink:href="#DejaVuSans-48"/>
       <use x="63.623047" xlink:href="#DejaVuSans-46"/>
       <use x="95.410156" xlink:href="#DejaVuSans-53"/>
      </g>
     </g>
    </g>
    <g id="ytick_7">
     <g id="line2d_23">
      <path clip-path="url(#p8c5efeee60)" d="M 44.31 142.11249 
L 853.2 142.11249 
" style="fill:none;stroke:#ffffff;stroke-linecap:round;stroke-width:0.8;"/>
     </g>
     <g id="line2d_24"/>
     <g id="text_13">
      <!-- 0.6 -->
      <g style="fill:#262626;" transform="translate(24.906875 145.911709)scale(0.1 -0.1)">
       <use xlink:href="#DejaVuSans-48"/>
       <use x="63.623047" xlink:href="#DejaVuSans-46"/>
       <use x="95.410156" xlink:href="#DejaVuSans-54"/>
      </g>
     </g>
    </g>
    <g id="ytick_8">
     <g id="line2d_25">
      <path clip-path="url(#p8c5efeee60)" d="M 44.31 88.207905 
L 853.2 88.207905 
" style="fill:none;stroke:#ffffff;stroke-linecap:round;stroke-width:0.8;"/>
     </g>
     <g id="line2d_26"/>
     <g id="text_14">
      <!-- 0.7 -->
      <defs>
       <path d="M 8.203125 72.90625 
L 55.078125 72.90625 
L 55.078125 68.703125 
L 28.609375 0 
L 18.3125 0 
L 43.21875 64.59375 
L 8.203125 64.59375 
z
" id="DejaVuSans-55"/>
      </defs>
      <g style="fill:#262626;" transform="translate(24.906875 92.007124)scale(0.1 -0.1)">
       <use xlink:href="#DejaVuSans-48"/>
       <use x="63.623047" xlink:href="#DejaVuSans-46"/>
       <use x="95.410156" xlink:href="#DejaVuSans-55"/>
      </g>
     </g>
    </g>
    <g id="ytick_9">
     <g id="line2d_27">
      <path clip-path="url(#p8c5efeee60)" d="M 44.31 34.30332 
L 853.2 34.30332 
" style="fill:none;stroke:#ffffff;stroke-linecap:round;stroke-width:0.8;"/>
     </g>
     <g id="line2d_28"/>
     <g id="text_15">
      <!-- 0.8 -->
      <g style="fill:#262626;" transform="translate(24.906875 38.102539)scale(0.1 -0.1)">
       <use xlink:href="#DejaVuSans-48"/>
       <use x="63.623047" xlink:href="#DejaVuSans-46"/>
       <use x="95.410156" xlink:href="#DejaVuSans-56"/>
      </g>
     </g>
    </g>
    <g id="text_16">
     <!-- Fraction of clustered particles -->
     <defs>
      <path d="M 9.8125 72.90625 
L 51.703125 72.90625 
L 51.703125 64.59375 
L 19.671875 64.59375 
L 19.671875 43.109375 
L 48.578125 43.109375 
L 48.578125 34.8125 
L 19.671875 34.8125 
L 19.671875 0 
L 9.8125 0 
z
" id="DejaVuSans-70"/>
      <path d="M 41.109375 46.296875 
Q 39.59375 47.171875 37.8125 47.578125 
Q 36.03125 48 33.890625 48 
Q 26.265625 48 22.1875 43.046875 
Q 18.109375 38.09375 18.109375 28.8125 
L 18.109375 0 
L 9.078125 0 
L 9.078125 54.6875 
L 18.109375 54.6875 
L 18.109375 46.1875 
Q 20.953125 51.171875 25.484375 53.578125 
Q 30.03125 56 36.53125 56 
Q 37.453125 56 38.578125 55.875 
Q 39.703125 55.765625 41.0625 55.515625 
z
" id="DejaVuSans-114"/>
      <path d="M 34.28125 27.484375 
Q 23.390625 27.484375 19.1875 25 
Q 14.984375 22.515625 14.984375 16.5 
Q 14.984375 11.71875 18.140625 8.90625 
Q 21.296875 6.109375 26.703125 6.109375 
Q 34.1875 6.109375 38.703125 11.40625 
Q 43.21875 16.703125 43.21875 25.484375 
L 43.21875 27.484375 
z
M 52.203125 31.203125 
L 52.203125 0 
L 43.21875 0 
L 43.21875 8.296875 
Q 40.140625 3.328125 35.546875 0.953125 
Q 30.953125 -1.421875 24.3125 -1.421875 
Q 15.921875 -1.421875 10.953125 3.296875 
Q 6 8.015625 6 15.921875 
Q 6 25.140625 12.171875 29.828125 
Q 18.359375 34.515625 30.609375 34.515625 
L 43.21875 34.515625 
L 43.21875 35.40625 
Q 43.21875 41.609375 39.140625 45 
Q 35.0625 48.390625 27.6875 48.390625 
Q 23 48.390625 18.546875 47.265625 
Q 14.109375 46.140625 10.015625 43.890625 
L 10.015625 52.203125 
Q 14.9375 54.109375 19.578125 55.046875 
Q 24.21875 56 28.609375 56 
Q 40.484375 56 46.34375 49.84375 
Q 52.203125 43.703125 52.203125 31.203125 
z
" id="DejaVuSans-97"/>
      <path d="M 48.78125 52.59375 
L 48.78125 44.1875 
Q 44.96875 46.296875 41.140625 47.34375 
Q 37.3125 48.390625 33.40625 48.390625 
Q 24.65625 48.390625 19.8125 42.84375 
Q 14.984375 37.3125 14.984375 27.296875 
Q 14.984375 17.28125 19.8125 11.734375 
Q 24.65625 6.203125 33.40625 6.203125 
Q 37.3125 6.203125 41.140625 7.25 
Q 44.96875 8.296875 48.78125 10.40625 
L 48.78125 2.09375 
Q 45.015625 0.34375 40.984375 -0.53125 
Q 36.96875 -1.421875 32.421875 -1.421875 
Q 20.0625 -1.421875 12.78125 6.34375 
Q 5.515625 14.109375 5.515625 27.296875 
Q 5.515625 40.671875 12.859375 48.328125 
Q 20.21875 56 33.015625 56 
Q 37.15625 56 41.109375 55.140625 
Q 45.0625 54.296875 48.78125 52.59375 
z
" id="DejaVuSans-99"/>
      <path d="M 18.3125 70.21875 
L 18.3125 54.6875 
L 36.8125 54.6875 
L 36.8125 47.703125 
L 18.3125 47.703125 
L 18.3125 18.015625 
Q 18.3125 11.328125 20.140625 9.421875 
Q 21.96875 7.515625 27.59375 7.515625 
L 36.8125 7.515625 
L 36.8125 0 
L 27.59375 0 
Q 17.1875 0 13.234375 3.875 
Q 9.28125 7.765625 9.28125 18.015625 
L 9.28125 47.703125 
L 2.6875 47.703125 
L 2.6875 54.6875 
L 9.28125 54.6875 
L 9.28125 70.21875 
z
" id="DejaVuSans-116"/>
      <path d="M 30.609375 48.390625 
Q 23.390625 48.390625 19.1875 42.75 
Q 14.984375 37.109375 14.984375 27.296875 
Q 14.984375 17.484375 19.15625 11.84375 
Q 23.34375 6.203125 30.609375 6.203125 
Q 37.796875 6.203125 41.984375 11.859375 
Q 46.1875 17.53125 46.1875 27.296875 
Q 46.1875 37.015625 41.984375 42.703125 
Q 37.796875 48.390625 30.609375 48.390625 
z
M 30.609375 56 
Q 42.328125 56 49.015625 48.375 
Q 55.71875 40.765625 55.71875 27.296875 
Q 55.71875 13.875 49.015625 6.21875 
Q 42.328125 -1.421875 30.609375 -1.421875 
Q 18.84375 -1.421875 12.171875 6.21875 
Q 5.515625 13.875 5.515625 27.296875 
Q 5.515625 40.765625 12.171875 48.375 
Q 18.84375 56 30.609375 56 
z
" id="DejaVuSans-111"/>
      <path d="M 54.890625 33.015625 
L 54.890625 0 
L 45.90625 0 
L 45.90625 32.71875 
Q 45.90625 40.484375 42.875 44.328125 
Q 39.84375 48.1875 33.796875 48.1875 
Q 26.515625 48.1875 22.3125 43.546875 
Q 18.109375 38.921875 18.109375 30.90625 
L 18.109375 0 
L 9.078125 0 
L 9.078125 54.6875 
L 18.109375 54.6875 
L 18.109375 46.1875 
Q 21.34375 51.125 25.703125 53.5625 
Q 30.078125 56 35.796875 56 
Q 45.21875 56 50.046875 50.171875 
Q 54.890625 44.34375 54.890625 33.015625 
z
" id="DejaVuSans-110"/>
      <path id="DejaVuSans-32"/>
      <path d="M 37.109375 75.984375 
L 37.109375 68.5 
L 28.515625 68.5 
Q 23.6875 68.5 21.796875 66.546875 
Q 19.921875 64.59375 19.921875 59.515625 
L 19.921875 54.6875 
L 34.71875 54.6875 
L 34.71875 47.703125 
L 19.921875 47.703125 
L 19.921875 0 
L 10.890625 0 
L 10.890625 47.703125 
L 2.296875 47.703125 
L 2.296875 54.6875 
L 10.890625 54.6875 
L 10.890625 58.5 
Q 10.890625 67.625 15.140625 71.796875 
Q 19.390625 75.984375 28.609375 75.984375 
z
" id="DejaVuSans-102"/>
      <path d="M 9.421875 75.984375 
L 18.40625 75.984375 
L 18.40625 0 
L 9.421875 0 
z
" id="DejaVuSans-108"/>
      <path d="M 8.5 21.578125 
L 8.5 54.6875 
L 17.484375 54.6875 
L 17.484375 21.921875 
Q 17.484375 14.15625 20.5 10.265625 
Q 23.53125 6.390625 29.59375 6.390625 
Q 36.859375 6.390625 41.078125 11.03125 
Q 45.3125 15.671875 45.3125 23.6875 
L 45.3125 54.6875 
L 54.296875 54.6875 
L 54.296875 0 
L 45.3125 0 
L 45.3125 8.40625 
Q 42.046875 3.421875 37.71875 1 
Q 33.40625 -1.421875 27.6875 -1.421875 
Q 18.265625 -1.421875 13.375 4.4375 
Q 8.5 10.296875 8.5 21.578125 
z
M 31.109375 56 
z
" id="DejaVuSans-117"/>
      <path d="M 44.28125 53.078125 
L 44.28125 44.578125 
Q 40.484375 46.53125 36.375 47.5 
Q 32.28125 48.484375 27.875 48.484375 
Q 21.1875 48.484375 17.84375 46.4375 
Q 14.5 44.390625 14.5 40.28125 
Q 14.5 37.15625 16.890625 35.375 
Q 19.28125 33.59375 26.515625 31.984375 
L 29.59375 31.296875 
Q 39.15625 29.25 43.1875 25.515625 
Q 47.21875 21.78125 47.21875 15.09375 
Q 47.21875 7.46875 41.1875 3.015625 
Q 35.15625 -1.421875 24.609375 -1.421875 
Q 20.21875 -1.421875 15.453125 -0.5625 
Q 10.6875 0.296875 5.421875 2 
L 5.421875 11.28125 
Q 10.40625 8.6875 15.234375 7.390625 
Q 20.0625 6.109375 24.8125 6.109375 
Q 31.15625 6.109375 34.5625 8.28125 
Q 37.984375 10.453125 37.984375 14.40625 
Q 37.984375 18.0625 35.515625 20.015625 
Q 33.0625 21.96875 24.703125 23.78125 
L 21.578125 24.515625 
Q 13.234375 26.265625 9.515625 29.90625 
Q 5.8125 33.546875 5.8125 39.890625 
Q 5.8125 47.609375 11.28125 51.796875 
Q 16.75 56 26.8125 56 
Q 31.78125 56 36.171875 55.265625 
Q 40.578125 54.546875 44.28125 53.078125 
z
" id="DejaVuSans-115"/>
      <path d="M 45.40625 46.390625 
L 45.40625 75.984375 
L 54.390625 75.984375 
L 54.390625 0 
L 45.40625 0 
L 45.40625 8.203125 
Q 42.578125 3.328125 38.25 0.953125 
Q 33.9375 -1.421875 27.875 -1.421875 
Q 17.96875 -1.421875 11.734375 6.484375 
Q 5.515625 14.40625 5.515625 27.296875 
Q 5.515625 40.1875 11.734375 48.09375 
Q 17.96875 56 27.875 56 
Q 33.9375 56 38.25 53.625 
Q 42.578125 51.265625 45.40625 46.390625 
z
M 14.796875 27.296875 
Q 14.796875 17.390625 18.875 11.75 
Q 22.953125 6.109375 30.078125 6.109375 
Q 37.203125 6.109375 41.296875 11.75 
Q 45.40625 17.390625 45.40625 27.296875 
Q 45.40625 37.203125 41.296875 42.84375 
Q 37.203125 48.484375 30.078125 48.484375 
Q 22.953125 48.484375 18.875 42.84375 
Q 14.796875 37.203125 14.796875 27.296875 
z
" id="DejaVuSans-100"/>
      <path d="M 18.109375 8.203125 
L 18.109375 -20.796875 
L 9.078125 -20.796875 
L 9.078125 54.6875 
L 18.109375 54.6875 
L 18.109375 46.390625 
Q 20.953125 51.265625 25.265625 53.625 
Q 29.59375 56 35.59375 56 
Q 45.5625 56 51.78125 48.09375 
Q 58.015625 40.1875 58.015625 27.296875 
Q 58.015625 14.40625 51.78125 6.484375 
Q 45.5625 -1.421875 35.59375 -1.421875 
Q 29.59375 -1.421875 25.265625 0.953125 
Q 20.953125 3.328125 18.109375 8.203125 
z
M 48.6875 27.296875 
Q 48.6875 37.203125 44.609375 42.84375 
Q 40.53125 48.484375 33.40625 48.484375 
Q 26.265625 48.484375 22.1875 42.84375 
Q 18.109375 37.203125 18.109375 27.296875 
Q 18.109375 17.390625 22.1875 11.75 
Q 26.265625 6.109375 33.40625 6.109375 
Q 40.53125 6.109375 44.609375 11.75 
Q 48.6875 17.390625 48.6875 27.296875 
z
" id="DejaVuSans-112"/>
     </defs>
     <g style="fill:#262626;" transform="translate(18.827188 319.640781)rotate(-90)scale(0.1 -0.1)">
      <use xlink:href="#DejaVuSans-70"/>
      <use x="50.269531" xlink:href="#DejaVuSans-114"/>
      <use x="91.382812" xlink:href="#DejaVuSans-97"/>
      <use x="152.662109" xlink:href="#DejaVuSans-99"/>
      <use x="207.642578" xlink:href="#DejaVuSans-116"/>
      <use x="246.851562" xlink:href="#DejaVuSans-105"/>
      <use x="274.634766" xlink:href="#DejaVuSans-111"/>
      <use x="335.816406" xlink:href="#DejaVuSans-110"/>
      <use x="399.195312" xlink:href="#DejaVuSans-32"/>
      <use x="430.982422" xlink:href="#DejaVuSans-111"/>
      <use x="492.164062" xlink:href="#DejaVuSans-102"/>
      <use x="527.369141" xlink:href="#DejaVuSans-32"/>
      <use x="559.15625" xlink:href="#DejaVuSans-99"/>
      <use x="614.136719" xlink:href="#DejaVuSans-108"/>
      <use x="641.919922" xlink:href="#DejaVuSans-117"/>
      <use x="705.298828" xlink:href="#DejaVuSans-115"/>
      <use x="757.398438" xlink:href="#DejaVuSans-116"/>
      <use x="796.607422" xlink:href="#DejaVuSans-101"/>
      <use x="858.130859" xlink:href="#DejaVuSans-114"/>
      <use x="896.994141" xlink:href="#DejaVuSans-101"/>
      <use x="958.517578" xlink:href="#DejaVuSans-100"/>
      <use x="1021.994141" xlink:href="#DejaVuSans-32"/>
      <use x="1053.78125" xlink:href="#DejaVuSans-112"/>
      <use x="1117.257812" xlink:href="#DejaVuSans-97"/>
      <use x="1178.537109" xlink:href="#DejaVuSans-114"/>
      <use x="1219.650391" xlink:href="#DejaVuSans-116"/>
      <use x="1258.859375" xlink:href="#DejaVuSans-105"/>
      <use x="1286.642578" xlink:href="#DejaVuSans-99"/>
      <use x="1341.623047" xlink:href="#DejaVuSans-108"/>
      <use x="1369.40625" xlink:href="#DejaVuSans-101"/>
      <use x="1430.929688" xlink:href="#DejaVuSans-115"/>
     </g>
    </g>
   </g>
   <g id="line2d_29">
    <path clip-path="url(#p8c5efeee60)" d="M 81.077727 465.54 
L 88.505551 457.838806 
L 95.933375 433.424725 
L 103.361198 397.874114 
L 110.789022 360.527636 
L 118.216846 330.844602 
L 125.644669 306.419735 
L 133.072493 285.931754 
L 140.500317 268.674176 
L 147.92814 253.740978 
L 155.355964 243.758547 
L 162.783788 233.031884 
L 170.211612 223.227422 
L 177.639435 211.411374 
L 185.067259 200.16159 
L 192.495083 189.666825 
L 199.922906 181.361616 
L 207.35073 174.809129 
L 214.778554 170.241264 
L 222.206377 166.013157 
L 229.634201 162.939151 
L 237.062025 159.919075 
L 244.489848 157.443691 
L 251.917672 155.583108 
L 259.345496 153.471326 
L 266.77332 151.91097 
L 274.201143 151.072316 
L 281.628967 149.574019 
L 289.056791 148.619565 
L 296.484614 147.445463 
L 303.912438 146.178825 
L 311.340262 145.079992 
L 318.768085 144.131465 
L 326.195909 142.723935 
L 333.623733 141.864396 
L 341.051556 140.792147 
L 348.47938 139.720546 
L 355.907204 138.427079 
L 363.335028 137.176391 
L 370.762851 136.344638 
L 378.190675 135.047747 
L 385.618499 134.071049 
L 393.046322 133.179538 
L 400.474146 132.326216 
L 407.90197 130.672643 
L 415.329793 129.325115 
L 422.757617 128.053918 
L 430.185441 126.894771 
L 437.613264 125.143007 
L 445.041088 123.496273 
L 452.468912 122.042106 
L 459.896736 120.356845 
L 467.324559 118.400657 
L 474.752383 116.25958 
L 482.180207 113.519857 
L 489.60803 110.74847 
L 497.035854 108.606967 
L 504.463678 106.078088 
L 511.891501 103.533837 
L 519.319325 101.416758 
L 526.747149 99.217497 
L 534.174972 96.992149 
L 541.602796 94.84415 
L 549.03062 92.706601 
L 556.458444 90.700011 
L 563.886267 89.074133 
L 571.314091 86.738931 
L 578.741915 85.212421 
L 586.169738 83.124322 
L 593.597562 81.348644 
L 601.025386 79.579752 
L 608.453209 77.972194 
L 615.881033 76.422117 
L 623.308857 74.998893 
L 630.73668 73.40712 
L 638.164504 71.877058 
L 645.592328 70.637285 
L 653.020152 69.349379 
L 660.447975 68.159 
L 667.875799 66.850655 
L 675.303623 65.506112 
L 682.731446 64.314981 
L 690.15927 63.469053 
L 697.587094 62.290573 
L 705.014917 61.188956 
L 712.442741 60.128002 
L 719.870565 59.233426 
L 727.298388 58.069884 
L 734.726212 56.936877 
L 742.154036 55.924732 
L 749.58186 54.962728 
L 757.009683 54.029689 
L 764.437507 53.052862 
L 771.865331 52.108004 
L 779.293154 51.024227 
L 786.720978 49.991223 
L 794.148802 49.143865 
L 801.576625 48.395893 
L 809.004449 47.453057 
L 816.432273 46.397143 
" style="fill:none;stroke:#1f77b4;stroke-linecap:round;stroke-width:1.5;"/>
   </g>
   <g id="line2d_30">
    <path clip-path="url(#p8c5efeee60)" d="M 81.077727 465.54 
L 88.505551 456.895032 
L 95.933375 432.718243 
L 103.361198 397.609858 
L 110.789022 362.199464 
L 118.216846 334.889347 
L 125.644669 312.017662 
L 133.072493 292.252342 
L 140.500317 276.504802 
L 147.92814 262.768848 
L 155.355964 254.792611 
L 162.783788 248.148444 
L 170.211612 241.676852 
L 177.639435 233.366249 
L 185.067259 223.297531 
L 192.495083 215.035466 
L 199.922906 205.953665 
L 207.35073 196.170775 
L 214.778554 189.828615 
L 222.206377 185.751512 
L 229.634201 182.445608 
L 237.062025 179.630465 
L 244.489848 177.006584 
L 251.917672 174.741504 
L 259.345496 172.473021 
L 266.77332 170.923161 
L 274.201143 169.214197 
L 281.628967 167.508234 
L 289.056791 165.895591 
L 296.484614 164.701181 
L 303.912438 163.692471 
L 311.340262 162.167622 
L 318.768085 161.180337 
L 326.195909 159.885506 
L 333.623733 158.572328 
L 341.051556 157.181711 
L 348.47938 155.819266 
L 355.907204 154.501065 
L 363.335028 152.896592 
L 370.762851 151.538699 
L 378.190675 150.149061 
L 385.618499 148.793044 
L 393.046322 147.454336 
L 400.474146 145.844788 
L 407.90197 144.354595 
L 415.329793 143.183602 
L 422.757617 141.588324 
L 430.185441 140.194435 
L 437.613264 138.439475 
L 445.041088 136.433216 
L 452.468912 134.368739 
L 459.896736 132.724285 
L 467.324559 130.635524 
L 474.752383 128.437494 
L 482.180207 126.41066 
L 489.60803 124.685447 
L 497.035854 122.253284 
L 504.463678 120.060175 
L 511.891501 118.015963 
L 519.319325 115.40366 
L 526.747149 113.204539 
L 534.174972 110.849926 
L 541.602796 108.726963 
L 549.03062 106.704857 
L 556.458444 104.570193 
L 563.886267 102.397877 
L 571.314091 100.76543 
L 578.741915 99.103227 
L 586.169738 97.41514 
L 593.597562 95.66628 
L 601.025386 94.067793 
L 608.453209 92.487129 
L 615.881033 90.87396 
L 623.308857 89.222041 
L 630.73668 87.648549 
L 638.164504 86.248296 
L 645.592328 84.561153 
L 653.020152 83.148058 
L 660.447975 81.938133 
L 667.875799 80.624986 
L 675.303623 79.250446 
L 682.731446 78.346698 
L 690.15927 77.15427 
L 697.587094 76.19087 
L 705.014917 75.023113 
L 712.442741 73.965287 
L 719.870565 72.816637 
L 727.298388 71.765988 
L 734.726212 70.616678 
L 742.154036 69.63787 
L 749.58186 68.686015 
L 757.009683 67.564072 
L 764.437507 66.313014 
L 771.865331 65.224204 
L 779.293154 64.136983 
L 786.720978 63.141206 
L 794.148802 61.98324 
L 801.576625 60.832725 
L 809.004449 60.062576 
L 816.432273 59.005428 
" style="fill:none;stroke:#ff7f0e;stroke-linecap:round;stroke-width:1.5;"/>
   </g>
   <g id="line2d_31">
    <path clip-path="url(#p8c5efeee60)" d="M 81.077727 465.54 
L 88.505551 456.555273 
L 95.933375 432.378485 
L 103.361198 397.453461 
L 110.789022 363.423674 
L 118.216846 337.855493 
L 125.644669 316.375201 
L 133.072493 298.524393 
L 140.500317 282.469453 
L 147.92814 270.912268 
L 155.355964 264.332816 
L 162.783788 259.991457 
L 170.211612 254.55532 
L 177.639435 248.509774 
L 185.067259 242.167614 
L 192.495083 234.714498 
L 199.922906 227.094198 
L 207.35073 219.792086 
L 214.778554 214.879069 
L 222.206377 211.325086 
L 229.634201 208.175578 
L 237.062025 205.506047 
L 244.489848 203.321884 
L 251.917672 200.787177 
L 259.345496 198.808061 
L 266.77332 196.95289 
L 274.201143 194.962344 
L 281.628967 193.566916 
L 289.056791 192.032861 
L 296.484614 190.888732 
L 303.912438 189.674691 
L 311.340262 187.982032 
L 318.768085 186.259337 
L 326.195909 184.645879 
L 333.623733 182.754684 
L 341.051556 181.19245 
L 348.47938 179.607932 
L 355.907204 178.05146 
L 363.335028 176.630869 
L 370.762851 175.04319 
L 378.190675 173.482462 
L 385.618499 171.921482 
L 393.046322 170.045481 
L 400.474146 168.292406 
L 407.90197 166.502456 
L 415.329793 164.632491 
L 422.757617 162.962404 
L 430.185441 161.388788 
L 437.613264 159.613326 
L 445.041088 157.784013 
L 452.468912 156.363007 
L 459.896736 154.512784 
L 467.324559 152.602343 
L 474.752383 151.264866 
L 482.180207 149.315573 
L 489.60803 147.266665 
L 497.035854 145.166791 
L 504.463678 143.074525 
L 511.891501 140.509706 
L 519.319325 137.73392 
L 526.747149 134.890763 
L 534.174972 132.006574 
L 541.602796 129.132723 
L 549.03062 125.859728 
L 556.458444 123.383119 
L 563.886267 120.83426 
L 571.314091 118.564687 
L 578.741915 116.135243 
L 586.169738 113.91062 
L 593.597562 112.119543 
L 601.025386 110.213592 
L 608.453209 108.070573 
L 615.881033 106.278826 
L 623.308857 104.450265 
L 630.73668 102.665453 
L 638.164504 100.920181 
L 645.592328 99.365325 
L 653.020152 97.54092 
L 660.447975 95.877133 
L 667.875799 94.481509 
L 675.303623 93.410864 
L 682.731446 92.134956 
L 690.15927 90.752419 
L 697.587094 89.5316 
L 705.014917 88.148664 
L 712.442741 86.903838 
L 719.870565 85.519769 
L 727.298388 84.108828 
L 734.726212 83.091137 
L 742.154036 81.739708 
L 749.58186 80.290886 
L 757.009683 81.741197 
L 764.437507 77.89527 
L 771.865331 76.848822 
L 779.293154 75.17781 
L 786.720978 74.124766 
L 794.148802 72.936023 
L 801.576625 71.677044 
L 809.004449 70.59951 
L 816.432273 69.526737 
" style="fill:none;stroke:#2ca02c;stroke-linecap:round;stroke-width:1.5;"/>
   </g>
   <g id="line2d_32">
    <path clip-path="url(#p8c5efeee60)" d="M 81.077727 465.54 
L 88.505551 456.436627 
L 95.933375 432.292197 
L 103.361198 397.874114 
L 110.789022 365.537727 
L 118.216846 341.431047 
L 125.644669 320.694988 
L 133.072493 303.906601 
L 140.500317 288.509605 
L 147.92814 280.279897 
L 155.355964 271.990867 
L 162.783788 268.345203 
L 170.211612 265.093228 
L 177.639435 262.110903 
L 185.067259 257.785723 
L 192.495083 253.525258 
L 199.922906 247.690039 
L 207.35073 242.34019 
L 214.778554 237.858613 
L 222.206377 231.850818 
L 229.634201 226.705903 
L 237.062025 223.108776 
L 244.489848 219.617049 
L 251.917672 216.726376 
L 259.345496 213.916957 
L 266.77332 211.843764 
L 274.201143 209.525448 
L 281.628967 207.636489 
L 289.056791 206.023587 
L 296.484614 204.283722 
L 303.912438 202.74069 
L 311.340262 201.140776 
L 318.768085 199.095642 
L 326.195909 197.506061 
L 333.623733 195.615492 
L 341.051556 193.644008 
L 348.47938 191.851587 
L 355.907204 190.238473 
L 363.335028 188.663517 
L 370.762851 187.619719 
L 378.190675 185.577887 
L 385.618499 184.219372 
L 393.046322 182.43199 
L 400.474146 180.989113 
L 407.90197 179.120055 
L 415.329793 177.238672 
L 422.757617 175.754737 
L 430.185441 174.110169 
L 437.613264 172.643 
L 445.041088 171.155192 
L 452.468912 169.890293 
L 459.896736 168.482176 
L 467.324559 167.177845 
L 474.752383 165.749504 
L 482.180207 164.152491 
L 489.60803 162.344725 
L 497.035854 160.769251 
L 504.463678 158.825083 
L 511.891501 157.302966 
L 519.319325 155.339031 
L 526.747149 153.377319 
L 534.174972 151.368331 
L 541.602796 149.707787 
L 549.03062 148.01237 
L 556.458444 146.357832 
L 563.886267 144.740062 
L 571.314091 143.062001 
L 578.741915 141.70825 
L 586.169738 140.133279 
L 593.597562 138.608504 
L 601.025386 137.346683 
L 608.453209 135.901815 
L 615.881033 134.356906 
L 623.308857 133.017535 
L 630.73668 131.606773 
L 638.164504 130.345006 
L 645.592328 129.050442 
L 653.020152 127.653784 
L 660.447975 126.701146 
L 667.875799 125.54339 
L 675.303623 124.197476 
L 682.731446 122.866083 
L 690.15927 121.856711 
L 697.587094 121.039099 
L 705.014917 120.034587 
L 712.442741 119.046205 
L 719.870565 118.339571 
L 727.298388 117.466424 
L 734.726212 116.215523 
L 742.154036 115.30071 
L 749.58186 114.778213 
L 757.009683 113.825644 
L 764.437507 112.903286 
L 771.865331 112.041872 
L 779.293154 111.050547 
L 786.720978 110.242892 
L 794.148802 109.453414 
L 801.576625 108.669776 
L 809.004449 107.741101 
L 816.432273 106.837935 
" style="fill:none;stroke:#d62728;stroke-linecap:round;stroke-width:1.5;"/>
   </g>
   <g id="line2d_33">
    <path clip-path="url(#p8c5efeee60)" d="M 81.077727 465.54 
L 88.505551 460.217116 
L 95.933375 435.581923 
L 103.361198 400.484323 
L 110.789022 366.772722 
L 118.216846 345.912625 
L 125.644669 329.275241 
L 133.072493 313.285016 
L 140.500317 299.198518 
L 147.92814 293.605984 
L 155.355964 280.937843 
L 162.783788 277.335323 
L 170.211612 274.568718 
L 177.639435 271.111809 
L 185.067259 267.120994 
L 192.495083 262.509985 
L 199.922906 257.483715 
L 207.35073 252.317228 
L 214.778554 247.350281 
L 222.206377 242.928026 
L 229.634201 239.282363 
L 237.062025 236.235322 
L 244.489848 232.907845 
L 251.917672 230.61043 
L 259.345496 228.731299 
L 266.77332 226.601045 
L 274.201143 224.977738 
L 281.628967 223.358495 
L 289.056791 221.744484 
L 296.484614 220.19077 
L 303.912438 218.279115 
L 311.340262 216.682578 
L 318.768085 214.684737 
L 326.195909 213.009349 
L 333.623733 211.495749 
L 341.051556 209.516226 
L 348.47938 208.088699 
L 355.907204 206.227196 
L 363.335028 204.206614 
L 370.762851 202.756218 
L 378.190675 201.194585 
L 385.618499 199.605487 
L 393.046322 197.756045 
L 400.474146 195.894726 
L 407.90197 194.138561 
L 415.329793 192.76811 
L 422.757617 190.932964 
L 430.185441 189.260349 
L 437.613264 187.577861 
L 445.041088 185.864483 
L 452.468912 183.978568 
L 459.896736 181.359936 
L 467.324559 178.786825 
L 474.752383 174.902432 
L 482.180207 171.800651 
L 489.60803 168.440171 
L 497.035854 165.203084 
L 504.463678 162.192152 
L 511.891501 159.364246 
L 519.319325 156.722336 
L 526.747149 154.455778 
L 534.174972 152.062561 
L 541.602796 149.725672 
L 549.03062 147.712209 
L 556.458444 145.151908 
L 563.886267 142.879863 
L 571.314091 141.036796 
L 578.741915 139.107409 
L 586.169738 137.308466 
L 593.597562 135.411548 
L 601.025386 133.591615 
L 608.453209 132.091317 
L 615.881033 130.585024 
L 623.308857 129.259642 
L 630.73668 127.88371 
L 638.164504 126.451477 
L 645.592328 124.966354 
L 653.020152 123.651126 
L 660.447975 122.226769 
L 667.875799 120.767227 
L 675.303623 119.306479 
L 682.731446 118.126478 
L 690.15927 116.538438 
L 697.587094 115.45632 
L 705.014917 114.296869 
L 712.442741 112.87048 
L 719.870565 111.695272 
L 727.298388 110.544442 
L 734.726212 109.23783 
L 742.154036 108.035533 
L 749.58186 106.961237 
L 757.009683 105.637695 
L 764.437507 104.493167 
L 771.865331 103.186461 
L 779.293154 101.577681 
L 786.720978 100.412041 
L 794.148802 99.204153 
L 801.576625 98.273942 
L 809.004449 96.979666 
L 816.432273 95.713027 
" style="fill:none;stroke:#9467bd;stroke-linecap:round;stroke-width:1.5;"/>
   </g>
   <g id="line2d_34">
    <path clip-path="url(#p8c5efeee60)" d="M 81.077727 465.54 
L 88.505551 460.233295 
L 95.933375 438.645143 
L 103.361198 405.699347 
L 110.789022 377.067946 
L 118.216846 357.016798 
L 125.644669 339.106667 
L 133.072493 323.903819 
L 140.500317 309.590815 
L 147.92814 300.331046 
L 155.355964 292.408739 
L 162.783788 286.994174 
L 170.211612 281.212885 
L 177.639435 275.334523 
L 185.067259 267.940729 
L 192.495083 261.52846 
L 199.922906 257.036097 
L 207.35073 253.250215 
L 214.778554 250.246318 
L 222.206377 247.253207 
L 229.634201 244.847932 
L 237.062025 242.550517 
L 244.489848 240.614432 
L 251.917672 238.672955 
L 259.345496 237.028092 
L 266.77332 235.949493 
L 274.201143 234.590459 
L 281.628967 233.29921 
L 289.056791 232.061792 
L 296.484614 230.725468 
L 303.912438 228.8727 
L 311.340262 226.55794 
L 318.768085 224.506385 
L 326.195909 222.985249 
L 333.623733 220.905099 
L 341.051556 219.121302 
L 348.47938 217.335289 
L 355.907204 214.470639 
L 363.335028 211.476989 
L 370.762851 208.057798 
L 378.190675 205.400044 
L 385.618499 202.335901 
L 393.046322 199.508312 
L 400.474146 197.042623 
L 407.90197 194.848239 
L 415.329793 192.881444 
L 422.757617 190.3165 
L 430.185441 188.209751 
L 437.613264 186.110594 
L 445.041088 183.933549 
L 452.468912 181.961952 
L 459.896736 179.941908 
L 467.324559 177.990859 
L 474.752383 176.338743 
L 482.180207 174.509098 
L 489.60803 173.05461 
L 497.035854 171.338711 
L 504.463678 169.604935 
L 511.891501 167.714738 
L 519.319325 165.782985 
L 526.747149 164.160241 
L 534.174972 162.460189 
L 541.602796 161.073875 
L 549.03062 159.12593 
L 556.458444 157.302187 
L 563.886267 155.852699 
L 571.314091 154.395598 
L 578.741915 153.026137 
L 586.169738 151.833735 
L 593.597562 150.233737 
L 601.025386 148.756979 
L 608.453209 147.296254 
L 615.881033 146.019918 
L 623.308857 144.406609 
L 630.73668 142.98815 
L 638.164504 141.765935 
L 645.592328 140.397401 
L 653.020152 139.041552 
L 660.447975 137.818669 
L 667.875799 136.193148 
L 675.303623 134.966856 
L 682.731446 133.848858 
L 690.15927 132.403436 
L 697.587094 131.340786 
L 705.014917 129.906248 
L 712.442741 128.679184 
L 719.870565 127.466964 
L 727.298388 126.009426 
L 734.726212 124.753439 
L 742.154036 123.355674 
L 749.58186 121.857528 
L 757.009683 120.684919 
L 764.437507 119.401421 
L 771.865331 118.036191 
L 779.293154 116.950401 
L 786.720978 115.624026 
L 794.148802 114.463617 
L 801.576625 113.417743 
L 809.004449 112.178019 
L 816.432273 110.888535 
" style="fill:none;stroke:#8c564b;stroke-linecap:round;stroke-width:1.5;"/>
   </g>
   <g id="line2d_35">
    <path clip-path="url(#p8c5efeee60)" d="M 81.077727 465.54 
L 88.505551 458.248673 
L 95.933375 434.562647 
L 103.361198 401.972789 
L 110.789022 374.398415 
L 118.216846 356.229421 
L 125.644669 339.667539 
L 133.072493 325.252068 
L 140.500317 311.872052 
L 147.92814 301.468968 
L 155.355964 296.334838 
L 162.783788 289.760779 
L 170.211612 285.101233 
L 177.639435 279.303766 
L 185.067259 275.668888 
L 192.495083 272.217373 
L 199.922906 267.865227 
L 207.35073 264.338209 
L 214.778554 261.334312 
L 222.206377 258.405917 
L 229.634201 256.680159 
L 237.062025 254.878899 
L 244.489848 252.991352 
L 251.917672 250.59147 
L 259.345496 249.194685 
L 266.77332 247.123775 
L 274.201143 245.333301 
L 281.628967 243.813938 
L 289.056791 241.895967 
L 296.484614 240.052389 
L 303.912438 237.325637 
L 311.340262 234.958297 
L 318.768085 232.894447 
L 326.195909 230.385049 
L 333.623733 228.392449 
L 341.051556 226.50065 
L 348.47938 224.281282 
L 355.907204 221.884256 
L 363.335028 218.739187 
L 370.762851 215.147382 
L 378.190675 211.435979 
L 385.618499 208.485679 
L 393.046322 205.891263 
L 400.474146 203.082831 
L 407.90197 200.951954 
L 415.329793 198.836882 
L 422.757617 196.516749 
L 430.185441 194.509128 
L 437.613264 192.880676 
L 445.041088 190.404715 
L 452.468912 188.385136 
L 459.896736 187.036497 
L 467.324559 185.320878 
L 474.752383 183.395182 
L 482.180207 181.724662 
L 489.60803 179.829108 
L 497.035854 177.726533 
L 504.463678 176.054755 
L 511.891501 174.348895 
L 519.319325 172.632604 
L 526.747149 170.909795 
L 534.174972 168.630229 
L 541.602796 166.793695 
L 549.03062 165.292219 
L 556.458444 163.745665 
L 563.886267 162.057193 
L 571.314091 160.845907 
L 578.741915 159.613332 
L 586.169738 158.140518 
L 593.597562 156.749954 
L 601.025386 155.705223 
L 608.453209 154.357887 
L 615.881033 153.186746 
L 623.308857 151.694779 
L 630.73668 150.149364 
L 638.164504 149.01392 
L 645.592328 148.194185 
L 653.020152 146.913738 
L 660.447975 146.175484 
L 667.875799 145.329464 
L 675.303623 144.160082 
L 682.731446 143.252007 
L 690.15927 142.259708 
L 697.587094 141.095365 
L 705.014917 139.903542 
L 712.442741 138.833468 
L 719.870565 137.783632 
L 727.298388 136.559517 
L 734.726212 135.485867 
L 742.154036 134.196687 
L 749.58186 133.024709 
L 757.009683 131.752323 
L 764.437507 130.767374 
L 771.865331 129.376165 
L 779.293154 128.415578 
L 786.720978 127.310964 
L 794.148802 126.492231 
L 801.576625 125.415407 
L 809.004449 124.258559 
L 816.432273 123.030966 
" style="fill:none;stroke:#e377c2;stroke-linecap:round;stroke-width:1.5;"/>
   </g>
   <g id="patch_3">
    <path d="M 44.31 465.54 
L 44.31 25.44 
" style="fill:none;"/>
   </g>
   <g id="patch_4">
    <path d="M 853.2 465.54 
L 853.2 25.44 
" style="fill:none;"/>
   </g>
   <g id="patch_5">
    <path d="M 44.31 465.54 
L 853.2 465.54 
" style="fill:none;"/>
   </g>
   <g id="patch_6">
    <path d="M 44.31 25.44 
L 853.2 25.44 
" style="fill:none;"/>
   </g>
   <g id="text_17">
    <!-- Clustered mass fraction (plummer) -->
    <defs>
     <path d="M 64.40625 67.28125 
L 64.40625 56.890625 
Q 59.421875 61.53125 53.78125 63.8125 
Q 48.140625 66.109375 41.796875 66.109375 
Q 29.296875 66.109375 22.65625 58.46875 
Q 16.015625 50.828125 16.015625 36.375 
Q 16.015625 21.96875 22.65625 14.328125 
Q 29.296875 6.6875 41.796875 6.6875 
Q 48.140625 6.6875 53.78125 8.984375 
Q 59.421875 11.28125 64.40625 15.921875 
L 64.40625 5.609375 
Q 59.234375 2.09375 53.4375 0.328125 
Q 47.65625 -1.421875 41.21875 -1.421875 
Q 24.65625 -1.421875 15.125 8.703125 
Q 5.609375 18.84375 5.609375 36.375 
Q 5.609375 53.953125 15.125 64.078125 
Q 24.65625 74.21875 41.21875 74.21875 
Q 47.75 74.21875 53.53125 72.484375 
Q 59.328125 70.75 64.40625 67.28125 
z
" id="DejaVuSans-67"/>
     <path d="M 31 75.875 
Q 24.46875 64.65625 21.28125 53.65625 
Q 18.109375 42.671875 18.109375 31.390625 
Q 18.109375 20.125 21.3125 9.0625 
Q 24.515625 -2 31 -13.1875 
L 23.1875 -13.1875 
Q 15.875 -1.703125 12.234375 9.375 
Q 8.59375 20.453125 8.59375 31.390625 
Q 8.59375 42.28125 12.203125 53.3125 
Q 15.828125 64.359375 23.1875 75.875 
z
" id="DejaVuSans-40"/>
     <path d="M 8.015625 75.875 
L 15.828125 75.875 
Q 23.140625 64.359375 26.78125 53.3125 
Q 30.421875 42.28125 30.421875 31.390625 
Q 30.421875 20.453125 26.78125 9.375 
Q 23.140625 -1.703125 15.828125 -13.1875 
L 8.015625 -13.1875 
Q 14.5 -2 17.703125 9.0625 
Q 20.90625 20.125 20.90625 31.390625 
Q 20.90625 42.671875 17.703125 53.65625 
Q 14.5 64.65625 8.015625 75.875 
z
" id="DejaVuSans-41"/>
    </defs>
    <g style="fill:#262626;" transform="translate(343.745625 19.44)scale(0.12 -0.12)">
     <use xlink:href="#DejaVuSans-67"/>
     <use x="69.824219" xlink:href="#DejaVuSans-108"/>
     <use x="97.607422" xlink:href="#DejaVuSans-117"/>
     <use x="160.986328" xlink:href="#DejaVuSans-115"/>
     <use x="213.085938" xlink:href="#DejaVuSans-116"/>
     <use x="252.294922" xlink:href="#DejaVuSans-101"/>
     <use x="313.818359" xlink:href="#DejaVuSans-114"/>
     <use x="352.681641" xlink:href="#DejaVuSans-101"/>
     <use x="414.205078" xlink:href="#DejaVuSans-100"/>
     <use x="477.681641" xlink:href="#DejaVuSans-32"/>
     <use x="509.46875" xlink:href="#DejaVuSans-109"/>
     <use x="606.880859" xlink:href="#DejaVuSans-97"/>
     <use x="668.160156" xlink:href="#DejaVuSans-115"/>
     <use x="720.259766" xlink:href="#DejaVuSans-115"/>
     <use x="772.359375" xlink:href="#DejaVuSans-32"/>
     <use x="804.146484" xlink:href="#DejaVuSans-102"/>
     <use x="839.351562" xlink:href="#DejaVuSans-114"/>
     <use x="880.464844" xlink:href="#DejaVuSans-97"/>
     <use x="941.744141" xlink:href="#DejaVuSans-99"/>
     <use x="996.724609" xlink:href="#DejaVuSans-116"/>
     <use x="1035.933594" xlink:href="#DejaVuSans-105"/>
     <use x="1063.716797" xlink:href="#DejaVuSans-111"/>
     <use x="1124.898438" xlink:href="#DejaVuSans-110"/>
     <use x="1188.277344" xlink:href="#DejaVuSans-32"/>
     <use x="1220.064453" xlink:href="#DejaVuSans-40"/>
     <use x="1259.078125" xlink:href="#DejaVuSans-112"/>
     <use x="1322.554688" xlink:href="#DejaVuSans-108"/>
     <use x="1350.337891" xlink:href="#DejaVuSans-117"/>
     <use x="1413.716797" xlink:href="#DejaVuSans-109"/>
     <use x="1511.128906" xlink:href="#DejaVuSans-109"/>
     <use x="1608.541016" xlink:href="#DejaVuSans-101"/>
     <use x="1670.064453" xlink:href="#DejaVuSans-114"/>
     <use x="1711.177734" xlink:href="#DejaVuSans-41"/>
    </g>
   </g>
   <g id="legend_1">
    <g id="line2d_36">
     <path d="M 53.31 38.538437 
L 73.31 38.538437 
" style="fill:none;stroke:#1f77b4;stroke-linecap:round;stroke-width:1.5;"/>
    </g>
    <g id="line2d_37"/>
    <g id="text_18">
     <!-- omega=0.0 -->
     <defs>
      <path d="M 45.40625 27.984375 
Q 45.40625 37.75 41.375 43.109375 
Q 37.359375 48.484375 30.078125 48.484375 
Q 22.859375 48.484375 18.828125 43.109375 
Q 14.796875 37.75 14.796875 27.984375 
Q 14.796875 18.265625 18.828125 12.890625 
Q 22.859375 7.515625 30.078125 7.515625 
Q 37.359375 7.515625 41.375 12.890625 
Q 45.40625 18.265625 45.40625 27.984375 
z
M 54.390625 6.78125 
Q 54.390625 -7.171875 48.1875 -13.984375 
Q 42 -20.796875 29.203125 -20.796875 
Q 24.46875 -20.796875 20.265625 -20.09375 
Q 16.0625 -19.390625 12.109375 -17.921875 
L 12.109375 -9.1875 
Q 16.0625 -11.328125 19.921875 -12.34375 
Q 23.78125 -13.375 27.78125 -13.375 
Q 36.625 -13.375 41.015625 -8.765625 
Q 45.40625 -4.15625 45.40625 5.171875 
L 45.40625 9.625 
Q 42.625 4.78125 38.28125 2.390625 
Q 33.9375 0 27.875 0 
Q 17.828125 0 11.671875 7.65625 
Q 5.515625 15.328125 5.515625 27.984375 
Q 5.515625 40.671875 11.671875 48.328125 
Q 17.828125 56 27.875 56 
Q 33.9375 56 38.28125 53.609375 
Q 42.625 51.21875 45.40625 46.390625 
L 45.40625 54.6875 
L 54.390625 54.6875 
z
" id="DejaVuSans-103"/>
      <path d="M 10.59375 45.40625 
L 73.1875 45.40625 
L 73.1875 37.203125 
L 10.59375 37.203125 
z
M 10.59375 25.484375 
L 73.1875 25.484375 
L 73.1875 17.1875 
L 10.59375 17.1875 
z
" id="DejaVuSans-61"/>
     </defs>
     <g style="fill:#262626;" transform="translate(81.31 42.038437)scale(0.1 -0.1)">
      <use xlink:href="#DejaVuSans-111"/>
      <use x="61.181641" xlink:href="#DejaVuSans-109"/>
      <use x="158.59375" xlink:href="#DejaVuSans-101"/>
      <use x="220.117188" xlink:href="#DejaVuSans-103"/>
      <use x="283.59375" xlink:href="#DejaVuSans-97"/>
      <use x="344.873047" xlink:href="#DejaVuSans-61"/>
      <use x="428.662109" xlink:href="#DejaVuSans-48"/>
      <use x="492.285156" xlink:href="#DejaVuSans-46"/>
      <use x="524.072266" xlink:href="#DejaVuSans-48"/>
     </g>
    </g>
    <g id="line2d_38">
     <path d="M 53.31 53.216563 
L 73.31 53.216563 
" style="fill:none;stroke:#ff7f0e;stroke-linecap:round;stroke-width:1.5;"/>
    </g>
    <g id="line2d_39"/>
    <g id="text_19">
     <!-- omega=0.1 -->
     <g style="fill:#262626;" transform="translate(81.31 56.716563)scale(0.1 -0.1)">
      <use xlink:href="#DejaVuSans-111"/>
      <use x="61.181641" xlink:href="#DejaVuSans-109"/>
      <use x="158.59375" xlink:href="#DejaVuSans-101"/>
      <use x="220.117188" xlink:href="#DejaVuSans-103"/>
      <use x="283.59375" xlink:href="#DejaVuSans-97"/>
      <use x="344.873047" xlink:href="#DejaVuSans-61"/>
      <use x="428.662109" xlink:href="#DejaVuSans-48"/>
      <use x="492.285156" xlink:href="#DejaVuSans-46"/>
      <use x="524.072266" xlink:href="#DejaVuSans-49"/>
     </g>
    </g>
    <g id="line2d_40">
     <path d="M 53.31 67.894687 
L 73.31 67.894687 
" style="fill:none;stroke:#2ca02c;stroke-linecap:round;stroke-width:1.5;"/>
    </g>
    <g id="line2d_41"/>
    <g id="text_20">
     <!-- omega=0.2 -->
     <g style="fill:#262626;" transform="translate(81.31 71.394687)scale(0.1 -0.1)">
      <use xlink:href="#DejaVuSans-111"/>
      <use x="61.181641" xlink:href="#DejaVuSans-109"/>
      <use x="158.59375" xlink:href="#DejaVuSans-101"/>
      <use x="220.117188" xlink:href="#DejaVuSans-103"/>
      <use x="283.59375" xlink:href="#DejaVuSans-97"/>
      <use x="344.873047" xlink:href="#DejaVuSans-61"/>
      <use x="428.662109" xlink:href="#DejaVuSans-48"/>
      <use x="492.285156" xlink:href="#DejaVuSans-46"/>
      <use x="524.072266" xlink:href="#DejaVuSans-50"/>
     </g>
    </g>
    <g id="line2d_42">
     <path d="M 53.31 82.572812 
L 73.31 82.572812 
" style="fill:none;stroke:#d62728;stroke-linecap:round;stroke-width:1.5;"/>
    </g>
    <g id="line2d_43"/>
    <g id="text_21">
     <!-- omega=0.3 -->
     <g style="fill:#262626;" transform="translate(81.31 86.072812)scale(0.1 -0.1)">
      <use xlink:href="#DejaVuSans-111"/>
      <use x="61.181641" xlink:href="#DejaVuSans-109"/>
      <use x="158.59375" xlink:href="#DejaVuSans-101"/>
      <use x="220.117188" xlink:href="#DejaVuSans-103"/>
      <use x="283.59375" xlink:href="#DejaVuSans-97"/>
      <use x="344.873047" xlink:href="#DejaVuSans-61"/>
      <use x="428.662109" xlink:href="#DejaVuSans-48"/>
      <use x="492.285156" xlink:href="#DejaVuSans-46"/>
      <use x="524.072266" xlink:href="#DejaVuSans-51"/>
     </g>
    </g>
    <g id="line2d_44">
     <path d="M 53.31 97.250937 
L 73.31 97.250937 
" style="fill:none;stroke:#9467bd;stroke-linecap:round;stroke-width:1.5;"/>
    </g>
    <g id="line2d_45"/>
    <g id="text_22">
     <!-- omega=0.4 -->
     <g style="fill:#262626;" transform="translate(81.31 100.750937)scale(0.1 -0.1)">
      <use xlink:href="#DejaVuSans-111"/>
      <use x="61.181641" xlink:href="#DejaVuSans-109"/>
      <use x="158.59375" xlink:href="#DejaVuSans-101"/>
      <use x="220.117188" xlink:href="#DejaVuSans-103"/>
      <use x="283.59375" xlink:href="#DejaVuSans-97"/>
      <use x="344.873047" xlink:href="#DejaVuSans-61"/>
      <use x="428.662109" xlink:href="#DejaVuSans-48"/>
      <use x="492.285156" xlink:href="#DejaVuSans-46"/>
      <use x="524.072266" xlink:href="#DejaVuSans-52"/>
     </g>
    </g>
    <g id="line2d_46">
     <path d="M 53.31 111.929062 
L 73.31 111.929062 
" style="fill:none;stroke:#8c564b;stroke-linecap:round;stroke-width:1.5;"/>
    </g>
    <g id="line2d_47"/>
    <g id="text_23">
     <!-- omega=0.5 -->
     <g style="fill:#262626;" transform="translate(81.31 115.429062)scale(0.1 -0.1)">
      <use xlink:href="#DejaVuSans-111"/>
      <use x="61.181641" xlink:href="#DejaVuSans-109"/>
      <use x="158.59375" xlink:href="#DejaVuSans-101"/>
      <use x="220.117188" xlink:href="#DejaVuSans-103"/>
      <use x="283.59375" xlink:href="#DejaVuSans-97"/>
      <use x="344.873047" xlink:href="#DejaVuSans-61"/>
      <use x="428.662109" xlink:href="#DejaVuSans-48"/>
      <use x="492.285156" xlink:href="#DejaVuSans-46"/>
      <use x="524.072266" xlink:href="#DejaVuSans-53"/>
     </g>
    </g>
    <g id="line2d_48">
     <path d="M 53.31 126.607188 
L 73.31 126.607188 
" style="fill:none;stroke:#e377c2;stroke-linecap:round;stroke-width:1.5;"/>
    </g>
    <g id="line2d_49"/>
    <g id="text_24">
     <!-- omega=0.6 -->
     <g style="fill:#262626;" transform="translate(81.31 130.107188)scale(0.1 -0.1)">
      <use xlink:href="#DejaVuSans-111"/>
      <use x="61.181641" xlink:href="#DejaVuSans-109"/>
      <use x="158.59375" xlink:href="#DejaVuSans-101"/>
      <use x="220.117188" xlink:href="#DejaVuSans-103"/>
      <use x="283.59375" xlink:href="#DejaVuSans-97"/>
      <use x="344.873047" xlink:href="#DejaVuSans-61"/>
      <use x="428.662109" xlink:href="#DejaVuSans-48"/>
      <use x="492.285156" xlink:href="#DejaVuSans-46"/>
      <use x="524.072266" xlink:href="#DejaVuSans-54"/>
     </g>
    </g>
   </g>
  </g>
 </g>
 <defs>
  <clipPath id="p8c5efeee60">
   <rect height="440.1" width="808.89" x="44.31" y="25.44"/>
  </clipPath>
 </defs>
</svg>
