<?xml version="1.0" encoding="utf-8" standalone="no"?>
<!DOCTYPE svg PUBLIC "-//W3C//DTD SVG 1.1//EN"
  "http://www.w3.org/Graphics/SVG/1.1/DTD/svg11.dtd">
<!-- Created with matplotlib (https://matplotlib.org/) -->
<svg height="504pt" version="1.1" viewBox="0 0 864 504" width="864pt" xmlns="http://www.w3.org/2000/svg" xmlns:xlink="http://www.w3.org/1999/xlink">
 <defs>
  <style type="text/css">
*{stroke-linecap:butt;stroke-linejoin:round;}
  </style>
 </defs>
 <g id="figure_1">
  <g id="patch_1">
   <path d="M 0 504 
L 864 504 
L 864 0 
L 0 0 
z
" style="fill:#ffffff;"/>
  </g>
  <g id="axes_1">
   <g id="patch_2">
    <path d="M 50.7 465.54 
L 853.2 465.54 
L 853.2 25.44 
L 50.7 25.44 
z
" style="fill:#eaeaf2;"/>
   </g>
   <g id="matplotlib.axis_1">
    <g id="xtick_1">
     <g id="line2d_1">
      <path clip-path="url(#p012d5865b1)" d="M 87.177273 465.54 
L 87.177273 25.44 
" style="fill:none;stroke:#ffffff;stroke-linecap:round;stroke-width:0.8;"/>
     </g>
     <g id="line2d_2"/>
     <g id="text_1">
      <!-- 0 -->
      <defs>
       <path d="M 31.78125 66.40625 
Q 24.171875 66.40625 20.328125 58.90625 
Q 16.5 51.421875 16.5 36.375 
Q 16.5 21.390625 20.328125 13.890625 
Q 24.171875 6.390625 31.78125 6.390625 
Q 39.453125 6.390625 43.28125 13.890625 
Q 47.125 21.390625 47.125 36.375 
Q 47.125 51.421875 43.28125 58.90625 
Q 39.453125 66.40625 31.78125 66.40625 
z
M 31.78125 74.21875 
Q 44.046875 74.21875 50.515625 64.515625 
Q 56.984375 54.828125 56.984375 36.375 
Q 56.984375 17.96875 50.515625 8.265625 
Q 44.046875 -1.421875 31.78125 -1.421875 
Q 19.53125 -1.421875 13.0625 8.265625 
Q 6.59375 17.96875 6.59375 36.375 
Q 6.59375 54.828125 13.0625 64.515625 
Q 19.53125 74.21875 31.78125 74.21875 
z
" id="DejaVuSans-48"/>
      </defs>
      <g style="fill:#262626;" transform="translate(83.996023 476.638438)scale(0.1 -0.1)">
       <use xlink:href="#DejaVuSans-48"/>
      </g>
     </g>
    </g>
    <g id="xtick_2">
     <g id="line2d_3">
      <path clip-path="url(#p012d5865b1)" d="M 249.298485 465.54 
L 249.298485 25.44 
" style="fill:none;stroke:#ffffff;stroke-linecap:round;stroke-width:0.8;"/>
     </g>
     <g id="line2d_4"/>
     <g id="text_2">
      <!-- 2 -->
      <defs>
       <path d="M 19.1875 8.296875 
L 53.609375 8.296875 
L 53.609375 0 
L 7.328125 0 
L 7.328125 8.296875 
Q 12.9375 14.109375 22.625 23.890625 
Q 32.328125 33.6875 34.8125 36.53125 
Q 39.546875 41.84375 41.421875 45.53125 
Q 43.3125 49.21875 43.3125 52.78125 
Q 43.3125 58.59375 39.234375 62.25 
Q 35.15625 65.921875 28.609375 65.921875 
Q 23.96875 65.921875 18.8125 64.3125 
Q 13.671875 62.703125 7.8125 59.421875 
L 7.8125 69.390625 
Q 13.765625 71.78125 18.9375 73 
Q 24.125 74.21875 28.421875 74.21875 
Q 39.75 74.21875 46.484375 68.546875 
Q 53.21875 62.890625 53.21875 53.421875 
Q 53.21875 48.921875 51.53125 44.890625 
Q 49.859375 40.875 45.40625 35.40625 
Q 44.1875 33.984375 37.640625 27.21875 
Q 31.109375 20.453125 19.1875 8.296875 
z
" id="DejaVuSans-50"/>
      </defs>
      <g style="fill:#262626;" transform="translate(246.117235 476.638438)scale(0.1 -0.1)">
       <use xlink:href="#DejaVuSans-50"/>
      </g>
     </g>
    </g>
    <g id="xtick_3">
     <g id="line2d_5">
      <path clip-path="url(#p012d5865b1)" d="M 411.419697 465.54 
L 411.419697 25.44 
" style="fill:none;stroke:#ffffff;stroke-linecap:round;stroke-width:0.8;"/>
     </g>
     <g id="line2d_6"/>
     <g id="text_3">
      <!-- 4 -->
      <defs>
       <path d="M 37.796875 64.3125 
L 12.890625 25.390625 
L 37.796875 25.390625 
z
M 35.203125 72.90625 
L 47.609375 72.90625 
L 47.609375 25.390625 
L 58.015625 25.390625 
L 58.015625 17.1875 
L 47.609375 17.1875 
L 47.609375 0 
L 37.796875 0 
L 37.796875 17.1875 
L 4.890625 17.1875 
L 4.890625 26.703125 
z
" id="DejaVuSans-52"/>
      </defs>
      <g style="fill:#262626;" transform="translate(408.238447 476.638438)scale(0.1 -0.1)">
       <use xlink:href="#DejaVuSans-52"/>
      </g>
     </g>
    </g>
    <g id="xtick_4">
     <g id="line2d_7">
      <path clip-path="url(#p012d5865b1)" d="M 573.540909 465.54 
L 573.540909 25.44 
" style="fill:none;stroke:#ffffff;stroke-linecap:round;stroke-width:0.8;"/>
     </g>
     <g id="line2d_8"/>
     <g id="text_4">
      <!-- 6 -->
      <defs>
       <path d="M 33.015625 40.375 
Q 26.375 40.375 22.484375 35.828125 
Q 18.609375 31.296875 18.609375 23.390625 
Q 18.609375 15.53125 22.484375 10.953125 
Q 26.375 6.390625 33.015625 6.390625 
Q 39.65625 6.390625 43.53125 10.953125 
Q 47.40625 15.53125 47.40625 23.390625 
Q 47.40625 31.296875 43.53125 35.828125 
Q 39.65625 40.375 33.015625 40.375 
z
M 52.59375 71.296875 
L 52.59375 62.3125 
Q 48.875 64.0625 45.09375 64.984375 
Q 41.3125 65.921875 37.59375 65.921875 
Q 27.828125 65.921875 22.671875 59.328125 
Q 17.53125 52.734375 16.796875 39.40625 
Q 19.671875 43.65625 24.015625 45.921875 
Q 28.375 48.1875 33.59375 48.1875 
Q 44.578125 48.1875 50.953125 41.515625 
Q 57.328125 34.859375 57.328125 23.390625 
Q 57.328125 12.15625 50.6875 5.359375 
Q 44.046875 -1.421875 33.015625 -1.421875 
Q 20.359375 -1.421875 13.671875 8.265625 
Q 6.984375 17.96875 6.984375 36.375 
Q 6.984375 53.65625 15.1875 63.9375 
Q 23.390625 74.21875 37.203125 74.21875 
Q 40.921875 74.21875 44.703125 73.484375 
Q 48.484375 72.75 52.59375 71.296875 
z
" id="DejaVuSans-54"/>
      </defs>
      <g style="fill:#262626;" transform="translate(570.359659 476.638438)scale(0.1 -0.1)">
       <use xlink:href="#DejaVuSans-54"/>
      </g>
     </g>
    </g>
    <g id="xtick_5">
     <g id="line2d_9">
      <path clip-path="url(#p012d5865b1)" d="M 735.662121 465.54 
L 735.662121 25.44 
" style="fill:none;stroke:#ffffff;stroke-linecap:round;stroke-width:0.8;"/>
     </g>
     <g id="line2d_10"/>
     <g id="text_5">
      <!-- 8 -->
      <defs>
       <path d="M 31.78125 34.625 
Q 24.75 34.625 20.71875 30.859375 
Q 16.703125 27.09375 16.703125 20.515625 
Q 16.703125 13.921875 20.71875 10.15625 
Q 24.75 6.390625 31.78125 6.390625 
Q 38.8125 6.390625 42.859375 10.171875 
Q 46.921875 13.96875 46.921875 20.515625 
Q 46.921875 27.09375 42.890625 30.859375 
Q 38.875 34.625 31.78125 34.625 
z
M 21.921875 38.8125 
Q 15.578125 40.375 12.03125 44.71875 
Q 8.5 49.078125 8.5 55.328125 
Q 8.5 64.0625 14.71875 69.140625 
Q 20.953125 74.21875 31.78125 74.21875 
Q 42.671875 74.21875 48.875 69.140625 
Q 55.078125 64.0625 55.078125 55.328125 
Q 55.078125 49.078125 51.53125 44.71875 
Q 48 40.375 41.703125 38.8125 
Q 48.828125 37.15625 52.796875 32.3125 
Q 56.78125 27.484375 56.78125 20.515625 
Q 56.78125 9.90625 50.3125 4.234375 
Q 43.84375 -1.421875 31.78125 -1.421875 
Q 19.734375 -1.421875 13.25 4.234375 
Q 6.78125 9.90625 6.78125 20.515625 
Q 6.78125 27.484375 10.78125 32.3125 
Q 14.796875 37.15625 21.921875 38.8125 
z
M 18.3125 54.390625 
Q 18.3125 48.734375 21.84375 45.5625 
Q 25.390625 42.390625 31.78125 42.390625 
Q 38.140625 42.390625 41.71875 45.5625 
Q 45.3125 48.734375 45.3125 54.390625 
Q 45.3125 60.0625 41.71875 63.234375 
Q 38.140625 66.40625 31.78125 66.40625 
Q 25.390625 66.40625 21.84375 63.234375 
Q 18.3125 60.0625 18.3125 54.390625 
z
" id="DejaVuSans-56"/>
      </defs>
      <g style="fill:#262626;" transform="translate(732.480871 476.638438)scale(0.1 -0.1)">
       <use xlink:href="#DejaVuSans-56"/>
      </g>
     </g>
    </g>
    <g id="text_6">
     <!-- Time -->
     <defs>
      <path d="M -0.296875 72.90625 
L 61.375 72.90625 
L 61.375 64.59375 
L 35.5 64.59375 
L 35.5 0 
L 25.59375 0 
L 25.59375 64.59375 
L -0.296875 64.59375 
z
" id="DejaVuSans-84"/>
      <path d="M 9.421875 54.6875 
L 18.40625 54.6875 
L 18.40625 0 
L 9.421875 0 
z
M 9.421875 75.984375 
L 18.40625 75.984375 
L 18.40625 64.59375 
L 9.421875 64.59375 
z
" id="DejaVuSans-105"/>
      <path d="M 52 44.1875 
Q 55.375 50.25 60.0625 53.125 
Q 64.75 56 71.09375 56 
Q 79.640625 56 84.28125 50.015625 
Q 88.921875 44.046875 88.921875 33.015625 
L 88.921875 0 
L 79.890625 0 
L 79.890625 32.71875 
Q 79.890625 40.578125 77.09375 44.375 
Q 74.3125 48.1875 68.609375 48.1875 
Q 61.625 48.1875 57.5625 43.546875 
Q 53.515625 38.921875 53.515625 30.90625 
L 53.515625 0 
L 44.484375 0 
L 44.484375 32.71875 
Q 44.484375 40.625 41.703125 44.40625 
Q 38.921875 48.1875 33.109375 48.1875 
Q 26.21875 48.1875 22.15625 43.53125 
Q 18.109375 38.875 18.109375 30.90625 
L 18.109375 0 
L 9.078125 0 
L 9.078125 54.6875 
L 18.109375 54.6875 
L 18.109375 46.1875 
Q 21.1875 51.21875 25.484375 53.609375 
Q 29.78125 56 35.6875 56 
Q 41.65625 56 45.828125 52.96875 
Q 50 49.953125 52 44.1875 
z
" id="DejaVuSans-109"/>
      <path d="M 56.203125 29.59375 
L 56.203125 25.203125 
L 14.890625 25.203125 
Q 15.484375 15.921875 20.484375 11.0625 
Q 25.484375 6.203125 34.421875 6.203125 
Q 39.59375 6.203125 44.453125 7.46875 
Q 49.3125 8.734375 54.109375 11.28125 
L 54.109375 2.78125 
Q 49.265625 0.734375 44.1875 -0.34375 
Q 39.109375 -1.421875 33.890625 -1.421875 
Q 20.796875 -1.421875 13.15625 6.1875 
Q 5.515625 13.8125 5.515625 26.8125 
Q 5.515625 40.234375 12.765625 48.109375 
Q 20.015625 56 32.328125 56 
Q 43.359375 56 49.78125 48.890625 
Q 56.203125 41.796875 56.203125 29.59375 
z
M 47.21875 32.234375 
Q 47.125 39.59375 43.09375 43.984375 
Q 39.0625 48.390625 32.421875 48.390625 
Q 24.90625 48.390625 20.390625 44.140625 
Q 15.875 39.890625 15.1875 32.171875 
z
" id="DejaVuSans-101"/>
     </defs>
     <g style="fill:#262626;" transform="translate(439.716406 490.316562)scale(0.1 -0.1)">
      <use xlink:href="#DejaVuSans-84"/>
      <use x="57.958984" xlink:href="#DejaVuSans-105"/>
      <use x="85.742188" xlink:href="#DejaVuSans-109"/>
      <use x="183.154297" xlink:href="#DejaVuSans-101"/>
     </g>
    </g>
   </g>
   <g id="matplotlib.axis_2">
    <g id="ytick_1">
     <g id="line2d_11">
      <path clip-path="url(#p012d5865b1)" d="M 50.7 445.535455 
L 853.2 445.535455 
" style="fill:none;stroke:#ffffff;stroke-linecap:round;stroke-width:0.8;"/>
     </g>
     <g id="line2d_12"/>
     <g id="text_7">
      <!-- 0.00 -->
      <defs>
       <path d="M 10.6875 12.40625 
L 21 12.40625 
L 21 0 
L 10.6875 0 
z
" id="DejaVuSans-46"/>
      </defs>
      <g style="fill:#262626;" transform="translate(24.934375 449.334673)scale(0.1 -0.1)">
       <use xlink:href="#DejaVuSans-48"/>
       <use x="63.623047" xlink:href="#DejaVuSans-46"/>
       <use x="95.410156" xlink:href="#DejaVuSans-48"/>
       <use x="159.033203" xlink:href="#DejaVuSans-48"/>
      </g>
     </g>
    </g>
    <g id="ytick_2">
     <g id="line2d_13">
      <path clip-path="url(#p012d5865b1)" d="M 50.7 384.446141 
L 853.2 384.446141 
" style="fill:none;stroke:#ffffff;stroke-linecap:round;stroke-width:0.8;"/>
     </g>
     <g id="line2d_14"/>
     <g id="text_8">
      <!-- 0.05 -->
      <defs>
       <path d="M 10.796875 72.90625 
L 49.515625 72.90625 
L 49.515625 64.59375 
L 19.828125 64.59375 
L 19.828125 46.734375 
Q 21.96875 47.46875 24.109375 47.828125 
Q 26.265625 48.1875 28.421875 48.1875 
Q 40.625 48.1875 47.75 41.5 
Q 54.890625 34.8125 54.890625 23.390625 
Q 54.890625 11.625 47.5625 5.09375 
Q 40.234375 -1.421875 26.90625 -1.421875 
Q 22.3125 -1.421875 17.546875 -0.640625 
Q 12.796875 0.140625 7.71875 1.703125 
L 7.71875 11.625 
Q 12.109375 9.234375 16.796875 8.0625 
Q 21.484375 6.890625 26.703125 6.890625 
Q 35.15625 6.890625 40.078125 11.328125 
Q 45.015625 15.765625 45.015625 23.390625 
Q 45.015625 31 40.078125 35.4375 
Q 35.15625 39.890625 26.703125 39.890625 
Q 22.75 39.890625 18.8125 39.015625 
Q 14.890625 38.140625 10.796875 36.28125 
z
" id="DejaVuSans-53"/>
      </defs>
      <g style="fill:#262626;" transform="translate(24.934375 388.245359)scale(0.1 -0.1)">
       <use xlink:href="#DejaVuSans-48"/>
       <use x="63.623047" xlink:href="#DejaVuSans-46"/>
       <use x="95.410156" xlink:href="#DejaVuSans-48"/>
       <use x="159.033203" xlink:href="#DejaVuSans-53"/>
      </g>
     </g>
    </g>
    <g id="ytick_3">
     <g id="line2d_15">
      <path clip-path="url(#p012d5865b1)" d="M 50.7 323.356827 
L 853.2 323.356827 
" style="fill:none;stroke:#ffffff;stroke-linecap:round;stroke-width:0.8;"/>
     </g>
     <g id="line2d_16"/>
     <g id="text_9">
      <!-- 0.10 -->
      <defs>
       <path d="M 12.40625 8.296875 
L 28.515625 8.296875 
L 28.515625 63.921875 
L 10.984375 60.40625 
L 10.984375 69.390625 
L 28.421875 72.90625 
L 38.28125 72.90625 
L 38.28125 8.296875 
L 54.390625 8.296875 
L 54.390625 0 
L 12.40625 0 
z
" id="DejaVuSans-49"/>
      </defs>
      <g style="fill:#262626;" transform="translate(24.934375 327.156046)scale(0.1 -0.1)">
       <use xlink:href="#DejaVuSans-48"/>
       <use x="63.623047" xlink:href="#DejaVuSans-46"/>
       <use x="95.410156" xlink:href="#DejaVuSans-49"/>
       <use x="159.033203" xlink:href="#DejaVuSans-48"/>
      </g>
     </g>
    </g>
    <g id="ytick_4">
     <g id="line2d_17">
      <path clip-path="url(#p012d5865b1)" d="M 50.7 262.267513 
L 853.2 262.267513 
" style="fill:none;stroke:#ffffff;stroke-linecap:round;stroke-width:0.8;"/>
     </g>
     <g id="line2d_18"/>
     <g id="text_10">
      <!-- 0.15 -->
      <g style="fill:#262626;" transform="translate(24.934375 266.066732)scale(0.1 -0.1)">
       <use xlink:href="#DejaVuSans-48"/>
       <use x="63.623047" xlink:href="#DejaVuSans-46"/>
       <use x="95.410156" xlink:href="#DejaVuSans-49"/>
       <use x="159.033203" xlink:href="#DejaVuSans-53"/>
      </g>
     </g>
    </g>
    <g id="ytick_5">
     <g id="line2d_19">
      <path clip-path="url(#p012d5865b1)" d="M 50.7 201.178199 
L 853.2 201.178199 
" style="fill:none;stroke:#ffffff;stroke-linecap:round;stroke-width:0.8;"/>
     </g>
     <g id="line2d_20"/>
     <g id="text_11">
      <!-- 0.20 -->
      <g style="fill:#262626;" transform="translate(24.934375 204.977418)scale(0.1 -0.1)">
       <use xlink:href="#DejaVuSans-48"/>
       <use x="63.623047" xlink:href="#DejaVuSans-46"/>
       <use x="95.410156" xlink:href="#DejaVuSans-50"/>
       <use x="159.033203" xlink:href="#DejaVuSans-48"/>
      </g>
     </g>
    </g>
    <g id="ytick_6">
     <g id="line2d_21">
      <path clip-path="url(#p012d5865b1)" d="M 50.7 140.088885 
L 853.2 140.088885 
" style="fill:none;stroke:#ffffff;stroke-linecap:round;stroke-width:0.8;"/>
     </g>
     <g id="line2d_22"/>
     <g id="text_12">
      <!-- 0.25 -->
      <g style="fill:#262626;" transform="translate(24.934375 143.888104)scale(0.1 -0.1)">
       <use xlink:href="#DejaVuSans-48"/>
       <use x="63.623047" xlink:href="#DejaVuSans-46"/>
       <use x="95.410156" xlink:href="#DejaVuSans-50"/>
       <use x="159.033203" xlink:href="#DejaVuSans-53"/>
      </g>
     </g>
    </g>
    <g id="ytick_7">
     <g id="line2d_23">
      <path clip-path="url(#p012d5865b1)" d="M 50.7 78.999571 
L 853.2 78.999571 
" style="fill:none;stroke:#ffffff;stroke-linecap:round;stroke-width:0.8;"/>
     </g>
     <g id="line2d_24"/>
     <g id="text_13">
      <!-- 0.30 -->
      <defs>
       <path d="M 40.578125 39.3125 
Q 47.65625 37.796875 51.625 33 
Q 55.609375 28.21875 55.609375 21.1875 
Q 55.609375 10.40625 48.1875 4.484375 
Q 40.765625 -1.421875 27.09375 -1.421875 
Q 22.515625 -1.421875 17.65625 -0.515625 
Q 12.796875 0.390625 7.625 2.203125 
L 7.625 11.71875 
Q 11.71875 9.328125 16.59375 8.109375 
Q 21.484375 6.890625 26.8125 6.890625 
Q 36.078125 6.890625 40.9375 10.546875 
Q 45.796875 14.203125 45.796875 21.1875 
Q 45.796875 27.640625 41.28125 31.265625 
Q 36.765625 34.90625 28.71875 34.90625 
L 20.21875 34.90625 
L 20.21875 43.015625 
L 29.109375 43.015625 
Q 36.375 43.015625 40.234375 45.921875 
Q 44.09375 48.828125 44.09375 54.296875 
Q 44.09375 59.90625 40.109375 62.90625 
Q 36.140625 65.921875 28.71875 65.921875 
Q 24.65625 65.921875 20.015625 65.03125 
Q 15.375 64.15625 9.8125 62.3125 
L 9.8125 71.09375 
Q 15.4375 72.65625 20.34375 73.4375 
Q 25.25 74.21875 29.59375 74.21875 
Q 40.828125 74.21875 47.359375 69.109375 
Q 53.90625 64.015625 53.90625 55.328125 
Q 53.90625 49.265625 50.4375 45.09375 
Q 46.96875 40.921875 40.578125 39.3125 
z
" id="DejaVuSans-51"/>
      </defs>
      <g style="fill:#262626;" transform="translate(24.934375 82.79879)scale(0.1 -0.1)">
       <use xlink:href="#DejaVuSans-48"/>
       <use x="63.623047" xlink:href="#DejaVuSans-46"/>
       <use x="95.410156" xlink:href="#DejaVuSans-51"/>
       <use x="159.033203" xlink:href="#DejaVuSans-48"/>
      </g>
     </g>
    </g>
    <g id="text_14">
     <!-- Fraction of sheared mass -->
     <defs>
      <path d="M 9.8125 72.90625 
L 51.703125 72.90625 
L 51.703125 64.59375 
L 19.671875 64.59375 
L 19.671875 43.109375 
L 48.578125 43.109375 
L 48.578125 34.8125 
L 19.671875 34.8125 
L 19.671875 0 
L 9.8125 0 
z
" id="DejaVuSans-70"/>
      <path d="M 41.109375 46.296875 
Q 39.59375 47.171875 37.8125 47.578125 
Q 36.03125 48 33.890625 48 
Q 26.265625 48 22.1875 43.046875 
Q 18.109375 38.09375 18.109375 28.8125 
L 18.109375 0 
L 9.078125 0 
L 9.078125 54.6875 
L 18.109375 54.6875 
L 18.109375 46.1875 
Q 20.953125 51.171875 25.484375 53.578125 
Q 30.03125 56 36.53125 56 
Q 37.453125 56 38.578125 55.875 
Q 39.703125 55.765625 41.0625 55.515625 
z
" id="DejaVuSans-114"/>
      <path d="M 34.28125 27.484375 
Q 23.390625 27.484375 19.1875 25 
Q 14.984375 22.515625 14.984375 16.5 
Q 14.984375 11.71875 18.140625 8.90625 
Q 21.296875 6.109375 26.703125 6.109375 
Q 34.1875 6.109375 38.703125 11.40625 
Q 43.21875 16.703125 43.21875 25.484375 
L 43.21875 27.484375 
z
M 52.203125 31.203125 
L 52.203125 0 
L 43.21875 0 
L 43.21875 8.296875 
Q 40.140625 3.328125 35.546875 0.953125 
Q 30.953125 -1.421875 24.3125 -1.421875 
Q 15.921875 -1.421875 10.953125 3.296875 
Q 6 8.015625 6 15.921875 
Q 6 25.140625 12.171875 29.828125 
Q 18.359375 34.515625 30.609375 34.515625 
L 43.21875 34.515625 
L 43.21875 35.40625 
Q 43.21875 41.609375 39.140625 45 
Q 35.0625 48.390625 27.6875 48.390625 
Q 23 48.390625 18.546875 47.265625 
Q 14.109375 46.140625 10.015625 43.890625 
L 10.015625 52.203125 
Q 14.9375 54.109375 19.578125 55.046875 
Q 24.21875 56 28.609375 56 
Q 40.484375 56 46.34375 49.84375 
Q 52.203125 43.703125 52.203125 31.203125 
z
" id="DejaVuSans-97"/>
      <path d="M 48.78125 52.59375 
L 48.78125 44.1875 
Q 44.96875 46.296875 41.140625 47.34375 
Q 37.3125 48.390625 33.40625 48.390625 
Q 24.65625 48.390625 19.8125 42.84375 
Q 14.984375 37.3125 14.984375 27.296875 
Q 14.984375 17.28125 19.8125 11.734375 
Q 24.65625 6.203125 33.40625 6.203125 
Q 37.3125 6.203125 41.140625 7.25 
Q 44.96875 8.296875 48.78125 10.40625 
L 48.78125 2.09375 
Q 45.015625 0.34375 40.984375 -0.53125 
Q 36.96875 -1.421875 32.421875 -1.421875 
Q 20.0625 -1.421875 12.78125 6.34375 
Q 5.515625 14.109375 5.515625 27.296875 
Q 5.515625 40.671875 12.859375 48.328125 
Q 20.21875 56 33.015625 56 
Q 37.15625 56 41.109375 55.140625 
Q 45.0625 54.296875 48.78125 52.59375 
z
" id="DejaVuSans-99"/>
      <path d="M 18.3125 70.21875 
L 18.3125 54.6875 
L 36.8125 54.6875 
L 36.8125 47.703125 
L 18.3125 47.703125 
L 18.3125 18.015625 
Q 18.3125 11.328125 20.140625 9.421875 
Q 21.96875 7.515625 27.59375 7.515625 
L 36.8125 7.515625 
L 36.8125 0 
L 27.59375 0 
Q 17.1875 0 13.234375 3.875 
Q 9.28125 7.765625 9.28125 18.015625 
L 9.28125 47.703125 
L 2.6875 47.703125 
L 2.6875 54.6875 
L 9.28125 54.6875 
L 9.28125 70.21875 
z
" id="DejaVuSans-116"/>
      <path d="M 30.609375 48.390625 
Q 23.390625 48.390625 19.1875 42.75 
Q 14.984375 37.109375 14.984375 27.296875 
Q 14.984375 17.484375 19.15625 11.84375 
Q 23.34375 6.203125 30.609375 6.203125 
Q 37.796875 6.203125 41.984375 11.859375 
Q 46.1875 17.53125 46.1875 27.296875 
Q 46.1875 37.015625 41.984375 42.703125 
Q 37.796875 48.390625 30.609375 48.390625 
z
M 30.609375 56 
Q 42.328125 56 49.015625 48.375 
Q 55.71875 40.765625 55.71875 27.296875 
Q 55.71875 13.875 49.015625 6.21875 
Q 42.328125 -1.421875 30.609375 -1.421875 
Q 18.84375 -1.421875 12.171875 6.21875 
Q 5.515625 13.875 5.515625 27.296875 
Q 5.515625 40.765625 12.171875 48.375 
Q 18.84375 56 30.609375 56 
z
" id="DejaVuSans-111"/>
      <path d="M 54.890625 33.015625 
L 54.890625 0 
L 45.90625 0 
L 45.90625 32.71875 
Q 45.90625 40.484375 42.875 44.328125 
Q 39.84375 48.1875 33.796875 48.1875 
Q 26.515625 48.1875 22.3125 43.546875 
Q 18.109375 38.921875 18.109375 30.90625 
L 18.109375 0 
L 9.078125 0 
L 9.078125 54.6875 
L 18.109375 54.6875 
L 18.109375 46.1875 
Q 21.34375 51.125 25.703125 53.5625 
Q 30.078125 56 35.796875 56 
Q 45.21875 56 50.046875 50.171875 
Q 54.890625 44.34375 54.890625 33.015625 
z
" id="DejaVuSans-110"/>
      <path id="DejaVuSans-32"/>
      <path d="M 37.109375 75.984375 
L 37.109375 68.5 
L 28.515625 68.5 
Q 23.6875 68.5 21.796875 66.546875 
Q 19.921875 64.59375 19.921875 59.515625 
L 19.921875 54.6875 
L 34.71875 54.6875 
L 34.71875 47.703125 
L 19.921875 47.703125 
L 19.921875 0 
L 10.890625 0 
L 10.890625 47.703125 
L 2.296875 47.703125 
L 2.296875 54.6875 
L 10.890625 54.6875 
L 10.890625 58.5 
Q 10.890625 67.625 15.140625 71.796875 
Q 19.390625 75.984375 28.609375 75.984375 
z
" id="DejaVuSans-102"/>
      <path d="M 44.28125 53.078125 
L 44.28125 44.578125 
Q 40.484375 46.53125 36.375 47.5 
Q 32.28125 48.484375 27.875 48.484375 
Q 21.1875 48.484375 17.84375 46.4375 
Q 14.5 44.390625 14.5 40.28125 
Q 14.5 37.15625 16.890625 35.375 
Q 19.28125 33.59375 26.515625 31.984375 
L 29.59375 31.296875 
Q 39.15625 29.25 43.1875 25.515625 
Q 47.21875 21.78125 47.21875 15.09375 
Q 47.21875 7.46875 41.1875 3.015625 
Q 35.15625 -1.421875 24.609375 -1.421875 
Q 20.21875 -1.421875 15.453125 -0.5625 
Q 10.6875 0.296875 5.421875 2 
L 5.421875 11.28125 
Q 10.40625 8.6875 15.234375 7.390625 
Q 20.0625 6.109375 24.8125 6.109375 
Q 31.15625 6.109375 34.5625 8.28125 
Q 37.984375 10.453125 37.984375 14.40625 
Q 37.984375 18.0625 35.515625 20.015625 
Q 33.0625 21.96875 24.703125 23.78125 
L 21.578125 24.515625 
Q 13.234375 26.265625 9.515625 29.90625 
Q 5.8125 33.546875 5.8125 39.890625 
Q 5.8125 47.609375 11.28125 51.796875 
Q 16.75 56 26.8125 56 
Q 31.78125 56 36.171875 55.265625 
Q 40.578125 54.546875 44.28125 53.078125 
z
" id="DejaVuSans-115"/>
      <path d="M 54.890625 33.015625 
L 54.890625 0 
L 45.90625 0 
L 45.90625 32.71875 
Q 45.90625 40.484375 42.875 44.328125 
Q 39.84375 48.1875 33.796875 48.1875 
Q 26.515625 48.1875 22.3125 43.546875 
Q 18.109375 38.921875 18.109375 30.90625 
L 18.109375 0 
L 9.078125 0 
L 9.078125 75.984375 
L 18.109375 75.984375 
L 18.109375 46.1875 
Q 21.34375 51.125 25.703125 53.5625 
Q 30.078125 56 35.796875 56 
Q 45.21875 56 50.046875 50.171875 
Q 54.890625 44.34375 54.890625 33.015625 
z
" id="DejaVuSans-104"/>
      <path d="M 45.40625 46.390625 
L 45.40625 75.984375 
L 54.390625 75.984375 
L 54.390625 0 
L 45.40625 0 
L 45.40625 8.203125 
Q 42.578125 3.328125 38.25 0.953125 
Q 33.9375 -1.421875 27.875 -1.421875 
Q 17.96875 -1.421875 11.734375 6.484375 
Q 5.515625 14.40625 5.515625 27.296875 
Q 5.515625 40.1875 11.734375 48.09375 
Q 17.96875 56 27.875 56 
Q 33.9375 56 38.25 53.625 
Q 42.578125 51.265625 45.40625 46.390625 
z
M 14.796875 27.296875 
Q 14.796875 17.390625 18.875 11.75 
Q 22.953125 6.109375 30.078125 6.109375 
Q 37.203125 6.109375 41.296875 11.75 
Q 45.40625 17.390625 45.40625 27.296875 
Q 45.40625 37.203125 41.296875 42.84375 
Q 37.203125 48.484375 30.078125 48.484375 
Q 22.953125 48.484375 18.875 42.84375 
Q 14.796875 37.203125 14.796875 27.296875 
z
" id="DejaVuSans-100"/>
     </defs>
     <g style="fill:#262626;" transform="translate(18.854687 308.287656)rotate(-90)scale(0.1 -0.1)">
      <use xlink:href="#DejaVuSans-70"/>
      <use x="50.269531" xlink:href="#DejaVuSans-114"/>
      <use x="91.382812" xlink:href="#DejaVuSans-97"/>
      <use x="152.662109" xlink:href="#DejaVuSans-99"/>
      <use x="207.642578" xlink:href="#DejaVuSans-116"/>
      <use x="246.851562" xlink:href="#DejaVuSans-105"/>
      <use x="274.634766" xlink:href="#DejaVuSans-111"/>
      <use x="335.816406" xlink:href="#DejaVuSans-110"/>
      <use x="399.195312" xlink:href="#DejaVuSans-32"/>
      <use x="430.982422" xlink:href="#DejaVuSans-111"/>
      <use x="492.164062" xlink:href="#DejaVuSans-102"/>
      <use x="527.369141" xlink:href="#DejaVuSans-32"/>
      <use x="559.15625" xlink:href="#DejaVuSans-115"/>
      <use x="611.255859" xlink:href="#DejaVuSans-104"/>
      <use x="674.634766" xlink:href="#DejaVuSans-101"/>
      <use x="736.158203" xlink:href="#DejaVuSans-97"/>
      <use x="797.4375" xlink:href="#DejaVuSans-114"/>
      <use x="836.300781" xlink:href="#DejaVuSans-101"/>
      <use x="897.824219" xlink:href="#DejaVuSans-100"/>
      <use x="961.300781" xlink:href="#DejaVuSans-32"/>
      <use x="993.087891" xlink:href="#DejaVuSans-109"/>
      <use x="1090.5" xlink:href="#DejaVuSans-97"/>
      <use x="1151.779297" xlink:href="#DejaVuSans-115"/>
      <use x="1203.878906" xlink:href="#DejaVuSans-115"/>
     </g>
    </g>
   </g>
   <g id="line2d_25">
    <path clip-path="url(#p012d5865b1)" d="M 87.177273 445.535455 
L 94.546419 445.535455 
L 101.915565 445.535455 
L 109.284711 445.535455 
L 116.653857 445.535455 
L 124.023003 445.535455 
L 131.392149 445.535455 
L 138.761295 445.535455 
L 146.130441 445.535455 
L 153.499587 445.535455 
L 160.868733 445.535455 
L 168.237879 445.535455 
L 175.607025 445.535455 
L 182.976171 445.535455 
L 190.345317 445.535455 
L 197.714463 445.535455 
L 205.083609 445.535455 
L 212.452755 445.535455 
L 219.821901 445.535455 
L 227.191047 445.535455 
L 234.560193 445.535455 
L 241.929339 445.535455 
L 249.298485 445.535455 
L 256.667631 445.535455 
L 264.036777 445.523231 
L 271.405923 445.474337 
L 278.775069 445.400995 
L 286.144215 445.217641 
L 293.513361 444.948721 
L 300.882507 444.459777 
L 308.251653 443.909715 
L 315.620799 443.200745 
L 322.989945 442.36954 
L 330.359091 441.464993 
L 337.728237 440.144843 
L 345.097383 438.421315 
L 352.466529 436.367749 
L 359.835675 433.788567 
L 367.204821 430.744889 
L 374.573967 428.27572 
L 381.943113 425.403172 
L 389.312259 422.518401 
L 396.681405 419.719195 
L 404.050551 416.834423 
L 411.419697 412.910645 
L 418.788843 408.791289 
L 426.157989 404.561921 
L 433.527135 399.91695 
L 440.896281 394.599681 
L 448.265427 389.001268 
L 455.634573 381.593762 
L 463.003719 374.222926 
L 470.372865 365.898649 
L 477.742011 357.708832 
L 485.111157 348.883387 
L 492.480303 340.094613 
L 499.849449 331.47697 
L 507.218595 321.795872 
L 514.587741 312.677061 
L 521.956887 304.083864 
L 529.326033 295.637351 
L 536.695179 287.019708 
L 544.064325 279.294388 
L 551.433471 272.889217 
L 558.802617 266.007326 
L 566.171763 259.773286 
L 573.540909 254.517134 
L 580.910055 249.236536 
L 588.279201 243.430322 
L 595.648347 238.44309 
L 603.017493 233.553647 
L 610.386639 229.263161 
L 617.755785 225.156028 
L 625.124931 220.865542 
L 632.494077 216.733962 
L 639.863223 212.907973 
L 647.232369 209.302009 
L 654.601515 206.563921 
L 661.970661 203.752491 
L 669.339807 200.916614 
L 676.708953 198.044066 
L 684.078099 195.085953 
L 691.447245 192.714573 
L 698.816391 189.866472 
L 706.185537 187.543987 
L 713.554683 184.989253 
L 720.923829 182.532308 
L 728.292975 180.344282 
L 735.662121 177.691759 
L 743.031267 174.868106 
L 750.400413 172.655633 
L 757.769559 170.03978 
L 765.138705 167.399481 
L 772.507851 165.370362 
L 779.876997 163.19456 
L 787.246143 161.12877 
L 794.615289 159.062981 
L 801.984435 157.180545 
L 809.353581 155.359227 
L 816.722727 153.012295 
" style="fill:none;stroke:#1f77b4;stroke-linecap:round;stroke-width:1.5;"/>
   </g>
   <g id="line2d_26">
    <path clip-path="url(#p012d5865b1)" d="M 87.177273 445.535455 
L 94.546419 445.535455 
L 101.915565 445.535455 
L 109.284711 445.535455 
L 116.653857 445.535455 
L 124.023003 445.535455 
L 131.392149 445.535455 
L 138.761295 445.535455 
L 146.130441 445.535455 
L 153.499587 445.535455 
L 160.868733 445.535455 
L 168.237879 445.535455 
L 175.607025 445.535455 
L 182.976171 445.535455 
L 190.345317 445.535455 
L 197.714463 445.535455 
L 205.083609 445.535455 
L 212.452755 445.535455 
L 219.821901 445.535455 
L 227.191047 445.535455 
L 234.560193 445.535455 
L 241.929339 445.535455 
L 249.298485 445.523231 
L 256.667631 445.523231 
L 264.036777 445.48656 
L 271.405923 445.388771 
L 278.775069 445.303206 
L 286.144215 445.009839 
L 293.513361 444.704249 
L 300.882507 444.215305 
L 308.251653 443.738584 
L 315.620799 442.992944 
L 322.989945 441.917267 
L 330.359091 440.205962 
L 337.728237 437.577886 
L 345.097383 434.06971 
L 352.466529 430.830454 
L 359.835675 427.578975 
L 367.204821 423.508513 
L 374.573967 419.768089 
L 381.943113 416.357703 
L 389.312259 412.25057 
L 396.681405 408.38791 
L 404.050551 404.464132 
L 411.419697 400.442565 
L 418.788843 396.249868 
L 426.157989 392.815034 
L 433.527135 389.001268 
L 440.896281 383.696222 
L 448.265427 378.146704 
L 455.634573 372.621634 
L 463.003719 365.93532 
L 470.372865 358.772286 
L 477.742011 350.374667 
L 485.111157 341.329197 
L 492.480303 332.173715 
L 499.849449 323.898333 
L 507.218595 315.121782 
L 514.587741 305.061753 
L 521.956887 294.133848 
L 529.326033 284.049371 
L 536.695179 274.038236 
L 544.064325 265.591723 
L 551.433471 258.049757 
L 558.802617 250.874499 
L 566.171763 243.968161 
L 573.540909 236.548431 
L 580.910055 230.497745 
L 588.279201 224.78932 
L 595.648347 219.12979 
L 603.017493 214.154781 
L 610.386639 209.057537 
L 617.755785 203.935845 
L 625.124931 198.985284 
L 632.494077 194.401431 
L 639.863223 190.453206 
L 647.232369 186.431639 
L 654.601515 182.581202 
L 661.970661 178.938567 
L 669.339807 175.149249 
L 676.708953 171.93444 
L 684.078099 168.291805 
L 691.447245 165.052548 
L 698.816391 161.911081 
L 706.185537 158.329564 
L 713.554683 154.980296 
L 720.923829 151.753263 
L 728.292975 148.758479 
L 735.662121 145.482552 
L 743.031267 142.671122 
L 750.400413 139.786351 
L 757.769559 136.889356 
L 765.138705 133.796783 
L 772.507851 131.107589 
L 779.876997 128.173923 
L 787.246143 125.313599 
L 794.615289 122.514393 
L 801.984435 119.666292 
L 809.353581 117.087111 
L 816.722727 114.666837 
" style="fill:none;stroke:#ff7f0e;stroke-linecap:round;stroke-width:1.5;"/>
   </g>
   <g id="line2d_27">
    <path clip-path="url(#p012d5865b1)" d="M 87.177273 445.535455 
L 94.546419 445.535455 
L 101.915565 445.535455 
L 109.284711 445.535455 
L 116.653857 445.535455 
L 124.023003 445.535455 
L 131.392149 445.535455 
L 138.761295 445.535455 
L 146.130441 445.535455 
L 153.499587 445.535455 
L 160.868733 445.535455 
L 168.237879 445.535455 
L 175.607025 445.535455 
L 182.976171 445.535455 
L 190.345317 445.535455 
L 197.714463 445.535455 
L 205.083609 445.535455 
L 212.452755 445.535455 
L 219.821901 445.535455 
L 227.191047 445.535455 
L 234.560193 445.535455 
L 241.929339 445.535455 
L 249.298485 445.535455 
L 256.667631 445.535455 
L 264.036777 445.48656 
L 271.405923 445.364324 
L 278.775069 445.070957 
L 286.144215 444.667578 
L 293.513361 444.251976 
L 300.882507 443.701913 
L 308.251653 442.895155 
L 315.620799 441.513888 
L 322.989945 438.555774 
L 330.359091 434.228617 
L 337.728237 429.791448 
L 345.097383 424.926452 
L 352.466529 420.367046 
L 359.835675 415.722075 
L 367.204821 411.138222 
L 374.573967 406.077648 
L 381.943113 401.383783 
L 389.312259 396.738812 
L 396.681405 392.815034 
L 404.050551 388.646784 
L 411.419697 383.635104 
L 418.788843 378.770108 
L 426.157989 373.636193 
L 433.527135 368.856762 
L 440.896281 364.321804 
L 448.265427 359.383466 
L 455.634573 354.163986 
L 463.003719 347.905499 
L 470.372865 340.705793 
L 477.742011 333.163827 
L 485.111157 324.387277 
L 492.480303 315.500714 
L 499.849449 307.15199 
L 507.218595 299.059961 
L 514.587741 290.148951 
L 521.956887 279.551083 
L 529.326033 269.356594 
L 536.695179 258.477583 
L 544.064325 249.187641 
L 551.433471 240.606669 
L 558.802617 232.51464 
L 566.171763 225.571631 
L 573.540909 219.227578 
L 580.910055 213.079104 
L 588.279201 207.700716 
L 595.648347 201.931173 
L 603.017493 196.406103 
L 610.386639 190.648783 
L 617.755785 185.881576 
L 625.124931 180.772108 
L 632.494077 175.956007 
L 639.863223 171.091011 
L 647.232369 166.690512 
L 654.601515 162.302237 
L 661.970661 158.256222 
L 669.339807 154.7236 
L 676.708953 151.142083 
L 684.078099 147.585013 
L 691.447245 143.807918 
L 698.816391 139.664115 
L 706.185537 135.801455 
L 713.554683 132.733329 
L 720.923829 129.457402 
L 728.292975 125.692531 
L 735.662121 122.465499 
L 743.031267 118.871758 
L 750.400413 115.608055 
L 757.769559 110.926413 
L 765.138705 107.39379 
L 772.507851 104.472348 
L 779.876997 101.208645 
L 787.246143 97.8716 
L 794.615289 95.023499 
L 801.984435 92.004268 
L 809.353581 89.351745 
L 816.722727 86.308067 
" style="fill:none;stroke:#2ca02c;stroke-linecap:round;stroke-width:1.5;"/>
   </g>
   <g id="line2d_28">
    <path clip-path="url(#p012d5865b1)" d="M 87.177273 445.535455 
L 94.546419 445.535455 
L 101.915565 445.535455 
L 109.284711 445.535455 
L 116.653857 445.535455 
L 124.023003 445.535455 
L 131.392149 445.535455 
L 138.761295 445.535455 
L 146.130441 445.535455 
L 153.499587 445.535455 
L 160.868733 445.535455 
L 168.237879 445.535455 
L 175.607025 445.535455 
L 182.976171 445.535455 
L 190.345317 445.535455 
L 197.714463 445.535455 
L 205.083609 445.535455 
L 212.452755 445.535455 
L 219.821901 445.535455 
L 227.191047 445.535455 
L 234.560193 445.535455 
L 241.929339 445.535455 
L 249.298485 445.523231 
L 256.667631 445.523231 
L 264.036777 445.498784 
L 271.405923 445.462113 
L 278.775069 445.388771 
L 286.144215 445.229864 
L 293.513361 444.899827 
L 300.882507 444.459777 
L 308.251653 442.858484 
L 315.620799 439.020272 
L 322.989945 434.094158 
L 330.359091 427.407844 
L 337.728237 421.516065 
L 345.097383 414.915317 
L 352.466529 409.329128 
L 359.835675 403.91407 
L 367.204821 398.010067 
L 374.573967 390.541443 
L 381.943113 384.50298 
L 389.312259 379.576866 
L 396.681405 374.467398 
L 404.050551 369.651297 
L 411.419697 363.783965 
L 418.788843 358.51559 
L 426.157989 353.455016 
L 433.527135 348.052182 
L 440.896281 343.162739 
L 448.265427 337.527655 
L 455.634573 332.027032 
L 463.003719 326.440843 
L 470.372865 319.522281 
L 477.742011 313.092663 
L 485.111157 305.746275 
L 492.480303 298.143191 
L 499.849449 290.405647 
L 507.218595 282.570314 
L 514.587741 272.938111 
L 521.956887 263.831524 
L 529.326033 253.685929 
L 536.695179 244.163739 
L 544.064325 235.106045 
L 551.433471 226.427284 
L 558.802617 218.628622 
L 566.171763 211.27001 
L 573.540909 204.987075 
L 580.910055 198.484116 
L 588.279201 192.531219 
L 595.648347 186.541651 
L 603.017493 180.490965 
L 610.386639 174.978118 
L 617.755785 169.685296 
L 625.124931 164.844747 
L 632.494077 160.395354 
L 639.863223 155.041414 
L 647.232369 150.616468 
L 654.601515 146.668242 
L 661.970661 143.062278 
L 669.339807 140.067494 
L 676.708953 136.473753 
L 684.078099 132.562199 
L 691.447245 129.432955 
L 698.816391 126.499289 
L 706.185537 123.626741 
L 713.554683 120.717523 
L 720.923829 118.113894 
L 728.292975 115.302464 
L 735.662121 112.845519 
L 743.031267 110.034089 
L 750.400413 106.929293 
L 757.769559 104.068969 
L 765.138705 101.355328 
L 772.507851 98.433886 
L 779.876997 95.634679 
L 787.246143 92.725461 
L 794.615289 90.280739 
L 801.984435 87.787123 
L 809.353581 85.452414 
L 816.722727 83.264388 
" style="fill:none;stroke:#d62728;stroke-linecap:round;stroke-width:1.5;"/>
   </g>
   <g id="line2d_29">
    <path clip-path="url(#p012d5865b1)" d="M 87.177273 445.535455 
L 94.546419 445.535455 
L 101.915565 445.535455 
L 109.284711 445.535455 
L 116.653857 445.535455 
L 124.023003 445.535455 
L 131.392149 445.535455 
L 138.761295 445.535455 
L 146.130441 445.535455 
L 153.499587 445.535455 
L 160.868733 445.535455 
L 168.237879 445.535455 
L 175.607025 445.535455 
L 182.976171 445.535455 
L 190.345317 445.535455 
L 197.714463 445.535455 
L 205.083609 445.535455 
L 212.452755 445.535455 
L 219.821901 445.535455 
L 227.191047 445.535455 
L 234.560193 445.535455 
L 241.929339 445.535455 
L 249.298485 445.535455 
L 256.667631 445.535455 
L 264.036777 445.523231 
L 271.405923 445.523231 
L 278.775069 445.523231 
L 286.144215 445.462113 
L 293.513361 445.400995 
L 300.882507 444.056398 
L 308.251653 439.924819 
L 315.620799 433.605213 
L 322.989945 427.016689 
L 330.359091 419.242474 
L 337.728237 412.482819 
L 345.097383 405.221996 
L 352.466529 398.107856 
L 359.835675 391.507108 
L 367.204821 385.150832 
L 374.573967 378.941239 
L 381.943113 372.939447 
L 389.312259 366.790973 
L 396.681405 360.471367 
L 404.050551 354.701824 
L 411.419697 349.690145 
L 418.788843 344.25064 
L 426.157989 338.32219 
L 433.527135 332.051479 
L 440.896281 326.196371 
L 448.265427 320.243474 
L 455.634573 313.764962 
L 463.003719 307.384238 
L 470.372865 301.773602 
L 477.742011 295.527339 
L 485.111157 288.987709 
L 492.480303 282.35029 
L 499.849449 275.065019 
L 507.218595 267.388593 
L 514.587741 259.944416 
L 521.956887 251.314549 
L 529.326033 242.916931 
L 536.695179 234.421523 
L 544.064325 226.671756 
L 551.433471 217.80964 
L 558.802617 210.133214 
L 566.171763 202.615695 
L 573.540909 196.467221 
L 580.910055 189.829802 
L 588.279201 183.852457 
L 595.648347 177.557299 
L 603.017493 171.335483 
L 610.386639 164.918089 
L 617.755785 160.370907 
L 625.124931 155.347004 
L 632.494077 150.653138 
L 639.863223 145.824813 
L 647.232369 140.972041 
L 654.601515 136.730449 
L 661.970661 132.63554 
L 669.339807 127.966122 
L 676.708953 123.846766 
L 684.078099 120.277473 
L 691.447245 116.084775 
L 698.816391 112.686612 
L 706.185537 108.701716 
L 713.554683 105.328 
L 720.923829 102.027626 
L 728.292975 98.605016 
L 735.662121 95.341313 
L 743.031267 91.930926 
L 750.400413 88.153831 
L 757.769559 84.498973 
L 765.138705 81.186375 
L 772.507851 77.421504 
L 779.876997 73.937775 
L 787.246143 70.4296 
L 794.615289 67.080331 
L 801.984435 63.975535 
L 809.353581 61.07854 
L 816.722727 57.533694 
" style="fill:none;stroke:#9467bd;stroke-linecap:round;stroke-width:1.5;"/>
   </g>
   <g id="line2d_30">
    <path clip-path="url(#p012d5865b1)" d="M 87.177273 445.535455 
L 94.546419 445.535455 
L 101.915565 445.535455 
L 109.284711 445.535455 
L 116.653857 445.535455 
L 124.023003 445.535455 
L 131.392149 445.535455 
L 138.761295 445.535455 
L 146.130441 445.535455 
L 153.499587 445.535455 
L 160.868733 445.535455 
L 168.237879 445.535455 
L 175.607025 445.535455 
L 182.976171 445.535455 
L 190.345317 445.535455 
L 197.714463 445.535455 
L 205.083609 445.535455 
L 212.452755 445.535455 
L 219.821901 445.535455 
L 227.191047 445.535455 
L 234.560193 445.535455 
L 241.929339 445.535455 
L 249.298485 445.535455 
L 256.667631 445.535455 
L 264.036777 445.535455 
L 271.405923 445.535455 
L 278.775069 445.535455 
L 286.144215 445.523231 
L 293.513361 444.325317 
L 300.882507 440.157067 
L 308.251653 432.945138 
L 315.620799 424.486402 
L 322.989945 415.086447 
L 330.359091 406.175437 
L 337.728237 397.117744 
L 345.097383 388.891256 
L 352.466529 380.799227 
L 359.835675 373.135025 
L 367.204821 365.76419 
L 374.573967 358.711168 
L 381.943113 351.193649 
L 389.312259 344.72736 
L 396.681405 338.212177 
L 404.050551 332.051479 
L 411.419697 325.841886 
L 418.788843 319.607846 
L 426.157989 313.728291 
L 433.527135 307.396462 
L 440.896281 301.590248 
L 448.265427 294.708357 
L 455.634573 288.400975 
L 463.003719 281.885792 
L 470.372865 276.104026 
L 477.742011 269.955551 
L 485.111157 263.672617 
L 492.480303 257.487471 
L 499.849449 249.957729 
L 507.218595 241.719017 
L 514.587741 233.798119 
L 521.956887 225.926116 
L 529.326033 218.518609 
L 536.695179 211.025538 
L 544.064325 203.630255 
L 551.433471 195.917158 
L 558.802617 189.01082 
L 566.171763 182.556755 
L 573.540909 176.457175 
L 580.910055 169.941992 
L 588.279201 164.539157 
L 595.648347 158.574036 
L 603.017493 153.134531 
L 610.386639 147.585013 
L 617.755785 142.781135 
L 625.124931 137.671667 
L 632.494077 132.733329 
L 639.863223 128.77288 
L 647.232369 124.274593 
L 654.601515 120.191908 
L 661.970661 116.243682 
L 669.339807 112.038761 
L 676.708953 107.687157 
L 684.078099 103.555577 
L 691.447245 99.619576 
L 698.816391 96.282531 
L 706.185537 92.847697 
L 713.554683 88.899471 
L 720.923829 85.855793 
L 728.292975 82.213158 
L 735.662121 79.010573 
L 743.031267 75.979118 
L 750.400413 72.80098 
L 757.769559 69.81842 
L 765.138705 66.56694 
L 772.507851 63.767734 
L 779.876997 60.357347 
L 787.246143 56.922513 
L 794.615289 53.79327 
L 801.984435 51.140747 
L 809.353581 48.219304 
L 816.722727 45.444545 
" style="fill:none;stroke:#8c564b;stroke-linecap:round;stroke-width:1.5;"/>
   </g>
   <g id="line2d_31">
    <path clip-path="url(#p012d5865b1)" d="M 87.177273 445.535455 
L 94.546419 445.535455 
L 101.915565 445.535455 
L 109.284711 445.535455 
L 116.653857 445.535455 
L 124.023003 445.535455 
L 131.392149 445.535455 
L 138.761295 445.535455 
L 146.130441 445.535455 
L 153.499587 445.535455 
L 160.868733 445.535455 
L 168.237879 445.535455 
L 175.607025 445.535455 
L 182.976171 445.535455 
L 190.345317 445.535455 
L 197.714463 445.535455 
L 205.083609 445.535455 
L 212.452755 445.535455 
L 219.821901 445.535455 
L 227.191047 445.535455 
L 234.560193 445.535455 
L 241.929339 445.535455 
L 249.298485 445.535455 
L 256.667631 445.535455 
L 264.036777 445.535455 
L 271.405923 445.535455 
L 278.775069 445.535455 
L 286.144215 444.533119 
L 293.513361 440.633788 
L 300.882507 433.372965 
L 308.251653 423.655196 
L 315.620799 412.336136 
L 322.989945 401.310441 
L 330.359091 389.416871 
L 337.728237 379.039028 
L 345.097383 368.490054 
L 352.466529 358.833404 
L 359.835675 350.154642 
L 367.204821 341.353645 
L 374.573967 333.163827 
L 381.943113 325.85411 
L 389.312259 318.177684 
L 396.681405 311.4547 
L 404.050551 304.560585 
L 411.419697 297.923166 
L 418.788843 291.628008 
L 426.157989 285.283955 
L 433.527135 279.001021 
L 440.896281 272.070235 
L 448.265427 265.701736 
L 455.634573 259.34546 
L 463.003719 253.502575 
L 470.372865 247.268535 
L 477.742011 240.936706 
L 485.111157 234.996033 
L 492.480303 228.51752 
L 499.849449 221.268921 
L 507.218595 214.142558 
L 514.587741 206.417237 
L 521.956887 198.679694 
L 529.326033 191.748908 
L 536.695179 184.316954 
L 544.064325 177.838442 
L 551.433471 171.531061 
L 558.802617 165.822636 
L 566.171763 160.407577 
L 573.540909 154.564693 
L 580.910055 149.565237 
L 588.279201 144.443546 
L 595.648347 139.358525 
L 603.017493 135.080262 
L 610.386639 131.070919 
L 617.755785 127.183811 
L 625.124931 123.308928 
L 632.494077 119.360702 
L 639.863223 115.669173 
L 647.232369 112.160997 
L 654.601515 108.652822 
L 661.970661 104.997963 
L 669.339807 101.208645 
L 676.708953 97.749364 
L 684.078099 94.571225 
L 691.447245 92.040939 
L 698.816391 89.229509 
L 706.185537 86.405855 
L 713.554683 83.398848 
L 720.923829 80.404064 
L 728.292975 77.617081 
L 735.662121 75.099018 
L 743.031267 72.959887 
L 750.400413 70.026221 
L 757.769559 67.214791 
L 765.138705 64.378914 
L 772.507851 62.056429 
L 779.876997 59.4528 
L 787.246143 56.47024 
L 794.615289 53.487679 
L 801.984435 50.725144 
L 809.353581 48.365988 
L 816.722727 46.006831 
" style="fill:none;stroke:#e377c2;stroke-linecap:round;stroke-width:1.5;"/>
   </g>
   <g id="patch_3">
    <path d="M 50.7 465.54 
L 50.7 25.44 
" style="fill:none;"/>
   </g>
   <g id="patch_4">
    <path d="M 853.2 465.54 
L 853.2 25.44 
" style="fill:none;"/>
   </g>
   <g id="patch_5">
    <path d="M 50.7 465.54 
L 853.2 465.54 
" style="fill:none;"/>
   </g>
   <g id="patch_6">
    <path d="M 50.7 25.44 
L 853.2 25.44 
" style="fill:none;"/>
   </g>
   <g id="text_15">
    <!-- Sheared mass (plummer) -->
    <defs>
     <path d="M 53.515625 70.515625 
L 53.515625 60.890625 
Q 47.90625 63.578125 42.921875 64.890625 
Q 37.9375 66.21875 33.296875 66.21875 
Q 25.25 66.21875 20.875 63.09375 
Q 16.5 59.96875 16.5 54.203125 
Q 16.5 49.359375 19.40625 46.890625 
Q 22.3125 44.4375 30.421875 42.921875 
L 36.375 41.703125 
Q 47.40625 39.59375 52.65625 34.296875 
Q 57.90625 29 57.90625 20.125 
Q 57.90625 9.515625 50.796875 4.046875 
Q 43.703125 -1.421875 29.984375 -1.421875 
Q 24.8125 -1.421875 18.96875 -0.25 
Q 13.140625 0.921875 6.890625 3.21875 
L 6.890625 13.375 
Q 12.890625 10.015625 18.65625 8.296875 
Q 24.421875 6.59375 29.984375 6.59375 
Q 38.421875 6.59375 43.015625 9.90625 
Q 47.609375 13.234375 47.609375 19.390625 
Q 47.609375 24.75 44.3125 27.78125 
Q 41.015625 30.8125 33.5 32.328125 
L 27.484375 33.5 
Q 16.453125 35.6875 11.515625 40.375 
Q 6.59375 45.0625 6.59375 53.421875 
Q 6.59375 63.09375 13.40625 68.65625 
Q 20.21875 74.21875 32.171875 74.21875 
Q 37.3125 74.21875 42.625 73.28125 
Q 47.953125 72.359375 53.515625 70.515625 
z
" id="DejaVuSans-83"/>
     <path d="M 31 75.875 
Q 24.46875 64.65625 21.28125 53.65625 
Q 18.109375 42.671875 18.109375 31.390625 
Q 18.109375 20.125 21.3125 9.0625 
Q 24.515625 -2 31 -13.1875 
L 23.1875 -13.1875 
Q 15.875 -1.703125 12.234375 9.375 
Q 8.59375 20.453125 8.59375 31.390625 
Q 8.59375 42.28125 12.203125 53.3125 
Q 15.828125 64.359375 23.1875 75.875 
z
" id="DejaVuSans-40"/>
     <path d="M 18.109375 8.203125 
L 18.109375 -20.796875 
L 9.078125 -20.796875 
L 9.078125 54.6875 
L 18.109375 54.6875 
L 18.109375 46.390625 
Q 20.953125 51.265625 25.265625 53.625 
Q 29.59375 56 35.59375 56 
Q 45.5625 56 51.78125 48.09375 
Q 58.015625 40.1875 58.015625 27.296875 
Q 58.015625 14.40625 51.78125 6.484375 
Q 45.5625 -1.421875 35.59375 -1.421875 
Q 29.59375 -1.421875 25.265625 0.953125 
Q 20.953125 3.328125 18.109375 8.203125 
z
M 48.6875 27.296875 
Q 48.6875 37.203125 44.609375 42.84375 
Q 40.53125 48.484375 33.40625 48.484375 
Q 26.265625 48.484375 22.1875 42.84375 
Q 18.109375 37.203125 18.109375 27.296875 
Q 18.109375 17.390625 22.1875 11.75 
Q 26.265625 6.109375 33.40625 6.109375 
Q 40.53125 6.109375 44.609375 11.75 
Q 48.6875 17.390625 48.6875 27.296875 
z
" id="DejaVuSans-112"/>
     <path d="M 9.421875 75.984375 
L 18.40625 75.984375 
L 18.40625 0 
L 9.421875 0 
z
" id="DejaVuSans-108"/>
     <path d="M 8.5 21.578125 
L 8.5 54.6875 
L 17.484375 54.6875 
L 17.484375 21.921875 
Q 17.484375 14.15625 20.5 10.265625 
Q 23.53125 6.390625 29.59375 6.390625 
Q 36.859375 6.390625 41.078125 11.03125 
Q 45.3125 15.671875 45.3125 23.6875 
L 45.3125 54.6875 
L 54.296875 54.6875 
L 54.296875 0 
L 45.3125 0 
L 45.3125 8.40625 
Q 42.046875 3.421875 37.71875 1 
Q 33.40625 -1.421875 27.6875 -1.421875 
Q 18.265625 -1.421875 13.375 4.4375 
Q 8.5 10.296875 8.5 21.578125 
z
M 31.109375 56 
z
" id="DejaVuSans-117"/>
     <path d="M 8.015625 75.875 
L 15.828125 75.875 
Q 23.140625 64.359375 26.78125 53.3125 
Q 30.421875 42.28125 30.421875 31.390625 
Q 30.421875 20.453125 26.78125 9.375 
Q 23.140625 -1.703125 15.828125 -13.1875 
L 8.015625 -13.1875 
Q 14.5 -2 17.703125 9.0625 
Q 20.90625 20.125 20.90625 31.390625 
Q 20.90625 42.671875 17.703125 53.65625 
Q 14.5 64.65625 8.015625 75.875 
z
" id="DejaVuSans-41"/>
    </defs>
    <g style="fill:#262626;" transform="translate(375.743437 19.44)scale(0.12 -0.12)">
     <use xlink:href="#DejaVuSans-83"/>
     <use x="63.476562" xlink:href="#DejaVuSans-104"/>
     <use x="126.855469" xlink:href="#DejaVuSans-101"/>
     <use x="188.378906" xlink:href="#DejaVuSans-97"/>
     <use x="249.658203" xlink:href="#DejaVuSans-114"/>
     <use x="288.521484" xlink:href="#DejaVuSans-101"/>
     <use x="350.044922" xlink:href="#DejaVuSans-100"/>
     <use x="413.521484" xlink:href="#DejaVuSans-32"/>
     <use x="445.308594" xlink:href="#DejaVuSans-109"/>
     <use x="542.720703" xlink:href="#DejaVuSans-97"/>
     <use x="604" xlink:href="#DejaVuSans-115"/>
     <use x="656.099609" xlink:href="#DejaVuSans-115"/>
     <use x="708.199219" xlink:href="#DejaVuSans-32"/>
     <use x="739.986328" xlink:href="#DejaVuSans-40"/>
     <use x="779" xlink:href="#DejaVuSans-112"/>
     <use x="842.476562" xlink:href="#DejaVuSans-108"/>
     <use x="870.259766" xlink:href="#DejaVuSans-117"/>
     <use x="933.638672" xlink:href="#DejaVuSans-109"/>
     <use x="1031.050781" xlink:href="#DejaVuSans-109"/>
     <use x="1128.462891" xlink:href="#DejaVuSans-101"/>
     <use x="1189.986328" xlink:href="#DejaVuSans-114"/>
     <use x="1231.099609" xlink:href="#DejaVuSans-41"/>
    </g>
   </g>
   <g id="legend_1">
    <g id="line2d_32">
     <path d="M 59.7 38.538437 
L 79.7 38.538437 
" style="fill:none;stroke:#1f77b4;stroke-linecap:round;stroke-width:1.5;"/>
    </g>
    <g id="line2d_33"/>
    <g id="text_16">
     <!-- 0.0 -->
     <g style="fill:#262626;" transform="translate(87.7 42.038437)scale(0.1 -0.1)">
      <use xlink:href="#DejaVuSans-48"/>
      <use x="63.623047" xlink:href="#DejaVuSans-46"/>
      <use x="95.410156" xlink:href="#DejaVuSans-48"/>
     </g>
    </g>
    <g id="line2d_34">
     <path d="M 59.7 53.216563 
L 79.7 53.216563 
" style="fill:none;stroke:#ff7f0e;stroke-linecap:round;stroke-width:1.5;"/>
    </g>
    <g id="line2d_35"/>
    <g id="text_17">
     <!-- 0.1 -->
     <g style="fill:#262626;" transform="translate(87.7 56.716563)scale(0.1 -0.1)">
      <use xlink:href="#DejaVuSans-48"/>
      <use x="63.623047" xlink:href="#DejaVuSans-46"/>
      <use x="95.410156" xlink:href="#DejaVuSans-49"/>
     </g>
    </g>
    <g id="line2d_36">
     <path d="M 59.7 67.894687 
L 79.7 67.894687 
" style="fill:none;stroke:#2ca02c;stroke-linecap:round;stroke-width:1.5;"/>
    </g>
    <g id="line2d_37"/>
    <g id="text_18">
     <!-- 0.2 -->
     <g style="fill:#262626;" transform="translate(87.7 71.394687)scale(0.1 -0.1)">
      <use xlink:href="#DejaVuSans-48"/>
      <use x="63.623047" xlink:href="#DejaVuSans-46"/>
      <use x="95.410156" xlink:href="#DejaVuSans-50"/>
     </g>
    </g>
    <g id="line2d_38">
     <path d="M 59.7 82.572812 
L 79.7 82.572812 
" style="fill:none;stroke:#d62728;stroke-linecap:round;stroke-width:1.5;"/>
    </g>
    <g id="line2d_39"/>
    <g id="text_19">
     <!-- 0.3 -->
     <g style="fill:#262626;" transform="translate(87.7 86.072812)scale(0.1 -0.1)">
      <use xlink:href="#DejaVuSans-48"/>
      <use x="63.623047" xlink:href="#DejaVuSans-46"/>
      <use x="95.410156" xlink:href="#DejaVuSans-51"/>
     </g>
    </g>
    <g id="line2d_40">
     <path d="M 59.7 97.250937 
L 79.7 97.250937 
" style="fill:none;stroke:#9467bd;stroke-linecap:round;stroke-width:1.5;"/>
    </g>
    <g id="line2d_41"/>
    <g id="text_20">
     <!-- 0.4 -->
     <g style="fill:#262626;" transform="translate(87.7 100.750937)scale(0.1 -0.1)">
      <use xlink:href="#DejaVuSans-48"/>
      <use x="63.623047" xlink:href="#DejaVuSans-46"/>
      <use x="95.410156" xlink:href="#DejaVuSans-52"/>
     </g>
    </g>
    <g id="line2d_42">
     <path d="M 59.7 111.929062 
L 79.7 111.929062 
" style="fill:none;stroke:#8c564b;stroke-linecap:round;stroke-width:1.5;"/>
    </g>
    <g id="line2d_43"/>
    <g id="text_21">
     <!-- 0.5 -->
     <g style="fill:#262626;" transform="translate(87.7 115.429062)scale(0.1 -0.1)">
      <use xlink:href="#DejaVuSans-48"/>
      <use x="63.623047" xlink:href="#DejaVuSans-46"/>
      <use x="95.410156" xlink:href="#DejaVuSans-53"/>
     </g>
    </g>
    <g id="line2d_44">
     <path d="M 59.7 126.607188 
L 79.7 126.607188 
" style="fill:none;stroke:#e377c2;stroke-linecap:round;stroke-width:1.5;"/>
    </g>
    <g id="line2d_45"/>
    <g id="text_22">
     <!-- 0.6 -->
     <g style="fill:#262626;" transform="translate(87.7 130.107188)scale(0.1 -0.1)">
      <use xlink:href="#DejaVuSans-48"/>
      <use x="63.623047" xlink:href="#DejaVuSans-46"/>
      <use x="95.410156" xlink:href="#DejaVuSans-54"/>
     </g>
    </g>
   </g>
  </g>
 </g>
 <defs>
  <clipPath id="p012d5865b1">
   <rect height="440.1" width="802.5" x="50.7" y="25.44"/>
  </clipPath>
 </defs>
</svg>
