<?xml version="1.0" encoding="utf-8" standalone="no"?>
<!DOCTYPE svg PUBLIC "-//W3C//DTD SVG 1.1//EN"
  "http://www.w3.org/Graphics/SVG/1.1/DTD/svg11.dtd">
<!-- Created with matplotlib (https://matplotlib.org/) -->
<svg height="504pt" version="1.1" viewBox="0 0 864 504" width="864pt" xmlns="http://www.w3.org/2000/svg" xmlns:xlink="http://www.w3.org/1999/xlink">
 <defs>
  <style type="text/css">
*{stroke-linecap:butt;stroke-linejoin:round;}
  </style>
 </defs>
 <g id="figure_1">
  <g id="patch_1">
   <path d="M 0 504 
L 864 504 
L 864 0 
L 0 0 
z
" style="fill:#ffffff;"/>
  </g>
  <g id="axes_1">
   <g id="patch_2">
    <path d="M 44.31 465.54 
L 853.2 465.54 
L 853.2 25.44 
L 44.31 25.44 
z
" style="fill:#eaeaf2;"/>
   </g>
   <g id="matplotlib.axis_1">
    <g id="xtick_1">
     <g id="line2d_1">
      <path clip-path="url(#peec2a47818)" d="M 81.077727 465.54 
L 81.077727 25.44 
" style="fill:none;stroke:#ffffff;stroke-linecap:round;stroke-width:0.8;"/>
     </g>
     <g id="line2d_2"/>
     <g id="text_1">
      <!-- 0 -->
      <defs>
       <path d="M 31.78125 66.40625 
Q 24.171875 66.40625 20.328125 58.90625 
Q 16.5 51.421875 16.5 36.375 
Q 16.5 21.390625 20.328125 13.890625 
Q 24.171875 6.390625 31.78125 6.390625 
Q 39.453125 6.390625 43.28125 13.890625 
Q 47.125 21.390625 47.125 36.375 
Q 47.125 51.421875 43.28125 58.90625 
Q 39.453125 66.40625 31.78125 66.40625 
z
M 31.78125 74.21875 
Q 44.046875 74.21875 50.515625 64.515625 
Q 56.984375 54.828125 56.984375 36.375 
Q 56.984375 17.96875 50.515625 8.265625 
Q 44.046875 -1.421875 31.78125 -1.421875 
Q 19.53125 -1.421875 13.0625 8.265625 
Q 6.59375 17.96875 6.59375 36.375 
Q 6.59375 54.828125 13.0625 64.515625 
Q 19.53125 74.21875 31.78125 74.21875 
z
" id="DejaVuSans-48"/>
      </defs>
      <g style="fill:#262626;" transform="translate(77.896477 476.638438)scale(0.1 -0.1)">
       <use xlink:href="#DejaVuSans-48"/>
      </g>
     </g>
    </g>
    <g id="xtick_2">
     <g id="line2d_3">
      <path clip-path="url(#peec2a47818)" d="M 229.634201 465.54 
L 229.634201 25.44 
" style="fill:none;stroke:#ffffff;stroke-linecap:round;stroke-width:0.8;"/>
     </g>
     <g id="line2d_4"/>
     <g id="text_2">
      <!-- 2 -->
      <defs>
       <path d="M 19.1875 8.296875 
L 53.609375 8.296875 
L 53.609375 0 
L 7.328125 0 
L 7.328125 8.296875 
Q 12.9375 14.109375 22.625 23.890625 
Q 32.328125 33.6875 34.8125 36.53125 
Q 39.546875 41.84375 41.421875 45.53125 
Q 43.3125 49.21875 43.3125 52.78125 
Q 43.3125 58.59375 39.234375 62.25 
Q 35.15625 65.921875 28.609375 65.921875 
Q 23.96875 65.921875 18.8125 64.3125 
Q 13.671875 62.703125 7.8125 59.421875 
L 7.8125 69.390625 
Q 13.765625 71.78125 18.9375 73 
Q 24.125 74.21875 28.421875 74.21875 
Q 39.75 74.21875 46.484375 68.546875 
Q 53.21875 62.890625 53.21875 53.421875 
Q 53.21875 48.921875 51.53125 44.890625 
Q 49.859375 40.875 45.40625 35.40625 
Q 44.1875 33.984375 37.640625 27.21875 
Q 31.109375 20.453125 19.1875 8.296875 
z
" id="DejaVuSans-50"/>
      </defs>
      <g style="fill:#262626;" transform="translate(226.452951 476.638438)scale(0.1 -0.1)">
       <use xlink:href="#DejaVuSans-50"/>
      </g>
     </g>
    </g>
    <g id="xtick_3">
     <g id="line2d_5">
      <path clip-path="url(#peec2a47818)" d="M 378.190675 465.54 
L 378.190675 25.44 
" style="fill:none;stroke:#ffffff;stroke-linecap:round;stroke-width:0.8;"/>
     </g>
     <g id="line2d_6"/>
     <g id="text_3">
      <!-- 4 -->
      <defs>
       <path d="M 37.796875 64.3125 
L 12.890625 25.390625 
L 37.796875 25.390625 
z
M 35.203125 72.90625 
L 47.609375 72.90625 
L 47.609375 25.390625 
L 58.015625 25.390625 
L 58.015625 17.1875 
L 47.609375 17.1875 
L 47.609375 0 
L 37.796875 0 
L 37.796875 17.1875 
L 4.890625 17.1875 
L 4.890625 26.703125 
z
" id="DejaVuSans-52"/>
      </defs>
      <g style="fill:#262626;" transform="translate(375.009425 476.638438)scale(0.1 -0.1)">
       <use xlink:href="#DejaVuSans-52"/>
      </g>
     </g>
    </g>
    <g id="xtick_4">
     <g id="line2d_7">
      <path clip-path="url(#peec2a47818)" d="M 526.747149 465.54 
L 526.747149 25.44 
" style="fill:none;stroke:#ffffff;stroke-linecap:round;stroke-width:0.8;"/>
     </g>
     <g id="line2d_8"/>
     <g id="text_4">
      <!-- 6 -->
      <defs>
       <path d="M 33.015625 40.375 
Q 26.375 40.375 22.484375 35.828125 
Q 18.609375 31.296875 18.609375 23.390625 
Q 18.609375 15.53125 22.484375 10.953125 
Q 26.375 6.390625 33.015625 6.390625 
Q 39.65625 6.390625 43.53125 10.953125 
Q 47.40625 15.53125 47.40625 23.390625 
Q 47.40625 31.296875 43.53125 35.828125 
Q 39.65625 40.375 33.015625 40.375 
z
M 52.59375 71.296875 
L 52.59375 62.3125 
Q 48.875 64.0625 45.09375 64.984375 
Q 41.3125 65.921875 37.59375 65.921875 
Q 27.828125 65.921875 22.671875 59.328125 
Q 17.53125 52.734375 16.796875 39.40625 
Q 19.671875 43.65625 24.015625 45.921875 
Q 28.375 48.1875 33.59375 48.1875 
Q 44.578125 48.1875 50.953125 41.515625 
Q 57.328125 34.859375 57.328125 23.390625 
Q 57.328125 12.15625 50.6875 5.359375 
Q 44.046875 -1.421875 33.015625 -1.421875 
Q 20.359375 -1.421875 13.671875 8.265625 
Q 6.984375 17.96875 6.984375 36.375 
Q 6.984375 53.65625 15.1875 63.9375 
Q 23.390625 74.21875 37.203125 74.21875 
Q 40.921875 74.21875 44.703125 73.484375 
Q 48.484375 72.75 52.59375 71.296875 
z
" id="DejaVuSans-54"/>
      </defs>
      <g style="fill:#262626;" transform="translate(523.565899 476.638438)scale(0.1 -0.1)">
       <use xlink:href="#DejaVuSans-54"/>
      </g>
     </g>
    </g>
    <g id="xtick_5">
     <g id="line2d_9">
      <path clip-path="url(#peec2a47818)" d="M 675.303623 465.54 
L 675.303623 25.44 
" style="fill:none;stroke:#ffffff;stroke-linecap:round;stroke-width:0.8;"/>
     </g>
     <g id="line2d_10"/>
     <g id="text_5">
      <!-- 8 -->
      <defs>
       <path d="M 31.78125 34.625 
Q 24.75 34.625 20.71875 30.859375 
Q 16.703125 27.09375 16.703125 20.515625 
Q 16.703125 13.921875 20.71875 10.15625 
Q 24.75 6.390625 31.78125 6.390625 
Q 38.8125 6.390625 42.859375 10.171875 
Q 46.921875 13.96875 46.921875 20.515625 
Q 46.921875 27.09375 42.890625 30.859375 
Q 38.875 34.625 31.78125 34.625 
z
M 21.921875 38.8125 
Q 15.578125 40.375 12.03125 44.71875 
Q 8.5 49.078125 8.5 55.328125 
Q 8.5 64.0625 14.71875 69.140625 
Q 20.953125 74.21875 31.78125 74.21875 
Q 42.671875 74.21875 48.875 69.140625 
Q 55.078125 64.0625 55.078125 55.328125 
Q 55.078125 49.078125 51.53125 44.71875 
Q 48 40.375 41.703125 38.8125 
Q 48.828125 37.15625 52.796875 32.3125 
Q 56.78125 27.484375 56.78125 20.515625 
Q 56.78125 9.90625 50.3125 4.234375 
Q 43.84375 -1.421875 31.78125 -1.421875 
Q 19.734375 -1.421875 13.25 4.234375 
Q 6.78125 9.90625 6.78125 20.515625 
Q 6.78125 27.484375 10.78125 32.3125 
Q 14.796875 37.15625 21.921875 38.8125 
z
M 18.3125 54.390625 
Q 18.3125 48.734375 21.84375 45.5625 
Q 25.390625 42.390625 31.78125 42.390625 
Q 38.140625 42.390625 41.71875 45.5625 
Q 45.3125 48.734375 45.3125 54.390625 
Q 45.3125 60.0625 41.71875 63.234375 
Q 38.140625 66.40625 31.78125 66.40625 
Q 25.390625 66.40625 21.84375 63.234375 
Q 18.3125 60.0625 18.3125 54.390625 
z
" id="DejaVuSans-56"/>
      </defs>
      <g style="fill:#262626;" transform="translate(672.122373 476.638438)scale(0.1 -0.1)">
       <use xlink:href="#DejaVuSans-56"/>
      </g>
     </g>
    </g>
    <g id="xtick_6">
     <g id="line2d_11">
      <path clip-path="url(#peec2a47818)" d="M 823.860096 465.54 
L 823.860096 25.44 
" style="fill:none;stroke:#ffffff;stroke-linecap:round;stroke-width:0.8;"/>
     </g>
     <g id="line2d_12"/>
     <g id="text_6">
      <!-- 10 -->
      <defs>
       <path d="M 12.40625 8.296875 
L 28.515625 8.296875 
L 28.515625 63.921875 
L 10.984375 60.40625 
L 10.984375 69.390625 
L 28.421875 72.90625 
L 38.28125 72.90625 
L 38.28125 8.296875 
L 54.390625 8.296875 
L 54.390625 0 
L 12.40625 0 
z
" id="DejaVuSans-49"/>
      </defs>
      <g style="fill:#262626;" transform="translate(817.497596 476.638438)scale(0.1 -0.1)">
       <use xlink:href="#DejaVuSans-49"/>
       <use x="63.623047" xlink:href="#DejaVuSans-48"/>
      </g>
     </g>
    </g>
    <g id="text_7">
     <!-- Time -->
     <defs>
      <path d="M -0.296875 72.90625 
L 61.375 72.90625 
L 61.375 64.59375 
L 35.5 64.59375 
L 35.5 0 
L 25.59375 0 
L 25.59375 64.59375 
L -0.296875 64.59375 
z
" id="DejaVuSans-84"/>
      <path d="M 9.421875 54.6875 
L 18.40625 54.6875 
L 18.40625 0 
L 9.421875 0 
z
M 9.421875 75.984375 
L 18.40625 75.984375 
L 18.40625 64.59375 
L 9.421875 64.59375 
z
" id="DejaVuSans-105"/>
      <path d="M 52 44.1875 
Q 55.375 50.25 60.0625 53.125 
Q 64.75 56 71.09375 56 
Q 79.640625 56 84.28125 50.015625 
Q 88.921875 44.046875 88.921875 33.015625 
L 88.921875 0 
L 79.890625 0 
L 79.890625 32.71875 
Q 79.890625 40.578125 77.09375 44.375 
Q 74.3125 48.1875 68.609375 48.1875 
Q 61.625 48.1875 57.5625 43.546875 
Q 53.515625 38.921875 53.515625 30.90625 
L 53.515625 0 
L 44.484375 0 
L 44.484375 32.71875 
Q 44.484375 40.625 41.703125 44.40625 
Q 38.921875 48.1875 33.109375 48.1875 
Q 26.21875 48.1875 22.15625 43.53125 
Q 18.109375 38.875 18.109375 30.90625 
L 18.109375 0 
L 9.078125 0 
L 9.078125 54.6875 
L 18.109375 54.6875 
L 18.109375 46.1875 
Q 21.1875 51.21875 25.484375 53.609375 
Q 29.78125 56 35.6875 56 
Q 41.65625 56 45.828125 52.96875 
Q 50 49.953125 52 44.1875 
z
" id="DejaVuSans-109"/>
      <path d="M 56.203125 29.59375 
L 56.203125 25.203125 
L 14.890625 25.203125 
Q 15.484375 15.921875 20.484375 11.0625 
Q 25.484375 6.203125 34.421875 6.203125 
Q 39.59375 6.203125 44.453125 7.46875 
Q 49.3125 8.734375 54.109375 11.28125 
L 54.109375 2.78125 
Q 49.265625 0.734375 44.1875 -0.34375 
Q 39.109375 -1.421875 33.890625 -1.421875 
Q 20.796875 -1.421875 13.15625 6.1875 
Q 5.515625 13.8125 5.515625 26.8125 
Q 5.515625 40.234375 12.765625 48.109375 
Q 20.015625 56 32.328125 56 
Q 43.359375 56 49.78125 48.890625 
Q 56.203125 41.796875 56.203125 29.59375 
z
M 47.21875 32.234375 
Q 47.125 39.59375 43.09375 43.984375 
Q 39.0625 48.390625 32.421875 48.390625 
Q 24.90625 48.390625 20.390625 44.140625 
Q 15.875 39.890625 15.1875 32.171875 
z
" id="DejaVuSans-101"/>
     </defs>
     <g style="fill:#262626;" transform="translate(436.521406 490.316562)scale(0.1 -0.1)">
      <use xlink:href="#DejaVuSans-84"/>
      <use x="57.958984" xlink:href="#DejaVuSans-105"/>
      <use x="85.742188" xlink:href="#DejaVuSans-109"/>
      <use x="183.154297" xlink:href="#DejaVuSans-101"/>
     </g>
    </g>
   </g>
   <g id="matplotlib.axis_2">
    <g id="ytick_1">
     <g id="line2d_13">
      <path clip-path="url(#peec2a47818)" d="M 44.31 445.535455 
L 853.2 445.535455 
" style="fill:none;stroke:#ffffff;stroke-linecap:round;stroke-width:0.8;"/>
     </g>
     <g id="line2d_14"/>
     <g id="text_8">
      <!-- 0.0 -->
      <defs>
       <path d="M 10.6875 12.40625 
L 21 12.40625 
L 21 0 
L 10.6875 0 
z
" id="DejaVuSans-46"/>
      </defs>
      <g style="fill:#262626;" transform="translate(24.906875 449.334673)scale(0.1 -0.1)">
       <use xlink:href="#DejaVuSans-48"/>
       <use x="63.623047" xlink:href="#DejaVuSans-46"/>
       <use x="95.410156" xlink:href="#DejaVuSans-48"/>
      </g>
     </g>
    </g>
    <g id="ytick_2">
     <g id="line2d_15">
      <path clip-path="url(#peec2a47818)" d="M 44.31 359.77933 
L 853.2 359.77933 
" style="fill:none;stroke:#ffffff;stroke-linecap:round;stroke-width:0.8;"/>
     </g>
     <g id="line2d_16"/>
     <g id="text_9">
      <!-- 0.2 -->
      <g style="fill:#262626;" transform="translate(24.906875 363.578549)scale(0.1 -0.1)">
       <use xlink:href="#DejaVuSans-48"/>
       <use x="63.623047" xlink:href="#DejaVuSans-46"/>
       <use x="95.410156" xlink:href="#DejaVuSans-50"/>
      </g>
     </g>
    </g>
    <g id="ytick_3">
     <g id="line2d_17">
      <path clip-path="url(#peec2a47818)" d="M 44.31 274.023206 
L 853.2 274.023206 
" style="fill:none;stroke:#ffffff;stroke-linecap:round;stroke-width:0.8;"/>
     </g>
     <g id="line2d_18"/>
     <g id="text_10">
      <!-- 0.4 -->
      <g style="fill:#262626;" transform="translate(24.906875 277.822425)scale(0.1 -0.1)">
       <use xlink:href="#DejaVuSans-48"/>
       <use x="63.623047" xlink:href="#DejaVuSans-46"/>
       <use x="95.410156" xlink:href="#DejaVuSans-52"/>
      </g>
     </g>
    </g>
    <g id="ytick_4">
     <g id="line2d_19">
      <path clip-path="url(#peec2a47818)" d="M 44.31 188.267082 
L 853.2 188.267082 
" style="fill:none;stroke:#ffffff;stroke-linecap:round;stroke-width:0.8;"/>
     </g>
     <g id="line2d_20"/>
     <g id="text_11">
      <!-- 0.6 -->
      <g style="fill:#262626;" transform="translate(24.906875 192.066301)scale(0.1 -0.1)">
       <use xlink:href="#DejaVuSans-48"/>
       <use x="63.623047" xlink:href="#DejaVuSans-46"/>
       <use x="95.410156" xlink:href="#DejaVuSans-54"/>
      </g>
     </g>
    </g>
    <g id="ytick_5">
     <g id="line2d_21">
      <path clip-path="url(#peec2a47818)" d="M 44.31 102.510958 
L 853.2 102.510958 
" style="fill:none;stroke:#ffffff;stroke-linecap:round;stroke-width:0.8;"/>
     </g>
     <g id="line2d_22"/>
     <g id="text_12">
      <!-- 0.8 -->
      <g style="fill:#262626;" transform="translate(24.906875 106.310177)scale(0.1 -0.1)">
       <use xlink:href="#DejaVuSans-48"/>
       <use x="63.623047" xlink:href="#DejaVuSans-46"/>
       <use x="95.410156" xlink:href="#DejaVuSans-56"/>
      </g>
     </g>
    </g>
    <g id="text_13">
     <!-- Fraction of sheared mass -->
     <defs>
      <path d="M 9.8125 72.90625 
L 51.703125 72.90625 
L 51.703125 64.59375 
L 19.671875 64.59375 
L 19.671875 43.109375 
L 48.578125 43.109375 
L 48.578125 34.8125 
L 19.671875 34.8125 
L 19.671875 0 
L 9.8125 0 
z
" id="DejaVuSans-70"/>
      <path d="M 41.109375 46.296875 
Q 39.59375 47.171875 37.8125 47.578125 
Q 36.03125 48 33.890625 48 
Q 26.265625 48 22.1875 43.046875 
Q 18.109375 38.09375 18.109375 28.8125 
L 18.109375 0 
L 9.078125 0 
L 9.078125 54.6875 
L 18.109375 54.6875 
L 18.109375 46.1875 
Q 20.953125 51.171875 25.484375 53.578125 
Q 30.03125 56 36.53125 56 
Q 37.453125 56 38.578125 55.875 
Q 39.703125 55.765625 41.0625 55.515625 
z
" id="DejaVuSans-114"/>
      <path d="M 34.28125 27.484375 
Q 23.390625 27.484375 19.1875 25 
Q 14.984375 22.515625 14.984375 16.5 
Q 14.984375 11.71875 18.140625 8.90625 
Q 21.296875 6.109375 26.703125 6.109375 
Q 34.1875 6.109375 38.703125 11.40625 
Q 43.21875 16.703125 43.21875 25.484375 
L 43.21875 27.484375 
z
M 52.203125 31.203125 
L 52.203125 0 
L 43.21875 0 
L 43.21875 8.296875 
Q 40.140625 3.328125 35.546875 0.953125 
Q 30.953125 -1.421875 24.3125 -1.421875 
Q 15.921875 -1.421875 10.953125 3.296875 
Q 6 8.015625 6 15.921875 
Q 6 25.140625 12.171875 29.828125 
Q 18.359375 34.515625 30.609375 34.515625 
L 43.21875 34.515625 
L 43.21875 35.40625 
Q 43.21875 41.609375 39.140625 45 
Q 35.0625 48.390625 27.6875 48.390625 
Q 23 48.390625 18.546875 47.265625 
Q 14.109375 46.140625 10.015625 43.890625 
L 10.015625 52.203125 
Q 14.9375 54.109375 19.578125 55.046875 
Q 24.21875 56 28.609375 56 
Q 40.484375 56 46.34375 49.84375 
Q 52.203125 43.703125 52.203125 31.203125 
z
" id="DejaVuSans-97"/>
      <path d="M 48.78125 52.59375 
L 48.78125 44.1875 
Q 44.96875 46.296875 41.140625 47.34375 
Q 37.3125 48.390625 33.40625 48.390625 
Q 24.65625 48.390625 19.8125 42.84375 
Q 14.984375 37.3125 14.984375 27.296875 
Q 14.984375 17.28125 19.8125 11.734375 
Q 24.65625 6.203125 33.40625 6.203125 
Q 37.3125 6.203125 41.140625 7.25 
Q 44.96875 8.296875 48.78125 10.40625 
L 48.78125 2.09375 
Q 45.015625 0.34375 40.984375 -0.53125 
Q 36.96875 -1.421875 32.421875 -1.421875 
Q 20.0625 -1.421875 12.78125 6.34375 
Q 5.515625 14.109375 5.515625 27.296875 
Q 5.515625 40.671875 12.859375 48.328125 
Q 20.21875 56 33.015625 56 
Q 37.15625 56 41.109375 55.140625 
Q 45.0625 54.296875 48.78125 52.59375 
z
" id="DejaVuSans-99"/>
      <path d="M 18.3125 70.21875 
L 18.3125 54.6875 
L 36.8125 54.6875 
L 36.8125 47.703125 
L 18.3125 47.703125 
L 18.3125 18.015625 
Q 18.3125 11.328125 20.140625 9.421875 
Q 21.96875 7.515625 27.59375 7.515625 
L 36.8125 7.515625 
L 36.8125 0 
L 27.59375 0 
Q 17.1875 0 13.234375 3.875 
Q 9.28125 7.765625 9.28125 18.015625 
L 9.28125 47.703125 
L 2.6875 47.703125 
L 2.6875 54.6875 
L 9.28125 54.6875 
L 9.28125 70.21875 
z
" id="DejaVuSans-116"/>
      <path d="M 30.609375 48.390625 
Q 23.390625 48.390625 19.1875 42.75 
Q 14.984375 37.109375 14.984375 27.296875 
Q 14.984375 17.484375 19.15625 11.84375 
Q 23.34375 6.203125 30.609375 6.203125 
Q 37.796875 6.203125 41.984375 11.859375 
Q 46.1875 17.53125 46.1875 27.296875 
Q 46.1875 37.015625 41.984375 42.703125 
Q 37.796875 48.390625 30.609375 48.390625 
z
M 30.609375 56 
Q 42.328125 56 49.015625 48.375 
Q 55.71875 40.765625 55.71875 27.296875 
Q 55.71875 13.875 49.015625 6.21875 
Q 42.328125 -1.421875 30.609375 -1.421875 
Q 18.84375 -1.421875 12.171875 6.21875 
Q 5.515625 13.875 5.515625 27.296875 
Q 5.515625 40.765625 12.171875 48.375 
Q 18.84375 56 30.609375 56 
z
" id="DejaVuSans-111"/>
      <path d="M 54.890625 33.015625 
L 54.890625 0 
L 45.90625 0 
L 45.90625 32.71875 
Q 45.90625 40.484375 42.875 44.328125 
Q 39.84375 48.1875 33.796875 48.1875 
Q 26.515625 48.1875 22.3125 43.546875 
Q 18.109375 38.921875 18.109375 30.90625 
L 18.109375 0 
L 9.078125 0 
L 9.078125 54.6875 
L 18.109375 54.6875 
L 18.109375 46.1875 
Q 21.34375 51.125 25.703125 53.5625 
Q 30.078125 56 35.796875 56 
Q 45.21875 56 50.046875 50.171875 
Q 54.890625 44.34375 54.890625 33.015625 
z
" id="DejaVuSans-110"/>
      <path id="DejaVuSans-32"/>
      <path d="M 37.109375 75.984375 
L 37.109375 68.5 
L 28.515625 68.5 
Q 23.6875 68.5 21.796875 66.546875 
Q 19.921875 64.59375 19.921875 59.515625 
L 19.921875 54.6875 
L 34.71875 54.6875 
L 34.71875 47.703125 
L 19.921875 47.703125 
L 19.921875 0 
L 10.890625 0 
L 10.890625 47.703125 
L 2.296875 47.703125 
L 2.296875 54.6875 
L 10.890625 54.6875 
L 10.890625 58.5 
Q 10.890625 67.625 15.140625 71.796875 
Q 19.390625 75.984375 28.609375 75.984375 
z
" id="DejaVuSans-102"/>
      <path d="M 44.28125 53.078125 
L 44.28125 44.578125 
Q 40.484375 46.53125 36.375 47.5 
Q 32.28125 48.484375 27.875 48.484375 
Q 21.1875 48.484375 17.84375 46.4375 
Q 14.5 44.390625 14.5 40.28125 
Q 14.5 37.15625 16.890625 35.375 
Q 19.28125 33.59375 26.515625 31.984375 
L 29.59375 31.296875 
Q 39.15625 29.25 43.1875 25.515625 
Q 47.21875 21.78125 47.21875 15.09375 
Q 47.21875 7.46875 41.1875 3.015625 
Q 35.15625 -1.421875 24.609375 -1.421875 
Q 20.21875 -1.421875 15.453125 -0.5625 
Q 10.6875 0.296875 5.421875 2 
L 5.421875 11.28125 
Q 10.40625 8.6875 15.234375 7.390625 
Q 20.0625 6.109375 24.8125 6.109375 
Q 31.15625 6.109375 34.5625 8.28125 
Q 37.984375 10.453125 37.984375 14.40625 
Q 37.984375 18.0625 35.515625 20.015625 
Q 33.0625 21.96875 24.703125 23.78125 
L 21.578125 24.515625 
Q 13.234375 26.265625 9.515625 29.90625 
Q 5.8125 33.546875 5.8125 39.890625 
Q 5.8125 47.609375 11.28125 51.796875 
Q 16.75 56 26.8125 56 
Q 31.78125 56 36.171875 55.265625 
Q 40.578125 54.546875 44.28125 53.078125 
z
" id="DejaVuSans-115"/>
      <path d="M 54.890625 33.015625 
L 54.890625 0 
L 45.90625 0 
L 45.90625 32.71875 
Q 45.90625 40.484375 42.875 44.328125 
Q 39.84375 48.1875 33.796875 48.1875 
Q 26.515625 48.1875 22.3125 43.546875 
Q 18.109375 38.921875 18.109375 30.90625 
L 18.109375 0 
L 9.078125 0 
L 9.078125 75.984375 
L 18.109375 75.984375 
L 18.109375 46.1875 
Q 21.34375 51.125 25.703125 53.5625 
Q 30.078125 56 35.796875 56 
Q 45.21875 56 50.046875 50.171875 
Q 54.890625 44.34375 54.890625 33.015625 
z
" id="DejaVuSans-104"/>
      <path d="M 45.40625 46.390625 
L 45.40625 75.984375 
L 54.390625 75.984375 
L 54.390625 0 
L 45.40625 0 
L 45.40625 8.203125 
Q 42.578125 3.328125 38.25 0.953125 
Q 33.9375 -1.421875 27.875 -1.421875 
Q 17.96875 -1.421875 11.734375 6.484375 
Q 5.515625 14.40625 5.515625 27.296875 
Q 5.515625 40.1875 11.734375 48.09375 
Q 17.96875 56 27.875 56 
Q 33.9375 56 38.25 53.625 
Q 42.578125 51.265625 45.40625 46.390625 
z
M 14.796875 27.296875 
Q 14.796875 17.390625 18.875 11.75 
Q 22.953125 6.109375 30.078125 6.109375 
Q 37.203125 6.109375 41.296875 11.75 
Q 45.40625 17.390625 45.40625 27.296875 
Q 45.40625 37.203125 41.296875 42.84375 
Q 37.203125 48.484375 30.078125 48.484375 
Q 22.953125 48.484375 18.875 42.84375 
Q 14.796875 37.203125 14.796875 27.296875 
z
" id="DejaVuSans-100"/>
     </defs>
     <g style="fill:#262626;" transform="translate(18.827187 308.287656)rotate(-90)scale(0.1 -0.1)">
      <use xlink:href="#DejaVuSans-70"/>
      <use x="50.269531" xlink:href="#DejaVuSans-114"/>
      <use x="91.382812" xlink:href="#DejaVuSans-97"/>
      <use x="152.662109" xlink:href="#DejaVuSans-99"/>
      <use x="207.642578" xlink:href="#DejaVuSans-116"/>
      <use x="246.851562" xlink:href="#DejaVuSans-105"/>
      <use x="274.634766" xlink:href="#DejaVuSans-111"/>
      <use x="335.816406" xlink:href="#DejaVuSans-110"/>
      <use x="399.195312" xlink:href="#DejaVuSans-32"/>
      <use x="430.982422" xlink:href="#DejaVuSans-111"/>
      <use x="492.164062" xlink:href="#DejaVuSans-102"/>
      <use x="527.369141" xlink:href="#DejaVuSans-32"/>
      <use x="559.15625" xlink:href="#DejaVuSans-115"/>
      <use x="611.255859" xlink:href="#DejaVuSans-104"/>
      <use x="674.634766" xlink:href="#DejaVuSans-101"/>
      <use x="736.158203" xlink:href="#DejaVuSans-97"/>
      <use x="797.4375" xlink:href="#DejaVuSans-114"/>
      <use x="836.300781" xlink:href="#DejaVuSans-101"/>
      <use x="897.824219" xlink:href="#DejaVuSans-100"/>
      <use x="961.300781" xlink:href="#DejaVuSans-32"/>
      <use x="993.087891" xlink:href="#DejaVuSans-109"/>
      <use x="1090.5" xlink:href="#DejaVuSans-97"/>
      <use x="1151.779297" xlink:href="#DejaVuSans-115"/>
      <use x="1203.878906" xlink:href="#DejaVuSans-115"/>
     </g>
    </g>
   </g>
   <g id="line2d_23">
    <path clip-path="url(#peec2a47818)" d="M 81.077727 445.535455 
L 88.505551 445.535455 
L 95.933375 445.535455 
L 103.361198 445.535455 
L 110.789022 445.535455 
L 118.216846 445.535455 
L 125.644669 445.535455 
L 133.072493 445.535455 
L 140.500317 445.535455 
L 147.92814 445.535455 
L 155.355964 445.535455 
L 162.783788 445.535455 
L 170.211612 445.535455 
L 177.639435 445.535455 
L 185.067259 445.535455 
L 192.495083 445.535455 
L 199.922906 445.535455 
L 207.35073 445.535455 
L 214.778554 445.535455 
L 222.206377 445.535455 
L 229.634201 445.535455 
L 237.062025 445.535455 
L 244.489848 445.535455 
L 251.917672 445.535455 
L 259.345496 445.535455 
L 266.77332 445.535455 
L 274.201143 445.531167 
L 281.628967 445.531167 
L 289.056791 445.531167 
L 296.484614 445.531167 
L 303.912438 445.522591 
L 311.340262 445.458274 
L 318.768085 445.338215 
L 326.195909 445.123825 
L 333.623733 444.857981 
L 341.051556 444.605001 
L 348.47938 444.317718 
L 355.907204 443.803181 
L 363.335028 443.168586 
L 370.762851 442.366766 
L 378.190675 441.410585 
L 385.618499 440.248589 
L 393.046322 438.679252 
L 400.474146 436.989857 
L 407.90197 435.313325 
L 415.329793 433.396675 
L 422.757617 431.407133 
L 430.185441 428.692952 
L 437.613264 425.717214 
L 445.041088 423.080213 
L 452.468912 419.941539 
L 459.896736 416.361221 
L 467.324559 412.66942 
L 474.752383 408.626019 
L 482.180207 404.998535 
L 489.60803 401.319597 
L 497.035854 397.919367 
L 504.463678 393.961722 
L 511.891501 390.372828 
L 519.319325 386.929719 
L 526.747149 383.675274 
L 534.174972 380.433693 
L 541.602796 377.496546 
L 549.03062 373.954818 
L 556.458444 370.134382 
L 563.886267 366.554064 
L 571.314091 363.149546 
L 578.741915 359.483472 
L 586.169738 355.971759 
L 593.597562 352.871675 
L 601.025386 350.093176 
L 608.453209 346.658643 
L 615.881033 343.018296 
L 623.308857 339.896773 
L 630.73668 336.616601 
L 638.164504 332.577488 
L 645.592328 329.70037 
L 653.020152 326.951886 
L 660.447975 324.036178 
L 667.875799 321.116182 
L 675.303623 317.608756 
L 682.731446 315.168995 
L 690.15927 313.055106 
L 697.587094 310.816871 
L 705.014917 308.098402 
L 712.442741 305.881606 
L 719.870565 303.711977 
L 727.298388 301.366547 
L 734.726212 299.312687 
L 742.154036 297.336009 
L 749.58186 295.462237 
L 757.009683 293.554164 
L 764.437507 291.916222 
L 771.865331 290.205387 
L 779.293154 288.623187 
L 786.720978 287.255376 
L 794.148802 285.823249 
L 801.576625 284.476878 
L 809.004449 282.96757 
L 816.432273 281.67694 
" style="fill:none;stroke:#1f77b4;stroke-linecap:round;stroke-width:1.5;"/>
   </g>
   <g id="line2d_24">
    <path clip-path="url(#peec2a47818)" d="M 81.077727 445.535455 
L 88.505551 445.535455 
L 95.933375 445.535455 
L 103.361198 445.535455 
L 110.789022 445.535455 
L 118.216846 445.535455 
L 125.644669 445.535455 
L 133.072493 445.535455 
L 140.500317 445.535455 
L 147.92814 445.535455 
L 155.355964 445.535455 
L 162.783788 445.535455 
L 170.211612 445.535455 
L 177.639435 445.535455 
L 185.067259 445.535455 
L 192.495083 445.535455 
L 199.922906 445.535455 
L 207.35073 445.535455 
L 214.778554 445.535455 
L 222.206377 445.535455 
L 229.634201 445.535455 
L 237.062025 445.535455 
L 244.489848 445.535455 
L 251.917672 445.535455 
L 259.345496 445.535455 
L 266.77332 445.535455 
L 274.201143 445.535455 
L 281.628967 445.535455 
L 289.056791 445.526879 
L 296.484614 445.50544 
L 303.912438 445.462562 
L 311.340262 445.32964 
L 318.768085 445.119537 
L 326.195909 444.733635 
L 333.623733 444.197659 
L 341.051556 443.734576 
L 348.47938 443.258629 
L 355.907204 442.636898 
L 363.335028 441.90797 
L 370.762851 440.99038 
L 378.190675 439.811233 
L 385.618499 438.391969 
L 393.046322 436.582515 
L 400.474146 434.725895 
L 407.90197 432.496236 
L 415.329793 430.129367 
L 422.757617 427.428049 
L 430.185441 424.808199 
L 437.613264 421.922506 
L 445.041088 419.251203 
L 452.468912 415.820958 
L 459.896736 412.056264 
L 467.324559 408.999058 
L 474.752383 405.886111 
L 482.180207 402.610227 
L 489.60803 399.149967 
L 497.035854 395.513907 
L 504.463678 392.040784 
L 511.891501 388.782052 
L 519.319325 385.626226 
L 526.747149 382.470401 
L 534.174972 379.258834 
L 541.602796 376.210204 
L 549.03062 373.101544 
L 556.458444 370.31447 
L 563.886267 367.261552 
L 571.314091 364.517356 
L 578.741915 361.623087 
L 586.169738 358.93892 
L 593.597562 355.281422 
L 601.025386 350.526245 
L 608.453209 347.687717 
L 615.881033 344.540467 
L 623.308857 341.809135 
L 630.73668 339.202148 
L 638.164504 336.976777 
L 645.592328 334.661362 
L 653.020152 332.61179 
L 660.447975 330.317814 
L 667.875799 328.182487 
L 675.303623 326.154354 
L 682.731446 324.100495 
L 690.15927 322.179558 
L 697.587094 320.125699 
L 705.014917 318.290518 
L 712.442741 316.699742 
L 719.870565 315.00177 
L 727.298388 313.278072 
L 734.726212 311.794491 
L 742.154036 310.126535 
L 749.58186 308.441427 
L 757.009683 306.889241 
L 764.437507 305.654353 
L 771.865331 303.639084 
L 779.293154 302.1212 
L 786.720978 300.830571 
L 794.148802 299.535653 
L 801.576625 298.090663 
L 809.004449 296.834335 
L 816.432273 295.813838 
" style="fill:none;stroke:#ff7f0e;stroke-linecap:round;stroke-width:1.5;"/>
   </g>
   <g id="line2d_25">
    <path clip-path="url(#peec2a47818)" d="M 81.077727 445.535455 
L 88.505551 445.535455 
L 95.933375 445.535455 
L 103.361198 445.535455 
L 110.789022 445.535455 
L 118.216846 445.535455 
L 125.644669 445.535455 
L 133.072493 445.535455 
L 140.500317 445.535455 
L 147.92814 445.535455 
L 155.355964 445.535455 
L 162.783788 445.535455 
L 170.211612 445.535455 
L 177.639435 445.535455 
L 185.067259 445.535455 
L 192.495083 445.535455 
L 199.922906 445.535455 
L 207.35073 445.535455 
L 214.778554 445.535455 
L 222.206377 445.535455 
L 229.634201 445.535455 
L 237.062025 445.535455 
L 244.489848 445.535455 
L 251.917672 445.535455 
L 259.345496 445.535455 
L 266.77332 445.535455 
L 274.201143 445.535455 
L 281.628967 445.535455 
L 289.056791 445.518303 
L 296.484614 445.453986 
L 303.912438 445.29105 
L 311.340262 445.008054 
L 318.768085 444.540684 
L 326.195909 443.708849 
L 333.623733 442.692639 
L 341.051556 441.47919 
L 348.47938 439.982746 
L 355.907204 438.314789 
L 363.335028 435.883603 
L 370.762851 433.452417 
L 378.190675 430.90546 
L 385.618499 428.38423 
L 393.046322 424.84679 
L 400.474146 421.24932 
L 407.90197 416.888621 
L 415.329793 413.05961 
L 422.757617 409.470717 
L 430.185441 405.53451 
L 437.613264 400.90368 
L 445.041088 394.291883 
L 452.468912 388.717735 
L 459.896736 382.671928 
L 467.324559 377.48797 
L 474.752383 371.446451 
L 482.180207 359.886526 
L 489.60803 347.421873 
L 497.035854 342.400852 
L 504.463678 338.799095 
L 511.891501 335.767616 
L 519.319325 333.186356 
L 526.747149 330.334965 
L 534.174972 328.015262 
L 541.602796 325.502608 
L 549.03062 322.458265 
L 556.458444 319.679767 
L 563.886267 317.214278 
L 571.314091 315.597775 
L 578.741915 313.844063 
L 586.169738 312.416223 
L 593.597562 310.894052 
L 601.025386 309.500515 
L 608.453209 308.244188 
L 615.881033 306.842075 
L 623.308857 305.538582 
L 630.73668 304.166484 
L 638.164504 302.914445 
L 645.592328 301.512332 
L 653.020152 300.200263 
L 660.447975 298.901058 
L 667.875799 297.558975 
L 675.303623 296.504174 
L 682.731446 295.393633 
L 690.15927 294.214486 
L 697.587094 293.039627 
L 705.014917 291.907646 
L 712.442741 290.822831 
L 719.870565 289.626533 
L 727.298388 288.464538 
L 734.726212 287.572674 
L 742.154036 286.629357 
L 749.58186 285.497376 
L 757.009683 284.446863 
L 764.437507 283.447804 
L 771.865331 282.410155 
L 779.293154 281.535443 
L 786.720978 280.566399 
L 794.148802 279.837472 
L 801.576625 278.94132 
L 809.004449 278.122349 
L 816.432273 277.35912 
" style="fill:none;stroke:#2ca02c;stroke-linecap:round;stroke-width:1.5;"/>
   </g>
   <g id="line2d_26">
    <path clip-path="url(#peec2a47818)" d="M 81.077727 445.535455 
L 88.505551 445.535455 
L 95.933375 445.535455 
L 103.361198 445.535455 
L 110.789022 445.535455 
L 118.216846 445.535455 
L 125.644669 445.535455 
L 133.072493 445.535455 
L 140.500317 445.535455 
L 147.92814 445.535455 
L 155.355964 445.535455 
L 162.783788 445.535455 
L 170.211612 445.535455 
L 177.639435 445.535455 
L 185.067259 445.535455 
L 192.495083 445.535455 
L 199.922906 445.535455 
L 207.35073 445.535455 
L 214.778554 445.535455 
L 222.206377 445.535455 
L 229.634201 445.535455 
L 237.062025 445.531167 
L 244.489848 445.531167 
L 251.917672 445.531167 
L 259.345496 445.531167 
L 266.77332 445.531167 
L 274.201143 445.531167 
L 281.628967 445.531167 
L 289.056791 445.471137 
L 296.484614 445.226732 
L 303.912438 444.617864 
L 311.340262 443.455869 
L 318.768085 441.715019 
L 326.195909 439.48536 
L 333.623733 437.165657 
L 341.051556 434.331417 
L 348.47938 431.046957 
L 355.907204 427.037859 
L 363.335028 421.656662 
L 370.762851 407.742731 
L 378.190675 394.43338 
L 385.618499 387.14411 
L 393.046322 381.698596 
L 400.474146 375.061072 
L 407.90197 368.800875 
L 415.329793 363.226727 
L 422.757617 356.310495 
L 430.185441 349.900225 
L 437.613264 343.961613 
L 445.041088 336.976777 
L 452.468912 330.858078 
L 459.896736 324.263432 
L 467.324559 319.461089 
L 474.752383 315.031785 
L 482.180207 310.293759 
L 489.60803 305.68008 
L 497.035854 301.911098 
L 504.463678 298.866756 
L 511.891501 295.981062 
L 519.319325 292.743768 
L 526.747149 289.806621 
L 534.174972 286.719401 
L 541.602796 282.688863 
L 549.03062 280.776501 
L 556.458444 278.748369 
L 563.886267 276.574451 
L 571.314091 274.520592 
L 578.741915 272.31666 
L 586.169738 270.348556 
L 593.597562 268.706327 
L 601.025386 267.128414 
L 608.453209 265.271794 
L 615.881033 263.560959 
L 623.308857 261.631446 
L 630.73668 258.638558 
L 638.164504 256.237386 
L 645.592328 253.060122 
L 653.020152 251.143472 
L 660.447975 249.496955 
L 667.875799 247.271583 
L 675.303623 245.573612 
L 682.731446 244.030002 
L 690.15927 242.563572 
L 697.587094 241.268655 
L 705.014917 239.986601 
L 712.442741 238.528747 
L 719.870565 237.178088 
L 727.298388 235.878882 
L 734.726212 234.635419 
L 742.154036 233.434833 
L 749.58186 232.195657 
L 757.009683 230.883588 
L 764.437507 229.541505 
L 771.865331 228.469553 
L 779.293154 227.414753 
L 786.720978 226.162714 
L 794.148802 225.202245 
L 801.576625 224.121718 
L 809.004449 223.324186 
L 816.432273 222.235083 
" style="fill:none;stroke:#d62728;stroke-linecap:round;stroke-width:1.5;"/>
   </g>
   <g id="line2d_27">
    <path clip-path="url(#peec2a47818)" d="M 81.077727 445.535455 
L 88.505551 445.535455 
L 95.933375 445.535455 
L 103.361198 445.535455 
L 110.789022 445.535455 
L 118.216846 445.535455 
L 125.644669 445.535455 
L 133.072493 445.535455 
L 140.500317 445.535455 
L 147.92814 445.535455 
L 155.355964 445.535455 
L 162.783788 445.535455 
L 170.211612 445.535455 
L 177.639435 445.535455 
L 185.067259 445.535455 
L 192.495083 445.535455 
L 199.922906 445.535455 
L 207.35073 445.535455 
L 214.778554 445.535455 
L 222.206377 445.535455 
L 229.634201 445.535455 
L 237.062025 445.535455 
L 244.489848 445.535455 
L 251.917672 445.535455 
L 259.345496 445.535455 
L 266.77332 445.535455 
L 274.201143 445.522591 
L 281.628967 445.453986 
L 289.056791 445.085235 
L 296.484614 444.373459 
L 303.912438 442.542566 
L 311.340262 438.812174 
L 318.768085 433.996968 
L 326.195909 427.839678 
L 333.623733 415.85526 
L 341.051556 396.946035 
L 348.47938 388.704871 
L 355.907204 382.39322 
L 363.335028 375.035345 
L 370.762851 367.836118 
L 378.190675 361.310077 
L 385.618499 353.081777 
L 393.046322 345.964019 
L 400.474146 338.37889 
L 407.90197 331.406917 
L 415.329793 325.022373 
L 422.757617 315.567761 
L 430.185441 307.463807 
L 437.613264 299.226931 
L 445.041088 292.357866 
L 452.468912 285.41162 
L 459.896736 280.038998 
L 467.324559 274.42626 
L 474.752383 267.754434 
L 482.180207 256.022996 
L 489.60803 231.260915 
L 497.035854 221.4204 
L 504.463678 214.830042 
L 511.891501 210.752338 
L 519.319325 204.616487 
L 526.747149 201.091911 
L 534.174972 198.201929 
L 541.602796 195.847924 
L 549.03062 193.498206 
L 556.458444 191.157064 
L 563.886267 188.125585 
L 571.314091 184.232257 
L 578.741915 178.379401 
L 586.169738 169.070574 
L 593.597562 152.176617 
L 601.025386 143.699625 
L 608.453209 139.326062 
L 615.881033 137.246476 
L 623.308857 135.848651 
L 630.73668 134.81529 
L 638.164504 133.713324 
L 645.592328 132.688538 
L 653.020152 131.908158 
L 660.447975 131.20067 
L 667.875799 129.927191 
L 675.303623 128.297825 
L 682.731446 127.161556 
L 690.15927 126.269692 
L 697.587094 125.253482 
L 705.014917 124.477389 
L 712.442741 122.757979 
L 719.870565 121.527379 
L 727.298388 120.52832 
L 734.726212 115.31006 
L 742.154036 114.353879 
L 749.58186 113.663542 
L 757.009683 113.200459 
L 764.437507 112.775966 
L 771.865331 112.424366 
L 779.293154 112.115644 
L 786.720978 111.785483 
L 794.148802 111.356702 
L 801.576625 110.957936 
L 809.004449 110.644927 
L 816.432273 110.374795 
" style="fill:none;stroke:#9467bd;stroke-linecap:round;stroke-width:1.5;"/>
   </g>
   <g id="line2d_28">
    <path clip-path="url(#peec2a47818)" d="M 81.077727 445.535455 
L 88.505551 445.535455 
L 95.933375 445.535455 
L 103.361198 445.535455 
L 110.789022 445.535455 
L 118.216846 445.535455 
L 125.644669 445.535455 
L 133.072493 445.535455 
L 140.500317 445.535455 
L 147.92814 445.535455 
L 155.355964 445.535455 
L 162.783788 445.535455 
L 170.211612 445.535455 
L 177.639435 445.535455 
L 185.067259 445.535455 
L 192.495083 445.535455 
L 199.922906 445.535455 
L 207.35073 445.535455 
L 214.778554 445.535455 
L 222.206377 445.535455 
L 229.634201 445.535455 
L 237.062025 445.535455 
L 244.489848 445.535455 
L 251.917672 445.535455 
L 259.345496 445.535455 
L 266.77332 445.243884 
L 274.201143 441.612112 
L 281.628967 434.065573 
L 289.056791 422.437043 
L 296.484614 409.749424 
L 303.912438 390.93453 
L 311.340262 374.203511 
L 318.768085 360.036599 
L 326.195909 351.606772 
L 333.623733 344.077384 
L 341.051556 335.265942 
L 348.47938 320.155713 
L 355.907204 304.166484 
L 363.335028 294.398861 
L 370.762851 285.244395 
L 378.190675 276.437241 
L 385.618499 267.308502 
L 393.046322 259.401787 
L 400.474146 249.809965 
L 407.90197 240.381079 
L 415.329793 224.987855 
L 422.757617 187.829726 
L 430.185441 166.159154 
L 437.613264 152.583959 
L 445.041088 142.597658 
L 452.468912 136.050178 
L 459.896736 130.634679 
L 467.324559 125.990985 
L 474.752383 121.518803 
L 482.180207 116.759338 
L 489.60803 112.763103 
L 497.035854 107.917882 
L 504.463678 103.480002 
L 511.891501 98.30462 
L 519.319325 95.43179 
L 526.747149 93.094936 
L 534.174972 90.612296 
L 541.602796 88.759964 
L 549.03062 86.345929 
L 556.458444 83.884728 
L 563.886267 81.993806 
L 571.314091 79.995688 
L 578.741915 77.358687 
L 586.169738 74.554462 
L 593.597562 72.543481 
L 601.025386 70.74689 
L 608.453209 68.877406 
L 615.881033 67.449567 
L 623.308857 65.708718 
L 630.73668 64.456678 
L 638.164504 63.547663 
L 645.592328 62.608634 
L 653.020152 61.673892 
L 660.447975 60.91495 
L 667.875799 60.040238 
L 675.303623 59.242706 
L 682.731446 58.320827 
L 690.15927 57.386086 
L 697.587094 56.63572 
L 705.014917 55.79531 
L 712.442741 55.083534 
L 719.870565 54.393197 
L 727.298388 53.784329 
L 734.726212 53.141158 
L 742.154036 52.15925 
L 749.58186 51.516079 
L 757.009683 50.817167 
L 764.437507 50.186859 
L 771.865331 48.947683 
L 779.293154 48.403132 
L 786.720978 47.712795 
L 794.148802 47.082487 
L 801.576625 46.49077 
L 809.004449 45.954794 
L 816.432273 45.444545 
" style="fill:none;stroke:#8c564b;stroke-linecap:round;stroke-width:1.5;"/>
   </g>
   <g id="patch_3">
    <path d="M 44.31 465.54 
L 44.31 25.44 
" style="fill:none;"/>
   </g>
   <g id="patch_4">
    <path d="M 853.2 465.54 
L 853.2 25.44 
" style="fill:none;"/>
   </g>
   <g id="patch_5">
    <path d="M 44.31 465.54 
L 853.2 465.54 
" style="fill:none;"/>
   </g>
   <g id="patch_6">
    <path d="M 44.31 25.44 
L 853.2 25.44 
" style="fill:none;"/>
   </g>
   <g id="text_14">
    <!-- Sheared mass (uniform) -->
    <defs>
     <path d="M 53.515625 70.515625 
L 53.515625 60.890625 
Q 47.90625 63.578125 42.921875 64.890625 
Q 37.9375 66.21875 33.296875 66.21875 
Q 25.25 66.21875 20.875 63.09375 
Q 16.5 59.96875 16.5 54.203125 
Q 16.5 49.359375 19.40625 46.890625 
Q 22.3125 44.4375 30.421875 42.921875 
L 36.375 41.703125 
Q 47.40625 39.59375 52.65625 34.296875 
Q 57.90625 29 57.90625 20.125 
Q 57.90625 9.515625 50.796875 4.046875 
Q 43.703125 -1.421875 29.984375 -1.421875 
Q 24.8125 -1.421875 18.96875 -0.25 
Q 13.140625 0.921875 6.890625 3.21875 
L 6.890625 13.375 
Q 12.890625 10.015625 18.65625 8.296875 
Q 24.421875 6.59375 29.984375 6.59375 
Q 38.421875 6.59375 43.015625 9.90625 
Q 47.609375 13.234375 47.609375 19.390625 
Q 47.609375 24.75 44.3125 27.78125 
Q 41.015625 30.8125 33.5 32.328125 
L 27.484375 33.5 
Q 16.453125 35.6875 11.515625 40.375 
Q 6.59375 45.0625 6.59375 53.421875 
Q 6.59375 63.09375 13.40625 68.65625 
Q 20.21875 74.21875 32.171875 74.21875 
Q 37.3125 74.21875 42.625 73.28125 
Q 47.953125 72.359375 53.515625 70.515625 
z
" id="DejaVuSans-83"/>
     <path d="M 31 75.875 
Q 24.46875 64.65625 21.28125 53.65625 
Q 18.109375 42.671875 18.109375 31.390625 
Q 18.109375 20.125 21.3125 9.0625 
Q 24.515625 -2 31 -13.1875 
L 23.1875 -13.1875 
Q 15.875 -1.703125 12.234375 9.375 
Q 8.59375 20.453125 8.59375 31.390625 
Q 8.59375 42.28125 12.203125 53.3125 
Q 15.828125 64.359375 23.1875 75.875 
z
" id="DejaVuSans-40"/>
     <path d="M 8.5 21.578125 
L 8.5 54.6875 
L 17.484375 54.6875 
L 17.484375 21.921875 
Q 17.484375 14.15625 20.5 10.265625 
Q 23.53125 6.390625 29.59375 6.390625 
Q 36.859375 6.390625 41.078125 11.03125 
Q 45.3125 15.671875 45.3125 23.6875 
L 45.3125 54.6875 
L 54.296875 54.6875 
L 54.296875 0 
L 45.3125 0 
L 45.3125 8.40625 
Q 42.046875 3.421875 37.71875 1 
Q 33.40625 -1.421875 27.6875 -1.421875 
Q 18.265625 -1.421875 13.375 4.4375 
Q 8.5 10.296875 8.5 21.578125 
z
M 31.109375 56 
z
" id="DejaVuSans-117"/>
     <path d="M 8.015625 75.875 
L 15.828125 75.875 
Q 23.140625 64.359375 26.78125 53.3125 
Q 30.421875 42.28125 30.421875 31.390625 
Q 30.421875 20.453125 26.78125 9.375 
Q 23.140625 -1.703125 15.828125 -13.1875 
L 8.015625 -13.1875 
Q 14.5 -2 17.703125 9.0625 
Q 20.90625 20.125 20.90625 31.390625 
Q 20.90625 42.671875 17.703125 53.65625 
Q 14.5 64.65625 8.015625 75.875 
z
" id="DejaVuSans-41"/>
    </defs>
    <g style="fill:#262626;" transform="translate(376.412813 19.44)scale(0.12 -0.12)">
     <use xlink:href="#DejaVuSans-83"/>
     <use x="63.476562" xlink:href="#DejaVuSans-104"/>
     <use x="126.855469" xlink:href="#DejaVuSans-101"/>
     <use x="188.378906" xlink:href="#DejaVuSans-97"/>
     <use x="249.658203" xlink:href="#DejaVuSans-114"/>
     <use x="288.521484" xlink:href="#DejaVuSans-101"/>
     <use x="350.044922" xlink:href="#DejaVuSans-100"/>
     <use x="413.521484" xlink:href="#DejaVuSans-32"/>
     <use x="445.308594" xlink:href="#DejaVuSans-109"/>
     <use x="542.720703" xlink:href="#DejaVuSans-97"/>
     <use x="604" xlink:href="#DejaVuSans-115"/>
     <use x="656.099609" xlink:href="#DejaVuSans-115"/>
     <use x="708.199219" xlink:href="#DejaVuSans-32"/>
     <use x="739.986328" xlink:href="#DejaVuSans-40"/>
     <use x="779" xlink:href="#DejaVuSans-117"/>
     <use x="842.378906" xlink:href="#DejaVuSans-110"/>
     <use x="905.757812" xlink:href="#DejaVuSans-105"/>
     <use x="933.541016" xlink:href="#DejaVuSans-102"/>
     <use x="968.746094" xlink:href="#DejaVuSans-111"/>
     <use x="1029.927734" xlink:href="#DejaVuSans-114"/>
     <use x="1069.291016" xlink:href="#DejaVuSans-109"/>
     <use x="1166.703125" xlink:href="#DejaVuSans-41"/>
    </g>
   </g>
   <g id="legend_1">
    <g id="line2d_29">
     <path d="M 53.31 38.538437 
L 73.31 38.538437 
" style="fill:none;stroke:#1f77b4;stroke-linecap:round;stroke-width:1.5;"/>
    </g>
    <g id="line2d_30"/>
    <g id="text_15">
     <!-- 0.0 -->
     <g style="fill:#262626;" transform="translate(81.31 42.038437)scale(0.1 -0.1)">
      <use xlink:href="#DejaVuSans-48"/>
      <use x="63.623047" xlink:href="#DejaVuSans-46"/>
      <use x="95.410156" xlink:href="#DejaVuSans-48"/>
     </g>
    </g>
    <g id="line2d_31">
     <path d="M 53.31 53.216563 
L 73.31 53.216563 
" style="fill:none;stroke:#ff7f0e;stroke-linecap:round;stroke-width:1.5;"/>
    </g>
    <g id="line2d_32"/>
    <g id="text_16">
     <!-- 0.1 -->
     <g style="fill:#262626;" transform="translate(81.31 56.716563)scale(0.1 -0.1)">
      <use xlink:href="#DejaVuSans-48"/>
      <use x="63.623047" xlink:href="#DejaVuSans-46"/>
      <use x="95.410156" xlink:href="#DejaVuSans-49"/>
     </g>
    </g>
    <g id="line2d_33">
     <path d="M 53.31 67.894687 
L 73.31 67.894687 
" style="fill:none;stroke:#2ca02c;stroke-linecap:round;stroke-width:1.5;"/>
    </g>
    <g id="line2d_34"/>
    <g id="text_17">
     <!-- 0.2 -->
     <g style="fill:#262626;" transform="translate(81.31 71.394687)scale(0.1 -0.1)">
      <use xlink:href="#DejaVuSans-48"/>
      <use x="63.623047" xlink:href="#DejaVuSans-46"/>
      <use x="95.410156" xlink:href="#DejaVuSans-50"/>
     </g>
    </g>
    <g id="line2d_35">
     <path d="M 53.31 82.572812 
L 73.31 82.572812 
" style="fill:none;stroke:#d62728;stroke-linecap:round;stroke-width:1.5;"/>
    </g>
    <g id="line2d_36"/>
    <g id="text_18">
     <!-- 0.3 -->
     <defs>
      <path d="M 40.578125 39.3125 
Q 47.65625 37.796875 51.625 33 
Q 55.609375 28.21875 55.609375 21.1875 
Q 55.609375 10.40625 48.1875 4.484375 
Q 40.765625 -1.421875 27.09375 -1.421875 
Q 22.515625 -1.421875 17.65625 -0.515625 
Q 12.796875 0.390625 7.625 2.203125 
L 7.625 11.71875 
Q 11.71875 9.328125 16.59375 8.109375 
Q 21.484375 6.890625 26.8125 6.890625 
Q 36.078125 6.890625 40.9375 10.546875 
Q 45.796875 14.203125 45.796875 21.1875 
Q 45.796875 27.640625 41.28125 31.265625 
Q 36.765625 34.90625 28.71875 34.90625 
L 20.21875 34.90625 
L 20.21875 43.015625 
L 29.109375 43.015625 
Q 36.375 43.015625 40.234375 45.921875 
Q 44.09375 48.828125 44.09375 54.296875 
Q 44.09375 59.90625 40.109375 62.90625 
Q 36.140625 65.921875 28.71875 65.921875 
Q 24.65625 65.921875 20.015625 65.03125 
Q 15.375 64.15625 9.8125 62.3125 
L 9.8125 71.09375 
Q 15.4375 72.65625 20.34375 73.4375 
Q 25.25 74.21875 29.59375 74.21875 
Q 40.828125 74.21875 47.359375 69.109375 
Q 53.90625 64.015625 53.90625 55.328125 
Q 53.90625 49.265625 50.4375 45.09375 
Q 46.96875 40.921875 40.578125 39.3125 
z
" id="DejaVuSans-51"/>
     </defs>
     <g style="fill:#262626;" transform="translate(81.31 86.072812)scale(0.1 -0.1)">
      <use xlink:href="#DejaVuSans-48"/>
      <use x="63.623047" xlink:href="#DejaVuSans-46"/>
      <use x="95.410156" xlink:href="#DejaVuSans-51"/>
     </g>
    </g>
    <g id="line2d_37">
     <path d="M 53.31 97.250937 
L 73.31 97.250937 
" style="fill:none;stroke:#9467bd;stroke-linecap:round;stroke-width:1.5;"/>
    </g>
    <g id="line2d_38"/>
    <g id="text_19">
     <!-- 0.4 -->
     <g style="fill:#262626;" transform="translate(81.31 100.750937)scale(0.1 -0.1)">
      <use xlink:href="#DejaVuSans-48"/>
      <use x="63.623047" xlink:href="#DejaVuSans-46"/>
      <use x="95.410156" xlink:href="#DejaVuSans-52"/>
     </g>
    </g>
    <g id="line2d_39">
     <path d="M 53.31 111.929062 
L 73.31 111.929062 
" style="fill:none;stroke:#8c564b;stroke-linecap:round;stroke-width:1.5;"/>
    </g>
    <g id="line2d_40"/>
    <g id="text_20">
     <!-- 0.7 -->
     <defs>
      <path d="M 8.203125 72.90625 
L 55.078125 72.90625 
L 55.078125 68.703125 
L 28.609375 0 
L 18.3125 0 
L 43.21875 64.59375 
L 8.203125 64.59375 
z
" id="DejaVuSans-55"/>
     </defs>
     <g style="fill:#262626;" transform="translate(81.31 115.429062)scale(0.1 -0.1)">
      <use xlink:href="#DejaVuSans-48"/>
      <use x="63.623047" xlink:href="#DejaVuSans-46"/>
      <use x="95.410156" xlink:href="#DejaVuSans-55"/>
     </g>
    </g>
   </g>
  </g>
 </g>
 <defs>
  <clipPath id="peec2a47818">
   <rect height="440.1" width="808.89" x="44.31" y="25.44"/>
  </clipPath>
 </defs>
</svg>
