<?xml version="1.0" encoding="utf-8" standalone="no"?>
<!DOCTYPE svg PUBLIC "-//W3C//DTD SVG 1.1//EN"
  "http://www.w3.org/Graphics/SVG/1.1/DTD/svg11.dtd">
<!-- Created with matplotlib (https://matplotlib.org/) -->
<svg height="504pt" version="1.1" viewBox="0 0 864 504" width="864pt" xmlns="http://www.w3.org/2000/svg" xmlns:xlink="http://www.w3.org/1999/xlink">
 <defs>
  <style type="text/css">
*{stroke-linecap:butt;stroke-linejoin:round;}
  </style>
 </defs>
 <g id="figure_1">
  <g id="patch_1">
   <path d="M 0 504 
L 864 504 
L 864 0 
L 0 0 
z
" style="fill:#ffffff;"/>
  </g>
  <g id="axes_1">
   <g id="patch_2">
    <path d="M 47.370209 464.82 
L 853.2 464.82 
L 853.2 27.6 
L 47.370209 27.6 
z
" style="fill:#eaeaf2;"/>
   </g>
   <g id="matplotlib.axis_1">
    <g id="xtick_1">
     <g id="line2d_1">
      <path clip-path="url(#pfe1aebb2f9)" d="M 128.994912 464.82 
L 128.994912 27.6 
" style="fill:none;stroke:#ffffff;stroke-linecap:round;stroke-width:0.8;"/>
     </g>
     <g id="line2d_2"/>
     <g id="text_1">
      <!-- 1.2 -->
      <defs>
       <path d="M 12.40625 8.296875 
L 28.515625 8.296875 
L 28.515625 63.921875 
L 10.984375 60.40625 
L 10.984375 69.390625 
L 28.421875 72.90625 
L 38.28125 72.90625 
L 38.28125 8.296875 
L 54.390625 8.296875 
L 54.390625 0 
L 12.40625 0 
z
" id="DejaVuSans-49"/>
       <path d="M 10.6875 12.40625 
L 21 12.40625 
L 21 0 
L 10.6875 0 
z
" id="DejaVuSans-46"/>
       <path d="M 19.1875 8.296875 
L 53.609375 8.296875 
L 53.609375 0 
L 7.328125 0 
L 7.328125 8.296875 
Q 12.9375 14.109375 22.625 23.890625 
Q 32.328125 33.6875 34.8125 36.53125 
Q 39.546875 41.84375 41.421875 45.53125 
Q 43.3125 49.21875 43.3125 52.78125 
Q 43.3125 58.59375 39.234375 62.25 
Q 35.15625 65.921875 28.609375 65.921875 
Q 23.96875 65.921875 18.8125 64.3125 
Q 13.671875 62.703125 7.8125 59.421875 
L 7.8125 69.390625 
Q 13.765625 71.78125 18.9375 73 
Q 24.125 74.21875 28.421875 74.21875 
Q 39.75 74.21875 46.484375 68.546875 
Q 53.21875 62.890625 53.21875 53.421875 
Q 53.21875 48.921875 51.53125 44.890625 
Q 49.859375 40.875 45.40625 35.40625 
Q 44.1875 33.984375 37.640625 27.21875 
Q 31.109375 20.453125 19.1875 8.296875 
z
" id="DejaVuSans-50"/>
      </defs>
      <g style="fill:#262626;" transform="translate(121.043349 475.918437)scale(0.1 -0.1)">
       <use xlink:href="#DejaVuSans-49"/>
       <use x="63.623047" xlink:href="#DejaVuSans-46"/>
       <use x="95.410156" xlink:href="#DejaVuSans-50"/>
      </g>
     </g>
    </g>
    <g id="xtick_2">
     <g id="line2d_3">
      <path clip-path="url(#pfe1aebb2f9)" d="M 241.485101 464.82 
L 241.485101 27.6 
" style="fill:none;stroke:#ffffff;stroke-linecap:round;stroke-width:0.8;"/>
     </g>
     <g id="line2d_4"/>
     <g id="text_2">
      <!-- 1.4 -->
      <defs>
       <path d="M 37.796875 64.3125 
L 12.890625 25.390625 
L 37.796875 25.390625 
z
M 35.203125 72.90625 
L 47.609375 72.90625 
L 47.609375 25.390625 
L 58.015625 25.390625 
L 58.015625 17.1875 
L 47.609375 17.1875 
L 47.609375 0 
L 37.796875 0 
L 37.796875 17.1875 
L 4.890625 17.1875 
L 4.890625 26.703125 
z
" id="DejaVuSans-52"/>
      </defs>
      <g style="fill:#262626;" transform="translate(233.533539 475.918437)scale(0.1 -0.1)">
       <use xlink:href="#DejaVuSans-49"/>
       <use x="63.623047" xlink:href="#DejaVuSans-46"/>
       <use x="95.410156" xlink:href="#DejaVuSans-52"/>
      </g>
     </g>
    </g>
    <g id="xtick_3">
     <g id="line2d_5">
      <path clip-path="url(#pfe1aebb2f9)" d="M 353.97529 464.82 
L 353.97529 27.6 
" style="fill:none;stroke:#ffffff;stroke-linecap:round;stroke-width:0.8;"/>
     </g>
     <g id="line2d_6"/>
     <g id="text_3">
      <!-- 1.6 -->
      <defs>
       <path d="M 33.015625 40.375 
Q 26.375 40.375 22.484375 35.828125 
Q 18.609375 31.296875 18.609375 23.390625 
Q 18.609375 15.53125 22.484375 10.953125 
Q 26.375 6.390625 33.015625 6.390625 
Q 39.65625 6.390625 43.53125 10.953125 
Q 47.40625 15.53125 47.40625 23.390625 
Q 47.40625 31.296875 43.53125 35.828125 
Q 39.65625 40.375 33.015625 40.375 
z
M 52.59375 71.296875 
L 52.59375 62.3125 
Q 48.875 64.0625 45.09375 64.984375 
Q 41.3125 65.921875 37.59375 65.921875 
Q 27.828125 65.921875 22.671875 59.328125 
Q 17.53125 52.734375 16.796875 39.40625 
Q 19.671875 43.65625 24.015625 45.921875 
Q 28.375 48.1875 33.59375 48.1875 
Q 44.578125 48.1875 50.953125 41.515625 
Q 57.328125 34.859375 57.328125 23.390625 
Q 57.328125 12.15625 50.6875 5.359375 
Q 44.046875 -1.421875 33.015625 -1.421875 
Q 20.359375 -1.421875 13.671875 8.265625 
Q 6.984375 17.96875 6.984375 36.375 
Q 6.984375 53.65625 15.1875 63.9375 
Q 23.390625 74.21875 37.203125 74.21875 
Q 40.921875 74.21875 44.703125 73.484375 
Q 48.484375 72.75 52.59375 71.296875 
z
" id="DejaVuSans-54"/>
      </defs>
      <g style="fill:#262626;" transform="translate(346.023728 475.918437)scale(0.1 -0.1)">
       <use xlink:href="#DejaVuSans-49"/>
       <use x="63.623047" xlink:href="#DejaVuSans-46"/>
       <use x="95.410156" xlink:href="#DejaVuSans-54"/>
      </g>
     </g>
    </g>
    <g id="xtick_4">
     <g id="line2d_7">
      <path clip-path="url(#pfe1aebb2f9)" d="M 466.46548 464.82 
L 466.46548 27.6 
" style="fill:none;stroke:#ffffff;stroke-linecap:round;stroke-width:0.8;"/>
     </g>
     <g id="line2d_8"/>
     <g id="text_4">
      <!-- 1.8 -->
      <defs>
       <path d="M 31.78125 34.625 
Q 24.75 34.625 20.71875 30.859375 
Q 16.703125 27.09375 16.703125 20.515625 
Q 16.703125 13.921875 20.71875 10.15625 
Q 24.75 6.390625 31.78125 6.390625 
Q 38.8125 6.390625 42.859375 10.171875 
Q 46.921875 13.96875 46.921875 20.515625 
Q 46.921875 27.09375 42.890625 30.859375 
Q 38.875 34.625 31.78125 34.625 
z
M 21.921875 38.8125 
Q 15.578125 40.375 12.03125 44.71875 
Q 8.5 49.078125 8.5 55.328125 
Q 8.5 64.0625 14.71875 69.140625 
Q 20.953125 74.21875 31.78125 74.21875 
Q 42.671875 74.21875 48.875 69.140625 
Q 55.078125 64.0625 55.078125 55.328125 
Q 55.078125 49.078125 51.53125 44.71875 
Q 48 40.375 41.703125 38.8125 
Q 48.828125 37.15625 52.796875 32.3125 
Q 56.78125 27.484375 56.78125 20.515625 
Q 56.78125 9.90625 50.3125 4.234375 
Q 43.84375 -1.421875 31.78125 -1.421875 
Q 19.734375 -1.421875 13.25 4.234375 
Q 6.78125 9.90625 6.78125 20.515625 
Q 6.78125 27.484375 10.78125 32.3125 
Q 14.796875 37.15625 21.921875 38.8125 
z
M 18.3125 54.390625 
Q 18.3125 48.734375 21.84375 45.5625 
Q 25.390625 42.390625 31.78125 42.390625 
Q 38.140625 42.390625 41.71875 45.5625 
Q 45.3125 48.734375 45.3125 54.390625 
Q 45.3125 60.0625 41.71875 63.234375 
Q 38.140625 66.40625 31.78125 66.40625 
Q 25.390625 66.40625 21.84375 63.234375 
Q 18.3125 60.0625 18.3125 54.390625 
z
" id="DejaVuSans-56"/>
      </defs>
      <g style="fill:#262626;" transform="translate(458.513917 475.918437)scale(0.1 -0.1)">
       <use xlink:href="#DejaVuSans-49"/>
       <use x="63.623047" xlink:href="#DejaVuSans-46"/>
       <use x="95.410156" xlink:href="#DejaVuSans-56"/>
      </g>
     </g>
    </g>
    <g id="xtick_5">
     <g id="line2d_9">
      <path clip-path="url(#pfe1aebb2f9)" d="M 578.955669 464.82 
L 578.955669 27.6 
" style="fill:none;stroke:#ffffff;stroke-linecap:round;stroke-width:0.8;"/>
     </g>
     <g id="line2d_10"/>
     <g id="text_5">
      <!-- 2.0 -->
      <defs>
       <path d="M 31.78125 66.40625 
Q 24.171875 66.40625 20.328125 58.90625 
Q 16.5 51.421875 16.5 36.375 
Q 16.5 21.390625 20.328125 13.890625 
Q 24.171875 6.390625 31.78125 6.390625 
Q 39.453125 6.390625 43.28125 13.890625 
Q 47.125 21.390625 47.125 36.375 
Q 47.125 51.421875 43.28125 58.90625 
Q 39.453125 66.40625 31.78125 66.40625 
z
M 31.78125 74.21875 
Q 44.046875 74.21875 50.515625 64.515625 
Q 56.984375 54.828125 56.984375 36.375 
Q 56.984375 17.96875 50.515625 8.265625 
Q 44.046875 -1.421875 31.78125 -1.421875 
Q 19.53125 -1.421875 13.0625 8.265625 
Q 6.59375 17.96875 6.59375 36.375 
Q 6.59375 54.828125 13.0625 64.515625 
Q 19.53125 74.21875 31.78125 74.21875 
z
" id="DejaVuSans-48"/>
      </defs>
      <g style="fill:#262626;" transform="translate(571.004106 475.918437)scale(0.1 -0.1)">
       <use xlink:href="#DejaVuSans-50"/>
       <use x="63.623047" xlink:href="#DejaVuSans-46"/>
       <use x="95.410156" xlink:href="#DejaVuSans-48"/>
      </g>
     </g>
    </g>
    <g id="xtick_6">
     <g id="line2d_11">
      <path clip-path="url(#pfe1aebb2f9)" d="M 691.445858 464.82 
L 691.445858 27.6 
" style="fill:none;stroke:#ffffff;stroke-linecap:round;stroke-width:0.8;"/>
     </g>
     <g id="line2d_12"/>
     <g id="text_6">
      <!-- 2.2 -->
      <g style="fill:#262626;" transform="translate(683.494296 475.918437)scale(0.1 -0.1)">
       <use xlink:href="#DejaVuSans-50"/>
       <use x="63.623047" xlink:href="#DejaVuSans-46"/>
       <use x="95.410156" xlink:href="#DejaVuSans-50"/>
      </g>
     </g>
    </g>
    <g id="xtick_7">
     <g id="line2d_13">
      <path clip-path="url(#pfe1aebb2f9)" d="M 803.936047 464.82 
L 803.936047 27.6 
" style="fill:none;stroke:#ffffff;stroke-linecap:round;stroke-width:0.8;"/>
     </g>
     <g id="line2d_14"/>
     <g id="text_7">
      <!-- 2.4 -->
      <g style="fill:#262626;" transform="translate(795.984485 475.918437)scale(0.1 -0.1)">
       <use xlink:href="#DejaVuSans-50"/>
       <use x="63.623047" xlink:href="#DejaVuSans-46"/>
       <use x="95.410156" xlink:href="#DejaVuSans-52"/>
      </g>
     </g>
    </g>
    <g id="text_8">
     <!-- Time -->
     <defs>
      <path d="M -0.296875 72.90625 
L 61.375 72.90625 
L 61.375 64.59375 
L 35.5 64.59375 
L 35.5 0 
L 25.59375 0 
L 25.59375 64.59375 
L -0.296875 64.59375 
z
" id="DejaVuSans-84"/>
      <path d="M 9.421875 54.6875 
L 18.40625 54.6875 
L 18.40625 0 
L 9.421875 0 
z
M 9.421875 75.984375 
L 18.40625 75.984375 
L 18.40625 64.59375 
L 9.421875 64.59375 
z
" id="DejaVuSans-105"/>
      <path d="M 52 44.1875 
Q 55.375 50.25 60.0625 53.125 
Q 64.75 56 71.09375 56 
Q 79.640625 56 84.28125 50.015625 
Q 88.921875 44.046875 88.921875 33.015625 
L 88.921875 0 
L 79.890625 0 
L 79.890625 32.71875 
Q 79.890625 40.578125 77.09375 44.375 
Q 74.3125 48.1875 68.609375 48.1875 
Q 61.625 48.1875 57.5625 43.546875 
Q 53.515625 38.921875 53.515625 30.90625 
L 53.515625 0 
L 44.484375 0 
L 44.484375 32.71875 
Q 44.484375 40.625 41.703125 44.40625 
Q 38.921875 48.1875 33.109375 48.1875 
Q 26.21875 48.1875 22.15625 43.53125 
Q 18.109375 38.875 18.109375 30.90625 
L 18.109375 0 
L 9.078125 0 
L 9.078125 54.6875 
L 18.109375 54.6875 
L 18.109375 46.1875 
Q 21.1875 51.21875 25.484375 53.609375 
Q 29.78125 56 35.6875 56 
Q 41.65625 56 45.828125 52.96875 
Q 50 49.953125 52 44.1875 
z
" id="DejaVuSans-109"/>
      <path d="M 56.203125 29.59375 
L 56.203125 25.203125 
L 14.890625 25.203125 
Q 15.484375 15.921875 20.484375 11.0625 
Q 25.484375 6.203125 34.421875 6.203125 
Q 39.59375 6.203125 44.453125 7.46875 
Q 49.3125 8.734375 54.109375 11.28125 
L 54.109375 2.78125 
Q 49.265625 0.734375 44.1875 -0.34375 
Q 39.109375 -1.421875 33.890625 -1.421875 
Q 20.796875 -1.421875 13.15625 6.1875 
Q 5.515625 13.8125 5.515625 26.8125 
Q 5.515625 40.234375 12.765625 48.109375 
Q 20.015625 56 32.328125 56 
Q 43.359375 56 49.78125 48.890625 
Q 56.203125 41.796875 56.203125 29.59375 
z
M 47.21875 32.234375 
Q 47.125 39.59375 43.09375 43.984375 
Q 39.0625 48.390625 32.421875 48.390625 
Q 24.90625 48.390625 20.390625 44.140625 
Q 15.875 39.890625 15.1875 32.171875 
z
" id="DejaVuSans-101"/>
     </defs>
     <g style="fill:#262626;" transform="translate(435.604792 491.11625)scale(0.12 -0.12)">
      <use xlink:href="#DejaVuSans-84"/>
      <use x="57.958984" xlink:href="#DejaVuSans-105"/>
      <use x="85.742188" xlink:href="#DejaVuSans-109"/>
      <use x="183.154297" xlink:href="#DejaVuSans-101"/>
     </g>
    </g>
   </g>
   <g id="matplotlib.axis_2">
    <g id="ytick_1">
     <g id="line2d_15">
      <path clip-path="url(#pfe1aebb2f9)" d="M 47.370209 394.597584 
L 853.2 394.597584 
" style="fill:none;stroke:#ffffff;stroke-linecap:round;stroke-width:0.8;"/>
     </g>
     <g id="line2d_16"/>
     <g id="text_9">
      <!-- $\mathdefault{10^{1}}$ -->
      <g style="fill:#262626;" transform="translate(26.270209 398.396803)scale(0.1 -0.1)">
       <use transform="translate(0 0.684375)" xlink:href="#DejaVuSans-49"/>
       <use transform="translate(63.623047 0.684375)" xlink:href="#DejaVuSans-48"/>
       <use transform="translate(128.203125 38.965625)scale(0.7)" xlink:href="#DejaVuSans-49"/>
      </g>
     </g>
    </g>
    <g id="ytick_2">
     <g id="line2d_17">
      <path clip-path="url(#pfe1aebb2f9)" d="M 47.370209 294.13202 
L 853.2 294.13202 
" style="fill:none;stroke:#ffffff;stroke-linecap:round;stroke-width:0.8;"/>
     </g>
     <g id="line2d_18"/>
     <g id="text_10">
      <!-- $\mathdefault{10^{2}}$ -->
      <g style="fill:#262626;" transform="translate(26.270209 297.931238)scale(0.1 -0.1)">
       <use transform="translate(0 0.765625)" xlink:href="#DejaVuSans-49"/>
       <use transform="translate(63.623047 0.765625)" xlink:href="#DejaVuSans-48"/>
       <use transform="translate(128.203125 39.046875)scale(0.7)" xlink:href="#DejaVuSans-50"/>
      </g>
     </g>
    </g>
    <g id="ytick_3">
     <g id="line2d_19">
      <path clip-path="url(#pfe1aebb2f9)" d="M 47.370209 193.666455 
L 853.2 193.666455 
" style="fill:none;stroke:#ffffff;stroke-linecap:round;stroke-width:0.8;"/>
     </g>
     <g id="line2d_20"/>
     <g id="text_11">
      <!-- $\mathdefault{10^{3}}$ -->
      <defs>
       <path d="M 40.578125 39.3125 
Q 47.65625 37.796875 51.625 33 
Q 55.609375 28.21875 55.609375 21.1875 
Q 55.609375 10.40625 48.1875 4.484375 
Q 40.765625 -1.421875 27.09375 -1.421875 
Q 22.515625 -1.421875 17.65625 -0.515625 
Q 12.796875 0.390625 7.625 2.203125 
L 7.625 11.71875 
Q 11.71875 9.328125 16.59375 8.109375 
Q 21.484375 6.890625 26.8125 6.890625 
Q 36.078125 6.890625 40.9375 10.546875 
Q 45.796875 14.203125 45.796875 21.1875 
Q 45.796875 27.640625 41.28125 31.265625 
Q 36.765625 34.90625 28.71875 34.90625 
L 20.21875 34.90625 
L 20.21875 43.015625 
L 29.109375 43.015625 
Q 36.375 43.015625 40.234375 45.921875 
Q 44.09375 48.828125 44.09375 54.296875 
Q 44.09375 59.90625 40.109375 62.90625 
Q 36.140625 65.921875 28.71875 65.921875 
Q 24.65625 65.921875 20.015625 65.03125 
Q 15.375 64.15625 9.8125 62.3125 
L 9.8125 71.09375 
Q 15.4375 72.65625 20.34375 73.4375 
Q 25.25 74.21875 29.59375 74.21875 
Q 40.828125 74.21875 47.359375 69.109375 
Q 53.90625 64.015625 53.90625 55.328125 
Q 53.90625 49.265625 50.4375 45.09375 
Q 46.96875 40.921875 40.578125 39.3125 
z
" id="DejaVuSans-51"/>
      </defs>
      <g style="fill:#262626;" transform="translate(26.270209 197.465674)scale(0.1 -0.1)">
       <use transform="translate(0 0.765625)" xlink:href="#DejaVuSans-49"/>
       <use transform="translate(63.623047 0.765625)" xlink:href="#DejaVuSans-48"/>
       <use transform="translate(128.203125 39.046875)scale(0.7)" xlink:href="#DejaVuSans-51"/>
      </g>
     </g>
    </g>
    <g id="ytick_4">
     <g id="line2d_21">
      <path clip-path="url(#pfe1aebb2f9)" d="M 47.370209 93.200891 
L 853.2 93.200891 
" style="fill:none;stroke:#ffffff;stroke-linecap:round;stroke-width:0.8;"/>
     </g>
     <g id="line2d_22"/>
     <g id="text_12">
      <!-- $\mathdefault{10^{4}}$ -->
      <g style="fill:#262626;" transform="translate(26.270209 97.000109)scale(0.1 -0.1)">
       <use transform="translate(0 0.684375)" xlink:href="#DejaVuSans-49"/>
       <use transform="translate(63.623047 0.684375)" xlink:href="#DejaVuSans-48"/>
       <use transform="translate(128.203125 38.965625)scale(0.7)" xlink:href="#DejaVuSans-52"/>
      </g>
     </g>
    </g>
    <g id="ytick_5">
     <g id="line2d_23"/>
    </g>
    <g id="ytick_6">
     <g id="line2d_24"/>
    </g>
    <g id="ytick_7">
     <g id="line2d_25"/>
    </g>
    <g id="ytick_8">
     <g id="line2d_26"/>
    </g>
    <g id="ytick_9">
     <g id="line2d_27"/>
    </g>
    <g id="ytick_10">
     <g id="line2d_28"/>
    </g>
    <g id="ytick_11">
     <g id="line2d_29"/>
    </g>
    <g id="ytick_12">
     <g id="line2d_30"/>
    </g>
    <g id="ytick_13">
     <g id="line2d_31"/>
    </g>
    <g id="ytick_14">
     <g id="line2d_32"/>
    </g>
    <g id="ytick_15">
     <g id="line2d_33"/>
    </g>
    <g id="ytick_16">
     <g id="line2d_34"/>
    </g>
    <g id="ytick_17">
     <g id="line2d_35"/>
    </g>
    <g id="ytick_18">
     <g id="line2d_36"/>
    </g>
    <g id="ytick_19">
     <g id="line2d_37"/>
    </g>
    <g id="ytick_20">
     <g id="line2d_38"/>
    </g>
    <g id="ytick_21">
     <g id="line2d_39"/>
    </g>
    <g id="ytick_22">
     <g id="line2d_40"/>
    </g>
    <g id="ytick_23">
     <g id="line2d_41"/>
    </g>
    <g id="ytick_24">
     <g id="line2d_42"/>
    </g>
    <g id="ytick_25">
     <g id="line2d_43"/>
    </g>
    <g id="ytick_26">
     <g id="line2d_44"/>
    </g>
    <g id="ytick_27">
     <g id="line2d_45"/>
    </g>
    <g id="ytick_28">
     <g id="line2d_46"/>
    </g>
    <g id="ytick_29">
     <g id="line2d_47"/>
    </g>
    <g id="ytick_30">
     <g id="line2d_48"/>
    </g>
    <g id="ytick_31">
     <g id="line2d_49"/>
    </g>
    <g id="ytick_32">
     <g id="line2d_50"/>
    </g>
    <g id="ytick_33">
     <g id="line2d_51"/>
    </g>
    <g id="ytick_34">
     <g id="line2d_52"/>
    </g>
    <g id="ytick_35">
     <g id="line2d_53"/>
    </g>
    <g id="ytick_36">
     <g id="line2d_54"/>
    </g>
    <g id="ytick_37">
     <g id="line2d_55"/>
    </g>
    <g id="ytick_38">
     <g id="line2d_56"/>
    </g>
    <g id="ytick_39">
     <g id="line2d_57"/>
    </g>
    <g id="text_13">
     <!-- N of particles -->
     <defs>
      <path d="M 9.8125 72.90625 
L 23.09375 72.90625 
L 55.421875 11.921875 
L 55.421875 72.90625 
L 64.984375 72.90625 
L 64.984375 0 
L 51.703125 0 
L 19.390625 60.984375 
L 19.390625 0 
L 9.8125 0 
z
" id="DejaVuSans-78"/>
      <path id="DejaVuSans-32"/>
      <path d="M 30.609375 48.390625 
Q 23.390625 48.390625 19.1875 42.75 
Q 14.984375 37.109375 14.984375 27.296875 
Q 14.984375 17.484375 19.15625 11.84375 
Q 23.34375 6.203125 30.609375 6.203125 
Q 37.796875 6.203125 41.984375 11.859375 
Q 46.1875 17.53125 46.1875 27.296875 
Q 46.1875 37.015625 41.984375 42.703125 
Q 37.796875 48.390625 30.609375 48.390625 
z
M 30.609375 56 
Q 42.328125 56 49.015625 48.375 
Q 55.71875 40.765625 55.71875 27.296875 
Q 55.71875 13.875 49.015625 6.21875 
Q 42.328125 -1.421875 30.609375 -1.421875 
Q 18.84375 -1.421875 12.171875 6.21875 
Q 5.515625 13.875 5.515625 27.296875 
Q 5.515625 40.765625 12.171875 48.375 
Q 18.84375 56 30.609375 56 
z
" id="DejaVuSans-111"/>
      <path d="M 37.109375 75.984375 
L 37.109375 68.5 
L 28.515625 68.5 
Q 23.6875 68.5 21.796875 66.546875 
Q 19.921875 64.59375 19.921875 59.515625 
L 19.921875 54.6875 
L 34.71875 54.6875 
L 34.71875 47.703125 
L 19.921875 47.703125 
L 19.921875 0 
L 10.890625 0 
L 10.890625 47.703125 
L 2.296875 47.703125 
L 2.296875 54.6875 
L 10.890625 54.6875 
L 10.890625 58.5 
Q 10.890625 67.625 15.140625 71.796875 
Q 19.390625 75.984375 28.609375 75.984375 
z
" id="DejaVuSans-102"/>
      <path d="M 18.109375 8.203125 
L 18.109375 -20.796875 
L 9.078125 -20.796875 
L 9.078125 54.6875 
L 18.109375 54.6875 
L 18.109375 46.390625 
Q 20.953125 51.265625 25.265625 53.625 
Q 29.59375 56 35.59375 56 
Q 45.5625 56 51.78125 48.09375 
Q 58.015625 40.1875 58.015625 27.296875 
Q 58.015625 14.40625 51.78125 6.484375 
Q 45.5625 -1.421875 35.59375 -1.421875 
Q 29.59375 -1.421875 25.265625 0.953125 
Q 20.953125 3.328125 18.109375 8.203125 
z
M 48.6875 27.296875 
Q 48.6875 37.203125 44.609375 42.84375 
Q 40.53125 48.484375 33.40625 48.484375 
Q 26.265625 48.484375 22.1875 42.84375 
Q 18.109375 37.203125 18.109375 27.296875 
Q 18.109375 17.390625 22.1875 11.75 
Q 26.265625 6.109375 33.40625 6.109375 
Q 40.53125 6.109375 44.609375 11.75 
Q 48.6875 17.390625 48.6875 27.296875 
z
" id="DejaVuSans-112"/>
      <path d="M 34.28125 27.484375 
Q 23.390625 27.484375 19.1875 25 
Q 14.984375 22.515625 14.984375 16.5 
Q 14.984375 11.71875 18.140625 8.90625 
Q 21.296875 6.109375 26.703125 6.109375 
Q 34.1875 6.109375 38.703125 11.40625 
Q 43.21875 16.703125 43.21875 25.484375 
L 43.21875 27.484375 
z
M 52.203125 31.203125 
L 52.203125 0 
L 43.21875 0 
L 43.21875 8.296875 
Q 40.140625 3.328125 35.546875 0.953125 
Q 30.953125 -1.421875 24.3125 -1.421875 
Q 15.921875 -1.421875 10.953125 3.296875 
Q 6 8.015625 6 15.921875 
Q 6 25.140625 12.171875 29.828125 
Q 18.359375 34.515625 30.609375 34.515625 
L 43.21875 34.515625 
L 43.21875 35.40625 
Q 43.21875 41.609375 39.140625 45 
Q 35.0625 48.390625 27.6875 48.390625 
Q 23 48.390625 18.546875 47.265625 
Q 14.109375 46.140625 10.015625 43.890625 
L 10.015625 52.203125 
Q 14.9375 54.109375 19.578125 55.046875 
Q 24.21875 56 28.609375 56 
Q 40.484375 56 46.34375 49.84375 
Q 52.203125 43.703125 52.203125 31.203125 
z
" id="DejaVuSans-97"/>
      <path d="M 41.109375 46.296875 
Q 39.59375 47.171875 37.8125 47.578125 
Q 36.03125 48 33.890625 48 
Q 26.265625 48 22.1875 43.046875 
Q 18.109375 38.09375 18.109375 28.8125 
L 18.109375 0 
L 9.078125 0 
L 9.078125 54.6875 
L 18.109375 54.6875 
L 18.109375 46.1875 
Q 20.953125 51.171875 25.484375 53.578125 
Q 30.03125 56 36.53125 56 
Q 37.453125 56 38.578125 55.875 
Q 39.703125 55.765625 41.0625 55.515625 
z
" id="DejaVuSans-114"/>
      <path d="M 18.3125 70.21875 
L 18.3125 54.6875 
L 36.8125 54.6875 
L 36.8125 47.703125 
L 18.3125 47.703125 
L 18.3125 18.015625 
Q 18.3125 11.328125 20.140625 9.421875 
Q 21.96875 7.515625 27.59375 7.515625 
L 36.8125 7.515625 
L 36.8125 0 
L 27.59375 0 
Q 17.1875 0 13.234375 3.875 
Q 9.28125 7.765625 9.28125 18.015625 
L 9.28125 47.703125 
L 2.6875 47.703125 
L 2.6875 54.6875 
L 9.28125 54.6875 
L 9.28125 70.21875 
z
" id="DejaVuSans-116"/>
      <path d="M 48.78125 52.59375 
L 48.78125 44.1875 
Q 44.96875 46.296875 41.140625 47.34375 
Q 37.3125 48.390625 33.40625 48.390625 
Q 24.65625 48.390625 19.8125 42.84375 
Q 14.984375 37.3125 14.984375 27.296875 
Q 14.984375 17.28125 19.8125 11.734375 
Q 24.65625 6.203125 33.40625 6.203125 
Q 37.3125 6.203125 41.140625 7.25 
Q 44.96875 8.296875 48.78125 10.40625 
L 48.78125 2.09375 
Q 45.015625 0.34375 40.984375 -0.53125 
Q 36.96875 -1.421875 32.421875 -1.421875 
Q 20.0625 -1.421875 12.78125 6.34375 
Q 5.515625 14.109375 5.515625 27.296875 
Q 5.515625 40.671875 12.859375 48.328125 
Q 20.21875 56 33.015625 56 
Q 37.15625 56 41.109375 55.140625 
Q 45.0625 54.296875 48.78125 52.59375 
z
" id="DejaVuSans-99"/>
      <path d="M 9.421875 75.984375 
L 18.40625 75.984375 
L 18.40625 0 
L 9.421875 0 
z
" id="DejaVuSans-108"/>
      <path d="M 44.28125 53.078125 
L 44.28125 44.578125 
Q 40.484375 46.53125 36.375 47.5 
Q 32.28125 48.484375 27.875 48.484375 
Q 21.1875 48.484375 17.84375 46.4375 
Q 14.5 44.390625 14.5 40.28125 
Q 14.5 37.15625 16.890625 35.375 
Q 19.28125 33.59375 26.515625 31.984375 
L 29.59375 31.296875 
Q 39.15625 29.25 43.1875 25.515625 
Q 47.21875 21.78125 47.21875 15.09375 
Q 47.21875 7.46875 41.1875 3.015625 
Q 35.15625 -1.421875 24.609375 -1.421875 
Q 20.21875 -1.421875 15.453125 -0.5625 
Q 10.6875 0.296875 5.421875 2 
L 5.421875 11.28125 
Q 10.40625 8.6875 15.234375 7.390625 
Q 20.0625 6.109375 24.8125 6.109375 
Q 31.15625 6.109375 34.5625 8.28125 
Q 37.984375 10.453125 37.984375 14.40625 
Q 37.984375 18.0625 35.515625 20.015625 
Q 33.0625 21.96875 24.703125 23.78125 
L 21.578125 24.515625 
Q 13.234375 26.265625 9.515625 29.90625 
Q 5.8125 33.546875 5.8125 39.890625 
Q 5.8125 47.609375 11.28125 51.796875 
Q 16.75 56 26.8125 56 
Q 31.78125 56 36.171875 55.265625 
Q 40.578125 54.546875 44.28125 53.078125 
z
" id="DejaVuSans-115"/>
     </defs>
     <g style="fill:#262626;" transform="translate(19.774584 286.050937)rotate(-90)scale(0.12 -0.12)">
      <use xlink:href="#DejaVuSans-78"/>
      <use x="74.804688" xlink:href="#DejaVuSans-32"/>
      <use x="106.591797" xlink:href="#DejaVuSans-111"/>
      <use x="167.773438" xlink:href="#DejaVuSans-102"/>
      <use x="202.978516" xlink:href="#DejaVuSans-32"/>
      <use x="234.765625" xlink:href="#DejaVuSans-112"/>
      <use x="298.242188" xlink:href="#DejaVuSans-97"/>
      <use x="359.521484" xlink:href="#DejaVuSans-114"/>
      <use x="400.634766" xlink:href="#DejaVuSans-116"/>
      <use x="439.84375" xlink:href="#DejaVuSans-105"/>
      <use x="467.626953" xlink:href="#DejaVuSans-99"/>
      <use x="522.607422" xlink:href="#DejaVuSans-108"/>
      <use x="550.390625" xlink:href="#DejaVuSans-101"/>
      <use x="611.914062" xlink:href="#DejaVuSans-115"/>
     </g>
    </g>
   </g>
   <g id="line2d_58">
    <path clip-path="url(#pfe1aebb2f9)" d="M 83.998836 410.159897 
L 91.398559 358.256393 
L 98.798281 305.535793 
L 106.198004 244.207702 
L 113.597726 220.390367 
L 120.997449 211.205119 
L 128.397172 201.69131 
L 135.796894 195.675428 
L 143.196617 183.13481 
L 150.596339 179.079216 
L 157.996062 170.84921 
L 165.395785 139.558341 
L 172.795507 135.029517 
L 180.19523 132.305444 
L 187.594952 128.167321 
L 194.994675 126.87394 
L 202.394398 125.626971 
L 209.79412 124.334422 
L 217.193843 122.983978 
L 224.593565 121.565283 
L 231.993288 106.262017 
L 239.393011 104.963119 
L 246.792733 103.751755 
L 254.192456 101.157624 
L 261.592178 99.939102 
L 268.991901 98.67942 
L 276.391624 97.638253 
L 283.791346 96.409514 
L 291.191069 94.70114 
L 298.590791 93.380148 
L 305.990514 92.212995 
L 313.390237 91.238629 
L 320.789959 90.232525 
L 328.189682 89.249099 
L 335.589404 88.275657 
L 342.989127 86.157071 
L 350.38885 85.32961 
L 357.788572 72.546852 
L 365.188295 71.528775 
L 372.588017 75.94242 
L 379.98774 75.376184 
L 387.387463 69.530783 
L 394.787185 72.373259 
L 402.186908 71.936912 
L 409.58663 71.587227 
L 416.986353 71.148103 
L 424.386076 70.671679 
L 431.785798 70.197825 
L 439.185521 69.780049 
L 446.585243 66.222755 
L 453.984966 68.337446 
L 461.384688 65.48144 
L 468.784411 66.838362 
L 476.184134 66.44432 
L 483.583856 66.110048 
L 490.983579 65.643545 
L 498.383301 65.092537 
L 505.783024 64.682098 
L 513.182747 64.324978 
L 520.582469 63.959595 
L 527.982192 63.688106 
L 535.381914 63.400662 
L 542.781637 63.193991 
L 550.18136 62.953379 
L 557.581082 61.83569 
L 564.980805 53.991049 
L 572.380527 57.551885 
L 579.78025 57.378766 
L 587.179973 57.206332 
L 594.579695 57.053627 
L 601.979418 53.000535 
L 609.37914 55.660341 
L 616.778863 55.46882 
L 624.178586 55.300096 
L 631.578308 55.161206 
L 638.978031 55.03549 
L 646.377753 54.329861 
L 653.777476 53.324715 
L 661.177199 52.122114 
L 668.576921 51.830376 
L 675.976644 51.496936 
L 683.376366 50.991554 
L 690.776089 50.65621 
L 698.175812 50.532964 
L 705.575534 50.426431 
L 712.975257 50.280984 
L 720.374979 50.058037 
L 727.774702 49.949418 
L 735.174425 49.082127 
L 742.574147 48.948997 
L 749.97387 48.669797 
L 757.373592 48.481519 
L 764.773315 48.359573 
L 772.173038 48.23174 
L 779.57276 48.112042 
L 786.972483 47.099305 
L 794.372205 46.929756 
L 801.771928 46.777422 
L 809.171651 46.646628 
L 816.571373 46.516225 
" style="fill:none;stroke:#0000ff;stroke-dasharray:5.55,2.4;stroke-dashoffset:0;stroke-width:1.5;"/>
   </g>
   <g id="line2d_59">
    <path clip-path="url(#pfe1aebb2f9)" d="M 83.998836 416.885744 
L 91.398559 368.951488 
L 98.798281 316.420179 
L 106.198004 269.466451 
L 113.597726 257.413063 
L 120.997449 236.22956 
L 128.397172 221.69778 
L 135.796894 207.517504 
L 143.196617 201.014837 
L 150.596339 195.085495 
L 157.996062 187.796652 
L 165.395785 193.275527 
L 172.795507 170.694305 
L 180.19523 155.687023 
L 187.594952 153.792029 
L 194.994675 152.093552 
L 202.394398 150.135762 
L 209.79412 148.292896 
L 217.193843 146.956354 
L 224.593565 146.038694 
L 231.993288 144.968103 
L 239.393011 144.315602 
L 246.792733 143.965033 
L 254.192456 143.658844 
L 261.592178 143.299734 
L 268.991901 142.766551 
L 276.391624 142.159328 
L 283.791346 141.375783 
L 291.191069 140.066282 
L 298.590791 139.381949 
L 305.990514 138.956516 
L 313.390237 138.596895 
L 320.789959 138.215723 
L 328.189682 137.765092 
L 335.589404 136.664373 
L 342.989127 135.752424 
L 350.38885 135.269157 
L 357.788572 157.003955 
L 365.188295 155.668756 
L 372.588017 154.854541 
L 379.98774 154.108075 
L 387.387463 153.547789 
L 394.787185 152.84028 
L 402.186908 152.043101 
L 409.58663 142.132535 
L 416.986353 141.639818 
L 424.386076 140.995748 
L 431.785798 140.644874 
L 439.185521 140.207009 
L 446.585243 138.609247 
L 453.984966 139.031291 
L 461.384688 138.646322 
L 468.784411 138.240214 
L 476.184134 137.632013 
L 483.583856 137.223227 
L 490.983579 136.605339 
L 498.383301 135.949564 
L 505.783024 135.132059 
L 513.182747 134.4979 
L 520.582469 133.728991 
L 527.982192 132.519798 
L 535.381914 132.092138 
L 542.781637 131.784685 
L 550.18136 131.468894 
L 557.581082 130.999452 
L 564.980805 130.648082 
L 572.380527 130.442708 
L 579.78025 130.156799 
L 587.179973 129.96385 
L 594.579695 129.761664 
L 601.979418 129.560411 
L 609.37914 129.370076 
L 616.778863 129.110957 
L 624.178586 128.863246 
L 631.578308 128.695602 
L 638.978031 128.440446 
L 646.377753 128.167321 
L 653.777476 128.050788 
L 661.177199 127.876571 
L 668.576921 127.520628 
L 675.976644 127.224625 
L 683.376366 126.968442 
L 690.776089 126.676149 
L 698.175812 126.451195 
L 705.575534 126.013991 
L 712.975257 125.764799 
L 720.374979 125.55364 
L 727.774702 125.379973 
L 735.174425 125.188825 
L 742.574147 123.715397 
L 749.97387 123.575131 
L 757.373592 123.42659 
L 764.773315 123.252481 
L 772.173038 123.035817 
L 779.57276 122.863258 
L 786.972483 122.742871 
L 794.372205 122.622815 
L 801.771928 122.426295 
L 809.171651 122.239144 
L 816.571373 122.086615 
" style="fill:none;stroke:#0000ff;stroke-dasharray:5.55,2.4;stroke-dashoffset:0;stroke-width:1.5;"/>
   </g>
   <g id="line2d_60">
    <path clip-path="url(#pfe1aebb2f9)" d="M 83.998836 416.885744 
L 91.398559 379.916748 
L 98.798281 317.89936 
L 106.198004 269.715065 
L 113.597726 258.171893 
L 120.997449 246.783432 
L 128.397172 231.309651 
L 135.796894 211.009898 
L 143.196617 201.534268 
L 150.596339 198.996829 
L 157.996062 196.692313 
L 165.395785 199.742687 
L 172.795507 196.832833 
L 180.19523 168.951333 
L 187.594952 168.093139 
L 194.994675 167.490316 
L 202.394398 167.013983 
L 209.79412 166.660115 
L 217.193843 166.07664 
L 224.593565 165.318209 
L 231.993288 183.617314 
L 239.393011 181.387968 
L 246.792733 179.487138 
L 254.192456 178.091055 
L 261.592178 176.827153 
L 268.991901 175.627683 
L 276.391624 174.742166 
L 283.791346 173.985286 
L 291.191069 172.914686 
L 298.590791 172.268678 
L 305.990514 171.317254 
L 313.390237 169.524622 
L 320.789959 168.117426 
L 328.189682 162.967563 
L 335.589404 161.27374 
L 342.989127 159.683252 
L 350.38885 158.323041 
L 357.788572 170.642792 
L 365.188295 170.207368 
L 372.588017 167.418533 
L 379.98774 160.328761 
L 387.387463 159.90407 
L 394.787185 159.60323 
L 402.186908 159.423717 
L 409.58663 159.145934 
L 416.986353 158.850259 
L 424.386076 158.517564 
L 431.785798 158.226103 
L 439.185521 143.756035 
L 446.585243 143.548034 
L 453.984966 143.313492 
L 461.384688 143.025493 
L 468.784411 142.780141 
L 476.184134 142.428162 
L 483.583856 142.065626 
L 490.983579 141.586883 
L 498.383301 141.126421 
L 505.783024 140.631933 
L 513.182747 140.28396 
L 520.582469 139.938741 
L 527.982192 139.545718 
L 535.381914 139.218793 
L 542.781637 138.906736 
L 550.18136 138.559862 
L 557.581082 134.565406 
L 564.980805 169.199664 
L 572.380527 162.409825 
L 579.78025 161.859127 
L 587.179973 161.649158 
L 594.579695 161.523659 
L 601.979418 169.149885 
L 609.37914 169.100162 
L 616.778863 169.100162 
L 624.178586 169.075322 
L 631.578308 169.050496 
L 638.978031 169.050496 
L 646.377753 169.025684 
L 653.777476 169.000886 
L 661.177199 168.976103 
L 668.576921 168.976103 
L 675.976644 168.976103 
L 683.376366 168.976103 
L 690.776089 168.951333 
L 698.175812 168.877109 
L 705.575534 168.877109 
L 712.975257 168.852395 
L 720.374979 168.852395 
L 727.774702 168.852395 
L 735.174425 168.852395 
L 742.574147 168.852395 
L 749.97387 168.852395 
L 757.373592 168.852395 
L 764.773315 168.827696 
L 772.173038 168.80301 
L 779.57276 168.80301 
L 786.972483 168.778339 
L 794.372205 168.778339 
L 801.771928 168.778339 
L 809.171651 168.778339 
L 816.571373 168.778339 
" style="fill:none;stroke:#0000ff;stroke-dasharray:5.55,2.4;stroke-dashoffset:0;stroke-width:1.5;"/>
   </g>
   <g id="line2d_61">
    <path clip-path="url(#pfe1aebb2f9)" d="M 83.998836 416.885744 
L 91.398559 386.642595 
L 98.798281 317.89936 
L 106.198004 277.620217 
L 113.597726 259.139375 
L 120.997449 251.446046 
L 128.397172 238.364142 
L 135.796894 216.027395 
L 143.196617 216.836092 
L 150.596339 205.698033 
L 157.996062 202.112875 
L 165.395785 201.221868 
L 172.795507 198.555359 
L 180.19523 215.305 
L 187.594952 210.880235 
L 194.994675 208.856376 
L 202.394398 206.335002 
L 209.79412 196.598883 
L 217.193843 193.362098 
L 224.593565 187.379121 
L 231.993288 201.79632 
L 239.393011 199.994167 
L 246.792733 198.947556 
L 254.192456 197.877384 
L 261.592178 189.986512 
L 268.991901 194.370206 
L 276.391624 191.620847 
L 283.791346 181.784923 
L 291.191069 179.867097 
L 298.590791 176.325804 
L 305.990514 175.340064 
L 313.390237 174.742166 
L 320.789959 173.653064 
L 328.189682 172.968954 
L 335.589404 172.429285 
L 342.989127 171.949226 
L 350.38885 171.13464 
L 357.788572 175.340064 
L 365.188295 174.883781 
L 372.588017 169.374341 
L 379.98774 164.955178 
L 387.387463 174.180257 
L 394.787185 173.92974 
L 402.186908 173.818859 
L 409.58663 173.487896 
L 416.986353 173.323352 
L 424.386076 173.077693 
L 431.785798 172.887577 
L 439.185521 172.698285 
L 446.585243 172.456111 
L 453.984966 172.188595 
L 461.384688 171.949226 
L 468.784411 171.763953 
L 476.184134 171.36957 
L 483.583856 170.694305 
L 490.983579 170.411732 
L 498.383301 169.927921 
L 505.783024 169.625098 
L 513.182747 169.599957 
L 520.582469 169.574831 
L 527.982192 169.474471 
L 535.381914 169.399352 
L 542.781637 169.374341 
L 550.18136 169.374341 
L 557.581082 169.2495 
L 564.980805 197.829358 
L 572.380527 169.174767 
L 579.78025 169.174767 
L 587.179973 169.149885 
L 594.579695 169.149885 
L 601.979418 197.494648 
L 609.37914 173.515381 
L 616.778863 173.213999 
L 624.178586 173.050483 
L 631.578308 172.617411 
L 638.978031 172.536686 
L 646.377753 172.295405 
L 653.777476 186.260299 
L 661.177199 196.879774 
L 668.576921 196.785943 
L 675.976644 196.739103 
L 683.376366 196.692313 
L 690.776089 196.645573 
L 698.175812 191.955191 
L 705.575534 196.459113 
L 712.975257 192.081233 
L 720.374979 192.123329 
L 727.774702 191.997165 
L 735.174425 191.913258 
L 742.574147 187.530488 
L 749.97387 186.928144 
L 757.373592 186.853432 
L 764.773315 186.778848 
L 772.173038 186.66721 
L 779.57276 186.630061 
L 786.972483 186.555858 
L 794.372205 186.444789 
L 801.771928 186.407828 
L 809.171651 186.260299 
L 816.571373 186.186722 
" style="fill:none;stroke:#0000ff;stroke-dasharray:5.55,2.4;stroke-dashoffset:0;stroke-width:1.5;"/>
   </g>
   <g id="line2d_62">
    <path clip-path="url(#pfe1aebb2f9)" d="M 83.998836 424.840732 
L 91.398559 386.642595 
L 98.798281 329.952748 
L 106.198004 292.420755 
L 113.597726 261.346503 
L 120.997449 254.327628 
L 128.397172 239.721955 
L 135.796894 224.524763 
L 143.196617 218.422872 
L 150.596339 211.009898 
L 157.996062 205.183705 
L 165.395785 213.618543 
L 172.795507 216.027395 
L 180.19523 222.450789 
L 187.594952 219.910014 
L 194.994675 217.584509 
L 202.394398 213.964554 
L 209.79412 208.918221 
L 217.193843 207.397801 
L 224.593565 203.841087 
L 231.993288 211.796075 
L 239.393011 211.205119 
L 246.792733 210.429425 
L 254.192456 209.667281 
L 261.592178 209.228768 
L 268.991901 208.548459 
L 276.391624 207.697676 
L 283.791346 189.946428 
L 291.191069 183.444378 
L 298.590791 186.297135 
L 305.990514 185.061852 
L 313.390237 182.657585 
L 320.789959 177.394388 
L 328.189682 177.424447 
L 335.589404 176.443251 
L 342.989127 176.033562 
L 350.38885 175.512408 
L 357.788572 201.014837 
L 365.188295 200.860206 
L 372.588017 174.685648 
L 379.98774 174.432221 
L 387.387463 200.450516 
L 394.787185 185.133556 
L 402.186908 184.740636 
L 409.58663 184.280793 
L 416.986353 184.811813 
L 424.386076 184.563199 
L 431.785798 184.77621 
L 439.185521 184.492426 
L 446.585243 199.34331 
L 453.984966 191.871365 
L 461.384688 199.244035 
L 468.784411 199.144984 
L 476.184134 199.095543 
L 483.583856 198.996829 
L 490.983579 198.849176 
L 498.383301 198.751017 
L 505.783024 198.70202 
L 513.182747 198.653078 
L 520.582469 198.604191 
L 527.982192 198.409189 
L 535.381914 198.360574 
L 542.781637 198.215055 
L 550.18136 197.973595 
L 557.581082 197.925463 
L 564.980805 207.577479 
L 572.380527 197.685596 
L 579.78025 197.590018 
L 587.179973 197.542307 
L 594.579695 197.542307 
L 601.979418 202.538553 
L 609.37914 197.399486 
L 616.778863 197.351983 
L 624.178586 197.209783 
L 631.578308 197.209783 
L 638.978031 197.11524 
L 646.377753 197.068045 
L 653.777476 196.973808 
L 661.177199 201.325753 
L 668.576921 201.273779 
L 675.976644 201.273779 
L 683.376366 201.273779 
L 690.776089 200.808784 
L 698.175812 196.459113 
L 705.575534 198.166656 
L 712.975257 196.36618 
L 720.374979 196.319788 
L 727.774702 196.319788 
L 735.174425 196.042468 
L 742.574147 196.042468 
L 749.97387 196.042468 
L 757.373592 195.950418 
L 764.773315 195.950418 
L 772.173038 195.950418 
L 779.57276 195.904466 
L 786.972483 195.904466 
L 794.372205 195.904466 
L 801.771928 195.812706 
L 809.171651 195.812706 
L 816.571373 195.812706 
" style="fill:none;stroke:#0000ff;stroke-dasharray:5.55,2.4;stroke-dashoffset:0;stroke-width:1.5;"/>
   </g>
   <g id="line2d_63">
    <path clip-path="url(#pfe1aebb2f9)" d="M 83.998836 334.111287 
L 91.398559 330.955818 
L 98.798281 317.89936 
L 106.198004 316.420179 
L 113.597726 313.604258 
L 120.997449 312.26164 
L 128.397172 309.694332 
L 135.796894 302.261885 
L 143.196617 286.542151 
L 150.596339 281.689195 
L 157.996062 276.150999 
L 165.395785 271.237253 
L 172.795507 268.728997 
L 180.19523 264.327384 
L 187.594952 260.936813 
L 194.994675 257.601537 
L 202.394398 256.116061 
L 209.79412 254.152752 
L 217.193843 253.460172 
L 224.593565 252.441488 
L 231.993288 251.940928 
L 239.393011 251.446046 
L 246.792733 250.633515 
L 254.192456 249.520808 
L 261.592178 248.282948 
L 268.991901 214.735574 
L 276.391624 213.070572 
L 283.791346 211.664058 
L 291.191069 210.237637 
L 298.590791 208.548459 
L 305.990514 206.393372 
L 313.390237 204.675369 
L 320.789959 203.731045 
L 328.189682 198.070018 
L 335.589404 192.419137 
L 342.989127 188.372528 
L 350.38885 184.740636 
L 357.788572 181.158068 
L 365.188295 176.73826 
L 372.588017 172.887577 
L 379.98774 161.377699 
L 387.387463 159.027423 
L 394.787185 156.220132 
L 402.186908 154.108075 
L 409.58663 151.658236 
L 416.986353 145.211736 
L 424.386076 143.867376 
L 431.785798 142.522647 
L 439.185521 141.191905 
L 446.585243 139.748127 
L 453.984966 138.683429 
L 461.384688 137.692453 
L 468.784411 136.534604 
L 476.184134 135.475617 
L 483.583856 134.599198 
L 490.983579 133.88391 
L 498.383301 132.973399 
L 505.783024 132.060232 
L 513.182747 131.259629 
L 520.582469 130.319946 
L 527.982192 129.560411 
L 535.381914 128.73499 
L 542.781637 127.664579 
L 550.18136 126.789062 
L 557.581082 126.106647 
L 564.980805 125.425608 
L 572.380527 124.773024 
L 579.78025 123.961954 
L 587.179973 123.148348 
L 594.579695 122.375174 
L 601.979418 121.52351 
L 609.37914 120.671771 
L 616.778863 120.086103 
L 624.178586 119.127127 
L 631.578308 118.437036 
L 638.978031 117.528492 
L 646.377753 116.750616 
L 653.777476 115.979011 
L 661.177199 115.199138 
L 668.576921 114.696381 
L 675.976644 114.227601 
L 683.376366 113.686982 
L 690.776089 113.208157 
L 698.175812 112.823371 
L 705.575534 112.205243 
L 712.975257 111.769024 
L 720.374979 111.390049 
L 727.774702 110.935652 
L 735.174425 110.602808 
L 742.574147 110.175805 
L 749.97387 109.403656 
L 757.373592 108.863047 
L 764.773315 107.935863 
L 772.173038 107.328509 
L 779.57276 106.878477 
L 786.972483 106.480338 
L 794.372205 105.886941 
L 801.771928 105.503491 
L 809.171651 105.129116 
L 816.571373 104.792059 
" style="fill:none;stroke:#ff0000;stroke-dasharray:9.6,2.4,1.5,2.4;stroke-dashoffset:0;stroke-width:1.5;"/>
   </g>
   <g id="line2d_64">
    <path clip-path="url(#pfe1aebb2f9)" d="M 83.998836 348.142508 
L 91.398559 346.663328 
L 98.798281 341.202255 
L 106.198004 339.937481 
L 113.597726 331.982492 
L 120.997449 331.982492 
L 128.397172 331.982492 
L 135.796894 331.982492 
L 143.196617 302.261885 
L 150.596339 301.739344 
L 157.996062 299.709599 
L 165.395785 292.003225 
L 172.795507 285.099652 
L 180.19523 277.322389 
L 187.594952 275.010238 
L 194.994675 269.219245 
L 202.394398 267.055249 
L 209.79412 266.588596 
L 217.193843 263.888871 
L 224.593565 262.38788 
L 231.993288 259.335472 
L 239.393011 256.482715 
L 246.792733 252.273996 
L 254.192456 249.83584 
L 261.592178 248.435774 
L 268.991901 273.62499 
L 276.391624 258.556315 
L 283.791346 250.956714 
L 291.191069 241.383097 
L 298.590791 228.506656 
L 305.990514 217.887508 
L 313.390237 208.732948 
L 320.789959 203.896212 
L 328.189682 202.538553 
L 335.589404 201.84892 
L 342.989127 201.014837 
L 350.38885 200.348692 
L 357.788572 199.592492 
L 365.188295 198.996829 
L 372.588017 198.506581 
L 379.98774 197.781385 
L 387.387463 197.351983 
L 394.787185 196.180908 
L 402.186908 192.546529 
L 409.58663 190.959749 
L 416.986353 188.682799 
L 424.386076 185.930172 
L 431.785798 184.17536 
L 439.185521 182.6915 
L 446.585243 180.669467 
L 453.984966 178.336005 
L 461.384688 176.472663 
L 468.784411 173.295988 
L 476.184134 170.694305 
L 483.583856 161.107919 
L 490.983579 159.34417 
L 498.383301 158.264852 
L 505.783024 157.117088 
L 513.182747 155.906831 
L 520.582469 154.6578 
L 527.982192 153.339523 
L 535.381914 151.409054 
L 542.781637 149.927113 
L 550.18136 146.273668 
L 557.581082 145.514584 
L 564.980805 143.881313 
L 572.380527 141.732609 
L 579.78025 139.143696 
L 587.179973 138.844592 
L 594.579695 137.77721 
L 601.979418 136.830093 
L 609.37914 135.59074 
L 616.778863 134.150771 
L 624.178586 133.027714 
L 631.578308 131.922241 
L 638.978031 131.113739 
L 646.377753 129.771751 
L 653.777476 128.62676 
L 661.177199 127.703047 
L 668.576921 126.921165 
L 675.976644 125.86615 
L 683.376366 124.782021 
L 690.776089 123.820894 
L 698.175812 122.717117 
L 705.575534 121.909336 
L 712.975257 120.909904 
L 720.374979 120.304808 
L 727.774702 119.484277 
L 735.174425 118.507115 
L 742.574147 117.520873 
L 749.97387 116.698251 
L 757.373592 116.059981 
L 764.773315 115.380107 
L 772.173038 114.832272 
L 779.57276 114.29123 
L 786.972483 113.700939 
L 794.372205 113.111642 
L 801.771928 112.380959 
L 809.171651 111.795742 
L 816.571373 111.086592 
" style="fill:none;stroke:#ff0000;stroke-dasharray:9.6,2.4,1.5,2.4;stroke-dashoffset:0;stroke-width:1.5;"/>
   </g>
   <g id="line2d_65">
    <path clip-path="url(#pfe1aebb2f9)" d="M 83.998836 356.399447 
L 91.398559 356.399447 
L 98.798281 352.907052 
L 106.198004 349.6736 
L 113.597726 336.349298 
L 120.997449 335.215945 
L 128.397172 335.215945 
L 135.796894 334.111287 
L 143.196617 327.074893 
L 150.596339 326.156299 
L 157.996062 317.153502 
L 165.395785 311.605513 
L 172.795507 295.013497 
L 180.19523 291.589651 
L 187.594952 283.70332 
L 194.994675 283.021562 
L 202.394398 282.350293 
L 209.79412 282.018491 
L 217.193843 279.763957 
L 224.593565 279.451184 
L 231.993288 278.832285 
L 239.393011 278.526097 
L 246.792733 278.526097 
L 254.192456 277.322389 
L 261.592178 276.440912 
L 268.991901 276.150999 
L 276.391624 274.729648 
L 283.791346 274.173823 
L 291.191069 271.756684 
L 298.590791 270.469521 
L 305.990514 269.466451 
L 313.390237 266.357128 
L 320.789959 244.486499 
L 328.189682 235.769064 
L 335.589404 230.186904 
L 342.989127 222.874813 
L 350.38885 216.246466 
L 357.788572 210.750956 
L 365.188295 206.160359 
L 372.588017 203.896212 
L 379.98774 200.757423 
L 387.387463 198.070018 
L 394.787185 196.552243 
L 402.186908 196.088566 
L 409.58663 195.584148 
L 416.986353 194.503433 
L 424.386076 193.710109 
L 431.785798 191.829512 
L 439.185521 189.946428 
L 446.585243 187.758529 
L 453.984966 185.38545 
L 461.384688 183.965255 
L 468.784411 181.158068 
L 476.184134 179.80354 
L 483.583856 177.424447 
L 490.983579 175.743264 
L 498.383301 162.8167 
L 505.783024 161.087235 
L 513.182747 159.047153 
L 520.582469 157.782943 
L 527.982192 154.020054 
L 535.381914 153.287612 
L 542.781637 152.295941 
L 550.18136 150.718822 
L 557.581082 149.639852 
L 564.980805 147.89373 
L 572.380527 147.181299 
L 579.78025 146.258945 
L 587.179973 145.341271 
L 594.579695 144.245263 
L 601.979418 143.080204 
L 609.37914 140.657819 
L 616.778863 139.470056 
L 624.178586 138.559862 
L 631.578308 137.801457 
L 638.978031 136.984541 
L 646.377753 136.241104 
L 653.777476 135.326409 
L 661.177199 134.893168 
L 668.576921 134.184243 
L 675.976644 133.762142 
L 683.376366 133.431764 
L 690.776089 133.092982 
L 698.175812 132.778421 
L 705.575534 132.326832 
L 712.975257 132.017727 
L 720.374979 131.637032 
L 727.774702 131.364136 
L 735.174425 131.124143 
L 742.574147 130.730503 
L 749.97387 130.085613 
L 757.373592 129.130834 
L 764.773315 127.272232 
L 772.173038 126.666753 
L 779.57276 126.236697 
L 786.972483 125.884602 
L 794.372205 125.636146 
L 801.771928 125.389096 
L 809.171651 125.152511 
L 816.571373 124.890132 
" style="fill:none;stroke:#ff0000;stroke-dasharray:9.6,2.4,1.5,2.4;stroke-dashoffset:0;stroke-width:1.5;"/>
   </g>
   <g id="line2d_66">
    <path clip-path="url(#pfe1aebb2f9)" d="M 83.998836 358.256393 
L 91.398559 356.399447 
L 98.798281 356.399447 
L 106.198004 351.26038 
L 113.597726 349.6736 
L 120.997449 348.142508 
L 128.397172 341.202255 
L 135.796894 335.215945 
L 143.196617 328.013244 
L 150.596339 327.074893 
L 157.996062 324.375168 
L 165.395785 315.698979 
L 172.795507 314.291384 
L 180.19523 310.322137 
L 187.594952 309.694332 
L 194.994675 304.972796 
L 202.394398 294.13202 
L 209.79412 282.018491 
L 217.193843 281.037964 
L 224.593565 280.715958 
L 231.993288 280.078988 
L 239.393011 279.451184 
L 246.792733 279.140637 
L 254.192456 279.140637 
L 261.592178 278.832285 
L 268.991901 277.920092 
L 276.391624 275.576891 
L 283.791346 275.292644 
L 291.191069 275.010238 
L 298.590791 273.62499 
L 305.990514 273.62499 
L 313.390237 268.485923 
L 320.789959 267.055249 
L 328.189682 263.671256 
L 335.589404 257.03854 
L 342.989127 254.856503 
L 350.38885 253.117961 
L 357.788572 252.273996 
L 365.188295 249.364142 
L 372.588017 247.227901 
L 379.98774 245.619852 
L 387.387463 231.413166 
L 394.787185 229.092324 
L 402.186908 227.833166 
L 409.58663 226.055855 
L 416.986353 224.43635 
L 424.386076 223.38914 
L 431.785798 206.27671 
L 439.185521 205.468694 
L 446.585243 204.117412 
L 453.984966 203.130725 
L 461.384688 190.836901 
L 468.784411 189.231139 
L 476.184134 187.720439 
L 483.583856 186.334002 
L 490.983579 185.38545 
L 498.383301 183.895445 
L 505.783024 183.066315 
L 513.182747 181.619086 
L 520.582469 180.831726 
L 527.982192 179.89891 
L 535.381914 179.047995 
L 542.781637 177.938656 
L 550.18136 177.184548 
L 557.581082 176.590507 
L 564.980805 176.033562 
L 572.380527 175.340064 
L 579.78025 174.968972 
L 587.179973 174.629204 
L 594.579695 174.236123 
L 601.979418 173.791182 
L 609.37914 173.323352 
L 616.778863 172.590486 
L 624.178586 171.816808 
L 631.578308 171.500635 
L 638.978031 170.797514 
L 646.377753 170.258369 
L 653.777476 169.852018 
L 661.177199 169.27444 
L 668.576921 168.901836 
L 675.976644 168.507868 
L 683.376366 167.9477 
L 690.776089 166.919337 
L 698.175812 166.309095 
L 705.575534 165.52375 
L 712.975257 164.752292 
L 720.374979 164.038466 
L 727.774702 163.357908 
L 735.174425 162.709259 
L 742.574147 161.901243 
L 749.97387 160.901524 
L 757.373592 160.267838 
L 764.773315 159.583248 
L 772.173038 159.30445 
L 779.57276 159.12616 
L 786.972483 158.752144 
L 794.372205 157.458258 
L 801.771928 157.173765 
L 809.171651 156.909901 
L 816.571373 156.591626 
" style="fill:none;stroke:#ff0000;stroke-dasharray:9.6,2.4,1.5,2.4;stroke-dashoffset:0;stroke-width:1.5;"/>
   </g>
   <g id="line2d_67">
    <path clip-path="url(#pfe1aebb2f9)" d="M 83.998836 362.225641 
L 91.398559 362.225641 
L 98.798281 358.256393 
L 106.198004 354.618316 
L 113.597726 349.6736 
L 120.997449 348.142508 
L 128.397172 341.202255 
L 135.796894 337.512877 
L 143.196617 330.955818 
L 150.596339 328.013244 
L 157.996062 326.156299 
L 165.395785 316.420179 
L 172.795507 314.989506 
L 180.19523 312.26164 
L 187.594952 312.26164 
L 194.994675 309.694332 
L 202.394398 303.326124 
L 209.79412 301.222987 
L 217.193843 301.222987 
L 224.593565 297.770096 
L 231.993288 296.831745 
L 239.393011 295.013497 
L 246.792733 295.013497 
L 254.192456 289.578621 
L 261.592178 283.361109 
L 268.991901 283.361109 
L 276.391624 281.689195 
L 283.791346 281.037964 
L 291.191069 279.140637 
L 298.590791 274.729648 
L 305.990514 273.62499 
L 313.390237 272.814472 
L 320.789959 268.003801 
L 328.189682 266.357128 
L 335.589404 260.329402 
L 342.989127 258.171893 
L 350.38885 256.116061 
L 357.788572 255.752462 
L 365.188295 253.117961 
L 372.588017 250.153162 
L 379.98774 246.783432 
L 387.387463 244.068968 
L 394.787185 239.973435 
L 402.186908 237.165396 
L 409.58663 234.75038 
L 416.986353 233.974193 
L 424.386076 233.428108 
L 431.785798 221.614909 
L 439.185521 220.149529 
L 446.585243 218.422872 
L 453.984966 216.836092 
L 461.384688 202.699259 
L 468.784411 201.901584 
L 476.184134 201.170018 
L 483.583856 193.01684 
L 490.983579 192.546529 
L 498.383301 191.829512 
L 505.783024 191.289046 
L 513.182747 191.206489 
L 520.582469 190.877812 
L 527.982192 190.673639 
L 535.381914 190.429886 
L 542.781637 189.946428 
L 550.18136 189.627074 
L 557.581082 189.113056 
L 564.980805 188.064449 
L 572.380527 187.720439 
L 579.78025 187.530488 
L 587.179973 187.190647 
L 594.579695 187.040452 
L 601.979418 186.741604 
L 609.37914 186.592944 
L 616.778863 186.370899 
L 624.178586 185.96673 
L 631.578308 185.241332 
L 638.978031 185.026044 
L 646.377753 184.918797 
L 653.777476 184.811813 
L 661.177199 184.315994 
L 668.576921 183.895445 
L 675.976644 183.721405 
L 683.376366 183.617314 
L 690.776089 183.47891 
L 698.175812 183.47891 
L 705.575534 183.47891 
L 712.975257 183.237756 
L 720.374979 183.100549 
L 727.774702 182.963773 
L 735.174425 182.861471 
L 742.574147 182.6915 
L 749.97387 182.623696 
L 757.373592 182.522188 
L 764.773315 182.387209 
L 772.173038 182.05158 
L 779.57276 181.884728 
L 786.972483 181.685345 
L 794.372205 181.387968 
L 801.771928 181.289291 
L 809.171651 181.190837 
L 816.571373 181.059909 
" style="fill:none;stroke:#ff0000;stroke-dasharray:9.6,2.4,1.5,2.4;stroke-dashoffset:0;stroke-width:1.5;"/>
   </g>
   <g id="patch_3">
    <path d="M 47.370209 464.82 
L 47.370209 27.6 
" style="fill:none;"/>
   </g>
   <g id="patch_4">
    <path d="M 853.2 464.82 
L 853.2 27.6 
" style="fill:none;"/>
   </g>
   <g id="patch_5">
    <path d="M 47.370209 464.82 
L 853.2 464.82 
" style="fill:none;"/>
   </g>
   <g id="patch_6">
    <path d="M 47.370209 27.6 
L 853.2 27.6 
" style="fill:none;"/>
   </g>
   <g id="text_14">
    <!-- Size of the top 5 clusters -->
    <defs>
     <path d="M 53.515625 70.515625 
L 53.515625 60.890625 
Q 47.90625 63.578125 42.921875 64.890625 
Q 37.9375 66.21875 33.296875 66.21875 
Q 25.25 66.21875 20.875 63.09375 
Q 16.5 59.96875 16.5 54.203125 
Q 16.5 49.359375 19.40625 46.890625 
Q 22.3125 44.4375 30.421875 42.921875 
L 36.375 41.703125 
Q 47.40625 39.59375 52.65625 34.296875 
Q 57.90625 29 57.90625 20.125 
Q 57.90625 9.515625 50.796875 4.046875 
Q 43.703125 -1.421875 29.984375 -1.421875 
Q 24.8125 -1.421875 18.96875 -0.25 
Q 13.140625 0.921875 6.890625 3.21875 
L 6.890625 13.375 
Q 12.890625 10.015625 18.65625 8.296875 
Q 24.421875 6.59375 29.984375 6.59375 
Q 38.421875 6.59375 43.015625 9.90625 
Q 47.609375 13.234375 47.609375 19.390625 
Q 47.609375 24.75 44.3125 27.78125 
Q 41.015625 30.8125 33.5 32.328125 
L 27.484375 33.5 
Q 16.453125 35.6875 11.515625 40.375 
Q 6.59375 45.0625 6.59375 53.421875 
Q 6.59375 63.09375 13.40625 68.65625 
Q 20.21875 74.21875 32.171875 74.21875 
Q 37.3125 74.21875 42.625 73.28125 
Q 47.953125 72.359375 53.515625 70.515625 
z
" id="DejaVuSans-83"/>
     <path d="M 5.515625 54.6875 
L 48.1875 54.6875 
L 48.1875 46.484375 
L 14.40625 7.171875 
L 48.1875 7.171875 
L 48.1875 0 
L 4.296875 0 
L 4.296875 8.203125 
L 38.09375 47.515625 
L 5.515625 47.515625 
z
" id="DejaVuSans-122"/>
     <path d="M 54.890625 33.015625 
L 54.890625 0 
L 45.90625 0 
L 45.90625 32.71875 
Q 45.90625 40.484375 42.875 44.328125 
Q 39.84375 48.1875 33.796875 48.1875 
Q 26.515625 48.1875 22.3125 43.546875 
Q 18.109375 38.921875 18.109375 30.90625 
L 18.109375 0 
L 9.078125 0 
L 9.078125 75.984375 
L 18.109375 75.984375 
L 18.109375 46.1875 
Q 21.34375 51.125 25.703125 53.5625 
Q 30.078125 56 35.796875 56 
Q 45.21875 56 50.046875 50.171875 
Q 54.890625 44.34375 54.890625 33.015625 
z
" id="DejaVuSans-104"/>
     <path d="M 10.796875 72.90625 
L 49.515625 72.90625 
L 49.515625 64.59375 
L 19.828125 64.59375 
L 19.828125 46.734375 
Q 21.96875 47.46875 24.109375 47.828125 
Q 26.265625 48.1875 28.421875 48.1875 
Q 40.625 48.1875 47.75 41.5 
Q 54.890625 34.8125 54.890625 23.390625 
Q 54.890625 11.625 47.5625 5.09375 
Q 40.234375 -1.421875 26.90625 -1.421875 
Q 22.3125 -1.421875 17.546875 -0.640625 
Q 12.796875 0.140625 7.71875 1.703125 
L 7.71875 11.625 
Q 12.109375 9.234375 16.796875 8.0625 
Q 21.484375 6.890625 26.703125 6.890625 
Q 35.15625 6.890625 40.078125 11.328125 
Q 45.015625 15.765625 45.015625 23.390625 
Q 45.015625 31 40.078125 35.4375 
Q 35.15625 39.890625 26.703125 39.890625 
Q 22.75 39.890625 18.8125 39.015625 
Q 14.890625 38.140625 10.796875 36.28125 
z
" id="DejaVuSans-53"/>
     <path d="M 8.5 21.578125 
L 8.5 54.6875 
L 17.484375 54.6875 
L 17.484375 21.921875 
Q 17.484375 14.15625 20.5 10.265625 
Q 23.53125 6.390625 29.59375 6.390625 
Q 36.859375 6.390625 41.078125 11.03125 
Q 45.3125 15.671875 45.3125 23.6875 
L 45.3125 54.6875 
L 54.296875 54.6875 
L 54.296875 0 
L 45.3125 0 
L 45.3125 8.40625 
Q 42.046875 3.421875 37.71875 1 
Q 33.40625 -1.421875 27.6875 -1.421875 
Q 18.265625 -1.421875 13.375 4.4375 
Q 8.5 10.296875 8.5 21.578125 
z
M 31.109375 56 
z
" id="DejaVuSans-117"/>
    </defs>
    <g style="fill:#262626;" transform="translate(360.69123 21.6)scale(0.144 -0.144)">
     <use xlink:href="#DejaVuSans-83"/>
     <use x="63.476562" xlink:href="#DejaVuSans-105"/>
     <use x="91.259766" xlink:href="#DejaVuSans-122"/>
     <use x="143.75" xlink:href="#DejaVuSans-101"/>
     <use x="205.273438" xlink:href="#DejaVuSans-32"/>
     <use x="237.060547" xlink:href="#DejaVuSans-111"/>
     <use x="298.242188" xlink:href="#DejaVuSans-102"/>
     <use x="333.447266" xlink:href="#DejaVuSans-32"/>
     <use x="365.234375" xlink:href="#DejaVuSans-116"/>
     <use x="404.443359" xlink:href="#DejaVuSans-104"/>
     <use x="467.822266" xlink:href="#DejaVuSans-101"/>
     <use x="529.345703" xlink:href="#DejaVuSans-32"/>
     <use x="561.132812" xlink:href="#DejaVuSans-116"/>
     <use x="600.341797" xlink:href="#DejaVuSans-111"/>
     <use x="661.523438" xlink:href="#DejaVuSans-112"/>
     <use x="725" xlink:href="#DejaVuSans-32"/>
     <use x="756.787109" xlink:href="#DejaVuSans-53"/>
     <use x="820.410156" xlink:href="#DejaVuSans-32"/>
     <use x="852.197266" xlink:href="#DejaVuSans-99"/>
     <use x="907.177734" xlink:href="#DejaVuSans-108"/>
     <use x="934.960938" xlink:href="#DejaVuSans-117"/>
     <use x="998.339844" xlink:href="#DejaVuSans-115"/>
     <use x="1050.439453" xlink:href="#DejaVuSans-116"/>
     <use x="1089.648438" xlink:href="#DejaVuSans-101"/>
     <use x="1151.171875" xlink:href="#DejaVuSans-114"/>
     <use x="1192.285156" xlink:href="#DejaVuSans-115"/>
    </g>
   </g>
   <g id="legend_1">
    <g id="line2d_68">
     <path d="M 56.370209 40.698437 
L 76.370209 40.698437 
" style="fill:none;stroke:#0000ff;stroke-dasharray:5.55,2.4;stroke-dashoffset:0;stroke-width:1.5;"/>
    </g>
    <g id="line2d_69"/>
    <g id="text_15">
     <!-- New SP -->
     <defs>
      <path d="M 4.203125 54.6875 
L 13.1875 54.6875 
L 24.421875 12.015625 
L 35.59375 54.6875 
L 46.1875 54.6875 
L 57.421875 12.015625 
L 68.609375 54.6875 
L 77.59375 54.6875 
L 63.28125 0 
L 52.6875 0 
L 40.921875 44.828125 
L 29.109375 0 
L 18.5 0 
z
" id="DejaVuSans-119"/>
      <path d="M 19.671875 64.796875 
L 19.671875 37.40625 
L 32.078125 37.40625 
Q 38.96875 37.40625 42.71875 40.96875 
Q 46.484375 44.53125 46.484375 51.125 
Q 46.484375 57.671875 42.71875 61.234375 
Q 38.96875 64.796875 32.078125 64.796875 
z
M 9.8125 72.90625 
L 32.078125 72.90625 
Q 44.34375 72.90625 50.609375 67.359375 
Q 56.890625 61.8125 56.890625 51.125 
Q 56.890625 40.328125 50.609375 34.8125 
Q 44.34375 29.296875 32.078125 29.296875 
L 19.671875 29.296875 
L 19.671875 0 
L 9.8125 0 
z
" id="DejaVuSans-80"/>
     </defs>
     <g style="fill:#262626;" transform="translate(84.370209 44.198437)scale(0.1 -0.1)">
      <use xlink:href="#DejaVuSans-78"/>
      <use x="74.804688" xlink:href="#DejaVuSans-101"/>
      <use x="136.328125" xlink:href="#DejaVuSans-119"/>
      <use x="218.115234" xlink:href="#DejaVuSans-32"/>
      <use x="249.902344" xlink:href="#DejaVuSans-83"/>
      <use x="313.378906" xlink:href="#DejaVuSans-80"/>
     </g>
    </g>
    <g id="line2d_70">
     <path d="M 56.370209 55.376562 
L 76.370209 55.376562 
" style="fill:none;stroke:#ff0000;stroke-dasharray:9.6,2.4,1.5,2.4;stroke-dashoffset:0;stroke-width:1.5;"/>
    </g>
    <g id="line2d_71"/>
    <g id="text_16">
     <!-- Old SP -->
     <defs>
      <path d="M 39.40625 66.21875 
Q 28.65625 66.21875 22.328125 58.203125 
Q 16.015625 50.203125 16.015625 36.375 
Q 16.015625 22.609375 22.328125 14.59375 
Q 28.65625 6.59375 39.40625 6.59375 
Q 50.140625 6.59375 56.421875 14.59375 
Q 62.703125 22.609375 62.703125 36.375 
Q 62.703125 50.203125 56.421875 58.203125 
Q 50.140625 66.21875 39.40625 66.21875 
z
M 39.40625 74.21875 
Q 54.734375 74.21875 63.90625 63.9375 
Q 73.09375 53.65625 73.09375 36.375 
Q 73.09375 19.140625 63.90625 8.859375 
Q 54.734375 -1.421875 39.40625 -1.421875 
Q 24.03125 -1.421875 14.8125 8.828125 
Q 5.609375 19.09375 5.609375 36.375 
Q 5.609375 53.65625 14.8125 63.9375 
Q 24.03125 74.21875 39.40625 74.21875 
z
" id="DejaVuSans-79"/>
      <path d="M 45.40625 46.390625 
L 45.40625 75.984375 
L 54.390625 75.984375 
L 54.390625 0 
L 45.40625 0 
L 45.40625 8.203125 
Q 42.578125 3.328125 38.25 0.953125 
Q 33.9375 -1.421875 27.875 -1.421875 
Q 17.96875 -1.421875 11.734375 6.484375 
Q 5.515625 14.40625 5.515625 27.296875 
Q 5.515625 40.1875 11.734375 48.09375 
Q 17.96875 56 27.875 56 
Q 33.9375 56 38.25 53.625 
Q 42.578125 51.265625 45.40625 46.390625 
z
M 14.796875 27.296875 
Q 14.796875 17.390625 18.875 11.75 
Q 22.953125 6.109375 30.078125 6.109375 
Q 37.203125 6.109375 41.296875 11.75 
Q 45.40625 17.390625 45.40625 27.296875 
Q 45.40625 37.203125 41.296875 42.84375 
Q 37.203125 48.484375 30.078125 48.484375 
Q 22.953125 48.484375 18.875 42.84375 
Q 14.796875 37.203125 14.796875 27.296875 
z
" id="DejaVuSans-100"/>
     </defs>
     <g style="fill:#262626;" transform="translate(84.370209 58.876562)scale(0.1 -0.1)">
      <use xlink:href="#DejaVuSans-79"/>
      <use x="78.710938" xlink:href="#DejaVuSans-108"/>
      <use x="106.494141" xlink:href="#DejaVuSans-100"/>
      <use x="169.970703" xlink:href="#DejaVuSans-32"/>
      <use x="201.757812" xlink:href="#DejaVuSans-83"/>
      <use x="265.234375" xlink:href="#DejaVuSans-80"/>
     </g>
    </g>
   </g>
  </g>
 </g>
 <defs>
  <clipPath id="pfe1aebb2f9">
   <rect height="437.22" width="805.829791" x="47.370209" y="27.6"/>
  </clipPath>
 </defs>
</svg>
