<?xml version="1.0" encoding="utf-8" standalone="no"?>
<!DOCTYPE svg PUBLIC "-//W3C//DTD SVG 1.1//EN"
  "http://www.w3.org/Graphics/SVG/1.1/DTD/svg11.dtd">
<!-- Created with matplotlib (https://matplotlib.org/) -->
<svg height="504pt" version="1.1" viewBox="0 0 864 504" width="864pt" xmlns="http://www.w3.org/2000/svg" xmlns:xlink="http://www.w3.org/1999/xlink">
 <defs>
  <style type="text/css">
*{stroke-linecap:butt;stroke-linejoin:round;}
  </style>
 </defs>
 <g id="figure_1">
  <g id="patch_1">
   <path d="M 0 504 
L 864 504 
L 864 0 
L 0 0 
z
" style="fill:#ffffff;"/>
  </g>
  <g id="axes_1">
   <g id="patch_2">
    <path d="M 53.94 465.54 
L 853.2 465.54 
L 853.2 25.44 
L 53.94 25.44 
z
" style="fill:#eaeaf2;"/>
   </g>
   <g id="matplotlib.axis_1">
    <g id="xtick_1">
     <g id="line2d_1">
      <path clip-path="url(#p0369c25ca1)" d="M 82.279675 465.54 
L 82.279675 25.44 
" style="fill:none;stroke:#ffffff;stroke-linecap:round;stroke-width:0.8;"/>
     </g>
     <g id="line2d_2"/>
     <g id="text_1">
      <!-- 0.0 -->
      <defs>
       <path d="M 31.78125 66.40625 
Q 24.171875 66.40625 20.328125 58.90625 
Q 16.5 51.421875 16.5 36.375 
Q 16.5 21.390625 20.328125 13.890625 
Q 24.171875 6.390625 31.78125 6.390625 
Q 39.453125 6.390625 43.28125 13.890625 
Q 47.125 21.390625 47.125 36.375 
Q 47.125 51.421875 43.28125 58.90625 
Q 39.453125 66.40625 31.78125 66.40625 
z
M 31.78125 74.21875 
Q 44.046875 74.21875 50.515625 64.515625 
Q 56.984375 54.828125 56.984375 36.375 
Q 56.984375 17.96875 50.515625 8.265625 
Q 44.046875 -1.421875 31.78125 -1.421875 
Q 19.53125 -1.421875 13.0625 8.265625 
Q 6.59375 17.96875 6.59375 36.375 
Q 6.59375 54.828125 13.0625 64.515625 
Q 19.53125 74.21875 31.78125 74.21875 
z
" id="DejaVuSans-48"/>
       <path d="M 10.6875 12.40625 
L 21 12.40625 
L 21 0 
L 10.6875 0 
z
" id="DejaVuSans-46"/>
      </defs>
      <g style="fill:#262626;" transform="translate(74.328113 476.638438)scale(0.1 -0.1)">
       <use xlink:href="#DejaVuSans-48"/>
       <use x="63.623047" xlink:href="#DejaVuSans-46"/>
       <use x="95.410156" xlink:href="#DejaVuSans-48"/>
      </g>
     </g>
    </g>
    <g id="xtick_2">
     <g id="line2d_3">
      <path clip-path="url(#p0369c25ca1)" d="M 221.746652 465.54 
L 221.746652 25.44 
" style="fill:none;stroke:#ffffff;stroke-linecap:round;stroke-width:0.8;"/>
     </g>
     <g id="line2d_4"/>
     <g id="text_2">
      <!-- 0.5 -->
      <defs>
       <path d="M 10.796875 72.90625 
L 49.515625 72.90625 
L 49.515625 64.59375 
L 19.828125 64.59375 
L 19.828125 46.734375 
Q 21.96875 47.46875 24.109375 47.828125 
Q 26.265625 48.1875 28.421875 48.1875 
Q 40.625 48.1875 47.75 41.5 
Q 54.890625 34.8125 54.890625 23.390625 
Q 54.890625 11.625 47.5625 5.09375 
Q 40.234375 -1.421875 26.90625 -1.421875 
Q 22.3125 -1.421875 17.546875 -0.640625 
Q 12.796875 0.140625 7.71875 1.703125 
L 7.71875 11.625 
Q 12.109375 9.234375 16.796875 8.0625 
Q 21.484375 6.890625 26.703125 6.890625 
Q 35.15625 6.890625 40.078125 11.328125 
Q 45.015625 15.765625 45.015625 23.390625 
Q 45.015625 31 40.078125 35.4375 
Q 35.15625 39.890625 26.703125 39.890625 
Q 22.75 39.890625 18.8125 39.015625 
Q 14.890625 38.140625 10.796875 36.28125 
z
" id="DejaVuSans-53"/>
      </defs>
      <g style="fill:#262626;" transform="translate(213.79509 476.638438)scale(0.1 -0.1)">
       <use xlink:href="#DejaVuSans-48"/>
       <use x="63.623047" xlink:href="#DejaVuSans-46"/>
       <use x="95.410156" xlink:href="#DejaVuSans-53"/>
      </g>
     </g>
    </g>
    <g id="xtick_3">
     <g id="line2d_5">
      <path clip-path="url(#p0369c25ca1)" d="M 361.213629 465.54 
L 361.213629 25.44 
" style="fill:none;stroke:#ffffff;stroke-linecap:round;stroke-width:0.8;"/>
     </g>
     <g id="line2d_6"/>
     <g id="text_3">
      <!-- 1.0 -->
      <defs>
       <path d="M 12.40625 8.296875 
L 28.515625 8.296875 
L 28.515625 63.921875 
L 10.984375 60.40625 
L 10.984375 69.390625 
L 28.421875 72.90625 
L 38.28125 72.90625 
L 38.28125 8.296875 
L 54.390625 8.296875 
L 54.390625 0 
L 12.40625 0 
z
" id="DejaVuSans-49"/>
      </defs>
      <g style="fill:#262626;" transform="translate(353.262066 476.638438)scale(0.1 -0.1)">
       <use xlink:href="#DejaVuSans-49"/>
       <use x="63.623047" xlink:href="#DejaVuSans-46"/>
       <use x="95.410156" xlink:href="#DejaVuSans-48"/>
      </g>
     </g>
    </g>
    <g id="xtick_4">
     <g id="line2d_7">
      <path clip-path="url(#p0369c25ca1)" d="M 500.680606 465.54 
L 500.680606 25.44 
" style="fill:none;stroke:#ffffff;stroke-linecap:round;stroke-width:0.8;"/>
     </g>
     <g id="line2d_8"/>
     <g id="text_4">
      <!-- 1.5 -->
      <g style="fill:#262626;" transform="translate(492.729043 476.638438)scale(0.1 -0.1)">
       <use xlink:href="#DejaVuSans-49"/>
       <use x="63.623047" xlink:href="#DejaVuSans-46"/>
       <use x="95.410156" xlink:href="#DejaVuSans-53"/>
      </g>
     </g>
    </g>
    <g id="xtick_5">
     <g id="line2d_9">
      <path clip-path="url(#p0369c25ca1)" d="M 640.147582 465.54 
L 640.147582 25.44 
" style="fill:none;stroke:#ffffff;stroke-linecap:round;stroke-width:0.8;"/>
     </g>
     <g id="line2d_10"/>
     <g id="text_5">
      <!-- 2.0 -->
      <defs>
       <path d="M 19.1875 8.296875 
L 53.609375 8.296875 
L 53.609375 0 
L 7.328125 0 
L 7.328125 8.296875 
Q 12.9375 14.109375 22.625 23.890625 
Q 32.328125 33.6875 34.8125 36.53125 
Q 39.546875 41.84375 41.421875 45.53125 
Q 43.3125 49.21875 43.3125 52.78125 
Q 43.3125 58.59375 39.234375 62.25 
Q 35.15625 65.921875 28.609375 65.921875 
Q 23.96875 65.921875 18.8125 64.3125 
Q 13.671875 62.703125 7.8125 59.421875 
L 7.8125 69.390625 
Q 13.765625 71.78125 18.9375 73 
Q 24.125 74.21875 28.421875 74.21875 
Q 39.75 74.21875 46.484375 68.546875 
Q 53.21875 62.890625 53.21875 53.421875 
Q 53.21875 48.921875 51.53125 44.890625 
Q 49.859375 40.875 45.40625 35.40625 
Q 44.1875 33.984375 37.640625 27.21875 
Q 31.109375 20.453125 19.1875 8.296875 
z
" id="DejaVuSans-50"/>
      </defs>
      <g style="fill:#262626;" transform="translate(632.19602 476.638438)scale(0.1 -0.1)">
       <use xlink:href="#DejaVuSans-50"/>
       <use x="63.623047" xlink:href="#DejaVuSans-46"/>
       <use x="95.410156" xlink:href="#DejaVuSans-48"/>
      </g>
     </g>
    </g>
    <g id="xtick_6">
     <g id="line2d_11">
      <path clip-path="url(#p0369c25ca1)" d="M 779.614559 465.54 
L 779.614559 25.44 
" style="fill:none;stroke:#ffffff;stroke-linecap:round;stroke-width:0.8;"/>
     </g>
     <g id="line2d_12"/>
     <g id="text_6">
      <!-- 2.5 -->
      <g style="fill:#262626;" transform="translate(771.662997 476.638438)scale(0.1 -0.1)">
       <use xlink:href="#DejaVuSans-50"/>
       <use x="63.623047" xlink:href="#DejaVuSans-46"/>
       <use x="95.410156" xlink:href="#DejaVuSans-53"/>
      </g>
     </g>
    </g>
    <g id="text_7">
     <!-- Velocity -->
     <defs>
      <path d="M 28.609375 0 
L 0.78125 72.90625 
L 11.078125 72.90625 
L 34.1875 11.53125 
L 57.328125 72.90625 
L 67.578125 72.90625 
L 39.796875 0 
z
" id="DejaVuSans-86"/>
      <path d="M 56.203125 29.59375 
L 56.203125 25.203125 
L 14.890625 25.203125 
Q 15.484375 15.921875 20.484375 11.0625 
Q 25.484375 6.203125 34.421875 6.203125 
Q 39.59375 6.203125 44.453125 7.46875 
Q 49.3125 8.734375 54.109375 11.28125 
L 54.109375 2.78125 
Q 49.265625 0.734375 44.1875 -0.34375 
Q 39.109375 -1.421875 33.890625 -1.421875 
Q 20.796875 -1.421875 13.15625 6.1875 
Q 5.515625 13.8125 5.515625 26.8125 
Q 5.515625 40.234375 12.765625 48.109375 
Q 20.015625 56 32.328125 56 
Q 43.359375 56 49.78125 48.890625 
Q 56.203125 41.796875 56.203125 29.59375 
z
M 47.21875 32.234375 
Q 47.125 39.59375 43.09375 43.984375 
Q 39.0625 48.390625 32.421875 48.390625 
Q 24.90625 48.390625 20.390625 44.140625 
Q 15.875 39.890625 15.1875 32.171875 
z
" id="DejaVuSans-101"/>
      <path d="M 9.421875 75.984375 
L 18.40625 75.984375 
L 18.40625 0 
L 9.421875 0 
z
" id="DejaVuSans-108"/>
      <path d="M 30.609375 48.390625 
Q 23.390625 48.390625 19.1875 42.75 
Q 14.984375 37.109375 14.984375 27.296875 
Q 14.984375 17.484375 19.15625 11.84375 
Q 23.34375 6.203125 30.609375 6.203125 
Q 37.796875 6.203125 41.984375 11.859375 
Q 46.1875 17.53125 46.1875 27.296875 
Q 46.1875 37.015625 41.984375 42.703125 
Q 37.796875 48.390625 30.609375 48.390625 
z
M 30.609375 56 
Q 42.328125 56 49.015625 48.375 
Q 55.71875 40.765625 55.71875 27.296875 
Q 55.71875 13.875 49.015625 6.21875 
Q 42.328125 -1.421875 30.609375 -1.421875 
Q 18.84375 -1.421875 12.171875 6.21875 
Q 5.515625 13.875 5.515625 27.296875 
Q 5.515625 40.765625 12.171875 48.375 
Q 18.84375 56 30.609375 56 
z
" id="DejaVuSans-111"/>
      <path d="M 48.78125 52.59375 
L 48.78125 44.1875 
Q 44.96875 46.296875 41.140625 47.34375 
Q 37.3125 48.390625 33.40625 48.390625 
Q 24.65625 48.390625 19.8125 42.84375 
Q 14.984375 37.3125 14.984375 27.296875 
Q 14.984375 17.28125 19.8125 11.734375 
Q 24.65625 6.203125 33.40625 6.203125 
Q 37.3125 6.203125 41.140625 7.25 
Q 44.96875 8.296875 48.78125 10.40625 
L 48.78125 2.09375 
Q 45.015625 0.34375 40.984375 -0.53125 
Q 36.96875 -1.421875 32.421875 -1.421875 
Q 20.0625 -1.421875 12.78125 6.34375 
Q 5.515625 14.109375 5.515625 27.296875 
Q 5.515625 40.671875 12.859375 48.328125 
Q 20.21875 56 33.015625 56 
Q 37.15625 56 41.109375 55.140625 
Q 45.0625 54.296875 48.78125 52.59375 
z
" id="DejaVuSans-99"/>
      <path d="M 9.421875 54.6875 
L 18.40625 54.6875 
L 18.40625 0 
L 9.421875 0 
z
M 9.421875 75.984375 
L 18.40625 75.984375 
L 18.40625 64.59375 
L 9.421875 64.59375 
z
" id="DejaVuSans-105"/>
      <path d="M 18.3125 70.21875 
L 18.3125 54.6875 
L 36.8125 54.6875 
L 36.8125 47.703125 
L 18.3125 47.703125 
L 18.3125 18.015625 
Q 18.3125 11.328125 20.140625 9.421875 
Q 21.96875 7.515625 27.59375 7.515625 
L 36.8125 7.515625 
L 36.8125 0 
L 27.59375 0 
Q 17.1875 0 13.234375 3.875 
Q 9.28125 7.765625 9.28125 18.015625 
L 9.28125 47.703125 
L 2.6875 47.703125 
L 2.6875 54.6875 
L 9.28125 54.6875 
L 9.28125 70.21875 
z
" id="DejaVuSans-116"/>
      <path d="M 32.171875 -5.078125 
Q 28.375 -14.84375 24.75 -17.8125 
Q 21.140625 -20.796875 15.09375 -20.796875 
L 7.90625 -20.796875 
L 7.90625 -13.28125 
L 13.1875 -13.28125 
Q 16.890625 -13.28125 18.9375 -11.515625 
Q 21 -9.765625 23.484375 -3.21875 
L 25.09375 0.875 
L 2.984375 54.6875 
L 12.5 54.6875 
L 29.59375 11.921875 
L 46.6875 54.6875 
L 56.203125 54.6875 
z
" id="DejaVuSans-121"/>
     </defs>
     <g style="fill:#262626;" transform="translate(433.954375 490.316562)scale(0.1 -0.1)">
      <use xlink:href="#DejaVuSans-86"/>
      <use x="60.658203" xlink:href="#DejaVuSans-101"/>
      <use x="122.181641" xlink:href="#DejaVuSans-108"/>
      <use x="149.964844" xlink:href="#DejaVuSans-111"/>
      <use x="211.146484" xlink:href="#DejaVuSans-99"/>
      <use x="266.126953" xlink:href="#DejaVuSans-105"/>
      <use x="293.910156" xlink:href="#DejaVuSans-116"/>
      <use x="333.119141" xlink:href="#DejaVuSans-121"/>
     </g>
    </g>
   </g>
   <g id="matplotlib.axis_2">
    <g id="ytick_1">
     <g id="line2d_13">
      <path clip-path="url(#p0369c25ca1)" d="M 53.94 465.54 
L 853.2 465.54 
" style="fill:none;stroke:#ffffff;stroke-linecap:round;stroke-width:0.8;"/>
     </g>
     <g id="line2d_14"/>
     <g id="text_8">
      <!-- 0 -->
      <g style="fill:#262626;" transform="translate(44.0775 469.339219)scale(0.1 -0.1)">
       <use xlink:href="#DejaVuSans-48"/>
      </g>
     </g>
    </g>
    <g id="ytick_2">
     <g id="line2d_15">
      <path clip-path="url(#p0369c25ca1)" d="M 53.94 406.721188 
L 853.2 406.721188 
" style="fill:none;stroke:#ffffff;stroke-linecap:round;stroke-width:0.8;"/>
     </g>
     <g id="line2d_16"/>
     <g id="text_9">
      <!-- 500 -->
      <g style="fill:#262626;" transform="translate(31.3525 410.520406)scale(0.1 -0.1)">
       <use xlink:href="#DejaVuSans-53"/>
       <use x="63.623047" xlink:href="#DejaVuSans-48"/>
       <use x="127.246094" xlink:href="#DejaVuSans-48"/>
      </g>
     </g>
    </g>
    <g id="ytick_3">
     <g id="line2d_17">
      <path clip-path="url(#p0369c25ca1)" d="M 53.94 347.902375 
L 853.2 347.902375 
" style="fill:none;stroke:#ffffff;stroke-linecap:round;stroke-width:0.8;"/>
     </g>
     <g id="line2d_18"/>
     <g id="text_10">
      <!-- 1000 -->
      <g style="fill:#262626;" transform="translate(24.99 351.701594)scale(0.1 -0.1)">
       <use xlink:href="#DejaVuSans-49"/>
       <use x="63.623047" xlink:href="#DejaVuSans-48"/>
       <use x="127.246094" xlink:href="#DejaVuSans-48"/>
       <use x="190.869141" xlink:href="#DejaVuSans-48"/>
      </g>
     </g>
    </g>
    <g id="ytick_4">
     <g id="line2d_19">
      <path clip-path="url(#p0369c25ca1)" d="M 53.94 289.083563 
L 853.2 289.083563 
" style="fill:none;stroke:#ffffff;stroke-linecap:round;stroke-width:0.8;"/>
     </g>
     <g id="line2d_20"/>
     <g id="text_11">
      <!-- 1500 -->
      <g style="fill:#262626;" transform="translate(24.99 292.882782)scale(0.1 -0.1)">
       <use xlink:href="#DejaVuSans-49"/>
       <use x="63.623047" xlink:href="#DejaVuSans-53"/>
       <use x="127.246094" xlink:href="#DejaVuSans-48"/>
       <use x="190.869141" xlink:href="#DejaVuSans-48"/>
      </g>
     </g>
    </g>
    <g id="ytick_5">
     <g id="line2d_21">
      <path clip-path="url(#p0369c25ca1)" d="M 53.94 230.26475 
L 853.2 230.26475 
" style="fill:none;stroke:#ffffff;stroke-linecap:round;stroke-width:0.8;"/>
     </g>
     <g id="line2d_22"/>
     <g id="text_12">
      <!-- 2000 -->
      <g style="fill:#262626;" transform="translate(24.99 234.063969)scale(0.1 -0.1)">
       <use xlink:href="#DejaVuSans-50"/>
       <use x="63.623047" xlink:href="#DejaVuSans-48"/>
       <use x="127.246094" xlink:href="#DejaVuSans-48"/>
       <use x="190.869141" xlink:href="#DejaVuSans-48"/>
      </g>
     </g>
    </g>
    <g id="ytick_6">
     <g id="line2d_23">
      <path clip-path="url(#p0369c25ca1)" d="M 53.94 171.445938 
L 853.2 171.445938 
" style="fill:none;stroke:#ffffff;stroke-linecap:round;stroke-width:0.8;"/>
     </g>
     <g id="line2d_24"/>
     <g id="text_13">
      <!-- 2500 -->
      <g style="fill:#262626;" transform="translate(24.99 175.245157)scale(0.1 -0.1)">
       <use xlink:href="#DejaVuSans-50"/>
       <use x="63.623047" xlink:href="#DejaVuSans-53"/>
       <use x="127.246094" xlink:href="#DejaVuSans-48"/>
       <use x="190.869141" xlink:href="#DejaVuSans-48"/>
      </g>
     </g>
    </g>
    <g id="ytick_7">
     <g id="line2d_25">
      <path clip-path="url(#p0369c25ca1)" d="M 53.94 112.627126 
L 853.2 112.627126 
" style="fill:none;stroke:#ffffff;stroke-linecap:round;stroke-width:0.8;"/>
     </g>
     <g id="line2d_26"/>
     <g id="text_14">
      <!-- 3000 -->
      <defs>
       <path d="M 40.578125 39.3125 
Q 47.65625 37.796875 51.625 33 
Q 55.609375 28.21875 55.609375 21.1875 
Q 55.609375 10.40625 48.1875 4.484375 
Q 40.765625 -1.421875 27.09375 -1.421875 
Q 22.515625 -1.421875 17.65625 -0.515625 
Q 12.796875 0.390625 7.625 2.203125 
L 7.625 11.71875 
Q 11.71875 9.328125 16.59375 8.109375 
Q 21.484375 6.890625 26.8125 6.890625 
Q 36.078125 6.890625 40.9375 10.546875 
Q 45.796875 14.203125 45.796875 21.1875 
Q 45.796875 27.640625 41.28125 31.265625 
Q 36.765625 34.90625 28.71875 34.90625 
L 20.21875 34.90625 
L 20.21875 43.015625 
L 29.109375 43.015625 
Q 36.375 43.015625 40.234375 45.921875 
Q 44.09375 48.828125 44.09375 54.296875 
Q 44.09375 59.90625 40.109375 62.90625 
Q 36.140625 65.921875 28.71875 65.921875 
Q 24.65625 65.921875 20.015625 65.03125 
Q 15.375 64.15625 9.8125 62.3125 
L 9.8125 71.09375 
Q 15.4375 72.65625 20.34375 73.4375 
Q 25.25 74.21875 29.59375 74.21875 
Q 40.828125 74.21875 47.359375 69.109375 
Q 53.90625 64.015625 53.90625 55.328125 
Q 53.90625 49.265625 50.4375 45.09375 
Q 46.96875 40.921875 40.578125 39.3125 
z
" id="DejaVuSans-51"/>
      </defs>
      <g style="fill:#262626;" transform="translate(24.99 116.426344)scale(0.1 -0.1)">
       <use xlink:href="#DejaVuSans-51"/>
       <use x="63.623047" xlink:href="#DejaVuSans-48"/>
       <use x="127.246094" xlink:href="#DejaVuSans-48"/>
       <use x="190.869141" xlink:href="#DejaVuSans-48"/>
      </g>
     </g>
    </g>
    <g id="ytick_8">
     <g id="line2d_27">
      <path clip-path="url(#p0369c25ca1)" d="M 53.94 53.808313 
L 853.2 53.808313 
" style="fill:none;stroke:#ffffff;stroke-linecap:round;stroke-width:0.8;"/>
     </g>
     <g id="line2d_28"/>
     <g id="text_15">
      <!-- 3500 -->
      <g style="fill:#262626;" transform="translate(24.99 57.607532)scale(0.1 -0.1)">
       <use xlink:href="#DejaVuSans-51"/>
       <use x="63.623047" xlink:href="#DejaVuSans-53"/>
       <use x="127.246094" xlink:href="#DejaVuSans-48"/>
       <use x="190.869141" xlink:href="#DejaVuSans-48"/>
      </g>
     </g>
    </g>
    <g id="text_16">
     <!-- N of particles -->
     <defs>
      <path d="M 9.8125 72.90625 
L 23.09375 72.90625 
L 55.421875 11.921875 
L 55.421875 72.90625 
L 64.984375 72.90625 
L 64.984375 0 
L 51.703125 0 
L 19.390625 60.984375 
L 19.390625 0 
L 9.8125 0 
z
" id="DejaVuSans-78"/>
      <path id="DejaVuSans-32"/>
      <path d="M 37.109375 75.984375 
L 37.109375 68.5 
L 28.515625 68.5 
Q 23.6875 68.5 21.796875 66.546875 
Q 19.921875 64.59375 19.921875 59.515625 
L 19.921875 54.6875 
L 34.71875 54.6875 
L 34.71875 47.703125 
L 19.921875 47.703125 
L 19.921875 0 
L 10.890625 0 
L 10.890625 47.703125 
L 2.296875 47.703125 
L 2.296875 54.6875 
L 10.890625 54.6875 
L 10.890625 58.5 
Q 10.890625 67.625 15.140625 71.796875 
Q 19.390625 75.984375 28.609375 75.984375 
z
" id="DejaVuSans-102"/>
      <path d="M 18.109375 8.203125 
L 18.109375 -20.796875 
L 9.078125 -20.796875 
L 9.078125 54.6875 
L 18.109375 54.6875 
L 18.109375 46.390625 
Q 20.953125 51.265625 25.265625 53.625 
Q 29.59375 56 35.59375 56 
Q 45.5625 56 51.78125 48.09375 
Q 58.015625 40.1875 58.015625 27.296875 
Q 58.015625 14.40625 51.78125 6.484375 
Q 45.5625 -1.421875 35.59375 -1.421875 
Q 29.59375 -1.421875 25.265625 0.953125 
Q 20.953125 3.328125 18.109375 8.203125 
z
M 48.6875 27.296875 
Q 48.6875 37.203125 44.609375 42.84375 
Q 40.53125 48.484375 33.40625 48.484375 
Q 26.265625 48.484375 22.1875 42.84375 
Q 18.109375 37.203125 18.109375 27.296875 
Q 18.109375 17.390625 22.1875 11.75 
Q 26.265625 6.109375 33.40625 6.109375 
Q 40.53125 6.109375 44.609375 11.75 
Q 48.6875 17.390625 48.6875 27.296875 
z
" id="DejaVuSans-112"/>
      <path d="M 34.28125 27.484375 
Q 23.390625 27.484375 19.1875 25 
Q 14.984375 22.515625 14.984375 16.5 
Q 14.984375 11.71875 18.140625 8.90625 
Q 21.296875 6.109375 26.703125 6.109375 
Q 34.1875 6.109375 38.703125 11.40625 
Q 43.21875 16.703125 43.21875 25.484375 
L 43.21875 27.484375 
z
M 52.203125 31.203125 
L 52.203125 0 
L 43.21875 0 
L 43.21875 8.296875 
Q 40.140625 3.328125 35.546875 0.953125 
Q 30.953125 -1.421875 24.3125 -1.421875 
Q 15.921875 -1.421875 10.953125 3.296875 
Q 6 8.015625 6 15.921875 
Q 6 25.140625 12.171875 29.828125 
Q 18.359375 34.515625 30.609375 34.515625 
L 43.21875 34.515625 
L 43.21875 35.40625 
Q 43.21875 41.609375 39.140625 45 
Q 35.0625 48.390625 27.6875 48.390625 
Q 23 48.390625 18.546875 47.265625 
Q 14.109375 46.140625 10.015625 43.890625 
L 10.015625 52.203125 
Q 14.9375 54.109375 19.578125 55.046875 
Q 24.21875 56 28.609375 56 
Q 40.484375 56 46.34375 49.84375 
Q 52.203125 43.703125 52.203125 31.203125 
z
" id="DejaVuSans-97"/>
      <path d="M 41.109375 46.296875 
Q 39.59375 47.171875 37.8125 47.578125 
Q 36.03125 48 33.890625 48 
Q 26.265625 48 22.1875 43.046875 
Q 18.109375 38.09375 18.109375 28.8125 
L 18.109375 0 
L 9.078125 0 
L 9.078125 54.6875 
L 18.109375 54.6875 
L 18.109375 46.1875 
Q 20.953125 51.171875 25.484375 53.578125 
Q 30.03125 56 36.53125 56 
Q 37.453125 56 38.578125 55.875 
Q 39.703125 55.765625 41.0625 55.515625 
z
" id="DejaVuSans-114"/>
      <path d="M 44.28125 53.078125 
L 44.28125 44.578125 
Q 40.484375 46.53125 36.375 47.5 
Q 32.28125 48.484375 27.875 48.484375 
Q 21.1875 48.484375 17.84375 46.4375 
Q 14.5 44.390625 14.5 40.28125 
Q 14.5 37.15625 16.890625 35.375 
Q 19.28125 33.59375 26.515625 31.984375 
L 29.59375 31.296875 
Q 39.15625 29.25 43.1875 25.515625 
Q 47.21875 21.78125 47.21875 15.09375 
Q 47.21875 7.46875 41.1875 3.015625 
Q 35.15625 -1.421875 24.609375 -1.421875 
Q 20.21875 -1.421875 15.453125 -0.5625 
Q 10.6875 0.296875 5.421875 2 
L 5.421875 11.28125 
Q 10.40625 8.6875 15.234375 7.390625 
Q 20.0625 6.109375 24.8125 6.109375 
Q 31.15625 6.109375 34.5625 8.28125 
Q 37.984375 10.453125 37.984375 14.40625 
Q 37.984375 18.0625 35.515625 20.015625 
Q 33.0625 21.96875 24.703125 23.78125 
L 21.578125 24.515625 
Q 13.234375 26.265625 9.515625 29.90625 
Q 5.8125 33.546875 5.8125 39.890625 
Q 5.8125 47.609375 11.28125 51.796875 
Q 16.75 56 26.8125 56 
Q 31.78125 56 36.171875 55.265625 
Q 40.578125 54.546875 44.28125 53.078125 
z
" id="DejaVuSans-115"/>
     </defs>
     <g style="fill:#262626;" transform="translate(18.910313 278.690781)rotate(-90)scale(0.1 -0.1)">
      <use xlink:href="#DejaVuSans-78"/>
      <use x="74.804688" xlink:href="#DejaVuSans-32"/>
      <use x="106.591797" xlink:href="#DejaVuSans-111"/>
      <use x="167.773438" xlink:href="#DejaVuSans-102"/>
      <use x="202.978516" xlink:href="#DejaVuSans-32"/>
      <use x="234.765625" xlink:href="#DejaVuSans-112"/>
      <use x="298.242188" xlink:href="#DejaVuSans-97"/>
      <use x="359.521484" xlink:href="#DejaVuSans-114"/>
      <use x="400.634766" xlink:href="#DejaVuSans-116"/>
      <use x="439.84375" xlink:href="#DejaVuSans-105"/>
      <use x="467.626953" xlink:href="#DejaVuSans-99"/>
      <use x="522.607422" xlink:href="#DejaVuSans-108"/>
      <use x="550.390625" xlink:href="#DejaVuSans-101"/>
      <use x="611.914062" xlink:href="#DejaVuSans-115"/>
     </g>
    </g>
   </g>
   <g id="patch_3">
    <path clip-path="url(#p0369c25ca1)" d="M 91.361437 465.54 
L 105.778778 465.54 
L 105.778778 463.304885 
L 91.361437 463.304885 
z
" style="fill:#1f77b4;opacity:0.5;"/>
   </g>
   <g id="patch_4">
    <path clip-path="url(#p0369c25ca1)" d="M 105.778778 465.54 
L 120.196119 465.54 
L 120.196119 460.716857 
L 105.778778 460.716857 
z
" style="fill:#1f77b4;opacity:0.5;"/>
   </g>
   <g id="patch_5">
    <path clip-path="url(#p0369c25ca1)" d="M 120.196119 465.54 
L 134.613461 465.54 
L 134.613461 455.187889 
L 120.196119 455.187889 
z
" style="fill:#1f77b4;opacity:0.5;"/>
   </g>
   <g id="patch_6">
    <path clip-path="url(#p0369c25ca1)" d="M 134.613461 465.54 
L 149.030802 465.54 
L 149.030802 447.541443 
L 134.613461 447.541443 
z
" style="fill:#1f77b4;opacity:0.5;"/>
   </g>
   <g id="patch_7">
    <path clip-path="url(#p0369c25ca1)" d="M 149.030802 465.54 
L 163.448143 465.54 
L 163.448143 437.424608 
L 149.030802 437.424608 
z
" style="fill:#1f77b4;opacity:0.5;"/>
   </g>
   <g id="patch_8">
    <path clip-path="url(#p0369c25ca1)" d="M 163.448143 465.54 
L 177.865484 465.54 
L 177.865484 421.425891 
L 163.448143 421.425891 
z
" style="fill:#1f77b4;opacity:0.5;"/>
   </g>
   <g id="patch_9">
    <path clip-path="url(#p0369c25ca1)" d="M 177.865484 465.54 
L 192.282826 465.54 
L 192.282826 399.898205 
L 177.865484 399.898205 
z
" style="fill:#1f77b4;opacity:0.5;"/>
   </g>
   <g id="patch_10">
    <path clip-path="url(#p0369c25ca1)" d="M 192.282826 465.54 
L 206.700167 465.54 
L 206.700167 382.487837 
L 192.282826 382.487837 
z
" style="fill:#1f77b4;opacity:0.5;"/>
   </g>
   <g id="patch_11">
    <path clip-path="url(#p0369c25ca1)" d="M 206.700167 465.54 
L 221.117508 465.54 
L 221.117508 363.195266 
L 206.700167 363.195266 
z
" style="fill:#1f77b4;opacity:0.5;"/>
   </g>
   <g id="patch_12">
    <path clip-path="url(#p0369c25ca1)" d="M 221.117508 465.54 
L 235.53485 465.54 
L 235.53485 338.373728 
L 221.117508 338.373728 
z
" style="fill:#1f77b4;opacity:0.5;"/>
   </g>
   <g id="patch_13">
    <path clip-path="url(#p0369c25ca1)" d="M 235.53485 465.54 
L 249.952191 465.54 
L 249.952191 311.552349 
L 235.53485 311.552349 
z
" style="fill:#1f77b4;opacity:0.5;"/>
   </g>
   <g id="patch_14">
    <path clip-path="url(#p0369c25ca1)" d="M 249.952191 465.54 
L 264.369532 465.54 
L 264.369532 286.024985 
L 249.952191 286.024985 
z
" style="fill:#1f77b4;opacity:0.5;"/>
   </g>
   <g id="patch_15">
    <path clip-path="url(#p0369c25ca1)" d="M 264.369532 465.54 
L 278.786874 465.54 
L 278.786874 254.498101 
L 264.369532 254.498101 
z
" style="fill:#1f77b4;opacity:0.5;"/>
   </g>
   <g id="patch_16">
    <path clip-path="url(#p0369c25ca1)" d="M 278.786874 465.54 
L 293.204215 465.54 
L 293.204215 229.088374 
L 278.786874 229.088374 
z
" style="fill:#1f77b4;opacity:0.5;"/>
   </g>
   <g id="patch_17">
    <path clip-path="url(#p0369c25ca1)" d="M 293.204215 465.54 
L 307.621556 465.54 
L 307.621556 210.501629 
L 293.204215 210.501629 
z
" style="fill:#1f77b4;opacity:0.5;"/>
   </g>
   <g id="patch_18">
    <path clip-path="url(#p0369c25ca1)" d="M 307.621556 465.54 
L 322.038898 465.54 
L 322.038898 180.26876 
L 307.621556 180.26876 
z
" style="fill:#1f77b4;opacity:0.5;"/>
   </g>
   <g id="patch_19">
    <path clip-path="url(#p0369c25ca1)" d="M 322.038898 465.54 
L 336.456239 465.54 
L 336.456239 154.859033 
L 322.038898 154.859033 
z
" style="fill:#1f77b4;opacity:0.5;"/>
   </g>
   <g id="patch_20">
    <path clip-path="url(#p0369c25ca1)" d="M 336.456239 465.54 
L 350.87358 465.54 
L 350.87358 143.212908 
L 336.456239 143.212908 
z
" style="fill:#1f77b4;opacity:0.5;"/>
   </g>
   <g id="patch_21">
    <path clip-path="url(#p0369c25ca1)" d="M 350.87358 465.54 
L 365.290922 465.54 
L 365.290922 120.626484 
L 350.87358 120.626484 
z
" style="fill:#1f77b4;opacity:0.5;"/>
   </g>
   <g id="patch_22">
    <path clip-path="url(#p0369c25ca1)" d="M 365.290922 465.54 
L 379.708263 465.54 
L 379.708263 77.100563 
L 365.290922 77.100563 
z
" style="fill:#1f77b4;opacity:0.5;"/>
   </g>
   <g id="patch_23">
    <path clip-path="url(#p0369c25ca1)" d="M 379.708263 465.54 
L 394.125604 465.54 
L 394.125604 73.218521 
L 379.708263 73.218521 
z
" style="fill:#1f77b4;opacity:0.5;"/>
   </g>
   <g id="patch_24">
    <path clip-path="url(#p0369c25ca1)" d="M 394.125604 465.54 
L 408.542946 465.54 
L 408.542946 59.337282 
L 394.125604 59.337282 
z
" style="fill:#1f77b4;opacity:0.5;"/>
   </g>
   <g id="patch_25">
    <path clip-path="url(#p0369c25ca1)" d="M 408.542946 465.54 
L 422.960287 465.54 
L 422.960287 46.397143 
L 408.542946 46.397143 
z
" style="fill:#1f77b4;opacity:0.5;"/>
   </g>
   <g id="patch_26">
    <path clip-path="url(#p0369c25ca1)" d="M 422.960287 465.54 
L 437.377628 465.54 
L 437.377628 57.690355 
L 422.960287 57.690355 
z
" style="fill:#1f77b4;opacity:0.5;"/>
   </g>
   <g id="patch_27">
    <path clip-path="url(#p0369c25ca1)" d="M 437.377628 465.54 
L 451.79497 465.54 
L 451.79497 62.984048 
L 437.377628 62.984048 
z
" style="fill:#1f77b4;opacity:0.5;"/>
   </g>
   <g id="patch_28">
    <path clip-path="url(#p0369c25ca1)" d="M 451.79497 465.54 
L 466.212311 465.54 
L 466.212311 64.278062 
L 451.79497 64.278062 
z
" style="fill:#1f77b4;opacity:0.5;"/>
   </g>
   <g id="patch_29">
    <path clip-path="url(#p0369c25ca1)" d="M 466.212311 465.54 
L 480.629652 465.54 
L 480.629652 78.629852 
L 466.212311 78.629852 
z
" style="fill:#1f77b4;opacity:0.5;"/>
   </g>
   <g id="patch_30">
    <path clip-path="url(#p0369c25ca1)" d="M 480.629652 465.54 
L 495.046994 465.54 
L 495.046994 72.512696 
L 480.629652 72.512696 
z
" style="fill:#1f77b4;opacity:0.5;"/>
   </g>
   <g id="patch_31">
    <path clip-path="url(#p0369c25ca1)" d="M 495.046994 465.54 
L 509.464335 465.54 
L 509.464335 72.159783 
L 495.046994 72.159783 
z
" style="fill:#1f77b4;opacity:0.5;"/>
   </g>
   <g id="patch_32">
    <path clip-path="url(#p0369c25ca1)" d="M 509.464335 465.54 
L 523.881676 465.54 
L 523.881676 68.748292 
L 509.464335 68.748292 
z
" style="fill:#1f77b4;opacity:0.5;"/>
   </g>
   <g id="patch_33">
    <path clip-path="url(#p0369c25ca1)" d="M 523.881676 465.54 
L 538.299017 465.54 
L 538.299017 79.806228 
L 523.881676 79.806228 
z
" style="fill:#1f77b4;opacity:0.5;"/>
   </g>
   <g id="patch_34">
    <path clip-path="url(#p0369c25ca1)" d="M 538.299017 465.54 
L 552.716359 465.54 
L 552.716359 88.746688 
L 538.299017 88.746688 
z
" style="fill:#1f77b4;opacity:0.5;"/>
   </g>
   <g id="patch_35">
    <path clip-path="url(#p0369c25ca1)" d="M 552.716359 465.54 
L 567.1337 465.54 
L 567.1337 66.513177 
L 552.716359 66.513177 
z
" style="fill:#1f77b4;opacity:0.5;"/>
   </g>
   <g id="patch_36">
    <path clip-path="url(#p0369c25ca1)" d="M 567.1337 465.54 
L 581.551041 465.54 
L 581.551041 81.100242 
L 567.1337 81.100242 
z
" style="fill:#1f77b4;opacity:0.5;"/>
   </g>
   <g id="patch_37">
    <path clip-path="url(#p0369c25ca1)" d="M 581.551041 465.54 
L 595.968383 465.54 
L 595.968383 80.512054 
L 581.551041 80.512054 
z
" style="fill:#1f77b4;opacity:0.5;"/>
   </g>
   <g id="patch_38">
    <path clip-path="url(#p0369c25ca1)" d="M 595.968383 465.54 
L 610.385724 465.54 
L 610.385724 76.2771 
L 595.968383 76.2771 
z
" style="fill:#1f77b4;opacity:0.5;"/>
   </g>
   <g id="patch_39">
    <path clip-path="url(#p0369c25ca1)" d="M 610.385724 465.54 
L 624.803065 465.54 
L 624.803065 85.805747 
L 610.385724 85.805747 
z
" style="fill:#1f77b4;opacity:0.5;"/>
   </g>
   <g id="patch_40">
    <path clip-path="url(#p0369c25ca1)" d="M 624.803065 465.54 
L 639.220407 465.54 
L 639.220407 121.449947 
L 624.803065 121.449947 
z
" style="fill:#1f77b4;opacity:0.5;"/>
   </g>
   <g id="patch_41">
    <path clip-path="url(#p0369c25ca1)" d="M 639.220407 465.54 
L 653.637748 465.54 
L 653.637748 152.741556 
L 639.220407 152.741556 
z
" style="fill:#1f77b4;opacity:0.5;"/>
   </g>
   <g id="patch_42">
    <path clip-path="url(#p0369c25ca1)" d="M 653.637748 465.54 
L 668.055089 465.54 
L 668.055089 190.620871 
L 653.637748 190.620871 
z
" style="fill:#1f77b4;opacity:0.5;"/>
   </g>
   <g id="patch_43">
    <path clip-path="url(#p0369c25ca1)" d="M 668.055089 465.54 
L 682.472431 465.54 
L 682.472431 227.206172 
L 668.055089 227.206172 
z
" style="fill:#1f77b4;opacity:0.5;"/>
   </g>
   <g id="patch_44">
    <path clip-path="url(#p0369c25ca1)" d="M 682.472431 465.54 
L 696.889772 465.54 
L 696.889772 263.438561 
L 682.472431 263.438561 
z
" style="fill:#1f77b4;opacity:0.5;"/>
   </g>
   <g id="patch_45">
    <path clip-path="url(#p0369c25ca1)" d="M 696.889772 465.54 
L 711.307113 465.54 
L 711.307113 298.729848 
L 696.889772 298.729848 
z
" style="fill:#1f77b4;opacity:0.5;"/>
   </g>
   <g id="patch_46">
    <path clip-path="url(#p0369c25ca1)" d="M 711.307113 465.54 
L 725.724455 465.54 
L 725.724455 337.197351 
L 711.307113 337.197351 
z
" style="fill:#1f77b4;opacity:0.5;"/>
   </g>
   <g id="patch_47">
    <path clip-path="url(#p0369c25ca1)" d="M 725.724455 465.54 
L 740.141796 465.54 
L 740.141796 367.430221 
L 725.724455 367.430221 
z
" style="fill:#1f77b4;opacity:0.5;"/>
   </g>
   <g id="patch_48">
    <path clip-path="url(#p0369c25ca1)" d="M 740.141796 465.54 
L 754.559137 465.54 
L 754.559137 397.310178 
L 740.141796 397.310178 
z
" style="fill:#1f77b4;opacity:0.5;"/>
   </g>
   <g id="patch_49">
    <path clip-path="url(#p0369c25ca1)" d="M 754.559137 465.54 
L 768.976479 465.54 
L 768.976479 430.36635 
L 754.559137 430.36635 
z
" style="fill:#1f77b4;opacity:0.5;"/>
   </g>
   <g id="patch_50">
    <path clip-path="url(#p0369c25ca1)" d="M 768.976479 465.54 
L 783.39382 465.54 
L 783.39382 448.953095 
L 768.976479 448.953095 
z
" style="fill:#1f77b4;opacity:0.5;"/>
   </g>
   <g id="patch_51">
    <path clip-path="url(#p0369c25ca1)" d="M 783.39382 465.54 
L 797.811161 465.54 
L 797.811161 461.06977 
L 783.39382 461.06977 
z
" style="fill:#1f77b4;opacity:0.5;"/>
   </g>
   <g id="patch_52">
    <path clip-path="url(#p0369c25ca1)" d="M 797.811161 465.54 
L 812.228503 465.54 
L 812.228503 464.716537 
L 797.811161 464.716537 
z
" style="fill:#1f77b4;opacity:0.5;"/>
   </g>
   <g id="patch_53">
    <path clip-path="url(#p0369c25ca1)" d="M 90.27 465.54 
L 104.802 465.54 
L 104.802 463.893073 
L 90.27 463.893073 
z
" style="fill:#ff7f0e;opacity:0.5;"/>
   </g>
   <g id="patch_54">
    <path clip-path="url(#p0369c25ca1)" d="M 104.802 465.54 
L 119.334 465.54 
L 119.334 457.305366 
L 104.802 457.305366 
z
" style="fill:#ff7f0e;opacity:0.5;"/>
   </g>
   <g id="patch_55">
    <path clip-path="url(#p0369c25ca1)" d="M 119.334 465.54 
L 133.866 465.54 
L 133.866 450.011834 
L 119.334 450.011834 
z
" style="fill:#ff7f0e;opacity:0.5;"/>
   </g>
   <g id="patch_56">
    <path clip-path="url(#p0369c25ca1)" d="M 133.866 465.54 
L 148.398 465.54 
L 148.398 435.777681 
L 133.866 435.777681 
z
" style="fill:#ff7f0e;opacity:0.5;"/>
   </g>
   <g id="patch_57">
    <path clip-path="url(#p0369c25ca1)" d="M 148.398 465.54 
L 162.93 465.54 
L 162.93 422.484629 
L 148.398 422.484629 
z
" style="fill:#ff7f0e;opacity:0.5;"/>
   </g>
   <g id="patch_58">
    <path clip-path="url(#p0369c25ca1)" d="M 162.93 465.54 
L 177.462 465.54 
L 177.462 396.016164 
L 162.93 396.016164 
z
" style="fill:#ff7f0e;opacity:0.5;"/>
   </g>
   <g id="patch_59">
    <path clip-path="url(#p0369c25ca1)" d="M 177.462 465.54 
L 191.994 465.54 
L 191.994 380.958548 
L 177.462 380.958548 
z
" style="fill:#ff7f0e;opacity:0.5;"/>
   </g>
   <g id="patch_60">
    <path clip-path="url(#p0369c25ca1)" d="M 191.994 465.54 
L 206.526 465.54 
L 206.526 351.078591 
L 191.994 351.078591 
z
" style="fill:#ff7f0e;opacity:0.5;"/>
   </g>
   <g id="patch_61">
    <path clip-path="url(#p0369c25ca1)" d="M 206.526 465.54 
L 221.058 465.54 
L 221.058 322.727923 
L 206.526 322.727923 
z
" style="fill:#ff7f0e;opacity:0.5;"/>
   </g>
   <g id="patch_62">
    <path clip-path="url(#p0369c25ca1)" d="M 221.058 465.54 
L 235.59 465.54 
L 235.59 299.435674 
L 221.058 299.435674 
z
" style="fill:#ff7f0e;opacity:0.5;"/>
   </g>
   <g id="patch_63">
    <path clip-path="url(#p0369c25ca1)" d="M 235.59 465.54 
L 250.122 465.54 
L 250.122 266.850052 
L 235.59 266.850052 
z
" style="fill:#ff7f0e;opacity:0.5;"/>
   </g>
   <g id="patch_64">
    <path clip-path="url(#p0369c25ca1)" d="M 250.122 465.54 
L 264.654 465.54 
L 264.654 231.205851 
L 250.122 231.205851 
z
" style="fill:#ff7f0e;opacity:0.5;"/>
   </g>
   <g id="patch_65">
    <path clip-path="url(#p0369c25ca1)" d="M 264.654 465.54 
L 279.186 465.54 
L 279.186 187.915205 
L 264.654 187.915205 
z
" style="fill:#ff7f0e;opacity:0.5;"/>
   </g>
   <g id="patch_66">
    <path clip-path="url(#p0369c25ca1)" d="M 279.186 465.54 
L 293.718 465.54 
L 293.718 153.329744 
L 279.186 153.329744 
z
" style="fill:#ff7f0e;opacity:0.5;"/>
   </g>
   <g id="patch_67">
    <path clip-path="url(#p0369c25ca1)" d="M 293.718 465.54 
L 308.25 465.54 
L 308.25 143.918734 
L 293.718 143.918734 
z
" style="fill:#ff7f0e;opacity:0.5;"/>
   </g>
   <g id="patch_68">
    <path clip-path="url(#p0369c25ca1)" d="M 308.25 465.54 
L 322.782 465.54 
L 322.782 127.684742 
L 308.25 127.684742 
z
" style="fill:#ff7f0e;opacity:0.5;"/>
   </g>
   <g id="patch_69">
    <path clip-path="url(#p0369c25ca1)" d="M 322.782 465.54 
L 337.314 465.54 
L 337.314 111.215474 
L 322.782 111.215474 
z
" style="fill:#ff7f0e;opacity:0.5;"/>
   </g>
   <g id="patch_70">
    <path clip-path="url(#p0369c25ca1)" d="M 337.314 465.54 
L 351.846 465.54 
L 351.846 94.863844 
L 337.314 94.863844 
z
" style="fill:#ff7f0e;opacity:0.5;"/>
   </g>
   <g id="patch_71">
    <path clip-path="url(#p0369c25ca1)" d="M 351.846 465.54 
L 366.378 465.54 
L 366.378 91.217078 
L 351.846 91.217078 
z
" style="fill:#ff7f0e;opacity:0.5;"/>
   </g>
   <g id="patch_72">
    <path clip-path="url(#p0369c25ca1)" d="M 366.378 465.54 
L 380.91 465.54 
L 380.91 61.807672 
L 366.378 61.807672 
z
" style="fill:#ff7f0e;opacity:0.5;"/>
   </g>
   <g id="patch_73">
    <path clip-path="url(#p0369c25ca1)" d="M 380.91 465.54 
L 395.442 465.54 
L 395.442 67.689553 
L 380.91 67.689553 
z
" style="fill:#ff7f0e;opacity:0.5;"/>
   </g>
   <g id="patch_74">
    <path clip-path="url(#p0369c25ca1)" d="M 395.442 465.54 
L 409.974 465.54 
L 409.974 56.631616 
L 395.442 56.631616 
z
" style="fill:#ff7f0e;opacity:0.5;"/>
   </g>
   <g id="patch_75">
    <path clip-path="url(#p0369c25ca1)" d="M 409.974 465.54 
L 424.506 465.54 
L 424.506 59.337282 
L 409.974 59.337282 
z
" style="fill:#ff7f0e;opacity:0.5;"/>
   </g>
   <g id="patch_76">
    <path clip-path="url(#p0369c25ca1)" d="M 424.506 465.54 
L 439.038 465.54 
L 439.038 60.39602 
L 424.506 60.39602 
z
" style="fill:#ff7f0e;opacity:0.5;"/>
   </g>
   <g id="patch_77">
    <path clip-path="url(#p0369c25ca1)" d="M 439.038 465.54 
L 453.57 465.54 
L 453.57 63.572236 
L 439.038 63.572236 
z
" style="fill:#ff7f0e;opacity:0.5;"/>
   </g>
   <g id="patch_78">
    <path clip-path="url(#p0369c25ca1)" d="M 453.57 465.54 
L 468.102 465.54 
L 468.102 64.160424 
L 453.57 64.160424 
z
" style="fill:#ff7f0e;opacity:0.5;"/>
   </g>
   <g id="patch_79">
    <path clip-path="url(#p0369c25ca1)" d="M 468.102 465.54 
L 482.634 465.54 
L 482.634 73.924347 
L 468.102 73.924347 
z
" style="fill:#ff7f0e;opacity:0.5;"/>
   </g>
   <g id="patch_80">
    <path clip-path="url(#p0369c25ca1)" d="M 482.634 465.54 
L 497.166 465.54 
L 497.166 72.27742 
L 482.634 72.27742 
z
" style="fill:#ff7f0e;opacity:0.5;"/>
   </g>
   <g id="patch_81">
    <path clip-path="url(#p0369c25ca1)" d="M 497.166 465.54 
L 511.698 465.54 
L 511.698 77.571113 
L 497.166 77.571113 
z
" style="fill:#ff7f0e;opacity:0.5;"/>
   </g>
   <g id="patch_82">
    <path clip-path="url(#p0369c25ca1)" d="M 511.698 465.54 
L 526.23 465.54 
L 526.23 69.689393 
L 511.698 69.689393 
z
" style="fill:#ff7f0e;opacity:0.5;"/>
   </g>
   <g id="patch_83">
    <path clip-path="url(#p0369c25ca1)" d="M 526.23 465.54 
L 540.762 465.54 
L 540.762 84.982284 
L 526.23 84.982284 
z
" style="fill:#ff7f0e;opacity:0.5;"/>
   </g>
   <g id="patch_84">
    <path clip-path="url(#p0369c25ca1)" d="M 540.762 465.54 
L 555.294 465.54 
L 555.294 86.15866 
L 540.762 86.15866 
z
" style="fill:#ff7f0e;opacity:0.5;"/>
   </g>
   <g id="patch_85">
    <path clip-path="url(#p0369c25ca1)" d="M 555.294 465.54 
L 569.826 465.54 
L 569.826 90.040702 
L 555.294 90.040702 
z
" style="fill:#ff7f0e;opacity:0.5;"/>
   </g>
   <g id="patch_86">
    <path clip-path="url(#p0369c25ca1)" d="M 569.826 465.54 
L 584.358 465.54 
L 584.358 100.275175 
L 569.826 100.275175 
z
" style="fill:#ff7f0e;opacity:0.5;"/>
   </g>
   <g id="patch_87">
    <path clip-path="url(#p0369c25ca1)" d="M 584.358 465.54 
L 598.89 465.54 
L 598.89 112.274213 
L 584.358 112.274213 
z
" style="fill:#ff7f0e;opacity:0.5;"/>
   </g>
   <g id="patch_88">
    <path clip-path="url(#p0369c25ca1)" d="M 598.89 465.54 
L 613.422 465.54 
L 613.422 139.448504 
L 598.89 139.448504 
z
" style="fill:#ff7f0e;opacity:0.5;"/>
   </g>
   <g id="patch_89">
    <path clip-path="url(#p0369c25ca1)" d="M 613.422 465.54 
L 627.954 465.54 
L 627.954 142.036532 
L 613.422 142.036532 
z
" style="fill:#ff7f0e;opacity:0.5;"/>
   </g>
   <g id="patch_90">
    <path clip-path="url(#p0369c25ca1)" d="M 627.954 465.54 
L 642.486 465.54 
L 642.486 169.093186 
L 627.954 169.093186 
z
" style="fill:#ff7f0e;opacity:0.5;"/>
   </g>
   <g id="patch_91">
    <path clip-path="url(#p0369c25ca1)" d="M 642.486 465.54 
L 657.018 465.54 
L 657.018 220.618465 
L 642.486 220.618465 
z
" style="fill:#ff7f0e;opacity:0.5;"/>
   </g>
   <g id="patch_92">
    <path clip-path="url(#p0369c25ca1)" d="M 657.018 465.54 
L 671.55 465.54 
L 671.55 274.614135 
L 657.018 274.614135 
z
" style="fill:#ff7f0e;opacity:0.5;"/>
   </g>
   <g id="patch_93">
    <path clip-path="url(#p0369c25ca1)" d="M 671.55 465.54 
L 686.082 465.54 
L 686.082 307.905583 
L 671.55 307.905583 
z
" style="fill:#ff7f0e;opacity:0.5;"/>
   </g>
   <g id="patch_94">
    <path clip-path="url(#p0369c25ca1)" d="M 686.082 465.54 
L 700.614 465.54 
L 700.614 333.197672 
L 686.082 333.197672 
z
" style="fill:#ff7f0e;opacity:0.5;"/>
   </g>
   <g id="patch_95">
    <path clip-path="url(#p0369c25ca1)" d="M 700.614 465.54 
L 715.146 465.54 
L 715.146 346.843637 
L 700.614 346.843637 
z
" style="fill:#ff7f0e;opacity:0.5;"/>
   </g>
   <g id="patch_96">
    <path clip-path="url(#p0369c25ca1)" d="M 715.146 465.54 
L 729.678 465.54 
L 729.678 360.254326 
L 715.146 360.254326 
z
" style="fill:#ff7f0e;opacity:0.5;"/>
   </g>
   <g id="patch_97">
    <path clip-path="url(#p0369c25ca1)" d="M 729.678 465.54 
L 744.21 465.54 
L 744.21 399.427655 
L 729.678 399.427655 
z
" style="fill:#ff7f0e;opacity:0.5;"/>
   </g>
   <g id="patch_98">
    <path clip-path="url(#p0369c25ca1)" d="M 744.21 465.54 
L 758.742 465.54 
L 758.742 420.367152 
L 744.21 420.367152 
z
" style="fill:#ff7f0e;opacity:0.5;"/>
   </g>
   <g id="patch_99">
    <path clip-path="url(#p0369c25ca1)" d="M 758.742 465.54 
L 773.274 465.54 
L 773.274 437.189332 
L 758.742 437.189332 
z
" style="fill:#ff7f0e;opacity:0.5;"/>
   </g>
   <g id="patch_100">
    <path clip-path="url(#p0369c25ca1)" d="M 773.274 465.54 
L 787.806 465.54 
L 787.806 450.482384 
L 773.274 450.482384 
z
" style="fill:#ff7f0e;opacity:0.5;"/>
   </g>
   <g id="patch_101">
    <path clip-path="url(#p0369c25ca1)" d="M 787.806 465.54 
L 802.338 465.54 
L 802.338 459.540481 
L 787.806 459.540481 
z
" style="fill:#ff7f0e;opacity:0.5;"/>
   </g>
   <g id="patch_102">
    <path clip-path="url(#p0369c25ca1)" d="M 802.338 465.54 
L 816.87 465.54 
L 816.87 463.54016 
L 802.338 463.54016 
z
" style="fill:#ff7f0e;opacity:0.5;"/>
   </g>
   <g id="patch_103">
    <path d="M 53.94 465.54 
L 53.94 25.44 
" style="fill:none;"/>
   </g>
   <g id="patch_104">
    <path d="M 853.2 465.54 
L 853.2 25.44 
" style="fill:none;"/>
   </g>
   <g id="patch_105">
    <path d="M 53.94 465.54 
L 853.2 465.54 
" style="fill:none;"/>
   </g>
   <g id="patch_106">
    <path d="M 53.94 25.44 
L 853.2 25.44 
" style="fill:none;"/>
   </g>
   <g id="text_17">
    <!-- Velocity distribution at t=1.11 -->
    <defs>
     <path d="M 45.40625 46.390625 
L 45.40625 75.984375 
L 54.390625 75.984375 
L 54.390625 0 
L 45.40625 0 
L 45.40625 8.203125 
Q 42.578125 3.328125 38.25 0.953125 
Q 33.9375 -1.421875 27.875 -1.421875 
Q 17.96875 -1.421875 11.734375 6.484375 
Q 5.515625 14.40625 5.515625 27.296875 
Q 5.515625 40.1875 11.734375 48.09375 
Q 17.96875 56 27.875 56 
Q 33.9375 56 38.25 53.625 
Q 42.578125 51.265625 45.40625 46.390625 
z
M 14.796875 27.296875 
Q 14.796875 17.390625 18.875 11.75 
Q 22.953125 6.109375 30.078125 6.109375 
Q 37.203125 6.109375 41.296875 11.75 
Q 45.40625 17.390625 45.40625 27.296875 
Q 45.40625 37.203125 41.296875 42.84375 
Q 37.203125 48.484375 30.078125 48.484375 
Q 22.953125 48.484375 18.875 42.84375 
Q 14.796875 37.203125 14.796875 27.296875 
z
" id="DejaVuSans-100"/>
     <path d="M 48.6875 27.296875 
Q 48.6875 37.203125 44.609375 42.84375 
Q 40.53125 48.484375 33.40625 48.484375 
Q 26.265625 48.484375 22.1875 42.84375 
Q 18.109375 37.203125 18.109375 27.296875 
Q 18.109375 17.390625 22.1875 11.75 
Q 26.265625 6.109375 33.40625 6.109375 
Q 40.53125 6.109375 44.609375 11.75 
Q 48.6875 17.390625 48.6875 27.296875 
z
M 18.109375 46.390625 
Q 20.953125 51.265625 25.265625 53.625 
Q 29.59375 56 35.59375 56 
Q 45.5625 56 51.78125 48.09375 
Q 58.015625 40.1875 58.015625 27.296875 
Q 58.015625 14.40625 51.78125 6.484375 
Q 45.5625 -1.421875 35.59375 -1.421875 
Q 29.59375 -1.421875 25.265625 0.953125 
Q 20.953125 3.328125 18.109375 8.203125 
L 18.109375 0 
L 9.078125 0 
L 9.078125 75.984375 
L 18.109375 75.984375 
z
" id="DejaVuSans-98"/>
     <path d="M 8.5 21.578125 
L 8.5 54.6875 
L 17.484375 54.6875 
L 17.484375 21.921875 
Q 17.484375 14.15625 20.5 10.265625 
Q 23.53125 6.390625 29.59375 6.390625 
Q 36.859375 6.390625 41.078125 11.03125 
Q 45.3125 15.671875 45.3125 23.6875 
L 45.3125 54.6875 
L 54.296875 54.6875 
L 54.296875 0 
L 45.3125 0 
L 45.3125 8.40625 
Q 42.046875 3.421875 37.71875 1 
Q 33.40625 -1.421875 27.6875 -1.421875 
Q 18.265625 -1.421875 13.375 4.4375 
Q 8.5 10.296875 8.5 21.578125 
z
M 31.109375 56 
z
" id="DejaVuSans-117"/>
     <path d="M 54.890625 33.015625 
L 54.890625 0 
L 45.90625 0 
L 45.90625 32.71875 
Q 45.90625 40.484375 42.875 44.328125 
Q 39.84375 48.1875 33.796875 48.1875 
Q 26.515625 48.1875 22.3125 43.546875 
Q 18.109375 38.921875 18.109375 30.90625 
L 18.109375 0 
L 9.078125 0 
L 9.078125 54.6875 
L 18.109375 54.6875 
L 18.109375 46.1875 
Q 21.34375 51.125 25.703125 53.5625 
Q 30.078125 56 35.796875 56 
Q 45.21875 56 50.046875 50.171875 
Q 54.890625 44.34375 54.890625 33.015625 
z
" id="DejaVuSans-110"/>
     <path d="M 10.59375 45.40625 
L 73.1875 45.40625 
L 73.1875 37.203125 
L 10.59375 37.203125 
z
M 10.59375 25.484375 
L 73.1875 25.484375 
L 73.1875 17.1875 
L 10.59375 17.1875 
z
" id="DejaVuSans-61"/>
    </defs>
    <g style="fill:#262626;" transform="translate(363.350625 19.44)scale(0.12 -0.12)">
     <use xlink:href="#DejaVuSans-86"/>
     <use x="60.658203" xlink:href="#DejaVuSans-101"/>
     <use x="122.181641" xlink:href="#DejaVuSans-108"/>
     <use x="149.964844" xlink:href="#DejaVuSans-111"/>
     <use x="211.146484" xlink:href="#DejaVuSans-99"/>
     <use x="266.126953" xlink:href="#DejaVuSans-105"/>
     <use x="293.910156" xlink:href="#DejaVuSans-116"/>
     <use x="333.119141" xlink:href="#DejaVuSans-121"/>
     <use x="392.298828" xlink:href="#DejaVuSans-32"/>
     <use x="424.085938" xlink:href="#DejaVuSans-100"/>
     <use x="487.5625" xlink:href="#DejaVuSans-105"/>
     <use x="515.345703" xlink:href="#DejaVuSans-115"/>
     <use x="567.445312" xlink:href="#DejaVuSans-116"/>
     <use x="606.654297" xlink:href="#DejaVuSans-114"/>
     <use x="647.767578" xlink:href="#DejaVuSans-105"/>
     <use x="675.550781" xlink:href="#DejaVuSans-98"/>
     <use x="739.027344" xlink:href="#DejaVuSans-117"/>
     <use x="802.40625" xlink:href="#DejaVuSans-116"/>
     <use x="841.615234" xlink:href="#DejaVuSans-105"/>
     <use x="869.398438" xlink:href="#DejaVuSans-111"/>
     <use x="930.580078" xlink:href="#DejaVuSans-110"/>
     <use x="993.958984" xlink:href="#DejaVuSans-32"/>
     <use x="1025.746094" xlink:href="#DejaVuSans-97"/>
     <use x="1087.025391" xlink:href="#DejaVuSans-116"/>
     <use x="1126.234375" xlink:href="#DejaVuSans-32"/>
     <use x="1158.021484" xlink:href="#DejaVuSans-116"/>
     <use x="1197.230469" xlink:href="#DejaVuSans-61"/>
     <use x="1281.019531" xlink:href="#DejaVuSans-49"/>
     <use x="1344.642578" xlink:href="#DejaVuSans-46"/>
     <use x="1376.429688" xlink:href="#DejaVuSans-49"/>
     <use x="1440.052734" xlink:href="#DejaVuSans-49"/>
    </g>
   </g>
   <g id="legend_1">
    <g id="patch_107">
     <path d="M 778.83125 42.038437 
L 798.83125 42.038437 
L 798.83125 35.038437 
L 778.83125 35.038437 
z
" style="fill:#1f77b4;opacity:0.5;"/>
    </g>
    <g id="text_18">
     <!-- Old SP -->
     <defs>
      <path d="M 39.40625 66.21875 
Q 28.65625 66.21875 22.328125 58.203125 
Q 16.015625 50.203125 16.015625 36.375 
Q 16.015625 22.609375 22.328125 14.59375 
Q 28.65625 6.59375 39.40625 6.59375 
Q 50.140625 6.59375 56.421875 14.59375 
Q 62.703125 22.609375 62.703125 36.375 
Q 62.703125 50.203125 56.421875 58.203125 
Q 50.140625 66.21875 39.40625 66.21875 
z
M 39.40625 74.21875 
Q 54.734375 74.21875 63.90625 63.9375 
Q 73.09375 53.65625 73.09375 36.375 
Q 73.09375 19.140625 63.90625 8.859375 
Q 54.734375 -1.421875 39.40625 -1.421875 
Q 24.03125 -1.421875 14.8125 8.828125 
Q 5.609375 19.09375 5.609375 36.375 
Q 5.609375 53.65625 14.8125 63.9375 
Q 24.03125 74.21875 39.40625 74.21875 
z
" id="DejaVuSans-79"/>
      <path d="M 53.515625 70.515625 
L 53.515625 60.890625 
Q 47.90625 63.578125 42.921875 64.890625 
Q 37.9375 66.21875 33.296875 66.21875 
Q 25.25 66.21875 20.875 63.09375 
Q 16.5 59.96875 16.5 54.203125 
Q 16.5 49.359375 19.40625 46.890625 
Q 22.3125 44.4375 30.421875 42.921875 
L 36.375 41.703125 
Q 47.40625 39.59375 52.65625 34.296875 
Q 57.90625 29 57.90625 20.125 
Q 57.90625 9.515625 50.796875 4.046875 
Q 43.703125 -1.421875 29.984375 -1.421875 
Q 24.8125 -1.421875 18.96875 -0.25 
Q 13.140625 0.921875 6.890625 3.21875 
L 6.890625 13.375 
Q 12.890625 10.015625 18.65625 8.296875 
Q 24.421875 6.59375 29.984375 6.59375 
Q 38.421875 6.59375 43.015625 9.90625 
Q 47.609375 13.234375 47.609375 19.390625 
Q 47.609375 24.75 44.3125 27.78125 
Q 41.015625 30.8125 33.5 32.328125 
L 27.484375 33.5 
Q 16.453125 35.6875 11.515625 40.375 
Q 6.59375 45.0625 6.59375 53.421875 
Q 6.59375 63.09375 13.40625 68.65625 
Q 20.21875 74.21875 32.171875 74.21875 
Q 37.3125 74.21875 42.625 73.28125 
Q 47.953125 72.359375 53.515625 70.515625 
z
" id="DejaVuSans-83"/>
      <path d="M 19.671875 64.796875 
L 19.671875 37.40625 
L 32.078125 37.40625 
Q 38.96875 37.40625 42.71875 40.96875 
Q 46.484375 44.53125 46.484375 51.125 
Q 46.484375 57.671875 42.71875 61.234375 
Q 38.96875 64.796875 32.078125 64.796875 
z
M 9.8125 72.90625 
L 32.078125 72.90625 
Q 44.34375 72.90625 50.609375 67.359375 
Q 56.890625 61.8125 56.890625 51.125 
Q 56.890625 40.328125 50.609375 34.8125 
Q 44.34375 29.296875 32.078125 29.296875 
L 19.671875 29.296875 
L 19.671875 0 
L 9.8125 0 
z
" id="DejaVuSans-80"/>
     </defs>
     <g style="fill:#262626;" transform="translate(806.83125 42.038437)scale(0.1 -0.1)">
      <use xlink:href="#DejaVuSans-79"/>
      <use x="78.710938" xlink:href="#DejaVuSans-108"/>
      <use x="106.494141" xlink:href="#DejaVuSans-100"/>
      <use x="169.970703" xlink:href="#DejaVuSans-32"/>
      <use x="201.757812" xlink:href="#DejaVuSans-83"/>
      <use x="265.234375" xlink:href="#DejaVuSans-80"/>
     </g>
    </g>
    <g id="patch_108">
     <path d="M 778.83125 56.716563 
L 798.83125 56.716563 
L 798.83125 49.716563 
L 778.83125 49.716563 
z
" style="fill:#ff7f0e;opacity:0.5;"/>
    </g>
    <g id="text_19">
     <!-- New SP -->
     <defs>
      <path d="M 4.203125 54.6875 
L 13.1875 54.6875 
L 24.421875 12.015625 
L 35.59375 54.6875 
L 46.1875 54.6875 
L 57.421875 12.015625 
L 68.609375 54.6875 
L 77.59375 54.6875 
L 63.28125 0 
L 52.6875 0 
L 40.921875 44.828125 
L 29.109375 0 
L 18.5 0 
z
" id="DejaVuSans-119"/>
     </defs>
     <g style="fill:#262626;" transform="translate(806.83125 56.716563)scale(0.1 -0.1)">
      <use xlink:href="#DejaVuSans-78"/>
      <use x="74.804688" xlink:href="#DejaVuSans-101"/>
      <use x="136.328125" xlink:href="#DejaVuSans-119"/>
      <use x="218.115234" xlink:href="#DejaVuSans-32"/>
      <use x="249.902344" xlink:href="#DejaVuSans-83"/>
      <use x="313.378906" xlink:href="#DejaVuSans-80"/>
     </g>
    </g>
   </g>
  </g>
 </g>
 <defs>
  <clipPath id="p0369c25ca1">
   <rect height="440.1" width="799.26" x="53.94" y="25.44"/>
  </clipPath>
 </defs>
</svg>
